<svg width="520" height="438" viewBox="0 0 520 438" fill="none" xmlns="http://www.w3.org/2000/svg">
<g id="Group">
<path id="Vector" d="M31.0293 58.4292C31.0293 58.4292 4.0946 73.8205 0.246783 112.299C-3.60103 150.777 38.7249 204.646 45.1379 253.385C51.551 302.124 0.246783 313.668 20.7685 375.233C41.2901 436.798 149.029 450.906 206.746 426.537C264.463 402.167 291.398 340.602 377.332 340.602C463.267 340.602 524.832 300.842 519.702 212.342C514.571 123.842 495.332 96.9074 426.071 45.6032C356.811 -5.70098 115.681 -28.7879 31.0293 58.4292Z" fill="#0277EB"/>
<path id="Vector_2" opacity="0.7" d="M31.0293 58.4292C31.0293 58.4292 4.0946 73.8205 0.246783 112.299C-3.60103 150.777 38.7249 204.646 45.1379 253.385C51.551 302.124 0.246783 313.668 20.7685 375.233C41.2901 436.798 149.029 450.906 206.746 426.537C264.463 402.167 291.398 340.602 377.332 340.602C463.267 340.602 524.832 300.842 519.702 212.342C514.571 123.842 495.332 96.9074 426.071 45.6032C356.811 -5.70098 115.681 -28.7879 31.0293 58.4292Z" fill="white"/>
</g>
</svg>
