<svg width="41" height="16" viewBox="0 0 41 16" fill="none" xmlns="http://www.w3.org/2000/svg">
<path id="Vector" d="M24.1565 0.00195694C23.2238 -0.0250942 22.3222 0.228699 21.5158 0.738806C20.1426 1.60444 14.1463 3.42458 10.2986 4.98453C4.2842 7.42429 -0.510289 5.79865 0.0436148 7.78369C0.597519 9.76872 7.04082 12.4622 12.5451 12.7714C18.0493 13.0792 18.8223 12.5872 21.4604 12.4416C27.4039 12.1119 23.6155 14.2154 25.7525 15.0836C27.1244 15.6401 28.6328 15.6517 30.3757 15.7444C36.6489 16.0742 37.418 16.5727 38.8543 13.6769C40.2905 10.7812 41.124 10.056 40.525 6.30102C40.5185 6.26367 40.5134 6.22631 40.5069 6.18895C39.9543 2.85007 37.4618 0.391005 34.7361 0.311139L24.1565 0.00195694Z" fill="#263238"/>
</svg>
