<svg width="294" height="96" viewBox="0 0 294 96" fill="none" xmlns="http://www.w3.org/2000/svg">
<g id="Group">
<path id="Vector" d="M7.93032 94.7754C3.91131 94.7754 0.640988 91.5051 0.640988 87.4861V7.93158C0.640988 3.91257 3.91131 0.642239 7.93032 0.642239H286.071C290.09 0.642239 293.36 3.91257 293.36 7.93158V87.4861C293.36 91.5051 290.09 94.7754 286.071 94.7754H7.93032Z" fill="#263238"/>
<path id="Vector_2" d="M286.071 1.28198C289.743 1.28198 292.719 4.25874 292.719 7.93033V87.4848C292.719 91.1564 289.743 94.1331 286.071 94.1331H7.93032C4.25873 94.1331 1.28198 91.1564 1.28198 87.4848V7.93033C1.28198 4.25874 4.25873 1.28198 7.93032 1.28198H286.071ZM286.071 0H7.93032C3.55749 0 0 3.5575 0 7.93033V87.4848C0 91.8576 3.55749 95.4151 7.93032 95.4151H286.07C290.443 95.4151 294 91.8576 294 87.4848V7.93033C294.001 3.5575 290.444 0 286.071 0Z" fill="#263238"/>
</g>
</svg>
