<svg width="38" height="56" viewBox="0 0 38 56" fill="none" xmlns="http://www.w3.org/2000/svg">
<g id="Group">
<path id="Vector" d="M4.88572 2.41737C4.88572 2.41737 1.11586 16.4197 1.92369 17.7661C2.73152 19.1125 4.61646 18.574 3.53936 21.2667C2.46225 23.9595 0.0387696 29.0757 0.577322 31.2299C1.11587 33.3841 4.07789 34.9998 4.07789 34.9998C4.07789 34.9998 5.42428 44.6937 6.77066 46.5787C8.11704 48.4636 15.3875 47.3865 15.3875 47.3865L15.9261 54.657L37.4694 53.3106L36.6616 40.3853L35.5845 0.531167L4.88572 2.41737Z" fill="white" stroke="#263238" stroke-miterlimit="10"/>
<path id="Vector_2" d="M6.85784 21.8104C6.85784 22.8965 6.45778 23.7762 5.96411 23.7762C5.47043 23.7762 5.07038 22.8965 5.07038 21.8104C5.07038 20.7243 5.47043 19.8447 5.96411 19.8447C6.45778 19.8447 6.85784 20.7256 6.85784 21.8104Z" fill="#263238"/>
</g>
</svg>
