<svg width="90" height="78" viewBox="0 0 90 78" fill="none" xmlns="http://www.w3.org/2000/svg">
<g id="Black">
<path id="Vector" d="M67.1198 0.250633C66.8737 0.391281 65.977 1.30553 65.1683 2.25493C64.3419 3.22192 63.6387 3.96034 63.5684 3.90759C63.5156 3.83727 63.4629 3.5208 63.4629 3.20433C63.4629 2.00879 62.4256 0.81324 61.2124 0.602264C59.8762 0.391281 58.3291 1.41101 58.1005 2.67689C58.0478 2.99335 58.1181 4.55811 58.2587 6.1932C58.417 7.8107 58.54 9.37546 58.54 9.65676C58.54 10.0436 58.1005 10.6941 56.5885 12.505C55.4984 13.7884 54.5666 14.9137 54.4787 15.0016C54.4084 15.0895 53.7403 14.773 52.9667 14.2807C48.9053 11.6611 44.1935 9.93807 39.2179 9.21722C36.6334 8.83043 30.7963 8.91833 28.2998 9.39304C24.5725 10.0787 20.1947 11.6962 17.0827 13.5423C7.85241 18.975 1.7516 28.0647 0.257173 38.5081C-0.0944586 40.9344 -0.0768771 45.9275 0.257173 48.3186C2.91199 66.5331 19.5441 79.5435 37.8114 77.6974C49.7844 76.4843 60.2982 69.1176 65.4848 58.3225C67.155 54.8414 68.4033 50.5163 68.6846 47.211L68.7901 45.8748H71.9724H75.137L77.7039 48.4065C79.1105 49.813 80.4818 51.0262 80.7455 51.1317C82.6795 51.8701 84.5607 50.6218 84.5607 48.5999C84.5607 47.6857 84.3673 47.2637 83.541 46.3495L83.0839 45.8748H85.5981C88.2705 45.8748 88.6748 45.7693 89.4836 44.9254C90.0814 44.2573 90.1868 42.5343 89.6594 41.6904C89.044 40.6882 88.165 40.4245 85.4574 40.4245H83.0839L83.6289 39.8443C84.3849 39.0531 84.5607 38.6312 84.5607 37.6642C84.5607 35.9764 83.1542 34.7984 81.4312 35.0621C80.6752 35.1676 80.4291 35.361 77.9677 37.8048L75.3128 40.4245H72.0603H68.8077L68.5967 38.6839C68.3505 36.8203 67.577 33.4974 67.0319 32.0557L66.6803 31.1766L69.5988 29.8228C71.1988 29.0668 72.5877 28.469 72.6756 28.469C72.7635 28.469 74.2404 28.9789 75.9809 29.6118C79.3918 30.8601 80.2357 30.9832 81.1851 30.403C82.0993 29.8404 82.4861 29.0844 82.4158 27.9416C82.3279 26.6933 81.9411 26.1483 80.7104 25.5505L79.761 25.0934L81.4136 24.3022C82.3279 23.8802 83.33 23.4055 83.6465 23.2473C84.508 22.8429 84.9651 22.0693 85.053 20.9265C85.1058 20.1178 85.053 19.8365 84.7014 19.3442C84.1915 18.6058 83.2773 18.0959 82.4158 18.0959C81.9763 18.0959 81.0268 18.43 79.6731 19.0629C78.5303 19.5903 77.5457 20.0299 77.493 20.0299C77.4402 20.0299 77.493 19.731 77.6336 19.3618C78.3369 17.3751 77.1413 15.4587 75.1898 15.4587C74.3283 15.4587 73.3965 15.8982 72.9745 16.496C72.7987 16.7421 72.1306 18.4124 71.4801 20.2057L70.3021 23.4583L67.8407 24.6011C63.9552 26.3944 64.465 26.3241 63.7969 25.2516C62.7948 23.6517 60.9135 21.2254 59.718 19.9244L58.5752 18.6937L60.7026 16.1444L62.8475 13.595L66.3463 13.2961C70.1614 12.9621 70.7944 12.7863 71.357 11.872C72.6404 9.81499 71.0581 7.336 68.667 7.63489C67.6649 7.75796 67.6297 7.88103 69.1769 6.05254C70.9878 3.92518 71.1109 3.7142 71.1109 2.64172C71.1109 1.5165 70.6537 0.69017 69.7922 0.250633C69.1417 -0.0834198 67.7352 -0.0834198 67.1198 0.250633ZM39.2706 14.773C42.7166 15.3356 47.4109 17.1465 50.0306 18.9222L50.769 19.4145L49.1866 21.2958C48.3252 22.3506 47.534 23.1946 47.4637 23.1946C47.3757 23.1946 46.8307 22.9133 46.2505 22.5792C42.9804 20.6628 39.4992 19.7134 35.2445 19.5552C30.9018 19.4145 27.6492 20.0826 23.9923 21.8584C21.4078 23.1242 19.3683 24.6187 17.2761 26.7636C13.7071 30.4382 11.6149 34.605 10.7885 39.7212C10.4545 41.7431 10.56 46.3495 10.9819 48.2483C11.6852 51.3954 13.1269 54.7183 14.9026 57.2149C17.0124 60.1862 20.476 63.1399 23.7813 64.7925C29.1261 67.5001 36.0181 67.9748 41.8903 66.076C45.2132 65.0035 48.3427 63.0871 50.9624 60.573C53.4765 58.1291 55.1644 55.6677 56.483 52.5558C57.1159 51.0613 57.8719 48.2834 58.1005 46.7011L58.206 45.8748H60.7553H63.2871V46.3846C63.2871 47.2989 62.6014 50.5163 62.0388 52.2217C61.0718 55.1754 59.3136 58.5511 57.5027 60.907C51.7887 68.3967 42.5936 72.757 33.3984 72.3526C25.7504 72.0361 19.1749 69.1352 13.795 63.7201C9.87428 59.7818 7.21947 54.8238 5.93602 49.0922C5.58438 47.5978 5.54922 46.8418 5.54922 43.3254C5.53164 39.4927 5.5668 39.1762 6.04151 37.1719C7.39529 31.4227 9.82154 27.0625 13.9532 22.9133C18.12 18.7464 22.5682 16.285 28.1943 15.0191C31.7809 14.228 35.4027 14.1401 39.2706 14.773ZM56.5533 24.6362C57.8016 26.1483 59.2433 28.1877 59.2433 28.469C59.2433 28.5218 58.2236 29.0668 56.9753 29.647L54.7073 30.7195L53.8985 29.5415C53.459 28.9086 52.7909 28.0295 52.4217 27.59L51.736 26.8164L53.3359 24.9176C54.215 23.8802 54.9886 23.0187 55.0589 23.0187C55.1292 23.0187 55.7973 23.7572 56.5533 24.6362ZM37.9872 25.3044C40.3607 25.7966 43.7715 27.168 43.7715 27.6427C43.7715 27.7306 43.121 28.5569 42.3298 29.5063C41.5387 30.4382 40.8354 31.2645 40.7651 31.3524C40.6948 31.4403 40.1321 31.2997 39.4992 31.0535C37.6356 30.2975 35.684 29.981 33.6621 30.1041C30.2161 30.2975 27.5086 31.5282 25.0472 34.0072C23.289 35.7654 22.3396 37.3301 21.6012 39.7212C21.0562 41.4442 21.021 44.9781 21.4957 46.7539C22.5682 50.5866 25.1878 53.7161 28.7393 55.3864C30.9194 56.3885 32.2732 56.6523 34.928 56.5644C36.862 56.494 37.3894 56.4061 38.7256 55.949C40.8354 55.2106 42.031 54.4546 43.7012 52.8195C45.389 51.1492 46.3912 49.5317 47.0593 47.4219L47.5516 45.8748H50.1185H52.6854L52.5447 46.7011C51.8766 50.2877 50.0657 53.681 47.3933 56.3534C41.7145 62.0322 33.4336 63.4036 26.2779 59.8521C21.0737 57.25 17.5047 52.6261 16.3443 46.9472C14.3224 36.9961 20.9155 27.2383 31.0425 25.234C32.9061 24.8472 35.9477 24.9 37.9872 25.3044ZM49.257 32.4776C49.4504 32.7941 49.591 33.0754 49.5559 33.1106C49.2042 33.3391 45.1077 35.15 44.9847 35.1149C44.9143 35.0797 45.5648 34.183 46.4615 33.1106L48.079 31.1414L48.4834 31.5282C48.7119 31.7216 49.046 32.1612 49.257 32.4776ZM61.8981 34.0424C62.2322 34.8863 63.0585 38.3499 63.1992 39.4048L63.3046 40.4245H60.7553C58.2411 40.4245 58.1884 40.4245 58.1181 40.0201C57.9774 39.2993 57.3269 36.4686 57.2038 36.0643C57.0984 35.7126 57.2742 35.5896 59.2609 34.6402C60.4564 34.06 61.4937 33.5853 61.5816 33.5853C61.652 33.5677 61.7926 33.7787 61.8981 34.0424ZM36.5103 35.8005C36.8796 35.9412 36.7213 36.1522 34.3654 38.9652C32.1501 41.6025 31.8337 42.0772 31.7282 42.7804C31.6227 43.4134 31.6754 43.7474 31.9743 44.3628C32.66 45.7517 32.7303 45.7693 37.5828 45.8748L41.8551 45.9627L41.398 46.8769C40.4838 48.7054 38.8839 50.0943 36.8092 50.8152C35.9653 51.0965 35.4555 51.1668 34.1017 51.1141C32.66 51.0613 32.2556 50.9734 31.2359 50.4987C27.9833 48.9691 26.1021 45.5407 26.6823 42.1826C27.2097 39.0883 29.425 36.6445 32.5018 35.7478C33.3632 35.5017 35.8247 35.5192 36.5103 35.8005ZM52.3689 39.0531C52.7205 40.5124 52.8612 40.4245 50.013 40.4245C48.6065 40.4245 47.4637 40.3542 47.4637 40.2838C47.4637 40.0904 51.9118 37.9807 52.0524 38.1213C52.1228 38.174 52.2458 38.596 52.3689 39.0531Z" fill="#868686"/>
</g>
</svg>
