<svg width="45" height="45" viewBox="0 0 45 45" fill="none" xmlns="http://www.w3.org/2000/svg">
<g id="Black">
<path id="Vector" d="M19.8694 0.138132C18.2808 0.532813 16.9291 1.8846 16.5738 3.46332C16.5146 3.70013 16.4653 4.26255 16.4653 4.70657V5.51566L15.9128 5.713C15.6069 5.8314 15.2319 5.98928 15.0642 6.07808L14.7682 6.23595L14.265 5.69327C13.2388 4.61776 12.2225 4.20335 10.6931 4.26255C9.7952 4.29215 9.63733 4.33162 8.93677 4.65723C8.27568 4.97297 7.97967 5.21965 6.69696 6.47276C5.88786 7.27199 5.07877 8.14029 4.91103 8.39683C4.04273 9.75848 3.99339 11.7319 4.80249 13.1231C4.94063 13.3698 5.31558 13.8434 5.63132 14.1789L6.21348 14.7808L6.06547 15.0768C5.97667 15.2445 5.81879 15.6195 5.70039 15.9254L5.50305 16.4779H4.69395C3.76645 16.4779 3.1251 16.6259 2.36534 17.0206C1.27996 17.5633 0.342596 18.8263 0.0860538 20.0893C0.00711767 20.4346 -0.0126164 21.4114 0.00711767 22.8224C0.0465858 25.299 0.135389 25.6641 0.885283 26.6607C1.76345 27.8349 2.89816 28.417 4.49661 28.496L5.49318 28.5453L5.84839 29.3938L6.20361 30.2424L5.76946 30.6075C4.12167 32.0185 3.72699 34.6628 4.88143 36.5376C5.02943 36.7645 5.80893 37.6229 6.63776 38.4419C7.83167 39.6358 8.25595 39.991 8.76903 40.2377C10.5747 41.1159 12.5284 40.8001 14.1268 39.3595L14.7781 38.7675L15.6266 39.0931L16.4653 39.4187V40.2673C16.4653 41.698 16.9093 42.7735 17.896 43.701C18.192 43.9872 18.7347 44.3523 19.0998 44.5299L19.7708 44.8456L21.9218 44.8752L24.0629 44.9048V43.4346V41.9546L22.3066 41.9151L20.5404 41.8855L20.1753 41.5994C19.6129 41.1751 19.5241 40.8593 19.5241 39.3201C19.5241 37.4157 19.3958 37.2283 17.748 36.656C17.1757 36.4586 16.3568 36.1133 15.9226 35.8962C14.3439 35.097 14.0578 35.1463 12.6665 36.508C11.5417 37.6032 11.4035 37.692 10.8411 37.692C10.2491 37.692 10.0221 37.5341 8.79863 36.2909C7.56526 35.0279 7.28898 34.6332 7.28898 34.1596C7.28898 33.6564 7.53566 33.2815 8.53223 32.2652C9.86427 30.9035 9.91361 30.6766 9.17358 29.1669C8.90717 28.6144 8.54209 27.7461 8.36449 27.233C7.7922 25.5556 7.63433 25.4569 5.66092 25.4569C4.12167 25.4569 3.80592 25.3582 3.36191 24.786L3.0955 24.4406V22.4968V20.553L3.38164 20.1879C3.80592 19.6255 4.12167 19.5367 5.66092 19.5367C7.56526 19.5367 7.75273 19.4084 8.32502 17.7606C8.52236 17.1883 8.8677 16.3694 9.08478 15.9352C9.87414 14.3762 9.82481 14.0704 8.53223 12.7383C6.82523 10.982 6.8351 10.7748 8.7493 8.85071C10.0813 7.5088 10.3576 7.30159 10.8411 7.30159C11.3246 7.30159 11.7094 7.55813 12.7158 8.54483C14.0775 9.87688 14.3242 9.92622 15.8437 9.17632C16.3962 8.90991 17.304 8.53497 17.8566 8.33763C19.4452 7.78508 19.5241 7.66667 19.5241 5.75247C19.5241 4.19348 19.6622 3.74946 20.2246 3.34492C20.5404 3.11797 20.6489 3.10811 22.3165 3.07851L24.0629 3.03904V1.51951V-3.895e-06L22.2178 0.00986215C21.1028 0.00986215 20.1654 0.0690662 19.8694 0.138132Z" fill="white"/>
<path id="Vector_2" d="M39.5049 0.108507C37.196 0.582124 35.5877 2.91074 35.9824 5.20976C36.0416 5.56497 36.081 5.87085 36.0712 5.88071C36.0613 5.88071 34.2556 7.24237 32.0553 8.89016L28.0592 11.8897L24.7044 11.9489C22.1093 11.9983 21.2114 12.0575 20.728 12.1759C17.9356 12.8863 15.8931 14.9288 15.1827 17.7014C15.0051 18.4217 14.9854 18.7868 14.9854 22.4672C14.9854 26.9073 15.0248 27.2626 15.6366 28.5946C16.7318 31.0022 18.8631 32.5907 21.4581 32.9558C21.8725 33.0052 23.5006 33.0545 25.0892 33.0545H27.9802L32.0158 36.0935C35.1535 38.4616 36.0416 39.172 36.0218 39.3201C36.012 39.4286 35.9725 39.8233 35.9429 40.2081C35.785 42.0137 36.8112 43.7503 38.5182 44.5594C40.2252 45.3784 42.2479 45.0331 43.6096 43.7109C45.435 41.9249 45.435 39.024 43.6096 37.2282C42.3565 35.985 40.3436 35.5903 38.7353 36.2711C38.3998 36.4093 38.0545 36.5376 37.9755 36.5376C37.8966 36.5474 35.9626 35.1463 33.6834 33.4393C31.4041 31.7323 29.4109 30.2424 29.2432 30.1339C28.9768 29.9562 28.7005 29.9464 25.1484 29.897L21.3397 29.8477L20.5997 29.4826C19.4058 28.8906 18.5177 27.8151 18.202 26.5916C18.0737 26.118 18.0441 25.3582 18.0441 22.5757C18.0441 20.4346 18.0836 18.9545 18.1527 18.6289C18.4881 17.0601 19.6623 15.7675 21.2114 15.284C21.7541 15.1162 22.1587 15.0965 25.2273 15.0965C27.7434 15.0866 28.74 15.057 28.9965 14.9584C29.184 14.8893 31.2659 13.3797 33.6242 11.5937L37.9064 8.35734L38.3603 8.58428C40.166 9.47231 42.2677 9.13683 43.6589 7.75545C45.9875 5.41697 45.0798 1.38135 41.9717 0.286111C41.281 0.049303 40.2055 -0.0296332 39.5049 0.108507ZM41.2218 3.34489C41.9026 3.82838 42.0802 4.69667 41.6263 5.32816C41.35 5.72284 40.6396 6.05832 40.2647 5.96952C39.4654 5.80178 38.8833 5.00255 39.0214 4.28226C39.1004 3.86784 39.7022 3.19688 40.0673 3.12782C40.4225 3.04888 40.9652 3.14755 41.2218 3.34489ZM40.906 39.0832C41.9519 39.4779 42.2085 40.8001 41.3796 41.5303C40.8962 41.9545 40.462 42.0137 39.8799 41.7276C39.5049 41.5401 39.3569 41.3823 39.1694 41.0172C38.9622 40.5929 38.9524 40.4942 39.051 40.1686C39.3174 39.251 40.1167 38.7872 40.906 39.0832Z" fill="white"/>
<path id="Vector_3" d="M39.268 18.1059C38.084 18.4414 36.9789 19.3196 36.4559 20.3655L36.1796 20.918H29.3319H22.4842V22.4968V24.0755H29.3319H36.1895L36.5052 24.6675C37.9064 27.302 41.6854 27.7658 43.7279 25.5555C45.8493 23.2664 45.1685 19.7241 42.3663 18.3822C41.7052 18.0763 41.5078 18.027 40.7086 17.9974C40.0968 17.9678 39.6232 18.0073 39.268 18.1059ZM40.827 21.1154C41.5374 21.3127 42.0012 22.0824 41.8532 22.7928C41.7742 23.2368 41.1526 23.8288 40.6987 23.9176C39.9686 24.0558 39.1792 23.4736 39.0016 22.6744C38.9029 22.2106 39.3173 21.5101 39.8502 21.2338C40.3534 20.9871 40.3731 20.9871 40.827 21.1154Z" fill="white"/>
</g>
</svg>
