<svg width="36" height="35" viewBox="0 0 36 35" fill="none" xmlns="http://www.w3.org/2000/svg">
<path id="Vector" d="M34.8623 28.6017C34.8623 28.6017 31.6479 25.8549 31.2519 24.7061C30.856 23.5574 30.8078 21.7743 29.6825 19.3349C28.5572 16.8954 24.4102 14.7269 23.1273 11.8276C21.8431 8.9284 20.1004 3.87362 19.1978 2.9007C18.2952 1.92648 17.0293 2.36279 16.5565 5.09791C16.0837 7.83173 21.2309 14.5393 21.5474 15.4588C21.8639 16.377 16.1983 14.7334 12.5567 12.3903C8.91508 10.0472 6.66577 5.16824 4.46465 2.07104C2.26353 -1.02616 0.460949 1.13849 0.509139 2.92153C0.557329 4.70457 7.14638 14.7711 8.41496 18.4466C9.68353 22.1221 13.8787 26.0737 16.27 28.0769C18.6612 30.08 23.7564 30.8927 23.7564 30.8927L27.2079 34.3299L34.8623 28.6017Z" fill="white" stroke="#263238" stroke-miterlimit="10"/>
</svg>
