<svg width="55" height="81" viewBox="0 0 55 81" fill="none" xmlns="http://www.w3.org/2000/svg">
<g id="Group">
<path id="Vector" d="M49.8274 34.9213L54.4344 24.8944C54.4344 24.8944 52.2664 21.1005 46.5755 20.0165C40.8846 18.9325 40.0716 20.0165 40.0716 20.0165L37.0906 30.3144C37.0906 30.3144 46.8465 31.1273 49.8274 34.9213Z" fill="#0277EB" stroke="#263238" stroke-miterlimit="10"/>
<path id="Vector_2" d="M42.7802 27.8754C37.9023 27.3335 34.9214 28.6884 32.7534 33.8374C31.1029 37.7578 25.843 47.013 23.4233 51.2095C22.2658 48.7048 21.3238 46.5613 20.8283 45.2192C18.9313 40.0703 5.11047 0.50352 5.11047 0.50352C2.9425 6.73644 0.50352 48.2002 0.50352 48.2002C0.50352 48.2002 10.8788 67.921 14.674 73.3461C16.9039 76.5348 18.6732 79.4874 22.76 80.0978C34.7949 81.8967 38.3901 70.5729 42.0886 62.2146C44.4256 56.9314 46.7561 51.6405 48.9254 46.2851C49.9732 43.699 51.9941 40.2355 51.9941 37.359C51.9941 33.5664 47.6582 28.4174 42.7802 27.8754Z" fill="#0277EB" stroke="#263238" stroke-miterlimit="10" stroke-linecap="round" stroke-linejoin="round"/>
<path id="Vector_3" d="M23.4233 51.2108C23.4233 51.2108 28.8446 58.8736 29.8602 62.9347" stroke="#263238" stroke-miterlimit="10" stroke-linecap="round" stroke-linejoin="round"/>
</g>
</svg>
