<svg width="193" height="186" viewBox="0 0 193 186" fill="none" xmlns="http://www.w3.org/2000/svg">
<g id="Group">
<path id="Vector" d="M60.8 139.885C71.8714 131.074 93.0612 127.918 107.108 115.044C121.155 102.17 112.162 99.1306 104.788 98.9885C97.4146 98.8466 67.5525 118.59 63.9357 112.253C60.3187 105.915 97.4531 92.5351 108.009 85.2724C118.565 78.0097 121.858 56.4876 116.365 51.7086C110.873 46.9293 104.101 59.6118 84.6112 68.7421C65.1211 77.8726 91.5483 51.6666 102.327 43.1805C113.107 34.6945 108.554 7.33778 91.856 1.17444C75.1584 -4.98891 51.5565 14.4591 49.7153 28.0285C47.8741 41.5979 61.9989 54.8804 50.4088 66.0639C38.8187 77.2475 51.7376 37.87 42.63 30.229C33.5223 22.5879 13.99 56.3525 9.73756 65.6971C5.4851 75.0418 27.1169 89.0429 36.7456 101.674C46.3742 114.306 25.528 102.974 20.019 93.9262C14.51 84.8792 1.93448 62.2396 0.103086 93.1864C-1.72831 124.133 21.2527 121.159 36.3846 132.412C36.3846 132.412 51.4906 147.293 60.8 139.885Z" fill="#A2CE99"/>
<path id="Vector_2" d="M49.1969 142.263C60.3916 150.919 68.3838 170.653 84.2493 181.243C100.115 191.832 101.015 182.445 99.4496 175.291C97.8841 168.137 71.6295 143.862 77.005 138.904C82.3802 133.946 104.079 166.715 113.638 175.23C123.197 183.745 145.052 181.95 148.467 175.541C151.881 169.132 137.886 165.524 124.431 148.812C110.976 132.101 142.771 151.564 153.58 160.012C164.39 168.461 190.15 157.74 192.331 140.189C194.512 122.639 169.994 104.341 156.269 105.7C142.543 107.059 132.79 123.77 119.149 115.163C105.508 106.555 147.09 109.928 152.474 99.3664C157.858 88.8044 120.248 77.7466 110.106 75.8003C99.9645 73.8539 91.2421 97.9812 81.0874 110.2C70.9327 122.419 77.2211 99.6675 84.8148 92.2556C92.4088 84.8437 111.691 67.4656 80.9359 72.8511C50.1803 78.2366 58.4077 99.7427 50.8771 116.958C50.8771 116.957 39.7841 134.985 49.1969 142.263Z" fill="#6EB565"/>
</g>
</svg>
