<svg width="141" height="140" viewBox="0 0 141 140" fill="none" xmlns="http://www.w3.org/2000/svg">
<g id="Group">
<path id="Vector" d="M141 81.0037V58.9491H119.089C117.825 53.4593 115.639 48.3182 112.698 43.6868L128.205 28.2938L112.496 12.696L96.9848 28.0933C92.319 25.1698 87.1394 23.0001 81.6093 21.7454V0H59.3908V21.7454C53.8603 23.0001 48.681 25.1698 44.0153 28.0933L28.5038 12.696L12.7946 28.2938L28.3017 43.6868C25.3608 48.3182 23.1752 53.4593 21.9111 58.9491H0V81.0037H21.9111C23.1752 86.4977 25.3611 91.6432 28.3017 96.2703L12.7946 111.663L28.5038 127.256L44.0153 111.859C48.681 114.783 53.8606 116.952 59.3908 118.207V139.957H81.6093V118.207C87.1397 116.952 92.319 114.783 96.9848 111.859L112.496 127.256L128.205 111.663L112.698 96.2703C115.639 91.6432 117.825 86.4977 119.089 81.0037H141ZM99.7805 83.4479C96.5677 90.3056 90.9802 95.8565 84.0712 99.0415C83.2682 99.4161 82.4472 99.7558 81.609 100.061C78.1459 101.325 74.402 102.017 70.4999 102.017C66.5978 102.017 62.8538 101.325 59.3905 100.061C58.5523 99.7561 57.7313 99.4163 56.9283 99.0415C50.0196 95.8565 44.432 90.3059 41.2191 83.4479C40.8414 82.6507 40.4991 81.836 40.192 81.0037C38.9191 77.5618 38.2211 73.8497 38.2211 69.9764C38.2211 66.1031 38.9191 62.3909 40.192 58.9491C40.4991 58.117 40.8417 57.3021 41.2191 56.5048C44.4318 49.6472 50.0196 44.0963 56.9283 40.9113C57.7313 40.5367 58.5523 40.1969 59.3905 39.8918C62.8536 38.6282 66.5978 37.9355 70.4999 37.9355C74.402 37.9355 78.1459 38.6282 81.609 39.8918C82.4472 40.1967 83.2682 40.5367 84.0712 40.9113C90.9799 44.0963 96.5675 49.6469 99.7805 56.5048C100.158 57.3021 100.5 58.1167 100.808 58.9491C102.08 62.3909 102.778 66.1031 102.778 69.9764C102.778 73.8497 102.08 77.5618 100.808 81.0037C100.5 81.8358 100.158 82.6505 99.7805 83.4479Z" fill="#4481BA"/>
<path id="Vector_2" d="M70.4997 94.5121C84.1499 94.5121 95.2156 83.528 95.2156 69.9784C95.2156 56.4288 84.1499 45.4447 70.4997 45.4447C56.8495 45.4447 45.7839 56.4288 45.7839 69.9784C45.7839 83.528 56.8495 94.5121 70.4997 94.5121Z" fill="#4481BA"/>
</g>
</svg>
