<svg width="47" height="15" viewBox="0 0 47 15" fill="none" xmlns="http://www.w3.org/2000/svg">
<path id="Vector" d="M28.1717 0.0946806C27.0947 0.102448 26.0461 0.372979 25.0946 0.877844C23.4778 1.73612 16.4873 3.65334 11.9863 5.25078C4.95179 7.74793 -0.526643 6.40029 0.04036 8.23723C0.608657 10.0742 11.5668 13.7662 17.9126 13.8568C24.2584 13.9474 27.3096 12.359 30.3478 12.4263C33.3861 12.4924 31.1414 13.9513 36.1874 14.5235C41.2335 15.0957 42.8879 15.1073 44.6498 12.3487C46.4129 9.59004 47.4006 8.88191 46.8453 5.39186C46.8401 5.35691 46.8336 5.32197 46.8285 5.28832C46.3094 2.18533 43.5209 -0.0231188 40.3752 0.000182657L28.1717 0.0946806Z" fill="#263238"/>
</svg>
