<svg width="169" height="167" viewBox="0 0 169 167" fill="none" xmlns="http://www.w3.org/2000/svg">
<path id="Vector" d="M168.245 96.6554V70.3392H142.1C140.592 63.7888 137.984 57.6541 134.475 52.128L152.978 33.7608L134.234 15.1491L115.725 33.5216C110.158 30.0332 103.978 27.4443 97.3788 25.9471V0H70.8671V25.9471C64.2682 27.4443 58.0881 30.0332 52.5205 33.5216L34.0118 15.1491L15.2672 33.7608L33.7706 52.128C30.2616 57.6544 27.6533 63.7888 26.1451 70.3392H0V96.6554H26.1451C27.6533 103.211 30.2616 109.351 33.7706 114.872L15.2672 133.239L34.0118 151.845L52.5205 133.473C58.0878 136.961 64.2679 139.55 70.8671 141.048V167H97.3788V141.048C103.978 139.55 110.158 136.961 115.725 133.473L134.234 151.845L152.978 133.239L134.475 114.872C137.984 109.351 140.592 103.211 142.1 96.6554H168.245ZM119.061 99.5717C115.228 107.755 108.56 114.378 100.317 118.178C99.3584 118.625 98.3788 119.031 97.3785 119.395C93.2461 120.902 88.7788 121.729 84.1228 121.729C79.4668 121.729 74.9993 120.902 70.8671 119.395C69.8669 119.031 68.8875 118.625 67.9289 118.178C59.6853 114.378 53.018 107.755 49.1844 99.5717C48.7339 98.6204 48.3253 97.6481 47.9587 96.6551C46.4399 92.5481 45.6072 88.1188 45.6072 83.497C45.6072 78.8754 46.4401 74.446 47.9587 70.339C48.3253 69.346 48.7339 68.3739 49.1844 67.4224C53.018 59.2396 59.6853 52.6165 67.9289 48.816C68.8872 48.369 69.8669 47.9635 70.8671 47.5994C74.9995 46.0917 79.4668 45.265 84.1228 45.265C88.7788 45.265 93.2464 46.0917 97.3785 47.5994C98.3788 47.9633 99.3582 48.3688 100.317 48.816C108.56 52.6163 115.228 59.2396 119.061 67.4224C119.512 68.3737 119.92 69.346 120.287 70.339C121.806 74.446 122.638 78.8754 122.638 83.497C122.638 88.1188 121.806 92.5479 120.287 96.6551C119.92 97.6483 119.512 98.6204 119.061 99.5717Z" fill="#699EC9"/>
</svg>
