<svg width="243" height="93" viewBox="0 0 243 93" fill="none" xmlns="http://www.w3.org/2000/svg">
<g id="Group">
<path id="Vector" d="M233.299 0C230.802 2.58718 227.432 4.32823 223.689 4.69801C218.656 5.19619 214.059 3.2895 210.888 0H204.193C204.255 0.101433 204.308 0.209292 204.37 0.309441L201.904 2.77592C200.96 3.71963 200.96 5.24883 201.904 6.19254L205.098 9.38703C206.042 10.3307 207.571 10.3307 208.515 9.38703L210.982 6.92054C212.936 8.14801 215.106 9.05962 217.423 9.58861V13.0758C217.423 14.4099 218.504 15.4923 219.84 15.4923H224.358C225.692 15.4923 226.774 14.4112 226.774 13.0758V9.58861C229.092 9.05962 231.262 8.14801 233.215 6.92054L235.681 9.38703C236.625 10.3307 238.155 10.3307 239.098 9.38703L242.292 6.19254C243.236 5.24883 243.236 3.71963 242.292 2.77592L239.826 0.309441C239.889 0.209292 239.941 0.101433 240.003 0H233.299Z" fill="#0277EB"/>
<path id="Vector_2" d="M118.941 91.7967H115.454C114.925 89.4791 114.013 87.3093 112.786 85.3551L115.252 82.8886C116.196 81.9449 116.196 80.4157 115.252 79.472L112.058 76.2775C111.114 75.3338 109.585 75.3338 108.641 76.2775L106.175 78.744C104.22 77.5165 102.05 76.6049 99.7329 76.0759V72.5886C99.7329 71.2546 98.6518 70.1723 97.3165 70.1723H92.7982C91.4642 70.1723 90.3818 71.2546 90.3818 72.5886V76.0759C88.0643 76.6049 85.8944 77.5165 83.9402 78.744L81.4737 76.2775C80.53 75.3338 79.0008 75.3338 78.0571 76.2775L74.8626 79.472C73.9189 80.4157 73.9189 81.9449 74.8626 82.8886L77.3291 85.3551C76.1016 87.3093 75.19 89.4791 74.661 91.7967H71.1738C70.2853 91.7967 69.5175 92.2807 69.0976 92.9946H79.8739C81.3376 86.5941 86.8163 81.6252 93.4672 80.9665C101.566 80.164 108.546 85.5733 110.24 92.9946H121.017C120.597 92.282 119.829 91.7967 118.941 91.7967Z" fill="#0277EB"/>
<path id="Vector_3" d="M3.58738 64.0516H8.10563C9.43966 64.0516 10.522 62.9705 10.522 61.6352V58.1479C12.8396 57.6189 15.0095 56.7073 16.9637 55.4786L19.4302 57.945C20.3739 58.8887 21.9031 58.8887 22.8468 57.945L26.0413 54.7506C26.985 53.8068 26.985 52.2776 26.0413 51.3339L23.5748 48.8675C24.8022 46.9133 25.7139 44.7434 26.2429 42.4258H29.7301C31.0641 42.4258 32.1465 41.3434 32.1465 40.0094V35.4912C32.1465 34.1571 31.0654 33.0747 29.7301 33.0747H26.2429C25.7139 30.7572 24.8022 28.5873 23.5748 26.6331L26.0413 24.1666C26.985 23.2229 26.985 21.6937 26.0413 20.75L22.8468 17.5555C21.9031 16.6118 20.3739 16.6118 19.4302 17.5555L16.9637 20.022C15.0095 18.7945 12.8396 17.8829 10.522 17.3539V13.8667C10.522 12.5327 9.44095 11.4503 8.10563 11.4503H3.58738C2.25335 11.4503 1.17097 12.5314 1.17097 13.8667V17.3539C0.774231 17.4451 0.387756 17.562 0 17.6737V23.3128C1.34045 22.7658 2.76694 22.3922 4.25633 22.2458C14.112 21.27 22.3281 29.4848 21.3522 39.3418C20.6294 46.6359 14.7309 52.5344 7.43669 53.2573C4.78788 53.5192 2.26619 53.1007 0.00128325 52.1813V57.8282C0.389039 57.9412 0.775514 58.058 1.17226 58.1479V61.6352C1.17097 62.9692 2.25206 64.0516 3.58738 64.0516Z" fill="#0277EB"/>
</g>
</svg>
