<svg width="55" height="52" viewBox="0 0 55 52" fill="none" xmlns="http://www.w3.org/2000/svg">
<g id="Black">
<path id="Vector" d="M25.5368 0.118938C21.704 0.857647 18.685 3.6519 17.6679 7.40969C17.3146 8.6837 17.2611 10.7392 17.5394 12.0668C18.5137 16.7881 22.5819 20.0962 27.4103 20.0962C32.0353 20.0962 35.943 17.0879 37.1741 12.5914C37.5274 11.296 37.5274 8.78005 37.1741 7.48463C36.2106 3.93026 33.5234 1.24306 30.0226 0.290232C28.9413 -0.00953409 26.6395 -0.0951821 25.5368 0.118938ZM29.7121 2.11024C31.1574 2.55989 32.0781 3.13802 33.1915 4.25143C34.3264 5.37556 34.8831 6.29627 35.3541 7.7844C35.5683 8.46958 35.6004 8.80146 35.5897 10.0862C35.5897 11.4137 35.5575 11.6814 35.3006 12.4415C34.1551 15.846 31.2966 18.0728 27.8386 18.2441C24.0486 18.4368 20.7619 16.1457 19.52 12.4415C19.2631 11.6814 19.231 11.4137 19.231 10.0862C19.2203 8.36252 19.3916 7.62381 20.1624 6.12498C20.7833 4.9152 22.3036 3.40567 23.5026 2.78472C25.0871 1.98177 25.9329 1.78907 27.678 1.83189C28.6201 1.86401 29.1554 1.93895 29.7121 2.11024Z" fill="white"/>
<path id="Vector_2" d="M30.8576 7.10994C30.7827 7.13135 29.7335 7.97712 28.513 8.96207L26.3076 10.7714L25.5903 9.78643C25.0015 8.96207 24.8195 8.78007 24.4983 8.70512C24.0379 8.58736 23.6097 8.81218 23.4491 9.24042C23.2778 9.66866 23.4063 9.93631 24.509 11.4458C25.5689 12.9019 25.8365 13.1267 26.3504 12.9982C26.5967 12.934 31.5642 8.95136 31.9389 8.51242C32.4849 7.87006 31.6606 6.78876 30.8576 7.10994Z" fill="white"/>
<path id="Vector_3" d="M8.17163 17.5054C8.06457 17.6018 6.18032 20.8029 3.99631 24.6035C-0.146897 31.7658 -0.232545 31.9478 0.142163 32.4295C0.206399 32.5259 1.69453 33.4359 3.4396 34.4315C7.05821 36.5192 7.19739 36.562 7.73268 35.7591C7.88257 35.5235 7.88257 35.5235 9.54199 36.4764L11.1907 37.4399L11.2014 38.3178C11.2121 39.3777 11.4369 39.9665 12.1007 40.6945C12.636 41.2726 13.4282 41.6795 14.2205 41.7758L14.7772 41.8508V42.2469C14.7772 43.7136 16.169 45.1375 17.7642 45.3302L18.278 45.3837L18.3423 45.9511C18.5029 47.557 19.8411 48.7668 21.5434 48.8739L22.357 48.9167L22.539 49.3985C23.0101 50.6296 24.3804 51.3898 25.6973 51.1435C26.1255 51.0686 26.2112 51.09 26.5002 51.3255C27.0141 51.7645 27.6243 52 28.2667 52C29.0589 52 29.5621 51.8394 30.1081 51.4326C30.5471 51.1007 31.1466 50.1907 31.1573 49.8588C31.1573 49.7303 31.3179 49.6982 31.9495 49.6875C32.5812 49.6875 32.8488 49.6233 33.3306 49.3877C34.4226 48.8632 35.2256 47.6855 35.2256 46.6363C35.2256 46.2509 35.247 46.2295 35.6324 46.1653C36.5638 46.0261 37.1419 45.7798 37.6772 45.2981C38.2982 44.7414 38.7157 43.9491 38.8228 43.1569L38.887 42.6109L39.4544 42.5466C41.4564 42.3432 42.8161 40.2342 42.238 38.2321C42.1416 37.8896 42.0024 37.5363 41.9382 37.4613C41.874 37.3757 41.874 37.29 41.9275 37.2365C42.0346 37.1294 46.3383 34.6564 46.4133 34.6564C46.4347 34.6564 46.606 34.9347 46.7987 35.2666C46.9914 35.5985 47.2376 35.9625 47.3447 36.0695C47.7515 36.4764 48.0727 36.3372 51.3273 34.4637C53.0403 33.4787 54.5284 32.5901 54.6247 32.483C55.0958 32.0227 55.053 31.9263 50.8348 24.6035C48.6401 20.8029 46.7559 17.6018 46.6595 17.5054C46.2206 17.0665 45.8566 17.2057 42.5913 19.0899C40.889 20.0749 39.4009 20.9956 39.2938 21.1454C38.9941 21.5202 39.0262 21.745 39.4544 22.5372C39.6685 22.9119 39.8291 23.2438 39.8077 23.2545C39.6685 23.3937 38.5658 23.7363 38.2554 23.7363C38.0305 23.7363 36.1677 23.1796 34.1121 22.4944C30.5578 21.306 30.3329 21.2525 29.6906 21.306C29.1981 21.3382 28.7699 21.4773 28.1275 21.7771L27.2496 22.2053L26.2433 21.67C25.3119 21.1669 25.162 21.124 24.3697 21.0812L23.5025 21.0384L22.0037 21.7878L20.5049 22.5265L17.9033 22.6122L15.3018 22.6871L15.5159 22.2482C15.7943 21.7129 15.7943 21.4773 15.5266 21.1347C15.4089 20.9849 13.9207 20.0641 12.2292 19.0899C8.96387 17.2057 8.59987 17.0665 8.17163 17.5054ZM11.7581 20.9527C13.075 21.7129 13.4818 22.0019 13.439 22.1197C13.257 22.6122 6.58715 34.014 6.49079 34.014C6.22314 34.0033 2.19771 31.5623 2.22982 31.4232C2.26194 31.3054 6.70491 23.5757 8.53563 20.4389L9.12446 19.4432L9.5634 19.7001C9.80964 19.8393 10.7946 20.396 11.7581 20.9527ZM49.2397 25.5563C51.1239 28.8216 52.6334 31.5302 52.5906 31.5623C52.4407 31.7122 48.426 34.014 48.3189 34.014C48.2226 34.014 41.5528 22.5693 41.3815 22.1304C41.3387 22.0019 41.8418 21.6593 43.4906 20.7065C44.6789 20.0213 45.696 19.4967 45.7388 19.5396C45.7816 19.5824 47.3554 22.291 49.2397 25.5563ZM24.8729 23.0511L25.2048 23.2331L23.6524 24.0039C22.068 24.8069 21.447 25.2886 21.1794 25.9631C20.8689 26.7661 19.9161 30.3847 19.9161 30.7808C19.9161 31.391 20.2586 32.0227 20.7511 32.3546C21.0723 32.5687 21.4363 32.6543 22.4427 32.7935C24.7766 33.104 25.0014 32.9862 26.2433 30.9628C27.2818 29.2606 27.4423 29.1428 28.5665 29.2606C28.9626 29.2927 29.3801 29.3783 29.4979 29.4426C29.6049 29.4961 30.7719 30.3526 32.078 31.3268L34.444 33.104L33.9837 33.3931C33.1807 33.8962 32.5491 35.0418 32.5491 36.016C32.5491 36.3693 32.5491 36.3693 32.0352 36.3693C31.35 36.3693 30.3222 36.8725 29.8191 37.4613C29.3801 37.9859 29.0161 38.8852 29.0161 39.474V39.9023L28.5665 39.913C28.3095 39.913 27.9348 39.9772 27.7314 40.0522C27.3781 40.1806 27.3353 40.1699 26.8321 39.7845C26.3396 39.4098 25.3761 39.0458 24.8729 39.0458C24.6802 39.0458 24.6267 38.9494 24.541 38.4034C24.252 36.7654 22.8709 35.5128 21.3614 35.5128C21.0188 35.5128 21.0188 35.5021 20.9545 34.8919C20.8582 33.8106 20.2479 32.9006 19.2523 32.3439C18.7277 32.0548 18.5992 32.0334 17.6143 32.0334C16.1797 32.0334 15.9763 32.1512 13.9207 34.1853C13 35.0953 12.2185 35.834 12.1649 35.834C12.1007 35.834 10.4948 34.9133 9.14587 34.1104L8.80328 33.9069L11.4798 29.2713C12.9465 26.734 14.1777 24.6142 14.2205 24.5714C14.2633 24.5392 15.8264 24.4643 17.6892 24.4108L21.0937 24.3251L22.4534 23.6078C23.9094 22.8477 24.3055 22.762 24.8729 23.0511ZM33.8338 24.3251C38.1483 25.7597 38.2661 25.7704 39.8505 25.2244C40.3751 25.0424 40.8248 24.9139 40.8355 24.9354C40.8569 24.9568 45.1393 32.3867 45.4605 32.9541C45.4819 32.9969 44.3899 33.6607 43.0302 34.4422L40.5571 35.8661L39.4758 34.7848C38.0948 33.4252 30.7398 27.8902 29.9797 27.6547C29.1339 27.3763 27.7207 27.3228 27.0462 27.5369C26.1897 27.8045 25.708 28.2756 24.7873 29.7851C24.3376 30.5239 23.9094 31.1234 23.8344 31.1234C23.449 31.1234 21.886 30.8772 21.811 30.8022C21.704 30.7059 22.7531 26.8945 22.9887 26.5305C23.1707 26.2415 29.4444 23.1153 29.8726 23.1046C30.0118 23.0939 31.7997 23.6506 33.8338 24.3251ZM18.3958 34.014C18.9418 34.3459 19.1881 34.8277 19.1345 35.47C19.0917 36.1659 18.9097 36.3907 16.9398 38.3178C15.2161 39.9986 14.9057 40.1699 14.0706 39.8487C13.5353 39.6453 13.2141 39.292 13.0642 38.7353C12.8715 37.9966 13.0321 37.7397 14.9592 35.8019C15.9549 34.8062 16.8542 33.9498 16.9719 33.9069C17.3573 33.7464 18.0318 33.7892 18.3958 34.014ZM36.8315 34.8705C36.9813 34.9775 37.8485 35.834 38.7799 36.7654C40.1717 38.1679 40.4608 38.5212 40.525 38.8531C40.7927 40.3091 39.2296 41.3155 38.0519 40.4483C37.8271 40.2877 36.9278 39.4205 36.0606 38.5426C34.7652 37.2258 34.4762 36.8725 34.4226 36.5406C34.155 35.1381 35.7073 34.0675 36.8315 34.8705ZM21.7789 37.4827C22.4748 37.7718 22.8816 38.6069 22.6782 39.3349C22.539 39.8702 19.2095 43.2639 18.6528 43.4459C17.9462 43.6815 17.0897 43.3389 16.7578 42.6858C16.5544 42.2897 16.5544 41.5831 16.7471 41.2084C16.9612 40.8016 20.2372 37.5791 20.5584 37.4506C20.9438 37.3007 21.3721 37.3114 21.7789 37.4827ZM33.1379 38.3606C33.3306 38.4463 34.2299 39.2813 35.1506 40.202C37.0777 42.1612 37.2383 42.4396 36.8743 43.2961C36.6495 43.8528 36.2855 44.1632 35.7502 44.281C34.9793 44.4523 34.7652 44.3131 32.9024 42.4503C31.9388 41.4975 31.0717 40.5767 30.986 40.4162C30.4935 39.4847 31.2858 38.1893 32.3564 38.1893C32.5919 38.1893 32.9452 38.2643 33.1379 38.3606ZM25.3011 41.0157C26.072 41.3369 26.5002 42.2469 26.2219 42.9642C26.0613 43.371 22.8388 46.6791 22.357 46.9254C21.4791 47.375 20.3336 46.7648 20.173 45.7691C20.0552 45.0411 20.1837 44.8377 22.0358 42.9642C24.1556 40.8337 24.4447 40.6517 25.3011 41.0157ZM29.53 41.8722C29.8726 42.0542 33.1165 45.3195 33.2878 45.6514C33.352 45.7798 33.4056 46.101 33.4056 46.358C33.4056 47.0003 33.063 47.4928 32.4206 47.7604C31.9817 47.9424 31.8532 47.9532 31.4785 47.8354C31.243 47.7711 30.879 47.5677 30.6755 47.3857C30.3115 47.0646 30.3115 47.0646 30.3758 46.3258C30.4186 45.8548 30.3865 45.4051 30.3008 45.0947C30.1081 44.4095 29.3801 43.6279 28.6628 43.3282L28.1061 43.0926L28.1489 42.4931C28.1596 42.1612 28.2346 41.8508 28.3095 41.8079C28.5129 41.6688 29.2195 41.7116 29.53 41.8722ZM28.2774 45.2445C28.5129 45.4801 28.5879 45.6621 28.5879 45.9618C28.5879 46.3366 28.4808 46.465 27.1319 47.8354C26.3289 48.6383 25.5688 49.3235 25.4403 49.3449C24.7551 49.4627 24.1984 49.0023 24.1984 48.3279C24.1984 47.9103 24.2627 47.8247 25.6759 46.4115C27.0569 45.0304 27.1747 44.9341 27.5601 44.9341C27.8599 44.9341 28.0419 45.009 28.2774 45.2445ZM29.3908 49.3235C29.2516 49.9552 28.4701 50.3513 27.9241 50.0622C27.7207 49.9552 27.7528 49.9016 28.438 49.2057L29.166 48.467L29.3159 48.7454C29.4015 48.906 29.4336 49.1415 29.3908 49.3235Z" fill="white"/>
</g>
</svg>
