<svg width="45" height="46" viewBox="0 0 45 46" fill="none" xmlns="http://www.w3.org/2000/svg">
<g id="Black">
<path id="Vector" d="M33.9682 0.139877C32.2603 0.706163 30.9929 2.1803 30.7412 3.88815C30.6334 4.66118 30.6244 6.18026 30.7323 6.18026C30.7682 6.18026 30.8761 6.00049 30.957 5.78476C31.1637 5.24544 31.8648 4.59826 32.3952 4.45444C32.7997 4.34657 32.8895 4.23871 32.7277 4.05894C32.6738 4.01399 32.5749 3.82523 32.503 3.64546L32.3592 3.32187L33.0334 3.08816L33.7075 2.86344L33.8873 3.214C34.139 3.69939 34.5884 4.13085 35.1097 4.38253C35.4873 4.5623 35.7389 4.59826 36.9434 4.6432C38.1749 4.68814 38.3726 4.7241 38.6692 4.90387C39.0558 5.14657 39.5951 5.72184 39.685 5.9915C39.7119 6.09936 39.8018 6.18026 39.8827 6.18026C40.0086 6.18026 40.0175 6.02745 39.9726 4.93983C39.9187 3.42973 39.7389 2.79153 39.1097 1.89267C38.6063 1.18256 38.067 0.742118 37.1592 0.319651C36.5929 0.0589793 36.458 0.0320136 35.5052 0.00504741C34.6873 -0.0129299 34.3637 0.0140358 33.9682 0.139877Z" fill="white"/>
<path id="Vector_2" d="M29.2671 2.21627C26.7862 4.31062 25.5908 7.86115 26.2829 11.0791C26.6514 12.7959 27.5952 14.5397 28.7637 15.6633C29.1143 16.0049 29.1413 16.0139 29.2312 15.8431C29.4199 15.4835 30.3547 14.6656 30.8851 14.3779C31.1907 14.2251 31.6761 14.0364 31.9637 13.9734C32.4761 13.8566 32.503 13.8386 32.6469 13.4431L32.7997 13.0296L32.1525 12.3645C31.721 11.933 31.4244 11.5375 31.2806 11.2049L31.0559 10.6926L30.2019 10.6566C29.2132 10.6117 28.8087 10.4499 28.2874 9.87461C27.6851 9.20945 27.5503 8.22968 27.9548 7.42969C28.1345 7.07913 28.7368 6.50386 29.0064 6.41397C29.1772 6.36004 29.1952 6.24319 29.2401 4.98477C29.2941 3.6185 29.4109 2.9803 29.7525 2.18031C29.8514 1.95559 29.8963 1.77582 29.8604 1.77582C29.8244 1.77582 29.5548 1.97357 29.2671 2.21627Z" fill="white"/>
<path id="Vector_3" d="M40.8445 2.0185C41.213 2.74658 41.3659 3.52859 41.4108 4.93083L41.4647 6.32407L41.6984 6.43193C42.04 6.58474 42.4984 7.05215 42.7231 7.47462C42.858 7.74428 42.9119 8.00495 42.9119 8.42742C42.9119 9.10157 42.7142 9.55999 42.2288 10.0094C41.7254 10.4858 41.3838 10.6117 40.467 10.6566L39.64 10.6926L39.3164 11.3128C39.1007 11.7173 38.7861 12.1218 38.4176 12.4723L37.8423 13.0026L38.0041 13.4251C38.1569 13.8386 38.1749 13.8566 38.6872 13.9734C39.5052 14.1622 40.2423 14.5936 40.9524 15.3217L41.5996 15.9689L42.1389 15.4026C43.1636 14.342 43.9007 12.9667 44.3231 11.3397C44.6197 10.2162 44.6197 8.21169 44.3321 7.05215C43.8557 5.12858 42.7501 3.32185 41.3569 2.17131C40.7996 1.71288 40.6647 1.67693 40.8445 2.0185Z" fill="white"/>
<path id="Vector_4" d="M33.303 5.69488C32.8895 5.78477 32.6019 5.91061 32.4491 6.05443L32.2244 6.27915L32.2334 8.04991C32.2334 9.66787 32.2513 9.86562 32.4311 10.324C32.7187 11.0431 33.2401 11.6004 33.9592 11.951C34.5075 12.2207 34.6333 12.2476 35.3704 12.2476C36.1165 12.2476 36.2243 12.2207 36.7457 11.942C37.4198 11.5735 37.8693 11.0971 38.1928 10.4139C38.4176 9.92854 38.4266 9.85663 38.4266 8.22969C38.4266 6.01847 38.5074 6.12634 36.7367 6.07241C35.703 6.03645 35.3614 5.99151 34.921 5.82971C34.1839 5.55106 34.0311 5.54208 33.303 5.69488Z" fill="white"/>
<path id="Vector_5" d="M12.8808 6.21624C12.0178 6.49488 11.2808 7.20499 10.9572 8.05891C10.7954 8.48138 10.7774 8.69711 10.8134 9.39822L10.8493 10.2432L10.0044 11.0611C9.01563 12.0139 8.27856 12.9038 7.52351 14.0454C6.57071 15.4925 5.63589 17.5599 5.25837 19.0341C5.17747 19.3577 5.09657 19.6902 5.06961 19.7711C5.02466 19.915 5.10556 19.9329 5.86061 19.9329H6.69655L7.01116 18.9172C7.39767 17.6498 8.43137 15.5824 9.23136 14.4588C9.57293 13.9914 10.292 13.1465 10.8313 12.5802L11.8201 11.5465L12.1707 11.7892C14.1392 13.1195 16.9167 11.6544 16.9346 9.26339L16.9436 8.61621L17.8874 8.34655C19.5324 7.87015 20.2964 7.76229 22.0672 7.76229C22.9571 7.7533 23.9099 7.78026 24.1885 7.81622L24.6919 7.88813L24.8806 7.09713C24.9795 6.66567 25.0514 6.30612 25.0514 6.29713C25.0424 6.28815 24.611 6.23421 24.0896 6.18028C22.8132 6.02747 20.4672 6.10837 19.1728 6.35107C18.6155 6.45893 17.7167 6.67466 17.1773 6.83645L16.1886 7.14207L15.9369 6.8814C15.4965 6.42298 14.8043 6.15332 13.9864 6.11736C13.5369 6.09938 13.1145 6.13534 12.8808 6.21624Z" fill="white"/>
<path id="Vector_6" d="M29.4199 7.83423C29.2222 8.00501 29.1682 8.12187 29.1682 8.41849C29.1682 8.9668 29.4199 9.17354 30.157 9.21848L30.7413 9.25444V8.43647V7.6185H30.2109C29.7705 7.6185 29.6267 7.65446 29.4199 7.83423Z" fill="white"/>
<path id="Vector_7" d="M39.9097 8.42742V9.2364H40.44C41.0962 9.2364 41.4108 9.01168 41.5007 8.49933C41.5456 8.21169 41.5097 8.13079 41.276 7.8881C41.0333 7.64541 40.9434 7.61844 40.458 7.61844H39.9097V8.42742Z" fill="white"/>
<path id="Vector_8" d="M20.0447 12.4274C18.5166 12.733 16.8358 13.4611 15.5504 14.369C14.6335 15.0161 13.3571 16.3105 12.7459 17.2363C12.2695 17.9464 11.5954 19.2678 11.4605 19.7262L11.4066 19.9329H14.4088H17.411L17.5998 19.2138C18.0762 17.4521 18.6515 16.1757 20.0357 13.8836C20.5391 13.0476 20.9436 12.3555 20.9436 12.3285C20.9436 12.2746 20.6829 12.3016 20.0447 12.4274Z" fill="white"/>
<path id="Vector_9" d="M23.6582 12.3465C23.6851 12.3914 24.0986 13.0926 24.584 13.9105C25.0694 14.7285 25.6806 15.8341 25.9413 16.3824C26.3997 17.3442 26.984 18.9801 27.1098 19.6183L27.1637 19.9329H30.166C31.8199 19.9329 33.1682 19.906 33.1682 19.861C33.1592 19.6992 32.9884 19.6004 32.3143 19.4116C29.5278 18.6026 27.0918 16.5442 25.7525 13.8386C25.5368 13.4072 25.339 12.9487 25.3031 12.8139C25.2492 12.6072 25.1683 12.5622 24.7818 12.4813C23.8379 12.2926 23.6132 12.2656 23.6582 12.3465Z" fill="white"/>
<path id="Vector_10" d="M21.1953 14.7015C20.611 15.6723 19.9818 16.8408 19.7841 17.2903C19.4515 18.0723 18.8492 19.843 18.9032 19.897C18.9661 19.9599 25.7076 19.9689 25.7076 19.915C25.7076 19.7172 25.0964 17.9734 24.7638 17.2184C24.4132 16.4094 22.3998 12.9218 22.2919 12.9218C22.2649 12.9218 21.7706 13.7218 21.1953 14.7015Z" fill="white"/>
<path id="Vector_11" d="M33.9772 13.9645L33.8603 14.378L34.5884 15.106L35.3255 15.8431L36.0625 15.106L36.7906 14.378L36.6738 13.9645C36.5659 13.569 36.5569 13.56 36.2783 13.6229C36.1255 13.6589 35.694 13.6858 35.3255 13.6858C34.9569 13.6858 34.5255 13.6589 34.3727 13.6229C34.094 13.56 34.085 13.569 33.9772 13.9645Z" fill="white"/>
<path id="Vector_12" d="M32.1794 15.4026C31.9098 15.4745 31.4963 15.6632 31.2626 15.807C30.8401 16.0767 30.2918 16.679 30.2918 16.8587C30.2918 17.0025 31.3435 17.5688 32.1704 17.8655C34.085 18.5666 36.494 18.5845 38.3996 17.9014C39.2176 17.6138 40.2692 17.0655 40.3322 16.9037C40.476 16.5441 39.3164 15.6273 38.4266 15.3936L37.8872 15.2587L36.6108 16.5351L35.3255 17.8205L34.0401 16.5351C33.339 15.834 32.7457 15.2587 32.7188 15.2677C32.6918 15.2677 32.4491 15.3307 32.1794 15.4026Z" fill="white"/>
<path id="Vector_13" d="M38.5434 19.3397C38.2108 19.4475 37.9142 19.5644 37.8782 19.5913C37.8513 19.6273 37.9142 20.0677 38.0131 20.5801C38.3187 22.1082 38.4176 23.5553 38.3007 24.9126C38.1928 26.0991 37.8872 27.6901 37.5816 28.58L37.4198 29.0564L36.6917 29.1103C35.7659 29.1822 35.1277 29.4789 34.5704 30.0991C33.9861 30.7463 33.7704 31.3755 33.8154 32.3373C33.8513 33.0833 33.9412 33.3889 34.3457 34.0271C34.4715 34.2339 34.4356 34.2698 33.4378 35.2406C31.9008 36.7417 30.3098 37.7934 28.3862 38.5934C27.6132 38.917 27.5952 38.9349 27.5952 39.2316C27.5952 39.6001 27.3975 40.0855 27.0918 40.49C26.8042 40.8765 26.8851 40.8675 28.0626 40.463C30.6603 39.5731 33.0873 38.0091 35.0738 35.9507L35.8558 35.1327L36.1974 35.2316C37.1142 35.4833 38.4265 35.0788 39.1097 34.3328C40.2153 33.1373 40.2512 31.3575 39.1996 30.153L38.9029 29.8204L39.0917 29.2631C40.1074 26.1351 40.2423 22.4857 39.4513 19.4565C39.3524 19.079 39.3524 19.079 38.5434 19.3397Z" fill="white"/>
<path id="Vector_14" d="M0.476399 21.506C0.323592 21.5689 0.152807 21.7037 0.0988753 21.8116C0.026966 21.9284 0 24.0588 0 28.643V35.3036H13.0785H26.157V28.616V21.9195L25.9413 21.6678L25.7256 21.4161L13.2403 21.3981C2.76851 21.3801 0.719093 21.3981 0.476399 21.506ZM10.7864 23.7531V24.5172H6.20218H1.61796V23.7531V22.9891H6.20218H10.7864V23.7531ZM4.58422 26.8542V27.5733H3.10109H1.61796V26.8542V26.1351H3.10109H4.58422V26.8542ZM13.8425 26.8542V27.5733H10.0224H6.20218V26.8542V26.1351H10.0224H13.8425V26.8542ZM15.3706 29.9104V30.6295H8.49429H1.61796V29.9104V29.1913H8.49429H15.3706V29.9104ZM3.05615 32.9665V33.6856H2.33705H1.61796V32.9665V32.2474H2.33705H3.05615V32.9665ZM6.11229 32.9665V33.6856H5.3932H4.67411V32.9665V32.2474H5.3932H6.11229V32.9665ZM9.16844 32.9665V33.6856H8.44935H7.73025V32.9665V32.2474H8.44935H9.16844V32.9665Z" fill="white"/>
<path id="Vector_15" d="M27.5413 21.6498C27.5682 21.8026 27.5952 23.2228 27.5952 24.7958V27.6632L30.3997 27.6452L33.2041 27.6182L33.33 27.2137C33.3929 26.989 33.5277 26.4138 33.6266 25.9284C33.8244 24.9216 33.8603 22.8812 33.6985 21.9374L33.5996 21.3711H30.5435H27.4873L27.5413 21.6498Z" fill="white"/>
<path id="Vector_16" d="M27.5952 31.5283C27.5952 32.8586 27.6311 33.9552 27.6671 33.9552C27.8019 33.9552 28.7997 33.317 29.4558 32.8227C30.5255 31.9957 31.5951 30.7733 32.3142 29.5238L32.5569 29.1014H30.0761H27.5952V31.5283Z" fill="white"/>
<path id="Vector_17" d="M0 38.0091C0 39.2765 0.053932 39.5462 0.350558 39.7709C0.458422 39.8608 3.3348 39.8787 13.1055 39.8877H25.7166L25.9323 39.663C26.148 39.4563 26.157 39.4113 26.157 38.09V36.7417H13.0785H0V38.0091Z" fill="white"/>
<path id="Vector_18" d="M9.16846 42.854V44.382H6.11231H3.05617V45.191V46H13.0785H23.1009V45.191V44.382H20.0447H16.9886V42.854V41.3259H13.0785H9.16846V42.854Z" fill="white"/>
</g>
</svg>
