<svg width="90" height="78" viewBox="0 0 90 78" fill="none" xmlns="http://www.w3.org/2000/svg">
<g id="Black">
<path id="Vector" d="M67.1198 0.250389C66.8737 0.391037 65.977 1.30528 65.1683 2.25468C64.3419 3.22167 63.6387 3.9601 63.5684 3.90735C63.5156 3.83702 63.4629 3.52055 63.4629 3.20409C63.4629 2.00854 62.4256 0.812996 61.2124 0.60202C59.8762 0.391037 58.3291 1.41077 58.1005 2.67664C58.0478 2.99311 58.1181 4.55787 58.2587 6.19296C58.417 7.81046 58.54 9.37521 58.54 9.65652C58.54 10.0433 58.1005 10.6938 56.5885 12.5047C55.4984 13.7882 54.5666 14.9134 54.4787 15.0013C54.4084 15.0892 53.7403 14.7728 52.9667 14.2805C48.9053 11.6608 44.1935 9.93783 39.2179 9.21698C36.6334 8.83018 30.7963 8.91809 28.2998 9.3928C24.5725 10.0785 20.1947 11.696 17.0827 13.542C7.85241 18.9747 1.7516 28.0644 0.257173 38.5079C-0.0944586 40.9341 -0.0768771 45.9273 0.257173 48.3184C2.91199 66.5329 19.5441 79.5432 37.8114 77.6971C49.7844 76.484 60.2982 69.1173 65.4848 58.3223C67.155 54.8411 68.4033 50.5161 68.6846 47.2107L68.7901 45.8745H71.9724H75.137L77.7039 48.4063C79.1105 49.8128 80.4818 51.0259 80.7455 51.1314C82.6795 51.8698 84.5607 50.6215 84.5607 48.5997C84.5607 47.6854 84.3673 47.2635 83.541 46.3492L83.0839 45.8745H85.5981C88.2705 45.8745 88.6748 45.769 89.4836 44.9251C90.0814 44.257 90.1868 42.534 89.6594 41.6901C89.044 40.688 88.165 40.4242 85.4574 40.4242H83.0839L83.6289 39.8441C84.3849 39.0529 84.5607 38.6309 84.5607 37.6639C84.5607 35.9761 83.1542 34.7981 81.4312 35.0619C80.6752 35.1674 80.4291 35.3608 77.9677 37.8046L75.3128 40.4242H72.0603H68.8077L68.5967 38.6837C68.3505 36.82 67.577 33.4971 67.0319 32.0554L66.6803 31.1763L69.5988 29.8226C71.1988 29.0666 72.5877 28.4688 72.6756 28.4688C72.7635 28.4688 74.2404 28.9787 75.9809 29.6116C79.3918 30.8599 80.2357 30.9829 81.1851 30.4028C82.0993 29.8401 82.4861 29.0841 82.4158 27.9413C82.3279 26.6931 81.9411 26.148 80.7104 25.5502L79.761 25.0931L81.4136 24.302C82.3279 23.88 83.33 23.4053 83.6465 23.2471C84.508 22.8427 84.9651 22.0691 85.053 20.9263C85.1058 20.1175 85.053 19.8362 84.7014 19.344C84.1915 18.6055 83.2773 18.0957 82.4158 18.0957C81.9763 18.0957 81.0268 18.4297 79.6731 19.0627C78.5303 19.5901 77.5457 20.0296 77.493 20.0296C77.4402 20.0296 77.493 19.7308 77.6336 19.3615C78.3369 17.3748 77.1413 15.4584 75.1898 15.4584C74.3283 15.4584 73.3965 15.898 72.9745 16.4957C72.7987 16.7419 72.1306 18.4121 71.4801 20.2055L70.3021 23.458L67.8407 24.6008C63.9552 26.3942 64.465 26.3238 63.7969 25.2514C62.7948 23.6514 60.9135 21.2252 59.718 19.9241L58.5752 18.6934L60.7026 16.1441L62.8475 13.5948L66.3463 13.2959C70.1614 12.9619 70.7944 12.786 71.357 11.8718C72.6404 9.81475 71.0581 7.33575 68.667 7.63464C67.6649 7.75771 67.6297 7.88078 69.1769 6.0523C70.9878 3.92493 71.1109 3.71395 71.1109 2.64148C71.1109 1.51626 70.6537 0.689926 69.7922 0.250389C69.1417 -0.0836639 67.7352 -0.0836639 67.1198 0.250389ZM39.2706 14.7728C42.7166 15.3354 47.4109 17.1463 50.0306 18.922L50.769 19.4143L49.1866 21.2955C48.3252 22.3504 47.534 23.1943 47.4637 23.1943C47.3757 23.1943 46.8307 22.913 46.2505 22.579C42.9804 20.6626 39.4992 19.7132 35.2445 19.5549C30.9018 19.4143 27.6492 20.0824 23.9923 21.8581C21.4078 23.124 19.3683 24.6184 17.2761 26.7634C13.7071 30.4379 11.6149 34.6048 10.7885 39.721C10.4545 41.7429 10.56 46.3492 10.9819 48.248C11.6852 51.3951 13.1269 54.7181 14.9026 57.2146C17.0124 60.1859 20.476 63.1396 23.7813 64.7923C29.1261 67.4998 36.0181 67.9745 41.8903 66.0757C45.2132 65.0033 48.3427 63.0869 50.9624 60.5727C53.4765 58.1289 55.1644 55.6675 56.483 52.5555C57.1159 51.0611 57.8719 48.2832 58.1005 46.7009L58.206 45.8745H60.7553H63.2871V46.3844C63.2871 47.2986 62.6014 50.5161 62.0388 52.2215C61.0718 55.1752 59.3136 58.5508 57.5027 60.9068C51.7887 68.3965 42.5936 72.7567 33.3984 72.3524C25.7504 72.0359 19.1749 69.1349 13.795 63.7198C9.87428 59.7815 7.21947 54.8235 5.93602 49.092C5.58438 47.5975 5.54922 46.8415 5.54922 43.3252C5.53164 39.4924 5.5668 39.176 6.04151 37.1717C7.39529 31.4225 9.82154 27.0623 13.9532 22.913C18.12 18.7462 22.5682 16.2848 28.1943 15.0189C31.7809 14.2277 35.4027 14.1398 39.2706 14.7728ZM56.5533 24.636C57.8016 26.148 59.2433 28.1875 59.2433 28.4688C59.2433 28.5215 58.2236 29.0666 56.9753 29.6468L54.7073 30.7192L53.8985 29.5413C53.459 28.9083 52.7909 28.0292 52.4217 27.5897L51.736 26.8161L53.3359 24.9173C54.215 23.88 54.9886 23.0185 55.0589 23.0185C55.1292 23.0185 55.7973 23.7569 56.5533 24.636ZM37.9872 25.3041C40.3607 25.7964 43.7715 27.1678 43.7715 27.6425C43.7715 27.7304 43.121 28.5567 42.3298 29.5061C41.5387 30.4379 40.8354 31.2643 40.7651 31.3522C40.6948 31.4401 40.1321 31.2994 39.4992 31.0533C37.6356 30.2973 35.684 29.9808 33.6621 30.1039C30.2161 30.2973 27.5086 31.528 25.0472 34.007C23.289 35.7651 22.3396 37.3299 21.6012 39.721C21.0562 41.444 21.021 44.9779 21.4957 46.7536C22.5682 50.5864 25.1878 53.7159 28.7393 55.3862C30.9194 56.3883 32.2732 56.652 34.928 56.5641C36.862 56.4938 37.3894 56.4059 38.7256 55.9488C40.8354 55.2103 42.031 54.4543 43.7012 52.8192C45.389 51.149 46.3912 49.5315 47.0593 47.4217L47.5516 45.8745H50.1185H52.6854L52.5447 46.7009C51.8766 50.2875 50.0657 53.6807 47.3933 56.3531C41.7145 62.032 33.4336 63.4033 26.2779 59.8519C21.0737 57.2498 17.5047 52.6258 16.3443 46.947C14.3224 36.9958 20.9155 27.2381 31.0425 25.2338C32.9061 24.847 35.9477 24.8997 37.9872 25.3041ZM49.257 32.4774C49.4504 32.7938 49.591 33.0752 49.5559 33.1103C49.2042 33.3389 45.1077 35.1498 44.9847 35.1146C44.9143 35.0795 45.5648 34.1828 46.4615 33.1103L48.079 31.1412L48.4834 31.528C48.7119 31.7214 49.046 32.1609 49.257 32.4774ZM61.8981 34.0421C62.2322 34.8861 63.0585 38.3496 63.1992 39.4045L63.3046 40.4242H60.7553C58.2411 40.4242 58.1884 40.4242 58.1181 40.0199C57.9774 39.299 57.3269 36.4684 57.2038 36.064C57.0984 35.7124 57.2742 35.5893 59.2609 34.6399C60.4564 34.0597 61.4937 33.585 61.5816 33.585C61.652 33.5674 61.7926 33.7784 61.8981 34.0421ZM36.5103 35.8003C36.8796 35.9409 36.7213 36.1519 34.3654 38.965C32.1501 41.6022 31.8337 42.0769 31.7282 42.7802C31.6227 43.4131 31.6754 43.7472 31.9743 44.3625C32.66 45.7515 32.7303 45.769 37.5828 45.8745L41.8551 45.9624L41.398 46.8767C40.4838 48.7052 38.8839 50.0941 36.8092 50.8149C35.9653 51.0963 35.4555 51.1666 34.1017 51.1138C32.66 51.0611 32.2556 50.9732 31.2359 50.4985C27.9833 48.9689 26.1021 45.5405 26.6823 42.1824C27.2097 39.088 29.425 36.6442 32.5018 35.7476C33.3632 35.5014 35.8247 35.519 36.5103 35.8003ZM52.3689 39.0529C52.7205 40.5122 52.8612 40.4242 50.013 40.4242C48.6065 40.4242 47.4637 40.3539 47.4637 40.2836C47.4637 40.0902 51.9118 37.9804 52.0524 38.1211C52.1228 38.1738 52.2458 38.5958 52.3689 39.0529Z" fill="#868686"/>
</g>
</svg>
