<svg width="169" height="167" viewBox="0 0 169 167" fill="none" xmlns="http://www.w3.org/2000/svg">
<path id="Vector" d="M168.247 96.6555V70.3392H142.101C140.593 63.7888 137.985 57.6541 134.476 52.128L152.979 33.7607L134.235 15.1492L115.726 33.5218C110.159 30.0333 103.978 27.4444 97.3792 25.9471V0H70.8674V25.9471C64.2684 27.4444 58.0883 30.0333 52.5207 33.5218L34.012 15.1492L15.2673 33.7607L33.7708 52.128C30.2617 57.6543 27.6537 63.7888 26.1452 70.3392H0V96.6555H26.1452C27.6535 103.211 30.2617 109.351 33.7708 114.872L15.2673 133.239L34.012 151.846L52.5207 133.473C58.088 136.962 64.2682 139.551 70.8674 141.048V167H97.3792V141.048C103.978 139.551 110.158 136.962 115.726 133.473L134.235 151.846L152.979 133.239L134.476 114.872C137.985 109.351 140.593 103.211 142.101 96.6555H168.247ZM119.062 99.5721C115.229 107.755 108.561 114.378 100.318 118.179C99.3593 118.626 98.3799 119.031 97.3794 119.395C93.247 120.903 88.7797 121.729 84.1237 121.729C79.4676 121.729 75.0001 120.903 70.8677 119.395C69.8674 119.031 68.8881 118.626 67.9295 118.179C59.6858 114.378 53.0187 107.755 49.1848 99.5721C48.7343 98.6208 48.3257 97.6485 47.9592 96.6555C46.4403 92.5485 45.6077 88.1191 45.6077 83.4975C45.6077 78.8756 46.4403 74.4465 47.9592 70.3395C48.3257 69.3465 48.7343 68.3744 49.1848 67.4229C53.0185 59.24 59.6858 52.6169 67.9295 48.8164C68.8878 48.3695 69.8672 47.9639 70.8677 47.5999C75.0001 46.0923 79.4674 45.2657 84.1237 45.2657C88.7797 45.2657 93.2473 46.0923 97.3794 47.5999C98.3797 47.9637 99.3591 48.3692 100.318 48.8164C108.561 52.6167 115.229 59.24 119.062 67.4229C119.513 68.3742 119.921 69.3465 120.288 70.3395C121.807 74.4465 122.639 78.8759 122.639 83.4975C122.639 88.1191 121.807 92.5485 120.288 96.6555C119.921 97.6485 119.513 98.6206 119.062 99.5721Z" fill="#699EC9"/>
</svg>
