<svg width="172" height="469" viewBox="0 0 172 469" fill="none" xmlns="http://www.w3.org/2000/svg">
<g id="Group">
<path id="Vector" d="M41.9171 217.521C41.9171 217.521 40.127 365.49 53.072 449.038C54.0738 455.505 75.8886 456.588 78.9308 450.548C81.9731 444.508 87.5504 278.42 87.5504 278.42C87.5504 278.42 112.902 341.332 114.423 359.451C115.944 377.57 109.647 440.314 111.888 448.031C113.526 453.671 138.761 452.561 140.282 448.031C141.803 443.502 156.506 339.728 153.971 325.132C151.436 310.537 136.226 212.991 129.634 211.481C123.043 209.971 44.4522 205.945 41.9171 217.521Z" fill="#3C404C"/>
<path id="Vector_2" d="M105.234 40.8955C105.234 40.8955 108.916 37.0217 110.094 39.2143C111.272 41.4072 111.493 49.9589 108.695 51.5671C105.896 53.175 101.184 51.1286 101.184 51.1286C101.184 51.1286 101.699 40.0914 105.234 40.8955Z" fill="#F4A789"/>
<path id="Vector_3" d="M57.7428 40.8955C57.7428 40.8955 54.0609 37.0217 52.8827 39.2143C51.7045 41.4072 51.4836 49.9589 54.2819 51.5671C57.0801 53.175 61.7927 51.1286 61.7927 51.1286C61.7927 51.1286 61.2772 40.0914 57.7428 40.8955Z" fill="#F4A789"/>
<path id="Vector_4" d="M66.162 56.2349C66.162 56.8467 63.436 71.3773 65.0469 77.8012C66.6577 84.2252 76.1986 86.3667 81.1547 86.2138C86.1109 86.0608 96.8907 82.543 98.006 80.2487C99.1211 77.9545 97.7582 58.3764 96.7669 54.7054C95.7756 51.0347 66.162 53.6349 66.162 56.2349Z" fill="#F4A789"/>
<path id="Vector_5" d="M57.0028 37.452C57.0028 37.452 58.177 72.571 79.3118 73.6893C100.447 74.8077 106.787 47.5178 105.613 33.4255C104.439 19.3332 98.8028 11.7278 79.3118 12.8461C59.8209 13.9647 54.1849 22.0175 57.0028 37.452Z" fill="#F7C7B3"/>
<path id="Vector_6" d="M51.355 35.281L79.7031 32.9721L83.2101 21.7135C83.2101 21.7135 83.3336 31.6865 84.2097 32.0342C85.0857 32.3821 111.011 35.9769 112.413 35.281C113.814 34.5851 115.32 7.71888 92.6725 6.23296C92.6725 6.23296 84.2502 -4.92825 66.3035 2.62032C44.2317 11.9036 51.355 35.281 51.355 35.281Z" fill="#020202"/>
<path id="Vector_7" d="M167.659 186.987C154.476 195.711 146.028 197.052 145.353 195.711C144.677 194.37 140.843 182.402 142.425 180.166C144.001 177.925 150.538 175.466 150.763 173.231C150.989 170.995 139.096 138.335 135.268 138.112C131.439 137.888 132.786 203.871 136.395 214.613C139.998 225.348 63.6709 235.219 37.0158 216.626C30.4897 212.073 45.4645 145.271 40.7353 131.624C40.7353 131.624 25.6903 163.836 26.3658 169.425C27.0413 175.019 33.0177 177.369 32.117 179.381C31.2105 181.393 28.6234 195.711 25.0145 195.935C21.4112 196.158 0 182.963 0 171.889C0 160.816 15.5503 97.7369 31.7763 88.3424C48.0024 78.9479 60.169 71.4509 63.5526 72.0124C64.3547 72.1433 74.9284 83.0864 81.2397 81.7396C87.5512 80.3983 97.0154 72.5687 99.0422 72.2361C101.069 71.898 134.988 80.1749 150.423 95.0489C158.87 103.189 180.842 178.263 167.659 186.987Z" fill="#136BCF"/>
<path id="Vector_8" d="M142.254 180.164C142.254 180.164 136.62 177.257 129.183 179.493C121.747 181.73 119.268 201.639 122.874 201.639C126.479 201.639 142.93 204.77 145.183 195.711C147.436 186.652 142.254 180.164 142.254 180.164Z" fill="#F7C7B3"/>
<path id="Vector_9" d="M26.8396 179.158C26.8396 179.158 32.4733 176.25 39.9099 178.487C47.3465 180.724 47.2129 202.254 43.6073 202.254C40.0017 202.254 26.1635 203.764 23.9103 194.704C21.6565 185.645 26.8396 179.158 26.8396 179.158Z" fill="#F7C7B3"/>
<path id="Vector_10" d="M129.649 214.836H41.7325C40.6209 214.836 39.7197 213.935 39.7197 212.824V165.401C39.7197 164.29 40.6209 163.388 41.7325 163.388H129.649C130.761 163.388 131.662 164.29 131.662 165.401V212.824C131.662 213.936 130.761 214.836 129.649 214.836Z" fill="#4D4D4D"/>
<path id="Vector_11" d="M129.649 211.985H41.7325C40.6209 211.985 39.7197 211.084 39.7197 209.972V165.402C39.7197 164.29 40.6209 163.389 41.7325 163.389H129.649C130.761 163.389 131.662 164.29 131.662 165.402V209.972C131.662 211.084 130.761 211.985 129.649 211.985Z" fill="#B3B3B3"/>
<path id="Vector_12" d="M167.659 186.987C154.476 195.711 146.029 197.052 145.353 195.711C144.677 194.37 140.843 182.402 142.425 180.166C144.001 177.926 150.538 175.466 150.763 173.231C150.989 170.996 139.096 138.336 135.268 138.112C134.477 108.358 150.423 95.049 150.423 95.049C158.871 103.189 180.842 178.263 167.659 186.987Z" fill="#24386A"/>
<path id="Vector_13" d="M40.7353 131.624C40.7353 131.624 25.6903 163.837 26.3658 169.425C27.0413 175.019 33.0177 177.369 32.117 179.381C31.2105 181.393 28.6234 195.711 25.0145 195.935C21.4112 196.158 0 182.964 0 171.89C0 160.816 15.5503 97.7371 31.7763 88.3426C31.7763 88.3426 41.9712 105.229 40.7353 131.624Z" fill="#24386A"/>
<path id="Vector_14" d="M77.4399 447.638C77.4399 447.638 58.5321 446.354 54.8151 448.44C51.098 450.525 53.5221 453.092 45.7652 456.46C38.0081 459.829 24.9182 461.433 24.5949 465.444C24.2716 469.454 51.2598 469.294 57.0776 468.652C62.8955 468.01 61.6025 459.187 64.9963 461.112C68.39 463.037 66.6123 467.529 67.7437 468.171C68.8749 468.812 78.4095 469.133 79.0561 468.01C79.7022 466.887 81.3182 449.402 77.4399 447.638Z" fill="#020202"/>
<path id="Vector_15" d="M113.856 445.624C113.856 445.624 132.764 444.34 136.481 446.426C140.198 448.511 137.774 451.078 145.531 454.447C153.288 457.816 166.378 459.419 166.701 463.43C167.025 467.44 140.036 467.28 134.218 466.638C128.401 465.997 129.694 457.174 126.3 459.099C122.906 461.024 124.684 465.515 123.552 466.157C122.421 466.798 112.886 467.119 112.24 465.997C111.594 464.874 109.978 447.388 113.856 445.624Z" fill="#020202"/>
<path id="Vector_16" d="M89.3799 187.77C89.3799 189.685 87.816 191.237 85.887 191.237C83.9581 191.237 82.3941 189.685 82.3941 187.77C82.3941 185.855 83.9581 184.303 85.887 184.303C87.8163 184.303 89.3799 185.855 89.3799 187.77Z" fill="#F2F2F2"/>
</g>
</svg>
