<svg width="74" height="73" viewBox="0 0 74 73" fill="none" xmlns="http://www.w3.org/2000/svg">
<g id="Group">
<path id="Vector" d="M36.771 72.9999C57.0791 72.9999 73.542 56.6583 73.542 36.5C73.542 16.3416 57.0791 0 36.771 0C16.463 0 0 16.3416 0 36.5C0 56.6583 16.463 72.9999 36.771 72.9999Z" fill="#699EC9"/>
<path id="Vector_2" d="M16.3105 18.3422C16.3105 18.3422 19.8856 12.7658 26.695 15.4696C33.5044 18.1732 31.6318 26.6223 29.589 32.5367C27.5462 38.4511 32.8236 45.3792 40.314 44.5343C47.8044 43.6893 55.4651 39.1268 58.5294 45.8862C61.5937 52.6453 54.2736 60.7566 40.995 57.5458C27.7163 54.3352 7.96911 37.9442 16.3105 18.3422Z" fill="#FEFFF8"/>
</g>
</svg>
