<svg width="32" height="32" viewBox="0 0 32 32" fill="none" xmlns="http://www.w3.org/2000/svg">
<path id="Vector" d="M9.28943 24.4814L9.84333 31.9588L32 30.5741L31.1692 17.2809L30.7023 0.0313623C27.8182 0.0959821 25.1714 0.150047 24.3617 0.150047C22.3334 0.150047 17.9393 -0.187559 16.9251 0.150047C15.911 0.487652 14.5592 0.826577 14.5592 0.826577L9.48857 6.23485C9.48857 6.23485 9.82618 13.3338 7.46031 17.0514C5.47951 20.1637 0.294086 21.3928 0 22.7973C0.141109 23.1481 0.283543 23.4514 0.427289 23.6506C0.681811 23.8563 0.975908 24.0633 1.28714 24.273C3.68994 25.3083 9.28943 24.4814 9.28943 24.4814Z" fill="#0277EB"/>
</svg>
