<svg width="131" height="249" viewBox="0 0 131 249" fill="none" xmlns="http://www.w3.org/2000/svg">
<g id="Group">
<path id="Vector" d="M92.0714 60.6657C91.6234 43.921 92.9199 15.3598 78.233 3.60364C65.333 -6.72123 55.3073 7.2943 51.6924 18.5909C42.9156 46.0186 47.0402 76.2936 47.0594 104.552C47.0594 104.984 47.0556 105.418 47.0415 105.851C46.3483 126.678 43.8476 149.226 46.1236 170.02C46.1236 170.02 43.8925 149.189 27.5252 158.117C11.158 167.044 35.7089 213.912 35.7089 213.912C35.7089 213.912 16.366 199.777 7.43906 211.68C-1.48784 223.582 18.5984 236.974 18.5984 236.974C18.5984 236.974 0 231.766 0 236.974C0 242.182 5.95126 246.645 23.0618 248.877H115.31C115.31 248.877 130.189 240.693 127.213 231.766C124.237 222.839 108.614 228.046 108.614 228.046C108.614 228.046 132.421 199.033 130.933 186.386C129.445 173.739 98.9443 188.618 98.9443 188.618C98.9443 188.618 122.749 128.36 118.287 101.578C114.771 80.4824 98.3949 94.9215 89.4796 103.026C91.5695 89.019 92.4501 74.825 92.0714 60.6657Z" fill="#0277EB"/>
<path id="Vector_2" opacity="0.5" d="M92.0714 60.6657C91.6234 43.921 92.9199 15.3598 78.233 3.60364C65.333 -6.72123 55.3073 7.2943 51.6924 18.5909C42.9156 46.0186 47.0402 76.2936 47.0594 104.552C47.0594 104.984 47.0556 105.418 47.0415 105.851C46.3483 126.678 43.8476 149.226 46.1236 170.02C46.1236 170.02 43.8925 149.189 27.5252 158.117C11.158 167.044 35.7089 213.912 35.7089 213.912C35.7089 213.912 16.366 199.777 7.43906 211.68C-1.48784 223.582 18.5984 236.974 18.5984 236.974C18.5984 236.974 0 231.766 0 236.974C0 242.182 5.95126 246.645 23.0618 248.877H115.31C115.31 248.877 130.189 240.693 127.213 231.766C124.237 222.839 108.614 228.046 108.614 228.046C108.614 228.046 132.421 199.033 130.933 186.386C129.445 173.739 98.9443 188.618 98.9443 188.618C98.9443 188.618 122.749 128.36 118.287 101.578C114.771 80.4824 98.3949 94.9215 89.4796 103.026C91.5695 89.019 92.4501 74.825 92.0714 60.6657Z" fill="white"/>
<path id="Vector_3" d="M62.4896 248.133L69.1854 43.55" stroke="white" stroke-width="1.727" stroke-miterlimit="10" stroke-linecap="round" stroke-linejoin="round"/>
<path id="Vector_4" d="M66.2085 162.579L101.174 129.847" stroke="white" stroke-width="1.727" stroke-miterlimit="10" stroke-linecap="round" stroke-linejoin="round"/>
<path id="Vector_5" d="M82.5758 147.701L90.0149 126.872" stroke="white" stroke-width="1.727" stroke-miterlimit="10" stroke-linecap="round" stroke-linejoin="round"/>
<path id="Vector_6" d="M37.1954 187.873L63.9774 216.888" stroke="white" stroke-width="1.727" stroke-miterlimit="10" stroke-linecap="round" stroke-linejoin="round"/>
<path id="Vector_7" d="M108.613 204.241L63.9774 227.302" stroke="white" stroke-width="1.727" stroke-miterlimit="10" stroke-linecap="round" stroke-linejoin="round"/>
<path id="Vector_8" d="M84.8069 217.631L101.174 216.888" stroke="white" stroke-width="1.727" stroke-miterlimit="10" stroke-linecap="round" stroke-linejoin="round"/>
</g>
</svg>
