<svg width="39" height="39" viewBox="0 0 39 39" fill="none" xmlns="http://www.w3.org/2000/svg">
<path id="Vector" d="M38.4975 21.1303V17.8671C38.4975 16.9038 37.7158 16.1221 36.7525 16.1221H34.2336C33.8512 14.448 33.1931 12.8807 32.3058 11.4693L34.0868 9.68831C34.768 9.00707 34.768 7.90214 34.0868 7.2209L31.7791 4.91318C31.0978 4.23193 29.9929 4.23193 29.3104 4.91318L27.5294 6.6942C26.118 5.8082 24.5507 5.14884 22.8766 4.76637V2.24744C22.8766 1.28417 22.0949 0.50248 21.1316 0.50248H17.8683C16.9038 0.50248 16.1234 1.28417 16.1234 2.24744V4.76637C14.4492 5.14884 12.882 5.80691 11.4706 6.6942L9.6896 4.91318C9.00836 4.23193 7.9034 4.23193 7.22087 4.91318L4.91316 7.2209C4.23191 7.90214 4.23191 9.00707 4.91316 9.68831L6.69417 11.4693C5.80817 12.8807 5.1488 14.448 4.76633 16.1221H2.24741C1.28415 16.1221 0.50248 16.9038 0.50248 17.8671V21.1303C0.50248 22.0936 1.28415 22.8753 2.24741 22.8753H4.76633C5.1488 24.5494 5.80688 26.1167 6.69417 27.5281L4.91316 29.3091C4.23191 29.9904 4.23191 31.0953 4.91316 31.7765L7.22087 34.0843C7.90211 34.7655 9.00707 34.7655 9.6896 34.0843L11.4706 32.3033C12.882 33.1905 14.4492 33.8486 16.1234 34.2311V36.75C16.1234 37.7133 16.9051 38.495 17.8683 38.495H21.1316C22.0949 38.495 22.8766 37.7133 22.8766 36.75V34.2311C24.5507 33.8486 26.118 33.1905 27.5294 32.3033L29.3104 34.0843C29.9916 34.7655 31.0966 34.7655 31.7791 34.0843L34.0868 31.7765C34.768 31.0953 34.768 29.9904 34.0868 29.3091L32.3058 27.5281C33.1918 26.1167 33.8512 24.5494 34.2336 22.8753H36.7525C37.7158 22.8753 38.4975 22.0949 38.4975 21.1303ZM20.2624 26.9241C15.5426 27.3916 11.6084 23.4574 12.0759 18.7376C12.4223 15.2451 15.2464 12.4197 18.7389 12.0746C23.4587 11.6071 27.3929 15.5413 26.9254 20.2611C26.5803 23.7536 23.7549 26.5777 20.2624 26.9241Z" fill="white" stroke="#263238" stroke-miterlimit="10" stroke-linecap="round" stroke-linejoin="round"/>
</svg>
