<svg width="44" height="52" viewBox="0 0 44 52" fill="none" xmlns="http://www.w3.org/2000/svg">
<g id="Black">
<path id="Vector" d="M20.1397 0.807014C15.3173 3.58569 9.55859 6.1026 4.13212 7.8141C3.24617 8.096 2.04812 8.47857 1.47426 8.65979C-0.1567 9.17323 0.00438273 8.31748 0.00438273 16.3716C0.00438273 23.4492 0.0446534 24.4257 0.457427 26.8118C1.79643 34.6545 5.83355 41.43 12.2366 46.5846C14.089 48.0847 16.0321 49.323 18.0758 50.3097C19.9182 51.2057 20.8344 51.4775 22.0022 51.4775C23.1701 51.4775 24.0862 51.2057 25.9286 50.3097C30.3181 48.1854 34.5767 44.6416 37.597 40.6045C41.2012 35.8022 43.255 30.4965 43.8692 24.4056C43.9598 23.57 44 21.0329 44 16.3716C44 9.64641 44 9.55581 43.7886 9.27391C43.5772 8.98195 43.4262 8.92154 40.2247 7.93491C35.0902 6.34422 29.0093 3.7065 24.0459 0.90769C21.9317 -0.290359 22.0324 -0.280291 20.1397 0.807014ZM23.2506 3.09237C28.1535 5.87104 34.9995 8.7806 40.4562 10.4015L41.7348 10.7841V16.8146C41.7348 21.5162 41.7046 23.1673 41.5838 24.3049C40.9697 30.1542 38.8353 35.3995 35.2311 39.9501C33.6706 41.9233 30.6805 44.6617 28.2945 46.3027C26.6031 47.4706 24.1466 48.729 22.7875 49.1217L22.0022 49.3532L21.227 49.1217C19.8578 48.729 17.4013 47.4706 15.7099 46.3027C13.3239 44.6617 10.3338 41.9233 8.77331 39.9501C5.16909 35.3995 3.03475 30.1542 2.42062 24.3049C2.29981 23.1673 2.26961 21.5162 2.26961 16.8146V10.7841L3.55826 10.4015C9.22635 8.71012 15.9012 5.88111 20.7941 3.07224C21.4284 2.69973 21.972 2.40777 21.9921 2.39771C22.0022 2.39771 22.5761 2.7098 23.2506 3.09237Z" fill="white"/>
<path id="Vector_2" d="M13.6863 8.98193C12.9413 9.72693 13.4246 10.8545 14.4817 10.8545C15.1159 10.8545 15.5488 10.4015 15.5589 9.72693C15.5589 9.33429 15.5086 9.20341 15.2468 8.95172C14.9951 8.68996 14.8542 8.63962 14.4817 8.63962C14.0991 8.63962 13.9783 8.68996 13.6863 8.98193Z" fill="white"/>
<path id="Vector_3" d="M11.0788 9.94844C10.9177 9.98871 10.0519 10.2907 9.1659 10.623C8.27995 10.9552 6.91075 11.4485 6.1154 11.7103C4.16228 12.3546 4.28309 12.1231 4.28309 15.2138C4.28309 17.7811 4.32336 18.0328 4.80661 18.2845C5.30999 18.5462 5.8033 18.4757 6.18587 18.0932L6.49797 17.7811V15.8884V13.9956L7.03156 13.8245C7.91751 13.5325 11.6627 12.1533 11.9446 12.0022C12.0956 11.9318 12.2869 11.7002 12.3875 11.4989C12.7903 10.6431 12.0251 9.73702 11.0788 9.94844Z" fill="white"/>
<path id="Vector_4" d="M31.0026 15.6266C30.7208 15.697 30.2878 15.8682 30.0462 16.0192C29.8046 16.1602 27.1165 18.7677 24.066 21.8182L18.5389 27.3655L16.3643 25.211C14.8944 23.7512 14.0487 22.9961 13.7366 22.8551C11.3103 21.6974 8.61218 23.3485 8.58198 26.0063C8.58198 26.8419 8.72293 27.3353 9.17597 28.0199C9.65922 28.7548 16.3139 35.3491 16.8375 35.6109C17.069 35.7216 17.5724 35.8726 17.955 35.9431C18.8409 36.0941 19.747 35.8928 20.5222 35.3793C20.8142 35.188 24.1365 31.9362 27.9018 28.1507C33.2276 22.8149 34.8284 21.1638 35.0196 20.7611C36.1976 18.4153 34.7377 15.7474 32.1705 15.546C31.7879 15.5158 31.3047 15.546 31.0026 15.6266ZM32.7947 18.1938C32.9457 18.365 33.0967 18.6167 33.137 18.7576C33.3081 19.4523 33.429 19.3113 26.0494 26.6909L19.0322 33.7081H18.5691C18.2167 33.7081 18.0154 33.6376 17.7133 33.4161C17.0388 32.9228 11.0486 26.8319 10.9378 26.5298C10.7767 26.107 10.8069 25.7446 11.0284 25.3821C11.3808 24.7881 12.2164 24.5666 12.7399 24.9089C12.8809 24.9996 14.1293 26.2077 15.5085 27.5769L18.0355 30.0837H18.5288H19.0221L25.0728 24.0532C28.3951 20.7409 31.204 17.9723 31.3147 17.9119C31.4255 17.8515 31.7376 17.8112 32.0094 17.8314C32.4121 17.8717 32.5631 17.9321 32.7947 18.1938Z" fill="white"/>
<path id="Vector_5" d="M33.8015 34.8357C33.6807 34.8961 33.2478 35.3995 32.8551 35.9633C31.496 37.8661 29.7342 39.7588 27.9421 41.2287C26.8951 42.0844 26.8448 42.1549 26.7642 42.6079C26.6434 43.3529 27.1266 43.8765 27.922 43.8765C28.2542 43.8765 28.4455 43.7556 29.4623 42.9402C30.9926 41.6817 33.0364 39.5574 34.1841 38.0171C35.3318 36.4868 35.5029 36.1646 35.4224 35.6915C35.3116 34.9968 34.4257 34.5236 33.8015 34.8357Z" fill="white"/>
<path id="Vector_6" d="M24.499 43.6751C23.6131 44.3597 24.0762 45.6886 25.1937 45.6886C25.5763 45.6886 25.6971 45.6383 25.989 45.3463C26.2508 45.0845 26.3313 44.9235 26.3313 44.6416C26.3313 44.1986 26.1098 43.7254 25.838 43.5744C25.5058 43.4032 24.7708 43.4536 24.499 43.6751Z" fill="white"/>
</g>
</svg>
