<svg width="44" height="30" viewBox="0 0 44 30" fill="none" xmlns="http://www.w3.org/2000/svg">
<path id="Vector" d="M0.509251 21.5958C0.509251 21.5958 4.3307 19.766 5.01198 18.7571C5.69196 17.7483 6.19965 16.0333 7.91982 13.962C9.63999 11.8908 14.2158 10.8637 16.2074 8.38781C18.1991 5.91328 21.1943 1.4706 22.3194 0.760608C23.4444 0.0506148 24.5577 0.801068 24.3084 3.57056C24.0604 6.34006 17.3429 11.5045 16.7987 12.311C16.2544 13.1189 23.1299 10.7305 27.3781 11.6089C31.6263 12.4886 36.6602 10.5765 40.4086 9.90568C44.1569 9.23484 43.9272 12.0487 42.6416 13.2899C41.3561 14.5311 29.5785 17.1087 26.0912 18.8472C22.6039 20.5869 19.5173 21.9429 16.6851 23.2637C13.853 24.5858 10.671 26.6806 10.671 26.6806L6.44111 29.116L0.509251 21.5958Z" fill="white" stroke="#263238" stroke-miterlimit="10" stroke-linecap="round" stroke-linejoin="round"/>
</svg>
