<svg width="53" height="80" viewBox="0 0 53 80" fill="none" xmlns="http://www.w3.org/2000/svg">
<g id="Group">
<path id="Vector" d="M47.0814 0.500271C47.0814 0.500271 33.3498 39.8117 31.465 44.9274C30.974 46.2608 30.038 48.3904 28.8867 50.8791C26.4839 46.7083 21.2567 37.5128 19.6169 33.619C17.4629 28.5033 14.5011 27.1571 9.65469 27.6956C4.80823 28.234 0.500271 33.3497 0.500271 37.1205C0.5054 44.2697 6.81348 53.81 9.61237 60.1643C12.6074 66.9634 14.6242 69.4918 19.6938 75.1729C26.1185 82.3721 33.3741 79.8809 38.2757 72.8779C42.0452 67.4929 51.6586 47.8904 51.6586 47.8904C51.6586 47.8904 49.2354 6.69425 47.0814 0.500271Z" fill="#0277EB" stroke="#263238" stroke-miterlimit="10" stroke-linecap="round" stroke-linejoin="round"/>
<path id="Vector_2" d="M28.8867 50.8804C28.8867 50.8804 23.5773 58.5065 23.0722 62.5427" stroke="#263238" stroke-miterlimit="10" stroke-linecap="round" stroke-linejoin="round"/>
</g>
</svg>
