<svg width="81" height="116" viewBox="0 0 81 116" fill="none" xmlns="http://www.w3.org/2000/svg">
<g id="Group">
<path id="Vector" d="M23.9533 5.09187C23.9533 5.09187 14.2606 10.2074 8.60657 12.8999C2.95251 15.5923 0.52935 16.4 0.52935 16.4C0.52935 16.4 7.26038 102.115 7.26038 106.692C7.26038 111.269 6.99112 111.538 8.60657 112.885C10.222 114.231 18.5788 114.85 33.3883 114.581C48.1966 114.311 66.7653 111.269 68.1115 111.269C69.4577 111.269 71.8808 110.461 73.4963 108.038C75.1117 105.615 80.2273 14.2461 80.4966 13.1691C80.7658 12.0921 62.7266 4.28414 60.8407 3.74566C58.9547 3.20718 48.185 -4.06233 23.9533 5.09187Z" fill="#0277EB" stroke="#263238" stroke-miterlimit="10"/>
</g>
</svg>
