<svg width="39" height="39" viewBox="0 0 39 39" fill="none" xmlns="http://www.w3.org/2000/svg">
<path id="Vector" d="M38.4975 21.1316V17.8684C38.4975 16.9038 37.7158 16.1234 36.7526 16.1234H34.2336C33.8512 14.4493 33.1931 12.882 32.3058 11.4706L34.0868 9.6896C34.7681 9.00836 34.7681 7.90344 34.0868 7.22091L31.7791 4.91317C31.0979 4.23193 29.9929 4.23193 29.3104 4.91317L27.5294 6.69419C26.118 5.8069 24.5507 5.14884 22.8766 4.76637V2.24745C22.8766 1.28418 22.0949 0.50248 21.1316 0.50248H17.8684C16.9038 0.50248 16.1234 1.28418 16.1234 2.24745V4.76637C14.4493 5.14884 12.882 5.8069 11.4706 6.69419L9.6896 4.91317C9.00836 4.23193 7.90342 4.23193 7.22089 4.91317L4.91317 7.22091C4.23193 7.90215 4.23193 9.00707 4.91317 9.6896L6.69419 11.4706C5.8069 12.882 5.14884 14.4493 4.76637 16.1234H2.24743C1.28416 16.1234 0.50248 16.9051 0.50248 17.8684V21.1316C0.50248 22.0949 1.28416 22.8766 2.24743 22.8766H4.76637C5.14884 24.5507 5.8069 26.118 6.69419 27.5294L4.91317 29.3104C4.23193 29.9917 4.23193 31.0966 4.91317 31.7791L7.22089 34.0868C7.90213 34.7681 9.00707 34.7681 9.6896 34.0868L11.4706 32.3058C12.882 33.1931 14.4493 33.8512 16.1234 34.2336V36.7526C16.1234 37.7171 16.9051 38.4975 17.8684 38.4975H21.1316C22.0949 38.4975 22.8766 37.7158 22.8766 36.7526V34.2336C24.5507 33.8512 26.118 33.1931 27.5294 32.3058L29.3104 34.0868C29.9916 34.7681 31.0966 34.7681 31.7791 34.0868L34.0868 31.7791C34.7681 31.0979 34.7681 29.9929 34.0868 29.3104L32.3058 27.5294C33.1931 26.118 33.8512 24.5507 34.2336 22.8766H36.7526C37.7158 22.8766 38.4975 22.0949 38.4975 21.1316ZM20.2868 27.1688C15.4112 27.6517 11.3483 23.5875 11.8312 18.7132C12.1879 15.1061 15.106 12.1879 18.7144 11.8312C23.59 11.3483 27.653 15.4113 27.1701 20.2869C26.8134 23.8927 23.8952 26.8108 20.2868 27.1688Z" fill="white" stroke="#263238" stroke-miterlimit="10" stroke-linecap="round" stroke-linejoin="round"/>
</svg>
