<svg width="49" height="51" viewBox="0 0 49 51" fill="none" xmlns="http://www.w3.org/2000/svg">
<g id="Group">
<path id="Vector" d="M30.6209 0.614347C29.2807 0.820934 18.9617 0.614331 10.8273 1.97006C2.69294 3.32579 0.252618 3.86809 0.523763 7.39298C0.794909 10.9179 -0.018548 12.2736 2.96405 13.6293C5.94665 14.985 7.03126 14.985 7.03126 14.985C7.03126 14.985 6.21783 18.7811 5.94669 21.4925C5.67554 24.204 10.5561 27.1866 10.5561 27.1866C10.5561 27.1866 10.285 31.2538 10.8273 32.6095C11.3696 33.9652 12.7253 34.2364 13.5387 33.1518C14.3522 32.0672 14.8945 26.9154 15.7079 29.0846C16.5214 31.2538 19.7751 47.5238 21.9442 49.4218C24.1134 51.3198 33.8746 50.2352 36.5861 49.6929C39.2975 49.1506 44.4493 37.7626 46.8896 30.9839C49.3299 24.2053 48.2454 12.2736 44.7205 6.85067C41.1956 1.42777 34.1458 0.0720562 30.6209 0.614347Z" fill="white" stroke="#263238" stroke-miterlimit="10"/>
<path id="Vector_2" d="M45.552 8.36661C44.5875 10.9864 43.5971 14.1769 40.8431 14.3886C36.5409 14.7192 36.5409 9.09353 33.5622 7.10772C30.5835 5.1219 35.548 17.0368 33.2316 13.7263C30.9153 10.417 24.9578 7.10771 19.6627 6.77588C14.3677 6.44534 22.6415 16.3731 20.6557 16.3731C18.6699 16.3731 15.3606 10.0852 15.3606 8.42988C15.3606 6.7746 10.396 6.7746 4.77041 6.7746C-0.85521 6.7746 1.46112 10.0839 1.46112 12.0697C1.46112 12.3705 1.55153 12.6378 1.69356 12.8792C2.01377 13.1375 2.42563 13.3828 2.96404 13.6281C5.94664 14.9838 7.03126 14.9839 7.03126 14.9839C7.03126 14.9839 6.21782 18.7799 5.94668 21.4913C5.67553 24.2028 10.5561 27.1854 10.5561 27.1854C10.5561 27.1854 10.285 31.2526 10.8273 32.6083C11.3696 33.964 12.7253 34.2352 13.5387 33.1506C14.3522 32.066 14.8945 26.9142 15.7079 29.0834C16.5213 31.2526 19.7751 47.5226 21.9442 49.4206C24.1134 51.3186 33.8746 50.234 36.5861 49.6917C39.2975 49.1495 44.4493 37.7614 46.8896 30.9814C49.1246 24.7761 48.3964 14.2608 45.552 8.36661Z" fill="#263238"/>
</g>
</svg>
