<svg width="187" height="181" viewBox="0 0 187 181" fill="none" xmlns="http://www.w3.org/2000/svg">
<g id="Group">
<path id="Vector" d="M127.927 135.911C117.17 127.351 96.5826 124.284 82.9345 111.776C69.2864 99.2676 78.0242 96.3143 85.1883 96.1765C92.3526 96.0388 121.367 115.221 124.881 109.064C128.395 102.906 92.3154 89.9063 82.0593 82.85C71.8032 75.7938 68.6035 54.8831 73.9403 50.2395C79.277 45.5959 85.8561 57.918 104.793 66.7893C123.729 75.6603 98.0527 50.1988 87.5796 41.9538C77.1065 33.7088 81.53 7.12923 97.7535 1.14105C113.977 -4.84713 136.908 14.0484 138.697 27.2324C140.486 40.4163 126.762 53.3215 138.023 64.1873C149.284 75.0531 136.732 36.7943 145.581 29.3703C154.43 21.9462 173.408 54.7518 177.539 63.831C181.671 72.91 160.653 86.5135 151.298 98.7863C141.943 111.059 162.197 100.048 167.55 91.2584C172.902 82.4684 185.121 60.472 186.9 90.5396C188.679 120.607 166.351 117.718 151.649 128.651C151.649 128.651 136.972 143.108 127.927 135.911Z" fill="#A2CE99"/>
<path id="Vector_2" d="M139.201 138.221C128.324 146.631 120.559 165.805 105.144 176.093C89.7291 186.382 88.8546 177.261 90.3758 170.311C91.8969 163.36 117.406 139.775 112.183 134.957C106.96 130.14 85.8775 161.978 76.5904 170.252C67.3033 178.525 46.0682 176.781 42.7506 170.554C39.4331 164.327 53.0314 160.822 66.104 144.585C79.1766 128.348 48.285 147.258 37.7825 155.466C27.28 163.675 2.25114 153.258 0.132388 136.206C-1.98637 119.154 21.8349 101.377 35.1704 102.697C48.506 104.017 57.9822 120.254 71.2356 111.891C84.4889 103.528 44.0882 106.805 38.8573 96.5428C33.6264 86.2807 70.1675 75.5373 80.0213 73.6461C89.8752 71.7549 98.3497 95.1972 108.216 107.069C118.083 118.941 111.973 96.8353 104.595 89.634C97.2163 82.4326 78.4816 65.5482 108.363 70.7806C138.245 76.013 130.252 96.9084 137.568 113.634C137.568 113.634 148.346 131.15 139.201 138.221Z" fill="#6EB565"/>
</g>
</svg>
