<svg width="71" height="221" viewBox="0 0 71 221" fill="none" xmlns="http://www.w3.org/2000/svg">
<g id="Group">
<path id="Vector" d="M0.503069 14.5292C0.503069 14.5292 1.58087 52.2538 1.58087 64.918C1.58087 77.5823 4.81431 134.811 9.12554 155.56C13.4368 176.31 15.8618 205.949 15.8618 209.183C15.8618 212.416 14.784 213.225 16.9397 215.38C19.0953 217.536 27.1788 221.578 30.1428 220.23C33.1068 218.883 34.7235 213.763 34.7235 213.763C34.7235 213.763 34.7235 185.739 35.5318 167.416C36.3402 149.094 34.993 125.111 34.993 125.111C34.993 125.111 45.5016 173.614 48.4656 183.315C51.4296 193.016 53.8572 210.615 54.3961 214.118C54.935 217.62 57.3036 217.735 60.3163 217.735C63.9347 217.735 68.4063 217.268 70.023 214.573C71.6397 211.879 68.1369 183.585 68.1369 172.268C68.1369 160.951 59.245 90.7867 60.0533 73.5417C60.8617 56.2968 65.9812 26.3863 64.3645 17.4944C62.7478 8.60246 62.7478 1.50305 62.7478 1.50305C62.7478 1.50305 7.23938 -4.87141 0.503069 14.5292Z" fill="#263238" stroke="#263238" stroke-miterlimit="10"/>
<path id="Vector_2" d="M3.74934 18.7594C3.74934 18.7594 5.35451 24.7682 7.24068 28.5405C9.12684 32.3128 12.0908 33.6601 12.0908 33.6601" stroke="white" stroke-miterlimit="10"/>
<path id="Vector_3" d="M21.1945 206.122C21.6217 212.847 20.9827 217.538 20.9827 217.538" stroke="white" stroke-miterlimit="10"/>
<path id="Vector_4" d="M13.1622 57.8813C13.9192 87.2144 15.3602 137.111 16.6702 149.093C18.124 162.38 19.4174 182.703 20.304 195.031" stroke="white" stroke-miterlimit="10"/>
<path id="Vector_5" d="M11.9959 19.1789C11.7264 19.9872 12.6285 36.0864 12.6285 36.0864C12.6285 36.0864 12.7503 41.5242 12.9633 50.0415" stroke="white" stroke-miterlimit="10"/>
</g>
</svg>
