<svg width="728" height="674" viewBox="0 0 728 674" fill="none" xmlns="http://www.w3.org/2000/svg">
<g id="Group">
<path id="Vector" d="M17.6428 118.007C25.995 118.007 32.7657 111.286 32.7657 102.995C32.7657 94.7048 25.995 87.984 17.6428 87.984C9.2907 87.984 2.51993 94.7048 2.51993 102.995C2.51993 111.286 9.2907 118.007 17.6428 118.007Z" fill="#ADC5F1"/>
<path id="Vector_2" d="M700.695 460.768C709.047 460.768 715.818 454.047 715.818 445.757C715.818 437.466 709.047 430.745 700.695 430.745C692.343 430.745 685.572 437.466 685.572 445.757C685.572 454.047 692.343 460.768 700.695 460.768Z" fill="#ADC5F1"/>
<path id="Vector_3" d="M509.978 582.528C518.331 582.528 525.101 575.807 525.101 567.516C525.101 559.226 518.331 552.505 509.978 552.505C501.626 552.505 494.855 559.226 494.855 567.516C494.855 575.807 501.626 582.528 509.978 582.528Z" fill="#ADC5F1"/>
<path id="Vector_4" d="M107.541 86.7332C111.253 86.7332 114.262 83.7461 114.262 80.0614C114.262 76.3767 111.253 73.3896 107.541 73.3896C103.829 73.3896 100.82 76.3767 100.82 80.0614C100.82 83.7461 103.829 86.7332 107.541 86.7332Z" fill="#ADC5F1"/>
<path id="Vector_5" d="M47.0489 246.438C50.7609 246.438 53.7701 243.451 53.7701 239.767C53.7701 236.082 50.7609 233.095 47.0489 233.095C43.3368 233.095 40.3276 236.082 40.3276 239.767C40.3276 243.451 43.3368 246.438 47.0489 246.438Z" fill="#ADC5F1"/>
<path id="Vector_6" d="M9.24122 339.009C12.9533 339.009 15.9625 336.022 15.9625 332.337C15.9625 328.652 12.9533 325.665 9.24122 325.665C5.52916 325.665 2.51993 328.652 2.51993 332.337C2.51993 336.022 5.52916 339.009 9.24122 339.009Z" fill="#ADC5F1"/>
<path id="Vector_7" d="M133.165 13.3435C136.877 13.3435 139.887 10.3565 139.887 6.67176C139.887 2.98705 136.877 0 133.165 0C129.453 0 126.444 2.98705 126.444 6.67176C126.444 10.3565 129.453 13.3435 133.165 13.3435Z" fill="#ADC5F1"/>
<path id="Vector_8" d="M312.96 50.0384C316.673 50.0384 319.682 47.0513 319.682 43.3666C319.682 39.6819 316.673 36.6949 312.96 36.6949C309.248 36.6949 306.239 39.6819 306.239 43.3666C306.239 47.0513 309.248 50.0384 312.96 50.0384Z" fill="#ADC5F1"/>
<path id="Vector_9" d="M654.066 32.5252C657.778 32.5252 660.787 29.5381 660.787 25.8534C660.787 22.1687 657.778 19.1816 654.066 19.1816C650.354 19.1816 647.345 22.1687 647.345 25.8534C647.345 29.5381 650.354 32.5252 654.066 32.5252Z" fill="#ADC5F1"/>
<path id="Vector_10" d="M622.14 116.756C625.852 116.756 628.861 113.769 628.861 110.084C628.861 106.4 625.852 103.413 622.14 103.413C618.428 103.413 615.418 106.4 615.418 110.084C615.418 113.769 618.428 116.756 622.14 116.756Z" fill="#ADC5F1"/>
<path id="Vector_11" d="M688.512 198.485C692.224 198.485 695.234 195.498 695.234 191.814C695.234 188.129 692.224 185.142 688.512 185.142C684.8 185.142 681.791 188.129 681.791 191.814C681.791 195.498 684.8 198.485 688.512 198.485Z" fill="#ADC5F1"/>
<path id="Vector_12" d="M654.906 254.361C658.618 254.361 661.627 251.374 661.627 247.689C661.627 244.004 658.618 241.017 654.906 241.017C651.194 241.017 648.185 244.004 648.185 247.689C648.185 251.374 651.194 254.361 654.906 254.361Z" fill="#ADC5F1"/>
<path id="Vector_13" d="M612.898 331.086C616.61 331.086 619.619 328.099 619.619 324.414C619.619 320.729 616.61 317.742 612.898 317.742C609.186 317.742 606.177 320.729 606.177 324.414C606.177 328.099 609.186 331.086 612.898 331.086Z" fill="#ADC5F1"/>
<path id="Vector_14" d="M695.234 380.29C698.946 380.29 701.955 377.303 701.955 373.619C701.955 369.934 698.946 366.947 695.234 366.947C691.522 366.947 688.512 369.934 688.512 373.619C688.512 377.303 691.522 380.29 695.234 380.29Z" fill="#ADC5F1"/>
<path id="Vector_15" d="M721.279 579.608C724.991 579.608 728 576.621 728 572.937C728 569.252 724.991 566.265 721.279 566.265C717.567 566.265 714.557 569.252 714.557 572.937C714.557 576.621 717.567 579.608 721.279 579.608Z" fill="#ADC5F1"/>
<path id="Vector_16" d="M651.966 650.913C655.678 650.913 658.687 647.926 658.687 644.241C658.687 640.556 655.678 637.569 651.966 637.569C648.254 637.569 645.244 640.556 645.244 644.241C645.244 647.926 648.254 650.913 651.966 650.913Z" fill="#ADC5F1"/>
<path id="Vector_17" d="M561.648 673.848C565.36 673.848 568.369 670.861 568.369 667.176C568.369 663.491 565.36 660.504 561.648 660.504C557.936 660.504 554.927 663.491 554.927 667.176C554.927 670.861 557.936 673.848 561.648 673.848Z" fill="#ADC5F1"/>
<path id="Vector_18" d="M267.732 576.412C271.444 576.412 274.453 573.425 274.453 569.74C274.453 566.055 271.444 563.068 267.732 563.068C264.02 563.068 261.01 566.055 261.01 569.74C261.01 573.425 264.02 576.412 267.732 576.412Z" fill="#ADC5F1"/>
<path id="Vector_19" d="M197.158 650.913C200.87 650.913 203.879 647.926 203.879 644.241C203.879 640.556 200.87 637.569 197.158 637.569C193.446 637.569 190.437 640.556 190.437 644.241C190.437 647.926 193.446 650.913 197.158 650.913Z" fill="#ADC5F1"/>
<path id="Vector_20" d="M34.4464 585.029C38.1585 585.029 41.1677 582.042 41.1677 578.358C41.1677 574.673 38.1585 571.686 34.4464 571.686C30.7344 571.686 27.7252 574.673 27.7252 578.358C27.7252 582.042 30.7344 585.029 34.4464 585.029Z" fill="#ADC5F1"/>
<path id="Vector_21" d="M6.72129 673.43C10.4333 673.43 13.4425 670.443 13.4425 666.758C13.4425 663.073 10.4333 660.086 6.72129 660.086C3.00924 660.086 0 663.073 0 666.758C0 670.443 3.00924 673.43 6.72129 673.43Z" fill="#ADC5F1"/>
<path id="Vector_22" d="M374.152 632.01C377.864 632.01 380.873 629.023 380.873 625.338C380.873 621.654 377.864 618.666 374.152 618.666C370.44 618.666 367.431 621.654 367.431 625.338C367.431 629.023 370.44 632.01 374.152 632.01Z" fill="#ADC5F1"/>
<path id="Vector_23" d="M471.331 22.5173C475.043 22.5173 478.052 19.5303 478.052 15.8456C478.052 12.1609 475.043 9.17381 471.331 9.17381C467.619 9.17381 464.61 12.1609 464.61 15.8456C464.61 19.5303 467.619 22.5173 471.331 22.5173Z" fill="#ADC5F1"/>
</g>
</svg>
