<svg width="121" height="72" viewBox="0 0 121 72" fill="none" xmlns="http://www.w3.org/2000/svg">
<g id="Group">
<path id="Vector" d="M0 71.5325L3.77749 46.1773V15.2946C3.77749 6.8477 10.676 0 19.1855 0H105.592C114.102 0 121 6.8477 121 15.2946V47.0834C121 55.5302 114.101 62.3779 105.592 62.3779H23.3076L0 71.5325Z" fill="#699EC9"/>
<path id="Vector_2" d="M21.4518 14.9949L112.843 14.9949V11.9959L21.4518 11.9959V14.9949Z" fill="#FEFFF8"/>
<path id="Vector_3" d="M46.9807 26.6906L112.843 26.6906V23.6917L46.9807 23.6917V26.6906Z" fill="#FEFFF8"/>
<path id="Vector_4" d="M34.9968 38.3863L112.843 38.3863V35.3873L34.9968 35.3873V38.3863Z" fill="#FEFFF8"/>
<path id="Vector_5" d="M17.8262 50.0824L112.843 50.0824V47.0834L17.8262 47.0834V50.0824Z" fill="#FEFFF8"/>
</g>
</svg>
