<svg width="22" height="22" viewBox="0 0 22 22" fill="none" xmlns="http://www.w3.org/2000/svg">
<g id="Black">
<path id="Vector" d="M4.92818 0.087446C4.82076 0.139006 4.69186 0.255012 4.62742 0.353834C4.52 0.517104 4.51141 0.560069 4.49852 1.11862L4.48563 1.70726L3.59624 1.72444C2.77559 1.74163 2.68107 1.75452 2.36312 1.85764C1.80027 2.04669 1.42217 2.283 0.983917 2.72125C0.549962 3.1552 0.31365 3.5333 0.116008 4.10045L0 4.44418V11.8558V19.2674L0.116008 19.6111C0.31365 20.1783 0.549962 20.5563 0.983917 20.9903C1.41787 21.4243 1.79597 21.6606 2.36312 21.8582L2.70684 21.9742L6.46206 21.9871L10.213 22L10.4063 21.9055C10.5223 21.8496 10.6426 21.7465 10.7114 21.6391C10.8102 21.4887 10.8274 21.42 10.8274 21.1364C10.8274 20.8528 10.8102 20.7841 10.7114 20.6337C10.6426 20.5306 10.5223 20.4232 10.4106 20.3673C10.2216 20.2771 10.1958 20.2771 6.87023 20.2771C4.87232 20.2771 3.40289 20.2599 3.22243 20.2341C2.44046 20.1224 1.85183 19.5338 1.74011 18.7518C1.68426 18.3436 1.68426 5.36794 1.74011 4.95977C1.79597 4.56878 1.95924 4.23794 2.22992 3.96726C2.6381 3.56338 3.05916 3.43878 4.00871 3.43448H4.48993V3.98015C4.48993 4.62463 4.55867 4.82657 4.84654 5.01562C4.99692 5.11444 5.06567 5.13163 5.34924 5.13163C5.63282 5.13163 5.70156 5.11444 5.85194 5.01562C6.13981 4.82657 6.20856 4.62463 6.20856 3.98015V3.43448H8.14202H10.0755V3.98015C10.0755 4.62463 10.1442 4.82657 10.4321 5.01562C10.5825 5.11444 10.6512 5.13163 10.9348 5.13163C11.2184 5.13163 11.2871 5.11444 11.4375 5.01562C11.7254 4.82657 11.7941 4.62463 11.7941 3.98015V3.43448H13.7491H15.704V3.98015C15.704 4.62463 15.7727 4.82657 16.0606 5.01562C16.211 5.11444 16.2797 5.13163 16.5633 5.13163C16.8469 5.13163 16.9156 5.11444 17.066 5.01562C17.3539 4.82657 17.4226 4.62463 17.4226 3.98015V3.43448H17.9296C18.8964 3.43878 19.3174 3.56338 19.7256 3.96726C19.9963 4.23794 20.1595 4.56878 20.2154 4.95977C20.2369 5.13163 20.2584 6.33038 20.2584 7.76973C20.2584 10.2403 20.2584 10.2832 20.3486 10.4723C20.4045 10.584 20.5119 10.7043 20.615 10.773C20.7654 10.8719 20.8341 10.889 21.1177 10.889C21.4013 10.889 21.47 10.8719 21.6204 10.773C21.7278 10.7043 21.8309 10.584 21.8868 10.468C21.9813 10.2746 21.9813 10.2703 21.9684 7.36155L21.9555 4.44418L21.8395 4.10045C21.6419 3.5333 21.4056 3.1552 20.9716 2.72125C20.5334 2.283 20.1553 2.04669 19.5924 1.85764C19.2745 1.75022 19.1842 1.74163 18.3378 1.72444L17.4226 1.70726V1.16589C17.4226 0.525697 17.3539 0.323758 17.066 0.134708C16.9156 0.0358862 16.8469 0.0187002 16.5633 0.0187002C16.2797 0.0187002 16.211 0.0358862 16.0606 0.134708C15.7727 0.323758 15.704 0.525697 15.704 1.17018V1.71585H13.7491H11.7941V1.17018C11.7941 0.525697 11.7254 0.323758 11.4375 0.134708C11.2871 0.0358862 11.2184 0.0187002 10.9348 0.0187002C10.6512 0.0187002 10.5825 0.0358862 10.4321 0.134708C10.1442 0.323758 10.0755 0.525697 10.0755 1.17018V1.71585H8.14202H6.20856V1.17018C6.20856 0.525697 6.13981 0.323758 5.85194 0.134708C5.61133 -0.0242647 5.19027 -0.0457481 4.92818 0.087446Z" fill="#6E6868"/>
<path id="Vector_2" d="M4.92837 8.25065C4.66198 8.38384 4.5202 8.62015 4.49871 8.95958C4.46434 9.49236 4.76081 9.83609 5.28928 9.87046C5.82206 9.90483 6.16579 9.60837 6.20016 9.07989C6.22164 8.73187 6.10564 8.46548 5.85214 8.29791C5.61153 8.13894 5.19046 8.11745 4.92837 8.25065Z" fill="#6E6868"/>
<path id="Vector_3" d="M8.6664 8.25065C8.40002 8.38384 8.25823 8.62015 8.23675 8.95958C8.20237 9.49236 8.49884 9.83609 9.02732 9.87046C9.56009 9.90483 9.90382 9.60837 9.93819 9.07989C9.95967 8.73187 9.84367 8.46548 9.59017 8.29791C9.34956 8.13894 8.9285 8.11745 8.6664 8.25065Z" fill="#6E6868"/>
<path id="Vector_4" d="M12.4044 8.25065C12.138 8.38384 11.9963 8.62015 11.9748 8.95958C11.9404 9.49236 12.2369 9.83609 12.7653 9.87046C13.2981 9.90483 13.6419 9.60837 13.6762 9.07989C13.6977 8.73187 13.5817 8.46548 13.3282 8.29791C13.0876 8.13894 12.6665 8.11745 12.4044 8.25065Z" fill="#6E6868"/>
<path id="Vector_5" d="M16.1425 8.25065C15.8761 8.38384 15.7343 8.62015 15.7128 8.95958C15.6784 9.49236 15.9749 9.83609 16.5034 9.87046C17.0362 9.90483 17.3799 9.60837 17.4143 9.07989C17.4357 8.73187 17.3197 8.46548 17.0662 8.29791C16.8256 8.13894 16.4046 8.11745 16.1425 8.25065Z" fill="#6E6868"/>
<path id="Vector_6" d="M15.8201 11.6623C14.7675 11.86 13.7836 12.3971 13.0317 13.1833C12.3958 13.8407 11.9618 14.6098 11.7169 15.5078C11.6138 15.8859 11.6052 15.9847 11.6052 16.7968C11.6052 17.6088 11.6138 17.7076 11.7169 18.0857C11.9747 19.031 12.4087 19.7829 13.1004 20.4746C13.7922 21.1664 14.5441 21.6003 15.4893 21.8581C15.8674 21.9612 15.9662 21.9698 16.7783 21.9698C17.5903 21.9698 17.6892 21.9612 18.0673 21.8581C19.0125 21.6003 19.7644 21.1664 20.4562 20.4746C21.1479 19.7829 21.5819 19.031 21.8397 18.0857C21.9428 17.7076 21.9514 17.6088 21.9514 16.7968C21.9514 15.9847 21.9428 15.8859 21.8397 15.5078C21.5819 14.5625 21.1479 13.8106 20.4562 13.1189C19.7601 12.4271 18.9996 11.9846 18.0673 11.7397C17.7235 11.6495 17.5431 11.628 16.9072 11.6151C16.3701 11.6065 16.0608 11.6194 15.8201 11.6623ZM17.5173 13.4282C18.6 13.6774 19.5195 14.4379 19.9492 15.4476C20.3101 16.3027 20.3101 17.2909 19.9492 18.1459C19.5195 19.1556 18.6 19.9161 17.5173 20.1653C17.122 20.2555 16.4346 20.2555 16.0393 20.1653C14.7288 19.8688 13.7062 18.8462 13.4098 17.5358C13.3195 17.1405 13.3195 16.453 13.4098 16.0577C13.7062 14.7645 14.6859 13.7677 15.9834 13.4411C16.3787 13.3423 17.1091 13.338 17.5173 13.4282Z" fill="#6E6868"/>
<path id="Vector_7" d="M16.3571 14.266C16.2497 14.3176 16.1208 14.4336 16.0564 14.5324L15.9404 14.7043L15.9275 15.8644C15.9146 16.9729 15.9189 17.0244 16.0091 17.2135C16.065 17.3295 16.1681 17.4498 16.2755 17.5185C16.4474 17.6345 16.456 17.6345 17.3454 17.6474C18.1961 17.6603 18.2562 17.656 18.4367 17.5658C18.557 17.5099 18.6773 17.4068 18.746 17.2994C18.8449 17.149 18.862 17.0803 18.862 16.7967C18.862 16.5131 18.8449 16.4444 18.746 16.294C18.5828 16.0491 18.3379 15.9374 17.9469 15.9374H17.6375V15.3702C17.6375 14.7 17.5731 14.5066 17.2809 14.3133C17.0403 14.1543 16.6192 14.1328 16.3571 14.266Z" fill="#6E6868"/>
<path id="Vector_8" d="M4.92837 11.9887C4.66198 12.1219 4.5202 12.3582 4.49871 12.6976C4.46434 13.2304 4.76081 13.5741 5.28928 13.6085C5.82206 13.6429 6.16579 13.3464 6.20016 12.8179C6.22164 12.4699 6.10564 12.2035 5.85214 12.0359C5.61153 11.877 5.19046 11.8555 4.92837 11.9887Z" fill="#6E6868"/>
<path id="Vector_9" d="M8.6664 11.9887C8.40002 12.1219 8.25823 12.3582 8.23675 12.6976C8.20237 13.2304 8.49884 13.5741 9.02732 13.6085C9.56009 13.6429 9.90382 13.3464 9.93819 12.8179C9.95967 12.4699 9.84367 12.2035 9.59017 12.0359C9.34956 11.877 8.9285 11.8555 8.6664 11.9887Z" fill="#6E6868"/>
<path id="Vector_10" d="M4.92837 15.7272C4.66198 15.8604 4.5202 16.0967 4.49871 16.4361C4.46434 16.9689 4.76081 17.3126 5.28928 17.347C5.82206 17.3814 6.16579 17.0849 6.20016 16.5564C6.22164 16.2084 6.10564 15.942 5.85214 15.7745C5.61153 15.6155 5.19046 15.594 4.92837 15.7272Z" fill="#6E6868"/>
<path id="Vector_11" d="M8.6664 15.7272C8.40002 15.8604 8.25823 16.0967 8.23675 16.4361C8.20237 16.9689 8.49884 17.3126 9.02732 17.347C9.56009 17.3814 9.90382 17.0849 9.93819 16.5564C9.95967 16.2084 9.84367 15.942 9.59017 15.7745C9.34956 15.6155 8.9285 15.594 8.6664 15.7272Z" fill="#6E6868"/>
</g>
</svg>
