<svg width="249" height="31" viewBox="0 0 249 31" fill="none" xmlns="http://www.w3.org/2000/svg">
<g id="Group">
<path id="Vector" d="M23.0738 25.4618L24.2731 26.5468C21.646 29.0026 18.1053 30.3733 14.5073 30.3161C10.6239 30.3733 6.91178 28.8313 4.22763 26.09C1.48638 23.4058 -0.0555773 19.6937 0.00153199 15.8103C-0.0555773 11.9269 1.48638 8.21473 4.22763 5.53058C6.91178 2.73221 10.6239 1.19026 14.5073 1.30448C18.1053 1.24737 21.646 2.618 24.2731 5.07371L23.0738 6.15879C20.7323 3.98863 17.7055 2.84643 14.5073 2.90355C11.0808 2.84643 7.76842 4.21706 5.42693 6.67278C2.97123 9.07137 1.6006 12.3837 1.65771 15.8103C1.6006 19.2369 2.97123 22.5492 5.42693 24.9478C7.82554 27.4035 11.1378 28.7741 14.5645 28.717C17.7055 28.7741 20.7323 27.5748 23.0738 25.4618Z" fill="#303030"/>
<path id="Vector_2" d="M63.8504 1.64725H63.9646C68.6476 1.64725 72.2455 2.96078 74.8154 5.5307C77.6138 8.21485 79.1557 11.927 79.0415 15.8105C79.0986 19.6938 77.5566 23.406 74.8154 26.0901C72.2455 28.6601 68.6476 29.9736 63.9646 29.9736H63.8504V30.0307H62.2513V1.59015L63.8504 1.64725ZM63.8504 3.30343V28.3745H63.9646C68.1907 28.3745 71.3889 27.2323 73.6732 24.9479C76.129 22.5494 77.4996 19.237 77.4424 15.8105C77.4996 12.3838 76.129 9.07149 73.6732 6.67289C71.3889 4.44562 68.1907 3.30343 63.9646 3.30343H63.8504Z" fill="#303030"/>
<path id="Vector_3" d="M97.716 1.59015V3.18922H85.0948V14.9537H97.6589V16.5529H85.0948V28.3174H97.6589V29.9164H83.4957V1.59015H97.716Z" fill="#303030"/>
<path id="Vector_4" d="M130.555 1.24755V2.84662H118.105V14.497H130.555V16.096H118.105V27.8035H130.555V29.4025H116.505V1.24755H130.555Z" fill="#303030"/>
<path id="Vector_5" d="M147.686 1.24755V2.84662H136.95V14.497H147.686V16.096H136.95V29.3454H135.351V1.24755H147.686Z" fill="#303030"/>
<path id="Vector_6" d="M164.82 1.24755V2.84662H154.083V14.497H164.82V16.096H154.083V29.3454H152.484V1.24755H164.82Z" fill="#303030"/>
<path id="Vector_7" d="M183.666 1.24755V2.84662H171.216V14.497H183.666V16.096H171.216V27.8035H183.666V29.4025H169.617V1.24755H183.666Z" fill="#303030"/>
<path id="Vector_8" d="M210.965 24.8908L212.164 25.9759C206.452 31.1157 197.715 30.9444 192.29 25.519C189.548 22.8349 188.006 19.1798 188.063 15.3535C188.006 11.5271 189.548 7.81505 192.29 5.18801C197.715 -0.23739 206.452 -0.465829 212.164 4.73114L210.965 5.81622C205.882 1.30456 198.229 1.59012 193.432 6.3302C190.976 8.67169 189.663 11.9841 189.72 15.3535C189.663 18.78 191.033 22.0353 193.432 24.3768C198.229 29.1169 205.882 29.3454 210.965 24.8908Z" fill="#303030"/>
<path id="Vector_9" d="M223.472 2.84662V29.3454H221.872V2.84662H214.733V1.24755H230.554V2.84662H223.472Z" fill="#303030"/>
<path id="Vector_10" d="M241.118 13.8116C239.348 13.2976 237.691 12.3268 236.378 11.0704C235.236 9.98531 234.607 8.44332 234.665 6.84425C234.665 5.3023 235.236 3.76035 236.378 2.67527C238.719 0.333774 242.489 0.333774 244.83 2.67527C245.458 3.24636 245.915 3.98878 246.201 4.73121L244.773 5.3023C244.545 4.73121 244.202 4.16011 243.745 3.70323C242.032 1.98995 239.291 1.98995 237.577 3.70323C236.778 4.50277 236.321 5.64496 236.321 6.78715C236.321 7.92933 236.778 9.07153 237.577 9.8711C238.548 10.7848 239.69 11.5272 240.89 12.0412C243.003 12.7266 244.944 13.8688 246.544 15.4107C248.143 16.9527 248.999 19.0657 248.999 21.293C249.056 25.9188 245.401 29.6881 240.775 29.7451C236.606 29.8023 233.009 26.7755 232.437 22.6636L233.923 22.0925C234.379 25.8046 237.749 28.4317 241.461 27.9747C244.83 27.575 247.4 24.7195 247.4 21.293C247.4 19.5226 246.715 17.7521 245.458 16.4957C244.145 15.3536 242.717 14.4398 241.118 13.8116Z" fill="#303030"/>
<path id="Vector_11" d="M43.177 7.64365C43.177 9.41404 41.6921 10.8989 39.9217 10.8989C38.1513 10.8989 36.6665 9.41404 36.6665 7.64365C36.6665 5.87326 38.1513 4.38841 39.9217 4.38841C41.7493 4.38841 43.177 5.87326 43.177 7.64365Z" fill="#7A44A1"/>
<path id="Vector_12" d="M50.3724 16.153C50.3724 16.8382 49.8012 17.3522 49.173 17.3522C48.5448 17.3522 47.9737 16.7812 47.9737 16.153C47.9737 15.4676 48.5448 14.9537 49.173 14.9537C49.8012 14.9537 50.3724 15.5248 50.3724 16.153Z" fill="#7A44A1"/>
<path id="Vector_13" d="M47.1174 5.58769C47.1174 6.55856 46.375 7.30098 45.4042 7.30098C44.4333 7.30098 43.6909 6.55856 43.6909 5.58769C43.6909 4.61683 44.4333 3.87441 45.4042 3.87441C46.375 3.87441 47.1174 4.61683 47.1174 5.58769Z" fill="#7A44A1"/>
<path id="Vector_14" d="M36.438 8.15784C36.438 8.61471 36.0383 9.01448 35.5813 9.01448C35.1245 9.01448 34.7247 8.61471 34.7247 8.15784C34.7247 7.70096 35.1245 7.3012 35.5813 7.3012C36.0383 7.3012 36.438 7.64385 36.438 8.15784Z" fill="#7A44A1"/>
<path id="Vector_15" d="M35.5807 10.0423C35.5807 10.3849 35.2953 10.6705 34.9525 10.6705C34.6099 10.6705 34.3244 10.3849 34.3244 10.0423C34.3244 9.69965 34.6099 9.41406 34.9525 9.41406C35.2953 9.41406 35.5807 9.69965 35.5807 10.0423Z" fill="#7A44A1"/>
<path id="Vector_16" d="M42.7771 14.0401C42.7771 14.3828 42.4915 14.6683 42.1489 14.6683C41.8062 14.6683 41.5207 14.3828 41.5207 14.0401C41.5207 13.6975 41.8062 13.4119 42.1489 13.4119C42.4915 13.3548 42.7771 13.6403 42.7771 14.0401Z" fill="#7A44A1"/>
<path id="Vector_17" d="M47.6309 16.5528C47.6309 17.1239 47.1741 17.5808 46.6029 17.5808C46.0319 17.5808 45.5749 17.1239 45.5749 16.5528C45.5749 15.9817 46.0319 15.5248 46.6029 15.5248C47.1741 15.5248 47.6309 15.9817 47.6309 16.5528Z" fill="#7A44A1"/>
<path id="Vector_18" d="M40.664 17.4666C41.3894 17.4666 41.9775 16.8786 41.9775 16.1532C41.9775 15.4277 41.3894 14.8396 40.664 14.8396C39.9385 14.8396 39.3505 15.4277 39.3505 16.1532C39.3505 16.8786 39.9385 17.4666 40.664 17.4666Z" fill="#7A44A1"/>
<path id="Vector_19" d="M38.3797 12.2695C38.3797 13.2975 37.5802 14.097 36.5522 14.097C35.5243 14.097 34.7247 13.2975 34.7247 12.2695C34.7247 11.2415 35.5243 10.4421 36.5522 10.4421C37.5802 10.4421 38.3797 11.2987 38.3797 12.2695Z" fill="#7A44A1"/>
<path id="Vector_20" d="M45.918 8.50041C45.918 8.95729 45.5183 9.35705 45.0614 9.35705C44.6045 9.35705 44.2047 8.95729 44.2047 8.50041C44.2047 8.04353 44.6045 7.64377 45.0614 7.64377C45.5183 7.64377 45.918 7.98643 45.918 8.50041Z" fill="#7A44A1"/>
<path id="Vector_21" d="M45.4038 11.4701C45.4038 12.2126 44.8326 12.7836 44.0902 12.7836C43.3478 12.7836 42.7767 12.2126 42.7767 11.4701C42.7767 10.7277 43.3478 10.1566 44.0902 10.1566C44.7755 10.1566 45.3466 10.7277 45.4038 11.4701Z" fill="#7A44A1"/>
<path id="Vector_22" d="M52.5994 12.6122C52.5994 13.7545 51.6285 14.7253 50.4863 14.7253C49.3441 14.7253 48.3733 13.7545 48.3733 12.6122C48.3733 11.47 49.3441 10.4992 50.4863 10.4992C51.6285 10.4992 52.5994 11.47 52.5994 12.6122Z" fill="#7A44A1"/>
<path id="Vector_23" d="M52.4859 9.81384C52.4859 10.2708 52.1432 10.6134 51.7435 10.6134C51.2866 10.6134 50.9439 10.2708 50.9439 9.81384C50.9439 9.35697 51.2866 9.01432 51.6863 9.01432C52.1432 9.01432 52.4859 9.35697 52.4859 9.81384Z" fill="#7A44A1"/>
<path id="Vector_24" d="M41.3494 13.0692C41.3494 13.8116 40.7212 14.4398 39.9787 14.4398C39.2363 14.4398 38.6081 13.8116 38.6081 13.0692C38.6081 12.3268 39.2363 11.6986 39.9787 11.6986C40.7783 11.6986 41.3494 12.2696 41.3494 13.0692Z" fill="#7A44A1"/>
<path id="Vector_25" d="M50.1443 8.50045C50.1443 9.47131 49.3447 10.2709 48.3739 10.2709C47.4031 10.2709 46.6035 9.47131 46.6035 8.50045C46.6035 7.52959 47.4031 6.73006 48.3739 6.73006C49.3447 6.73006 50.1443 7.47248 50.1443 8.50045Z" fill="#7A44A1"/>
<path id="Vector_26" d="M48.3738 5.98754C48.3738 6.21598 48.2025 6.44442 47.9169 6.44442C47.6885 6.44442 47.4601 6.27309 47.4601 5.98754C47.4601 5.7591 47.6313 5.53066 47.9169 5.53066C48.1453 5.58778 48.3738 5.7591 48.3738 5.98754Z" fill="#7A44A1"/>
<path id="Vector_27" d="M51.4005 8.50036C51.4005 8.72879 51.2292 8.95723 50.9437 8.95723C50.7153 8.95723 50.4868 8.7859 50.4868 8.50036C50.4868 8.27191 50.6581 8.04347 50.9437 8.04347C51.2292 8.04347 51.4005 8.21481 51.4005 8.50036Z" fill="#7A44A1"/>
<path id="Vector_28" d="M50.6007 6.73008C50.6007 6.95852 50.4293 7.18695 50.1438 7.18695C49.9153 7.18695 49.6869 7.01563 49.6869 6.73008C49.6869 6.50164 49.8583 6.27321 50.0867 6.27321C50.3722 6.27321 50.6007 6.44453 50.6007 6.73008C50.6007 6.67297 50.6007 6.67297 50.6007 6.73008Z" fill="#7A44A1"/>
<path id="Vector_29" d="M43.2335 4.61698C43.2335 4.84542 43.0621 5.07386 42.7766 5.07386C42.5481 5.07386 42.3197 4.90252 42.3197 4.61698C42.3197 4.38854 42.491 4.1601 42.7766 4.1601C43.0621 4.1601 43.2335 4.33143 43.2335 4.61698Z" fill="#7A44A1"/>
<path id="Vector_30" d="M48.0311 11.47C48.0311 11.984 47.6313 12.3838 47.1173 12.3838C46.6033 12.3838 46.2607 11.984 46.2607 11.5272C46.2607 11.0704 46.6605 10.6706 47.1173 10.6134C47.6313 10.5564 48.0311 10.9561 48.0311 11.47Z" fill="#7A44A1"/>
<path id="Vector_31" d="M48.0305 13.9257C48.0305 14.4397 47.6308 14.8395 47.1168 14.8395C46.6028 14.8395 46.2031 14.4397 46.2031 13.9257C46.2031 13.4117 46.6028 13.012 47.1168 13.012C47.5737 13.012 48.0305 13.4117 48.0305 13.9257Z" fill="#7A44A1"/>
<path id="Vector_32" d="M48.1453 17.9234C48.1453 18.0948 47.974 18.266 47.8027 18.266C47.6313 18.266 47.4601 18.0948 47.4601 17.9234C47.4601 17.695 47.5743 17.5236 47.8027 17.5236C48.0311 17.5236 48.2025 17.6378 48.2025 17.8663C48.1453 17.8663 48.1453 17.9234 48.1453 17.9234Z" fill="#7A44A1"/>
<path id="Vector_33" d="M49.744 18.5516C49.744 18.8942 49.4585 19.1798 49.1159 19.1798C48.7731 19.1798 48.4876 18.8942 48.4876 18.5516C48.4876 18.2089 48.7731 17.9234 49.0587 17.9234C49.4585 17.9234 49.744 18.1518 49.744 18.5516Z" fill="#7A44A1"/>
<path id="Vector_34" d="M48.3738 19.1799C48.3738 19.4083 48.2025 19.6368 47.9169 19.6368C47.6885 19.6368 47.4601 19.4655 47.4601 19.1799C47.4601 18.8943 47.6313 18.7231 47.9169 18.7231C48.1453 18.7231 48.3738 18.8943 48.3738 19.1799Z" fill="#7A44A1"/>
<path id="Vector_35" d="M49.1161 20.3791C49.1161 20.6075 48.9447 20.8359 48.6593 20.8359C48.4308 20.8359 48.2023 20.6646 48.2023 20.3791C48.2023 20.0935 48.3737 19.9222 48.6593 19.9222C48.9447 19.9222 49.1161 20.0935 49.1161 20.3791Z" fill="#7A44A1"/>
<path id="Vector_36" d="M42.3195 30.6588H32.5539C32.1541 30.6588 31.8115 30.3162 31.8115 29.9164V23.1775H29.8697C29.47 23.1775 29.1273 22.8349 29.1273 22.4351V13.4689C29.1844 9.58542 30.8977 5.93042 33.8103 3.36049C36.0946 1.41876 40.0923 -0.694291 46.4315 0.219461C50.8289 0.90477 53.9699 3.30337 55.5119 7.18682C57.682 12.7265 56.2543 20.5504 52.0853 25.7474C51.7997 26.033 51.3429 26.0901 51.0003 25.8045C50.7147 25.519 50.6576 25.1192 50.886 24.7765C54.6553 20.0364 56.0259 12.6693 54.0841 7.70081C52.7707 4.33135 50.0294 2.21829 46.203 1.6472C40.4921 0.847665 36.837 2.78938 34.8382 4.50267C32.2113 6.72994 30.7263 9.98521 30.6693 13.4117V21.6355H32.5539C32.9537 21.6355 33.2963 21.9782 33.2963 22.3779V29.1168H42.3195C42.7193 29.1168 43.0621 29.4596 43.0621 29.8593C43.0621 30.259 42.7765 30.6588 42.3195 30.6588Z" fill="url(#paint0_linear_12_2190)"/>
</g>
<defs>
<linearGradient id="paint0_linear_12_2190" x1="29.0987" y1="15.32" x2="56.4788" y2="15.32" gradientUnits="userSpaceOnUse">
<stop stop-color="#26A9E1"/>
<stop offset="1" stop-color="#3F6CFF"/>
</linearGradient>
</defs>
</svg>
