<svg width="22" height="22" viewBox="0 0 22 22" fill="none" xmlns="http://www.w3.org/2000/svg">
<g id="Black">
<path id="Vector" d="M4.92818 0.087446C4.82076 0.139006 4.69186 0.255012 4.62742 0.353834C4.52 0.517104 4.51141 0.560069 4.49852 1.11862L4.48563 1.70726L3.59624 1.72444C2.77559 1.74163 2.68107 1.75452 2.36312 1.85764C1.80027 2.04669 1.42217 2.283 0.983917 2.72125C0.549962 3.1552 0.31365 3.5333 0.116008 4.10045L0 4.44418V11.8558V19.2674L0.116008 19.6111C0.31365 20.1783 0.549962 20.5563 0.983917 20.9903C1.41787 21.4243 1.79597 21.6606 2.36312 21.8582L2.70684 21.9742L6.46206 21.9871L10.213 22L10.4063 21.9055C10.5223 21.8496 10.6426 21.7465 10.7114 21.6391C10.8102 21.4887 10.8274 21.42 10.8274 21.1364C10.8274 20.8528 10.8102 20.7841 10.7114 20.6337C10.6426 20.5306 10.5223 20.4232 10.4106 20.3673C10.2216 20.2771 10.1958 20.2771 6.87023 20.2771C4.87232 20.2771 3.40289 20.2599 3.22243 20.2341C2.44046 20.1224 1.85183 19.5338 1.74011 18.7518C1.68426 18.3436 1.68426 5.36794 1.74011 4.95977C1.79597 4.56878 1.95924 4.23794 2.22992 3.96726C2.6381 3.56338 3.05916 3.43878 4.00871 3.43448H4.48993V3.98015C4.48993 4.62463 4.55867 4.82657 4.84654 5.01562C4.99692 5.11444 5.06567 5.13163 5.34924 5.13163C5.63282 5.13163 5.70156 5.11444 5.85194 5.01562C6.13981 4.82657 6.20856 4.62463 6.20856 3.98015V3.43448H8.14202H10.0755V3.98015C10.0755 4.62463 10.1442 4.82657 10.4321 5.01562C10.5825 5.11444 10.6512 5.13163 10.9348 5.13163C11.2184 5.13163 11.2871 5.11444 11.4375 5.01562C11.7254 4.82657 11.7941 4.62463 11.7941 3.98015V3.43448H13.7491H15.704V3.98015C15.704 4.62463 15.7727 4.82657 16.0606 5.01562C16.211 5.11444 16.2797 5.13163 16.5633 5.13163C16.8469 5.13163 16.9156 5.11444 17.066 5.01562C17.3539 4.82657 17.4226 4.62463 17.4226 3.98015V3.43448H17.9296C18.8964 3.43878 19.3174 3.56338 19.7256 3.96726C19.9963 4.23794 20.1595 4.56878 20.2154 4.95977C20.2369 5.13163 20.2584 6.33038 20.2584 7.76973C20.2584 10.2403 20.2584 10.2832 20.3486 10.4723C20.4045 10.584 20.5119 10.7043 20.615 10.773C20.7654 10.8719 20.8341 10.889 21.1177 10.889C21.4013 10.889 21.47 10.8719 21.6204 10.773C21.7278 10.7043 21.8309 10.584 21.8868 10.468C21.9813 10.2746 21.9813 10.2703 21.9684 7.36155L21.9555 4.44418L21.8395 4.10045C21.6419 3.5333 21.4056 3.1552 20.9716 2.72125C20.5334 2.283 20.1553 2.04669 19.5924 1.85764C19.2745 1.75022 19.1842 1.74163 18.3378 1.72444L17.4226 1.70726V1.16589C17.4226 0.525697 17.3539 0.323758 17.066 0.134708C16.9156 0.0358862 16.8469 0.0187002 16.5633 0.0187002C16.2797 0.0187002 16.211 0.0358862 16.0606 0.134708C15.7727 0.323758 15.704 0.525697 15.704 1.17018V1.71585H13.7491H11.7941V1.17018C11.7941 0.525697 11.7254 0.323758 11.4375 0.134708C11.2871 0.0358862 11.2184 0.0187002 10.9348 0.0187002C10.6512 0.0187002 10.5825 0.0358862 10.4321 0.134708C10.1442 0.323758 10.0755 0.525697 10.0755 1.17018V1.71585H8.14202H6.20856V1.17018C6.20856 0.525697 6.13981 0.323758 5.85194 0.134708C5.61133 -0.0242647 5.19027 -0.0457481 4.92818 0.087446Z" fill="#6E6868"/>
<path id="Vector_2" d="M4.92819 8.25065C4.6618 8.38384 4.52001 8.62015 4.49853 8.95958C4.46416 9.49236 4.76062 9.83609 5.2891 9.87046C5.82188 9.90483 6.1656 9.60837 6.19997 9.07989C6.22146 8.73187 6.10545 8.46548 5.85195 8.29791C5.61134 8.13894 5.19028 8.11745 4.92819 8.25065Z" fill="#6E6868"/>
<path id="Vector_3" d="M8.66622 8.25065C8.39983 8.38384 8.25804 8.62015 8.23656 8.95958C8.20219 9.49236 8.49865 9.83609 9.02713 9.87046C9.55991 9.90483 9.90363 9.60837 9.93801 9.07989C9.95949 8.73187 9.84348 8.46548 9.58998 8.29791C9.34938 8.13894 8.92831 8.11745 8.66622 8.25065Z" fill="#6E6868"/>
<path id="Vector_4" d="M12.4043 8.25065C12.1379 8.38384 11.9961 8.62015 11.9747 8.95958C11.9403 9.49236 12.2367 9.83609 12.7652 9.87046C13.298 9.90483 13.6417 9.60837 13.6761 9.07989C13.6976 8.73187 13.5816 8.46548 13.3281 8.29791C13.0875 8.13894 12.6664 8.11745 12.4043 8.25065Z" fill="#6E6868"/>
<path id="Vector_5" d="M16.1423 8.25065C15.8759 8.38384 15.7341 8.62015 15.7126 8.95958C15.6783 9.49236 15.9747 9.83609 16.5032 9.87046C17.036 9.90483 17.3797 9.60837 17.4141 9.07989C17.4356 8.73187 17.3195 8.46548 17.066 8.29791C16.8254 8.13894 16.4044 8.11745 16.1423 8.25065Z" fill="#6E6868"/>
<path id="Vector_6" d="M15.82 11.6623C14.7674 11.86 13.7834 12.3971 13.0315 13.1833C12.3957 13.8407 11.9617 14.6098 11.7168 15.5078C11.6137 15.8859 11.6051 15.9847 11.6051 16.7968C11.6051 17.6088 11.6137 17.7076 11.7168 18.0857C11.9746 19.031 12.4085 19.7829 13.1003 20.4746C13.792 21.1664 14.5439 21.6003 15.4892 21.8581C15.8673 21.9612 15.9661 21.9698 16.7782 21.9698C17.5902 21.9698 17.689 21.9612 18.0671 21.8581C19.0124 21.6003 19.7643 21.1664 20.456 20.4746C21.1478 19.7829 21.5817 19.031 21.8395 18.0857C21.9427 17.7076 21.9512 17.6088 21.9512 16.7968C21.9512 15.9847 21.9427 15.8859 21.8395 15.5078C21.5817 14.5625 21.1478 13.8106 20.456 13.1189C19.76 12.4271 18.9995 11.9846 18.0671 11.7397C17.7234 11.6495 17.543 11.628 16.9071 11.6151C16.37 11.6065 16.0606 11.6194 15.82 11.6623ZM17.5172 13.4282C18.5999 13.6774 19.5194 14.4379 19.949 15.4476C20.31 16.3027 20.31 17.2909 19.949 18.1459C19.5194 19.1556 18.5999 19.9161 17.5172 20.1653C17.1219 20.2555 16.4344 20.2555 16.0392 20.1653C14.7287 19.8688 13.7061 18.8462 13.4096 17.5358C13.3194 17.1405 13.3194 16.453 13.4096 16.0577C13.7061 14.7645 14.6857 13.7677 15.9833 13.4411C16.3786 13.3423 17.109 13.338 17.5172 13.4282Z" fill="#6E6868"/>
<path id="Vector_7" d="M16.3571 14.266C16.2497 14.3176 16.1208 14.4336 16.0563 14.5324L15.9403 14.7043L15.9274 15.8644C15.9145 16.9729 15.9188 17.0244 16.0091 17.2135C16.0649 17.3295 16.168 17.4498 16.2754 17.5185C16.4473 17.6345 16.4559 17.6345 17.3453 17.6474C18.196 17.6603 18.2562 17.656 18.4366 17.5658C18.5569 17.5099 18.6772 17.4068 18.746 17.2994C18.8448 17.149 18.862 17.0803 18.862 16.7967C18.862 16.5131 18.8448 16.4444 18.746 16.294C18.5827 16.0491 18.3378 15.9374 17.9468 15.9374H17.6375V15.3702C17.6375 14.7 17.573 14.5066 17.2808 14.3133C17.0402 14.1543 16.6192 14.1328 16.3571 14.266Z" fill="#6E6868"/>
<path id="Vector_8" d="M4.92819 11.9887C4.6618 12.1219 4.52001 12.3582 4.49853 12.6976C4.46416 13.2304 4.76062 13.5741 5.2891 13.6085C5.82188 13.6429 6.1656 13.3464 6.19997 12.8179C6.22146 12.4699 6.10545 12.2035 5.85195 12.0359C5.61134 11.877 5.19028 11.8555 4.92819 11.9887Z" fill="#6E6868"/>
<path id="Vector_9" d="M8.66622 11.9887C8.39983 12.1219 8.25804 12.3582 8.23656 12.6976C8.20219 13.2304 8.49865 13.5741 9.02713 13.6085C9.55991 13.6429 9.90363 13.3464 9.93801 12.8179C9.95949 12.4699 9.84348 12.2035 9.58998 12.0359C9.34938 11.877 8.92831 11.8555 8.66622 11.9887Z" fill="#6E6868"/>
<path id="Vector_10" d="M4.92819 15.7272C4.6618 15.8604 4.52001 16.0967 4.49853 16.4361C4.46416 16.9689 4.76062 17.3126 5.2891 17.347C5.82188 17.3814 6.1656 17.0849 6.19997 16.5564C6.22146 16.2084 6.10545 15.942 5.85195 15.7745C5.61134 15.6155 5.19028 15.594 4.92819 15.7272Z" fill="#6E6868"/>
<path id="Vector_11" d="M8.66622 15.7272C8.39983 15.8604 8.25804 16.0967 8.23656 16.4361C8.20219 16.9689 8.49865 17.3126 9.02713 17.347C9.55991 17.3814 9.90363 17.0849 9.93801 16.5564C9.95949 16.2084 9.84348 15.942 9.58998 15.7745C9.34938 15.6155 8.92831 15.594 8.66622 15.7272Z" fill="#6E6868"/>
</g>
</svg>
