<svg width="28" height="28" viewBox="0 0 28 28" fill="none" xmlns="http://www.w3.org/2000/svg">
<g id="#07 Icon/Quote Large Reverse">
<path id="Vector" d="M15.6402 21.1023L16.4524 22.4C22.0759 18.4745 25.2 13.7055 25.2 9.77999C25.2 5.98426 22.5132 4.19995 20.2326 4.19995C17.3584 4.19995 15.3277 6.73043 15.3277 9.39068C15.3277 11.6292 16.7024 13.5433 18.5456 14.257C19.0767 14.4516 19.5766 14.6139 19.5766 15.5547C19.5766 16.755 18.733 18.5393 15.6402 21.1023ZM3.23737 21.1023L4.04964 22.4C9.61059 18.4745 12.7972 13.7055 12.7972 9.77999C12.7972 5.98426 10.048 4.19995 7.76735 4.19995C4.86191 4.19995 2.79999 6.73043 2.79999 9.39068C2.79999 11.6292 4.20585 13.5433 6.11156 14.257C6.64267 14.4516 7.11129 14.6139 7.11129 15.5547C7.11129 16.755 6.23653 18.5393 3.23737 21.1023Z" fill="#376AED"/>
</g>
</svg>
