<svg width="28" height="28" viewBox="0 0 28 28" fill="none" xmlns="http://www.w3.org/2000/svg">
<g id="#07 Icon/Quote Large">
<path id="Vector" d="M12.3598 5.49763L11.5476 4.19995C5.92413 8.12544 2.8 12.8944 2.8 16.8199C2.8 20.6156 5.48675 22.4 7.76737 22.4C10.6416 22.4 12.6722 19.8695 12.6722 17.2092C12.6722 14.9707 11.2976 13.0566 9.4544 12.3429C8.92329 12.1483 8.42343 11.986 8.42343 11.0452C8.42343 9.84487 9.26695 8.06056 12.3598 5.49763ZM24.7626 5.49763L23.9504 4.19995C18.3894 8.12544 15.2028 12.8944 15.2028 16.8199C15.2028 20.6156 17.952 22.4 20.2326 22.4C23.1381 22.4 25.2 19.8695 25.2 17.2092C25.2 14.9707 23.7941 13.0566 21.8884 12.3429C21.3573 12.1483 20.8887 11.986 20.8887 11.0452C20.8887 9.84487 21.7635 8.06056 24.7626 5.49763Z" fill="#376AED"/>
</g>
</svg>
