<svg width="28" height="28" viewBox="0 0 28 28" fill="none" xmlns="http://www.w3.org/2000/svg">
<g id="#07 Icon/Quote Large Reverse">
<path id="Vector" d="M15.6402 21.1023L16.4524 22.4C22.0759 18.4745 25.2 13.7055 25.2 9.77999C25.2 5.98426 22.5133 4.19995 20.2326 4.19995C17.3584 4.19995 15.3278 6.73043 15.3278 9.39068C15.3278 11.6292 16.7024 13.5433 18.5456 14.257C19.0767 14.4516 19.5766 14.6139 19.5766 15.5547C19.5766 16.755 18.7331 18.5393 15.6402 21.1023ZM3.23738 21.1023L4.04965 22.4C9.6106 18.4745 12.7972 13.7055 12.7972 9.77999C12.7972 5.98426 10.048 4.19995 7.76737 4.19995C4.86193 4.19995 2.8 6.73043 2.8 9.39068C2.8 11.6292 4.20586 13.5433 6.11158 14.257C6.64268 14.4516 7.1113 14.6139 7.1113 15.5547C7.1113 16.755 6.23654 18.5393 3.23738 21.1023Z" fill="#376AED"/>
</g>
</svg>
