<svg width="105" height="40" viewBox="0 0 105 40" fill="none" xmlns="http://www.w3.org/2000/svg">
<g clip-path="url(#clip0_572_7588)">
<mask id="mask0_572_7588" style="mask-type:luminance" maskUnits="userSpaceOnUse" x="0" y="0" width="105" height="40">
<path d="M104.495 0H0.393555V39.4263H104.495V0Z" fill="white"/>
</mask>
<g mask="url(#mask0_572_7588)">
<path d="M82.1733 18.3389C82.1733 18.6418 82.1661 18.9448 82.1661 19.246V38.5615H74.877V5.55275C74.9651 5.55275 75.0533 5.54259 75.1414 5.54259C77.0834 5.54259 79.0366 5.54259 80.9839 5.54259C81.1477 5.52905 81.3076 5.60352 81.4036 5.73722C86.5277 12.1159 91.6531 18.4912 96.7838 24.8665C96.8345 24.9291 96.8884 24.9884 96.9917 25.1051V5.55952H104.281V38.5801H104.033C102.289 38.5801 100.542 38.5801 98.7949 38.5801C98.6423 38.5919 98.493 38.5225 98.4048 38.3973C94.5385 33.5892 90.6703 28.7827 86.8021 23.978C85.2824 22.0892 83.7588 20.2005 82.2306 18.3152L82.1746 18.2644L82.1733 18.3389Z" fill="#EB0017"/>
<path d="M53.891 39.4093C49.9211 39.2942 45.797 37.6441 42.4506 34.239C39.0755 30.8 37.3828 26.6299 37.4523 21.7964C37.5201 17.1118 39.2534 13.0941 42.5472 9.78876C45.514 6.81352 49.1145 5.12282 53.3013 4.80973C58.7063 4.40862 63.3608 6.15011 67.1424 10.0427C70.3956 13.3852 72.0034 17.4588 71.9968 22.118C71.9817 31.5972 64.3503 39.3636 53.891 39.4093ZM64.6705 22.8592C64.6705 19.2967 63.6912 16.9511 61.7799 15.0166C59.8704 13.0822 57.4898 12.0938 54.7619 12.0719C52.0357 12.0516 49.6534 13.0297 47.7235 14.9675C45.4632 17.2354 44.4669 20.0109 44.8126 23.2028C45.0345 25.4114 46.019 27.4728 47.5947 29.0314C49.8245 31.2739 52.5287 32.3114 55.6887 32.0236C60.4312 31.5904 64.7468 27.4829 64.6705 22.8592Z" fill="#EB0017"/>
<path d="M40.158 38.58H39.8598C37.3894 38.58 34.9207 38.58 32.452 38.58C32.2928 38.6037 32.1386 38.5073 32.0928 38.3515C30.1511 33.6569 28.2026 28.9638 26.2507 24.2741C25.7508 23.0776 25.2374 21.8828 24.7342 20.6828C24.2683 19.5743 23.8074 18.4675 23.3483 17.3589C22.396 15.0455 21.4421 12.7302 20.4915 10.4151C20.4594 10.3422 20.4187 10.2729 20.3577 10.1578C18.277 15.1808 16.2133 20.1464 14.1326 25.1525H14.4647C17.0554 25.1525 19.6444 25.1525 22.2282 25.1525C22.3994 25.1271 22.5603 25.2338 22.6061 25.4013C23.5143 27.4965 24.4293 29.5883 25.3493 31.6801C25.3849 31.7614 25.4153 31.8459 25.4645 31.9695H25.1155C20.6203 31.9695 16.1218 31.9678 11.6199 31.9627C11.3555 31.9627 11.2607 32.0592 11.1709 32.2742C10.3356 34.3017 9.49173 36.3241 8.65644 38.3482C8.59546 38.4955 8.54289 38.5851 8.35481 38.5851C5.81329 38.5767 3.27005 38.5767 0.728513 38.5851C0.701403 38.5851 0.674293 38.5851 0.61499 38.575C0.635323 38.4971 0.662433 38.4209 0.691237 38.3448C3.30055 32.3164 5.90987 26.2881 8.52085 20.2597C11.3979 13.6136 14.2732 6.96249 17.1469 0.307967C17.2401 0.0930313 17.3434 0.0151802 17.5841 0.0168726C19.4478 0.0287195 21.315 0.0287195 23.1839 0.0168726C23.4279 0.0168726 23.5261 0.101493 23.6194 0.313044C26.2439 6.39386 28.8735 12.4747 31.5066 18.5521C34.3497 25.1238 37.1946 31.6988 40.0377 38.2754C40.0699 38.3652 40.1071 38.4565 40.158 38.58Z" fill="#EB0017"/>
<path d="M82.1727 18.3396L82.1794 18.2644L82.2359 18.3157L82.1727 18.3396Z" fill="#F8BEC4"/>
</g>
</g>
<defs>
<clipPath id="clip0_572_7588">
<rect width="104.6" height="39.4263" fill="white" transform="translate(0.211426)"/>
</clipPath>
</defs>
</svg>
