<svg width="152" height="28" viewBox="0 0 152 28" fill="none" xmlns="http://www.w3.org/2000/svg">
<path d="M13.5497 12.4605C16.071 11.8209 18.9074 10.0089 18.9074 6.91766C18.9074 2.33414 14.6002 2.33414 12.3942 2.33414H3.35976C3.77997 2.54733 3.99007 3.71986 3.99007 5.31876C3.99007 7.23744 3.88502 9.90228 3.56986 13.5265L3.46481 15.0188C3.04461 21.3078 2.8345 24.9319 1.784 25.7847H9.87296C16.071 25.7847 19.8528 22.5869 19.8528 18.4297C19.9579 14.5924 17.2266 12.8869 13.5497 12.4605ZM8.19214 10.1154C8.29715 8.40997 8.50725 6.70447 8.71736 5.10557C9.24265 4.99898 9.87296 4.99898 10.2932 4.99898C13.0245 4.99898 14.2851 6.1715 14.2851 7.77041C14.2851 10.5418 11.5538 11.6078 8.61234 11.6078H8.08705L8.19214 10.1154ZM9.66286 22.8C8.08705 22.8 7.45676 22.3737 7.45676 22.1605C7.45676 20.6682 7.56181 19.4957 7.66686 17.8968L7.87694 14.4858H9.55777C12.6043 14.4858 15.0204 15.4451 15.0204 18.5363C15.0204 21.3078 12.9194 22.8 9.66286 22.8ZM145.389 12.1407C143.078 10.6484 140.872 9.36932 140.872 7.66381C140.872 5.53194 142.658 4.6792 144.654 4.6792C146.965 4.6792 148.961 6.06491 149.907 7.77041L150.536 2.22755C148.961 2.22755 147.385 1.80117 144.864 1.80117C140.557 1.80117 136.355 3.50667 136.355 8.51654C136.355 11.9276 138.771 13.7396 142.553 16.0847C144.339 17.1507 145.809 18.3232 145.809 20.0286C145.809 22.1605 144.023 23.333 141.607 23.333C138.456 23.333 136.355 21.521 135.199 19.0693L134.779 24.9319C137.195 25.8913 139.296 26.2111 141.292 26.2111C146.23 26.2111 150.432 23.4397 150.432 19.0693C150.432 15.6583 147.91 13.7396 145.389 12.1407ZM128.896 13.1001C130.052 11.1814 135.409 2.54733 136.67 2.33414H130.471C130.682 2.54733 130.787 3.18688 130.787 3.71986C130.787 4.46601 130.471 5.10557 130.157 5.74513C128.686 8.09019 127.635 9.90228 125.954 12.354C125.324 10.4353 124.168 7.877 122.698 4.35942C121.752 2.22755 121.332 2.01436 119.757 2.01436C118.916 2.01436 117.025 2.12095 115.66 2.22755C116.5 2.65392 117.761 4.6792 118.916 6.81106C120.702 10.222 121.858 13.1001 122.698 16.0847C122.803 18.1099 122.278 24.7188 121.227 25.7847H127.53C127.005 25.2517 126.9 23.866 126.9 22.8C126.9 20.2419 127.11 17.8968 127.425 16.1913C127.635 15.2319 128.37 14.0594 128.896 13.1001ZM60.9278 21.8408L56.2005 15.4451C55.8854 15.0188 55.3601 14.2726 55.045 14.0594C58.0915 13.1001 60.6127 11.0748 60.6127 7.34403C60.6127 2.76051 56.7258 2.33414 53.9945 2.33414H45.3803C45.8005 2.54733 46.0106 3.61326 46.0106 5.31876C46.0106 7.23744 45.9055 9.90228 45.5904 13.5265L45.4853 15.0188C44.9601 22.2671 44.6449 25.0386 43.6995 25.7847H50.0025C49.5823 25.5715 49.3722 24.3989 49.3722 22.8C49.3722 21.4144 49.4773 19.4957 49.5823 17.044L49.6874 15.3385H49.7924C50.6329 15.3385 50.948 15.8715 51.4733 16.511L57.9865 25.6781C58.5117 26.4242 58.9319 26.744 60.7177 26.744C61.8733 26.744 63.6592 26.6375 64.9198 26.5308C64.1845 25.9978 63.8693 25.7847 60.9278 21.8408ZM51.1581 12.354C50.843 12.354 50.4228 12.3539 50.1076 12.2473L50.2127 10.6484C50.4228 7.877 50.5278 6.06491 50.7379 5.10557C51.2632 4.99898 51.9985 4.99898 52.5238 4.99898C54.7298 4.99898 55.9904 6.06491 55.9904 7.877C55.9904 10.6484 53.9945 12.354 51.1581 12.354ZM38.2368 15.2319L37.2914 11.6078C36.1357 7.34403 34.7701 2.33414 34.7701 2.33414H29.7276C29.9377 2.54733 30.0428 3.08029 30.0428 3.61326C30.0428 4.14623 28.467 7.66381 26.9963 10.8616L25.4205 14.3792C22.5841 20.455 20.5881 24.1858 19.0124 25.7847H24.5801C24.4751 25.5715 24.4751 25.0386 24.4751 24.7187C24.4751 23.4397 25.6306 21.2011 26.0508 20.1352L26.5761 19.1759H29.3074C32.0388 19.1759 33.7196 18.8561 34.7701 18.4297L35.2953 20.455C36.8711 25.9978 37.0812 26.1045 39.0772 26.1045C39.7075 26.1045 41.2832 25.9978 42.6489 25.8913C41.0731 24.5056 40.0227 21.521 38.2368 15.2319ZM27.8367 15.8715L31.6186 7.66381L33.9297 15.8715H27.8367ZM68.5966 14.699C68.5966 10.0089 70.5926 4.5726 75.5298 4.5726C78.0512 4.5726 79.942 5.95831 80.9929 8.09019L81.6227 2.12095C79.6271 2.12095 78.4715 1.69458 75.9501 1.69458C67.9663 1.69458 63.7642 7.77041 63.7642 15.5518C63.7642 21.2011 67.2309 26.2111 73.2186 26.2111C77.841 26.2111 80.5726 23.866 81.8329 19.9221C78.8919 22.0539 77.1058 22.5869 75.1094 22.5869C71.433 22.5869 68.5966 19.8155 68.5966 14.699ZM113.664 15.2319L112.718 11.6078C112.298 10.0089 110.197 2.33414 110.197 2.33414H105.154C105.365 2.54733 105.469 3.08029 105.469 3.61326C105.469 4.25282 103.999 7.55722 102.423 10.8616L100.848 14.3792C99.692 17.044 98.4309 19.4957 97.2753 21.521C95.4899 22.6935 94.5445 22.8 90.7621 22.8C89.7119 22.8 89.2916 22.5869 89.2916 21.521C89.2916 19.1759 89.6072 16.8308 89.7119 14.4858L89.8167 13.1001C90.237 6.81106 90.5526 2.9737 91.4981 2.44073H85.195C85.6146 2.9737 85.72 3.82645 85.8248 5.42535C85.8248 7.34403 85.72 10.0089 85.4051 13.633L85.2997 15.1254C84.8793 21.4144 84.5644 24.8253 83.619 25.8913H100.007C99.9022 25.6781 99.9022 25.1451 99.9022 24.8253C99.9022 23.5462 100.848 21.7341 101.477 20.2419L102.003 19.2825H104.734C107.466 19.2825 109.146 18.9627 110.197 18.5363L110.722 20.5616C112.298 26.1045 112.508 26.2111 114.504 26.2111C115.134 26.2111 116.815 26.1045 118.075 25.9978C116.395 24.5056 115.345 21.521 113.664 15.2319ZM103.264 15.8715L107.045 7.66381L109.356 15.8715H103.264Z" fill="#00AEEF"/>
</svg>
