<svg width="81" height="81" viewBox="0 0 81 81" fill="none" xmlns="http://www.w3.org/2000/svg">
<circle cx="40.5" cy="40.5" r="40.5" fill="#0277EB"/>
<path d="M39 67H44V70H39V67Z" fill="white"/>
<path d="M45.037 50H35.4074V48H37.3333V46H34.7824L30.2315 49.781C30.0606 49.9229 29.8484 50.0001 29.6296 50H20V62H29.6296C29.7786 61.9983 29.926 62.0325 30.0601 62.1L33.7087 64H45.037C45.2924 64 45.5374 63.8946 45.718 63.7071C45.8985 63.5196 46 63.2652 46 63V62H39.2593V60H46V58H39.2593V56H46V54H39.2593V52H46V51C46 50.7348 45.8985 50.4804 45.718 50.2929C45.5374 50.1054 45.2924 50 45.037 50Z" fill="white"/>
<path d="M39 43H44V48H39V43Z" fill="white"/>
<path d="M23 38H59V18H23V38ZM47 24C47 23.7348 47.1054 23.4804 47.2929 23.2929C47.4804 23.1054 47.7348 23 48 23H51C51.7956 23 52.5587 23.3161 53.1213 23.8787C53.6839 24.4413 54 25.2044 54 26C54 26.7956 53.6839 27.5587 53.1213 28.1213C52.5587 28.6839 51.7956 29 51 29H49V33H47V24ZM41 23H43V31H46V33H42C41.7348 33 41.4804 32.8946 41.2929 32.7071C41.1054 32.5196 41 32.2652 41 32V23ZM35 24C35 23.7348 35.1054 23.4804 35.2929 23.2929C35.4804 23.1054 35.7348 23 36 23H40V25H37V27H40V29H37V31H40V33H36C35.7348 33 35.4804 32.8946 35.2929 32.7071C35.1054 32.5196 35 32.2652 35 32V24ZM28 23H30V27H32V23H34V33H32V29H30V33H28V23Z" fill="white"/>
<path d="M20 14V42H62V14H20ZM60.0909 39C60.0909 39.2652 59.9903 39.5196 59.8113 39.7071C59.6323 39.8946 59.3895 40 59.1364 40H22.8636C22.6105 40 22.3677 39.8946 22.1887 39.7071C22.0097 39.5196 21.9091 39.2652 21.9091 39V17C21.9091 16.7348 22.0097 16.4804 22.1887 16.2929C22.3677 16.1054 22.6105 16 22.8636 16H59.1364C59.3895 16 59.6323 16.1054 59.8113 16.2929C59.9903 16.4804 60.0909 16.7348 60.0909 17V39Z" fill="white"/>
</svg>
