<svg width="71" height="79" viewBox="0 0 71 79" fill="none" xmlns="http://www.w3.org/2000/svg">
<mask id="mask0_572_7523" style="mask-type:luminance" maskUnits="userSpaceOnUse" x="0" y="0" width="71" height="79">
<path d="M70.4673 0H0V78.8526H70.4673V0Z" fill="white"/>
</mask>
<g mask="url(#mask0_572_7523)">
<path d="M10.2479 13.5921C9.71582 13.8519 8.64099 14.1718 7.04679 14.1718C2.63242 14.1718 0.0990067 11.1358 0.0990067 7.26179C0.0990067 2.65005 3.32699 0.209839 7.34006 0.209839C8.89575 0.209839 9.71786 0.507425 10.2474 0.788894L9.75696 3.54673C9.16734 3.28572 8.54177 3.04807 7.46116 3.04807C5.55021 3.04807 3.5229 4.18468 3.5229 7.211C3.5229 9.91821 5.13937 11.3501 7.47726 11.3501C8.40312 11.3501 9.03177 11.1682 9.75715 10.8355L10.2479 13.5921ZM17.5781 3.62981C16.389 3.62981 15.2381 4.16919 14.6522 5.03507H14.6162V0.258197L11.6249 1.29355V13.7564H14.6162V7.93487C14.6162 7.09443 15.1627 6.19009 16.2108 6.19009C17.3319 6.19009 17.764 7.07274 17.764 8.35666V13.7566H20.7579V7.9438C20.7579 4.97618 19.4851 3.62981 17.5781 3.62981ZM25.2705 9.82496C25.3806 11.0873 26.4278 11.758 28.0454 11.7725C29.0205 11.78 30.154 11.4966 30.9091 11.0517L31.3605 13.3799C30.2239 13.9507 28.9256 14.1718 27.6039 14.1718C24.0431 14.1718 22.1346 12.0302 22.1346 8.74935C22.1346 5.57569 24.1868 3.52772 27.2622 3.52772C30.4315 3.52772 31.8521 5.86129 31.8521 8.7851C31.8521 9.09321 31.8143 9.59517 31.7802 9.82496H25.2705ZM28.8645 7.69601C28.8645 6.96301 28.5069 5.68109 27.1219 5.68109C25.9076 5.68109 25.3351 6.72638 25.25 7.69601H28.8645ZM35.3636 3.94414L37.1593 10.8851H37.2196L39.0155 3.94414H42.3172L39.0121 13.7564H35.3685L32.0633 3.94434L35.3636 3.94414ZM43.1654 7.17111C43.1654 5.72758 43.1199 4.78585 43.0585 3.94393H45.8767L45.962 5.76789H46.0379C46.531 4.32438 47.4775 3.77592 48.451 3.72074C48.9139 3.69387 49.1642 3.72652 49.4508 3.78191V6.65095C49.1766 6.5972 48.6325 6.53396 48.2499 6.5693C47.0989 6.67513 46.402 7.51248 46.2065 8.47652C46.1672 8.67615 46.147 8.89812 46.147 9.15767V13.7562H43.1663V7.17111H43.1654ZM59.9635 8.84975C59.9635 12.0658 58.0259 14.1716 54.8859 14.1716C51.7455 14.1716 49.8065 12.0658 49.8065 8.84975C49.8065 5.63335 51.7455 3.52751 54.8861 3.52751C58.0259 3.52751 59.9635 5.63335 59.9635 8.84975ZM56.8619 8.84975C56.8619 7.25292 56.313 5.86315 54.8859 5.86315C53.4569 5.86315 52.9107 7.25273 52.9107 8.84975C52.9107 10.448 53.4569 11.8358 54.8859 11.8358C56.3135 11.8358 56.8619 10.4482 56.8619 8.84975ZM61.2937 7.07248C61.2937 5.84806 61.2489 4.80238 61.1856 3.94414H64.0038L64.0683 5.31696H64.1287C64.519 4.67859 65.5515 3.62981 67.1634 3.62981C69.1353 3.62981 70.4226 4.97639 70.4226 7.86482V13.7566H67.4341V8.31579C67.4341 7.0531 67.0011 6.18988 65.9188 6.18988C65.0898 6.18988 64.5748 6.77304 64.3837 7.3321C64.313 7.53686 64.2841 7.81501 64.2841 8.09586V13.7564H61.2937V7.07248Z" fill="black"/>
<path d="M35.318 28.0679L0.205529 39.7685V16.3661L35.318 28.0679Z" fill="url(#paint0_linear_572_7523)"/>
<path d="M70.42 39.7702V16.3688L35.318 28.0679L0.214513 39.7702L35.3181 51.4707L70.42 39.7702Z" fill="url(#paint1_linear_572_7523)"/>
<path d="M35.315 55.2623L0.207908 66.9712L0.204888 43.5611L35.315 55.2623Z" fill="url(#paint2_linear_572_7523)"/>
<path d="M0.211625 66.9666L35.3148 78.6703L70.4213 66.9633V43.5611L0.211625 66.9666Z" fill="url(#paint3_linear_572_7523)"/>
</g>
<defs>
<linearGradient id="paint0_linear_572_7523" x1="70.4226" y1="39.4409" x2="-7.57067" y2="-30.4634" gradientUnits="userSpaceOnUse">
<stop stop-color="#06549B"/>
<stop offset="0.55" stop-color="#2FA1D3"/>
<stop offset="0.9" stop-color="#2FA1D3"/>
</linearGradient>
<linearGradient id="paint1_linear_572_7523" x1="0.0991143" y1="47.2864" x2="80.6513" y2="-50.1818" gradientUnits="userSpaceOnUse">
<stop stop-color="#1371B1"/>
<stop offset="0.05" stop-color="#2FA1D3"/>
<stop offset="0.45" stop-color="#2FA1D3"/>
<stop offset="0.6" stop-color="#06569C"/>
</linearGradient>
<linearGradient id="paint2_linear_572_7523" x1="70.4226" y1="39.4392" x2="-3.7627" y2="-0.455956" gradientUnits="userSpaceOnUse">
<stop stop-color="#9D1A36"/>
<stop offset="0.4" stop-color="#9D1A36"/>
<stop offset="0.6" stop-color="#E6192F"/>
</linearGradient>
<linearGradient id="paint3_linear_572_7523" x1="0.21151" y1="64.6267" x2="24.1211" y2="0.078733" gradientUnits="userSpaceOnUse">
<stop stop-color="#A21C38"/>
<stop offset="0.13" stop-color="#E6192F"/>
<stop offset="0.45" stop-color="#E6192F"/>
<stop offset="0.6" stop-color="#A71C37"/>
</linearGradient>
</defs>
</svg>
