<svg width="60" height="60" viewBox="0 0 60 60" fill="none" xmlns="http://www.w3.org/2000/svg">
<path d="M43.75 47.5H22.5C19.2547 47.4992 16.0735 46.5959 13.312 44.8912C10.5504 43.1864 8.31734 40.7474 6.86221 37.8465C5.40709 34.9457 4.78727 31.6974 5.07202 28.4646C5.35676 25.2317 6.53486 22.1418 8.47465 19.54C10.4144 16.9381 13.0395 14.927 16.0565 13.7312C19.0736 12.5355 22.3636 12.2022 25.5592 12.7687C28.7547 13.3351 31.7297 14.779 34.1519 16.939C36.574 19.099 38.3478 21.8899 39.275 25H43.75C46.7337 25 49.5952 26.1853 51.705 28.2951C53.8148 30.4048 55 33.2663 55 36.25C55 39.2337 53.8148 42.0952 51.705 44.205C49.5952 46.3147 46.7337 47.5 43.75 47.5Z" stroke="#0277EB" stroke-width="4" stroke-linecap="round" stroke-linejoin="round"/>
</svg>
