<svg width="105" height="79" viewBox="0 0 105 79" fill="none" xmlns="http://www.w3.org/2000/svg">
<g clip-path="url(#clip0_572_7536)">
<mask id="mask0_572_7536" style="mask-type:luminance" maskUnits="userSpaceOnUse" x="0" y="0" width="104" height="79">
<path d="M103.938 0H0.865112V78.8526H103.938V0Z" fill="white"/>
</mask>
<g mask="url(#mask0_572_7536)">
<path d="M50.4499 27.5857L26.0676 13.9767V41.5907L50.4499 27.5857Z" fill="#898383"/>
<path d="M50.4499 55.1997L26.0676 41.5907L50.4499 27.5857V55.1997Z" fill="#5C514F"/>
<path d="M74.4362 41.5908L50.4501 27.5857V55.1997L74.4362 41.5908Z" fill="#888483"/>
<path d="M26.0676 13.9768L50.4499 0L74.4362 13.9768L50.4499 27.5857L26.0676 13.9768Z" fill="#F04630"/>
<path d="M80.009 73.2508C77.039 75.3161 74.5781 75.2878 72.8241 73.2508C71.2684 71.355 71.2684 68.5821 72.8241 66.687C74.6346 64.6495 77.152 64.6213 79.9525 66.6015L80.122 65.3852H82.1867C82.2715 65.5832 82.2997 65.838 82.2997 66.064C82.2997 68.6957 82.328 71.3268 82.2997 73.9296C82.215 77.0134 80.5746 78.6831 77.4633 78.8526C75.2567 78.9656 73.8706 78.6548 72.2019 77.6363L72.9653 76.0796C75.0025 76.9286 77.039 77.7776 79.0755 76.2781C80.0655 75.5421 80.1785 74.4388 80.009 73.2508ZM76.9542 72.9393C78.5946 73.0241 79.9525 71.7513 80.0372 70.1098C80.0372 70.0816 80.0372 70.0816 80.0372 70.0251C80.0372 68.3843 78.6793 67.1108 76.8971 67.1108C75.2849 67.1108 73.9842 68.4125 73.9842 70.0251C74.0407 71.6383 75.3414 72.9393 76.9542 72.9393Z" fill="#888483"/>
<path d="M12.0097 72.0056L13.4522 73.4486C11.5005 76.3346 6.66364 76.9286 3.66536 74.6373C0.497361 72.1469 -0.0966351 67.5071 2.44908 64.3383L2.56222 64.1686C5.22107 61.0281 10.1711 60.8583 13.3957 63.9139L11.9248 65.6115C8.70022 63.4895 6.32421 63.4895 4.59879 65.5832C2.9865 67.6201 3.12793 70.4496 4.79679 72.4018C6.63536 74.2693 9.09622 74.1846 12.0097 72.0056Z" fill="#F04630"/>
<path d="M25.983 70.6191C25.8982 73.6753 23.3525 76.1362 20.2693 76.0514C17.1862 75.9666 14.7536 73.4204 14.8385 70.3366C14.9233 67.2528 17.469 64.8192 20.5522 64.9041C23.5222 64.989 25.8982 67.3658 25.983 70.3366C25.983 70.3931 25.983 70.5343 25.983 70.6191ZM17.2993 70.5626C17.2145 72.3453 18.5722 73.8166 20.3542 73.9013H20.439C22.1645 73.9013 23.5788 72.5149 23.607 70.761C23.607 70.7328 23.607 70.6474 23.607 70.5909C23.6353 68.8088 22.3059 67.3375 20.5239 67.2528H20.4956C18.657 67.2238 17.3559 68.6386 17.2993 70.5626Z" fill="#F04630"/>
<path d="M45.8391 71.3834H38.4282C38.3433 72.5714 38.9656 73.2508 39.8708 73.6753C41.4265 74.4389 42.7842 73.9296 44.1136 72.8264L45.3865 73.9296C43.6893 76.6461 39.2768 76.7309 37.0988 74.0992C35.628 72.3736 35.4865 69.4311 36.816 67.3941C38.004 65.4984 40.3233 64.6496 42.5013 65.272C44.8208 65.9511 46.2351 68.3843 45.8391 71.3834ZM43.4348 69.8556C43.2368 68.0729 42.3033 67.1391 40.8042 67.1963C39.4182 67.2245 38.4848 68.243 38.3999 69.8556H43.4348Z" fill="#F04630"/>
<path d="M70.0518 70.5626C70.0518 73.6181 67.591 76.0796 64.5362 76.0796C61.4814 76.0796 59.0205 73.6181 59.0205 70.5626C59.0205 67.507 61.4814 65.0457 64.4796 65.0457H64.5645C67.5627 65.0457 69.9953 67.4223 70.0236 70.4213L70.0518 70.5626ZM61.4248 70.6191C61.3965 72.4018 62.7825 73.8731 64.5645 73.9578H64.5928C66.375 73.9578 67.8176 72.5148 67.8176 70.7328V70.6473C67.9023 68.837 66.4597 67.2527 64.5928 67.1673C62.7825 67.1391 61.4248 68.6386 61.4248 70.6191Z" fill="#888483"/>
<path d="M48.7245 62.0748H50.9591V73.5898H58.0022V75.5703H48.7245V62.0748Z" fill="#888483"/>
<path d="M98.394 72.7698L99.5824 74.0709C97.8001 76.3628 94.2927 76.6461 92.0578 74.6655C89.8236 72.7133 89.5976 69.2898 91.5487 67.0543C93.5005 64.8193 96.9231 64.593 99.158 66.545C99.3275 66.6581 99.497 66.8282 99.6106 66.9978L98.3092 68.3843C96.0178 66.913 94.5476 66.8565 93.3592 68.2713C92.2562 69.6571 92.3127 71.6665 93.444 72.9676C94.6606 74.2976 96.2727 74.2693 98.394 72.7698Z" fill="#888483"/>
<path d="M30.6497 65.3567V67.2527C31.6114 65.8662 32.5449 64.9606 34.1572 65.0455V67.4222C31.2437 68.2995 30.678 69.1195 30.6497 72.2605V75.5986H28.4152V65.3002H30.6497V65.3567Z" fill="#F04630"/>
<path d="M85.5521 65.3568H87.5321V75.6558H85.5521V65.3568Z" fill="#888483"/>
<path d="M87.5886 61.5939V63.5744H85.3544V61.5939H87.5886Z" fill="#888483"/>
<path d="M100.883 65.1871C100.883 64.3384 101.562 63.6593 102.41 63.6593C103.259 63.6593 103.938 64.3384 103.938 65.1871C103.938 66.0358 103.259 66.7152 102.41 66.7152C101.562 66.7152 100.883 66.0358 100.883 65.1871ZM103.768 65.1871C103.768 64.4798 103.174 63.8291 102.468 63.8291H102.439C101.675 63.8291 101.081 64.4232 101.081 65.1871C101.053 65.951 101.591 66.5733 102.354 66.6298C103.118 66.6581 103.74 66.1206 103.797 65.3569C103.768 65.272 103.768 65.2437 103.768 65.1871ZM101.817 64.3949H102.496C102.835 64.3949 103.09 64.5647 103.09 64.9042C103.09 65.1022 102.977 65.3286 102.722 65.3569L103.146 65.951H102.778L102.41 65.4134H102.071V65.951H101.788L101.817 64.3949ZM102.496 65.1588C102.694 65.1588 102.778 65.0457 102.778 64.9042C102.778 64.791 102.665 64.6496 102.496 64.6496H102.128V65.1588H102.496Z" fill="#888483"/>
</g>
</g>
<defs>
<clipPath id="clip0_572_7536">
<rect width="103.796" height="78.8526" fill="white" transform="translate(0.266235)"/>
</clipPath>
</defs>
</svg>
