<svg width="81" height="81" viewBox="0 0 81 81" fill="none" xmlns="http://www.w3.org/2000/svg">
<circle cx="40.5" cy="40.5" r="40.5" fill="#0277EB"/>
<path d="M22.6206 41.026C23.2887 40.7234 23.9706 40.4519 24.6792 40.2527L25.4491 37.9657H31.8611L32.6318 40.2527C33.7404 40.5639 34.8051 41.0062 35.8085 41.5682L37.9715 40.4958L42.5051 45.0295L41.4327 47.1924C41.9947 48.195 42.437 49.2596 42.7482 50.3691L45.0344 51.1389V57.551L42.7473 58.3217C42.7154 58.4355 42.6663 58.5432 42.6318 58.6562H63.1378C63.6137 58.6562 63.9999 58.27 63.9999 57.7941V29.345H22.6206V41.026ZM38.1378 36.2415H36.4137V34.5174H38.1378V36.2415ZM52.793 31.9312H61.4137V38.8277H52.793V31.9312ZM51.931 41.4139H62.2758V51.7588H57.1034V56.9312H46.7585V46.5863H51.931V41.4139ZM40.7241 31.9312H49.3447V38.8277H40.7241V31.9312ZM24.3447 31.0691H38.1378V32.7932H24.3447V31.0691ZM24.3447 34.5174H34.6896V36.2415H24.3447V34.5174Z" fill="white"/>
<path d="M53.6548 43.1379H60.5513V50.0345H53.6548V43.1379Z" fill="white"/>
<path d="M34.6895 48.3103H32.9653V53.4827H31.2412V55.2069H32.9653V60.3793H34.6895V55.2069H36.4136V53.4827H34.6895V48.3103Z" fill="white"/>
<path d="M26.0689 51.7586H24.3448V48.3103H22.6206V51.7586H20.8965V53.4827H22.6206V60.3793H24.3448V53.4827H26.0689V51.7586Z" fill="white"/>
<path d="M29.5171 48.3103H27.793V56.931H26.0688V58.6551H27.793V60.3793H29.5171V58.6551H31.2413V56.931H29.5171V48.3103Z" fill="white"/>
<path d="M43.3103 52.3785L41.3086 51.7044L41.1957 51.2449C40.8845 49.9837 40.3871 48.7819 39.7147 47.6716L39.4698 47.2664L40.4095 45.3733L37.6267 42.5906L35.7336 43.5302L35.3284 43.2854C34.219 42.6138 33.0164 42.1164 31.7552 41.8044L31.2957 41.6914L30.6216 39.6897H26.6879L26.0138 41.6914L25.5543 41.8044C24.2931 42.1156 23.0914 42.613 21.981 43.2854L21.5759 43.5302L19.6828 42.5906L16.9 45.3733L17.8397 47.2664L17.5948 47.6716C16.9233 48.7811 16.4259 49.9837 16.1138 51.2449L16.0009 51.7044L14 52.3785V56.3121L16.0017 56.9862L16.1147 57.4457C16.4259 58.7069 16.9233 59.9087 17.5957 61.019L17.8405 61.4242L16.9009 63.3173L19.6836 66.1L21.5767 65.1604L21.9819 65.4052C23.0931 66.0768 24.2957 66.575 25.5552 66.8862L26.0147 66.9992L26.6888 69H30.6224L31.2966 66.9983L31.756 66.8854C33.0155 66.575 34.2172 66.0768 35.3293 65.4044L35.7345 65.1595L37.6276 66.0992L40.4103 63.3164L39.4707 61.4233L39.7155 61.0181C40.3871 59.9087 40.8845 58.7061 41.1966 57.4449L41.3095 56.9854L43.3103 56.3112V52.3785ZM28.6552 64.6897C22.9422 64.6897 18.3103 60.0578 18.3103 54.3449C18.3103 48.6319 22.9422 44 28.6552 44C34.3681 44 39 48.6319 39 54.3449C39 60.0578 34.3681 64.6897 28.6552 64.6897Z" fill="white"/>
<path d="M55.3795 51.7586H51.9312V48.3103H48.4829V55.2069H55.3795V51.7586Z" fill="white"/>
<path d="M63.1378 19H23.4827C23.0068 19 22.6206 19.3862 22.6206 19.8621V27.6207H63.9999V19.8621C63.9999 19.3862 63.6137 19 63.1378 19ZM27.793 25.0345H26.0689C25.593 25.0345 25.2068 24.6483 25.2068 24.1724V22.4483C25.2068 21.9724 25.593 21.5862 26.0689 21.5862H27.793V25.0345ZM31.2413 25.0345H29.5172V21.5862H31.2413V25.0345ZM35.5516 24.1724C35.5516 24.6483 35.1654 25.0345 34.6896 25.0345H32.9654V21.5862H34.6896C35.1654 21.5862 35.5516 21.9724 35.5516 22.4483V24.1724ZM61.4137 25.0345H47.6206V21.5862H61.4137V25.0345Z" fill="white"/>
</svg>
