<svg width="907" height="776" viewBox="0 0 907 776" fill="none" xmlns="http://www.w3.org/2000/svg">
<rect width="907" height="776" transform="matrix(-1 0 0 1 907 0)" fill="white"/>
<path d="M260.823 500.402V476.185H236.764C235.376 470.157 232.976 464.512 229.747 459.427L246.774 442.525L229.525 425.398L212.493 442.305C207.37 439.095 201.683 436.712 195.61 435.335V411.458H171.214V435.335C165.141 436.712 159.454 439.095 154.331 442.305L137.298 425.398L120.049 442.525L137.077 459.427C133.847 464.512 131.447 470.157 130.059 476.185H106V500.402H130.059C131.447 506.435 133.847 512.085 137.077 517.165L120.049 534.067L137.298 551.189L154.331 534.282C159.454 537.493 165.141 539.875 171.214 541.253V565.135H195.61V541.253C201.683 539.875 207.37 537.493 212.493 534.282L229.525 551.189L246.774 534.067L229.747 517.165C232.976 512.085 235.376 506.435 236.764 500.402H260.823ZM215.563 503.086C212.035 510.616 205.9 516.71 198.314 520.208C197.432 520.619 196.53 520.992 195.61 521.327C191.807 522.714 187.696 523.475 183.412 523.475C179.127 523.475 175.016 522.714 171.214 521.327C170.293 520.992 169.392 520.619 168.51 520.208C160.924 516.711 154.788 510.616 151.261 503.086C150.846 502.21 150.47 501.316 150.133 500.402C148.735 496.622 147.969 492.546 147.969 488.293C147.969 484.04 148.735 479.964 150.133 476.185C150.47 475.271 150.846 474.377 151.261 473.501C154.788 465.971 160.924 459.876 168.51 456.379C169.392 455.968 170.293 455.595 171.214 455.26C175.016 453.872 179.127 453.111 183.412 453.111C187.696 453.111 191.807 453.872 195.61 455.26C196.53 455.594 197.432 455.968 198.314 456.379C205.9 459.876 212.035 465.971 215.563 473.501C215.977 474.377 216.353 475.271 216.691 476.185C218.088 479.964 218.855 484.04 218.855 488.293C218.855 492.546 218.088 496.622 216.691 500.402C216.353 501.316 215.977 502.21 215.563 503.086Z" fill="#699EC9"/>
<path d="M579.874 188.308V164.091H555.814C554.426 158.063 552.026 152.418 548.797 147.333L565.824 130.431L548.575 113.304L531.543 130.211C526.42 127.001 520.733 124.618 514.66 123.241V99.3635H490.263V123.241C484.191 124.618 478.504 127.001 473.38 130.211L456.348 113.304L439.099 130.431L456.126 147.333C452.897 152.418 450.497 158.063 449.109 164.091H425.05V188.308H449.109C450.497 194.34 452.897 199.99 456.126 205.071L439.099 221.973L456.348 239.095L473.38 222.188C478.504 225.398 484.191 227.781 490.263 229.158V253.04H514.66V229.158C520.733 227.781 526.42 225.398 531.543 222.188L548.575 239.095L565.824 221.973L548.797 205.071C552.026 199.99 554.426 194.341 555.814 188.308H579.874ZM534.613 190.992C531.085 198.522 524.95 204.617 517.364 208.114C516.482 208.525 515.581 208.898 514.66 209.233C510.858 210.621 506.747 211.381 502.462 211.381C498.177 211.381 494.066 210.62 490.264 209.233C489.343 208.898 488.442 208.525 487.56 208.114C479.974 204.617 473.839 198.522 470.311 190.992C469.896 190.116 469.52 189.222 469.183 188.308C467.785 184.528 467.019 180.452 467.019 176.2C467.019 171.946 467.785 167.871 469.183 164.091C469.52 163.178 469.896 162.283 470.311 161.407C473.838 153.877 479.974 147.783 487.56 144.285C488.442 143.874 489.343 143.501 490.264 143.166C494.066 141.779 498.177 141.018 502.462 141.018C506.747 141.018 510.858 141.779 514.66 143.166C515.581 143.501 516.482 143.874 517.364 144.285C524.95 147.782 531.085 153.877 534.613 161.407C535.028 162.283 535.404 163.178 535.741 164.091C537.139 167.871 537.905 171.947 537.905 176.2C537.905 180.452 537.139 184.528 535.741 188.308C535.404 189.222 535.028 190.116 534.613 190.992Z" fill="#699EC9"/>
<path d="M656.784 536.695C666.959 528.597 686.435 525.696 699.345 513.864C712.256 502.032 703.99 499.238 697.213 499.107C690.436 498.977 662.99 517.123 659.666 511.298C656.341 505.474 690.471 493.176 700.173 486.501C709.875 479.826 712.902 460.045 707.853 455.653C702.805 451.261 696.582 462.917 678.668 471.308C660.755 479.7 685.044 455.614 694.951 447.815C704.858 440.016 700.674 414.872 685.327 409.208C669.98 403.543 648.288 421.418 646.596 433.889C644.904 446.361 657.886 458.568 647.233 468.847C636.581 479.126 648.455 442.934 640.084 435.911C631.713 428.889 613.761 459.921 609.853 468.51C605.945 477.098 625.826 489.967 634.676 501.576C643.525 513.186 624.366 502.77 619.303 494.455C614.239 486.14 602.681 465.332 600.998 493.775C599.315 522.218 620.436 519.484 634.344 529.826C634.344 529.826 648.228 543.503 656.784 536.695Z" fill="#A2CE99"/>
<path d="M646.119 538.881C656.408 546.836 663.754 564.973 678.336 574.706C692.917 584.439 693.745 575.811 692.306 569.236C690.867 562.661 666.737 540.35 671.677 535.793C676.618 531.236 696.561 561.354 705.346 569.18C714.132 577.006 734.219 575.357 737.357 569.466C740.495 563.575 727.632 560.259 715.266 544.9C702.9 529.54 732.122 547.429 742.057 555.194C751.992 562.958 775.668 553.105 777.672 536.974C779.676 520.844 757.142 504.027 744.528 505.276C731.913 506.525 722.949 521.884 710.412 513.973C697.874 506.062 736.092 509.162 741.04 499.455C745.988 489.747 711.422 479.584 702.101 477.795C692.779 476.007 684.763 498.182 675.43 509.412C666.097 520.642 671.876 499.731 678.855 492.919C685.835 486.107 703.557 470.135 675.29 475.085C647.023 480.035 654.585 499.801 647.664 515.623C647.664 515.622 637.468 532.192 646.119 538.881Z" fill="#6EB565"/>
<path d="M336.072 187.507C326.18 179.635 307.247 176.815 294.697 165.312C282.146 153.809 290.181 151.094 296.769 150.967C303.358 150.84 330.039 168.48 333.27 162.818C336.502 157.156 303.323 145.201 293.892 138.712C284.46 132.223 281.518 112.993 286.426 108.723C291.333 104.453 297.383 115.784 314.797 123.942C332.211 132.1 308.599 108.686 298.968 101.104C289.337 93.5216 293.405 69.079 308.324 63.5723C323.243 58.0655 344.331 75.4419 345.976 87.5659C347.621 99.6898 335.001 111.557 345.356 121.55C355.712 131.542 344.169 96.359 352.307 89.5318C360.444 82.7047 377.896 112.873 381.695 121.222C385.495 129.571 366.167 142.081 357.564 153.367C348.961 164.653 367.587 154.528 372.509 146.444C377.431 138.361 388.667 118.133 390.303 145.783C391.94 173.434 371.407 170.777 357.887 180.83C357.887 180.83 344.39 194.126 336.072 187.507Z" fill="#A2CE99"/>
<path d="M346.439 189.632C336.437 197.366 329.296 214.998 315.121 224.459C300.945 233.921 300.141 225.533 301.54 219.142C302.939 212.75 326.396 191.061 321.594 186.631C316.791 182.201 297.403 211.479 288.863 219.087C280.322 226.696 260.794 225.092 257.744 219.365C254.693 213.639 267.198 210.415 279.219 195.484C291.241 180.552 262.833 197.943 253.175 205.491C243.517 213.039 220.5 203.46 218.552 187.779C216.604 172.098 238.51 155.75 250.773 156.964C263.036 158.178 271.751 173.109 283.938 165.419C296.126 157.728 258.974 160.742 254.163 151.305C249.353 141.868 282.956 131.988 292.018 130.249C301.079 128.51 308.873 150.067 317.946 160.985C327.019 171.902 321.4 151.574 314.615 144.951C307.83 138.329 290.602 122.802 318.081 127.614C345.561 132.425 338.21 151.641 344.938 167.022C344.938 167.022 354.849 183.13 346.439 189.632Z" fill="#6EB565"/>
<path d="M183.105 480.376C183.105 480.376 181.459 616.357 193.356 693.136C194.276 699.079 214.324 700.074 217.12 694.523C219.915 688.973 225.041 536.341 225.041 536.341C225.041 536.341 248.339 594.156 249.736 610.807C251.134 627.458 245.348 685.119 247.407 692.211C248.912 697.394 272.102 696.374 273.5 692.211C274.898 688.048 288.41 592.682 286.08 579.269C283.75 565.856 269.772 476.213 263.715 474.826C257.657 473.438 185.434 469.738 183.105 480.376Z" fill="#3C404C"/>
<path d="M241.292 318.06C241.292 318.06 244.675 314.5 245.758 316.515C246.841 318.53 247.044 326.389 244.472 327.867C241.901 329.345 237.57 327.464 237.57 327.464C237.57 327.464 238.044 317.321 241.292 318.06Z" fill="#F4A789"/>
<path d="M197.648 318.06C197.648 318.06 194.264 314.5 193.182 316.515C192.099 318.53 191.896 326.389 194.467 327.867C197.039 329.345 201.37 327.464 201.37 327.464C201.37 327.464 200.896 317.321 197.648 318.06Z" fill="#F4A789"/>
<path d="M205.385 332.158C205.385 332.72 202.88 346.073 204.361 351.977C205.841 357.88 214.609 359.848 219.163 359.708C223.718 359.567 233.624 356.334 234.649 354.226C235.674 352.117 234.422 334.126 233.511 330.752C232.6 327.379 205.385 329.768 205.385 332.158Z" fill="#F4A789"/>
<path d="M196.968 314.897C196.968 314.897 198.047 347.17 217.47 348.198C236.892 349.226 242.719 324.147 241.64 311.196C240.561 298.246 235.381 291.256 217.47 292.284C199.558 293.312 194.378 300.712 196.968 314.897Z" fill="#F7C7B3"/>
<path d="M191.778 312.901L217.829 310.779L221.052 300.432C221.052 300.432 221.166 309.597 221.971 309.917C222.776 310.237 246.6 313.54 247.889 312.901C249.177 312.261 250.561 287.572 229.748 286.206C229.748 286.206 222.008 275.949 205.515 282.886C185.232 291.417 191.778 312.901 191.778 312.901Z" fill="#020202"/>
<path d="M298.659 452.316C286.544 460.333 278.781 461.566 278.16 460.333C277.539 459.101 274.016 448.102 275.469 446.048C276.918 443.988 282.925 441.729 283.132 439.674C283.339 437.62 272.41 407.606 268.892 407.401C265.374 407.195 266.611 467.833 269.928 477.704C273.239 487.57 203.096 496.641 178.6 479.554C172.603 475.37 186.365 413.98 182.019 401.438C182.019 401.438 168.192 431.041 168.813 436.177C169.434 441.318 174.926 443.478 174.098 445.327C173.265 447.176 170.888 460.333 167.571 460.539C164.26 460.744 144.583 448.618 144.583 438.442C144.583 428.265 158.874 370.297 173.785 361.664C188.697 353.03 199.878 346.141 202.987 346.657C203.724 346.777 213.441 356.833 219.241 355.596C225.041 354.363 233.739 347.168 235.602 346.862C237.464 346.551 268.635 354.158 282.819 367.827C290.583 375.307 310.774 444.299 298.659 452.316Z" fill="#136BCF"/>
<path d="M275.312 446.046C275.312 446.046 270.135 443.374 263.301 445.43C256.467 447.485 254.189 465.78 257.502 465.78C260.816 465.78 275.933 468.658 278.004 460.333C280.075 452.008 275.312 446.046 275.312 446.046Z" fill="#F7C7B3"/>
<path d="M169.248 445.121C169.248 445.121 174.426 442.449 181.26 444.505C188.094 446.56 187.971 466.346 184.658 466.346C181.344 466.346 168.627 467.734 166.556 459.408C164.485 451.083 169.248 445.121 169.248 445.121Z" fill="#F7C7B3"/>
<path d="M263.729 477.909H182.935C181.914 477.909 181.085 477.081 181.085 476.059V432.479C181.085 431.457 181.914 430.629 182.935 430.629H263.729C264.751 430.629 265.579 431.457 265.579 432.479V476.059C265.579 477.081 264.751 477.909 263.729 477.909Z" fill="#4D4D4D"/>
<path d="M263.729 475.288H182.935C181.914 475.288 181.085 474.46 181.085 473.438V432.479C181.085 431.457 181.914 430.629 182.935 430.629H263.729C264.751 430.629 265.579 431.457 265.579 432.479V473.438C265.579 474.46 264.751 475.288 263.729 475.288Z" fill="#B3B3B3"/>
<path d="M298.66 452.316C286.545 460.333 278.781 461.566 278.16 460.333C277.539 459.101 274.016 448.102 275.47 446.048C276.918 443.989 282.925 441.729 283.132 439.675C283.34 437.62 272.411 407.606 268.892 407.401C268.165 380.058 282.819 367.827 282.819 367.827C290.583 375.307 310.775 444.299 298.66 452.316Z" fill="#24386A"/>
<path d="M182.019 401.438C182.019 401.438 168.192 431.041 168.813 436.176C169.434 441.317 174.926 443.477 174.098 445.326C173.265 447.175 170.888 460.333 167.571 460.538C164.26 460.744 144.583 448.618 144.583 438.441C144.583 428.264 158.874 370.296 173.785 361.663C173.785 361.663 183.154 377.181 182.019 401.438Z" fill="#24386A"/>
<path d="M215.749 691.85C215.749 691.85 198.373 690.67 194.958 692.587C191.542 694.503 193.769 696.862 186.641 699.958C179.512 703.054 167.483 704.528 167.186 708.213C166.889 711.899 191.69 711.751 197.037 711.162C202.383 710.572 201.195 702.464 204.314 704.233C207.433 706.002 205.799 710.13 206.839 710.719C207.878 711.309 216.64 711.604 217.235 710.572C217.828 709.54 219.313 693.471 215.749 691.85Z" fill="#020202"/>
<path d="M249.215 689.998C249.215 689.998 266.591 688.819 270.007 690.735C273.423 692.652 271.195 695.01 278.323 698.106C285.452 701.202 297.482 702.676 297.779 706.361C298.076 710.047 273.274 709.899 267.928 709.31C262.581 708.72 263.769 700.612 260.65 702.381C257.532 704.15 259.165 708.278 258.126 708.867C257.086 709.457 248.324 709.752 247.73 708.72C247.136 707.688 245.651 691.62 249.215 689.998Z" fill="#020202"/>
<path d="M226.722 453.035C226.722 454.795 225.285 456.221 223.512 456.221C221.739 456.221 220.302 454.795 220.302 453.035C220.302 451.275 221.739 449.849 223.512 449.849C225.285 449.849 226.722 451.275 226.722 453.035Z" fill="#F2F2F2"/>
<path d="M658.43 173.646H309.771V535.874H658.43V173.646Z" fill="#4481BA"/>
<path d="M651.607 180.735H316.594V528.786H651.607V180.735Z" fill="white"/>
<path d="M669.862 162.802H298.339V180.735H669.862V162.802Z" fill="#24386A"/>
<path d="M669.862 528.8H298.339V546.732H669.862V528.8Z" fill="#24386A"/>
<path d="M613.271 711.782H584.643L497.28 541.354L520.016 529.868L613.271 711.782Z" fill="#24386A"/>
<path d="M470.867 541.354L383.504 711.782H354.876L448.127 529.868L470.867 541.354Z" fill="#24386A"/>
<path d="M548.628 364.851V344.665H528.573C527.416 339.64 525.415 334.935 522.724 330.696L536.917 316.607L522.539 302.331L508.342 316.423C504.071 313.748 499.33 311.762 494.269 310.613V290.71H473.933V310.613C468.871 311.762 464.13 313.748 459.86 316.423L445.663 302.331L431.284 316.607L445.478 330.696C442.786 334.935 440.785 339.64 439.628 344.665H419.574V364.851H439.628C440.785 369.88 442.786 374.589 445.478 378.824L431.284 392.913L445.663 407.185L459.86 393.092C464.13 395.768 468.871 397.754 473.933 398.902V418.809H494.269V398.902C499.331 397.754 504.071 395.768 508.342 393.092L522.539 407.185L536.917 392.913L522.724 378.824C525.415 374.589 527.416 369.88 528.573 364.851H548.628ZM510.9 367.088C507.96 373.365 502.846 378.445 496.522 381.361C495.787 381.703 495.036 382.014 494.269 382.294C491.099 383.45 487.672 384.084 484.101 384.084C480.529 384.084 477.102 383.45 473.932 382.294C473.165 382.015 472.414 381.704 471.679 381.361C465.355 378.445 460.241 373.365 457.301 367.088C456.955 366.358 456.642 365.613 456.361 364.851C455.195 361.701 454.557 358.303 454.557 354.758C454.557 351.213 455.195 347.815 456.361 344.665C456.642 343.903 456.955 343.157 457.301 342.428C460.241 336.151 465.355 331.07 471.679 328.155C472.414 327.813 473.165 327.502 473.932 327.222C477.102 326.066 480.529 325.432 484.101 325.432C487.672 325.432 491.099 326.066 494.269 327.222C495.036 327.501 495.787 327.813 496.522 328.155C502.846 331.07 507.96 336.151 510.9 342.428C511.246 343.157 511.559 343.903 511.841 344.665C513.006 347.815 513.644 351.213 513.644 354.758C513.644 358.303 513.006 361.701 511.841 364.851C511.559 365.613 511.246 366.358 510.9 367.088Z" fill="#4481BA"/>
<path d="M484.1 377.214C496.594 377.214 506.722 367.161 506.722 354.759C506.722 342.357 496.594 332.304 484.1 332.304C471.607 332.304 461.479 342.357 461.479 354.759C461.479 367.161 471.607 377.214 484.1 377.214Z" fill="#4481BA"/>
<path d="M519.094 295.646L515.919 292.935L549.791 253.84H627.293V257.997H551.713L519.094 295.646Z" fill="#4481BA"/>
<path d="M430.072 448.834H352.57V444.677H428.15L460.769 407.029L463.944 409.739L430.072 448.834Z" fill="#4481BA"/>
<path d="M428.554 331.716L405.244 304.811H351.096V300.654H407.167L431.729 329.005L428.554 331.716Z" fill="#4481BA"/>
<path d="M615.18 405.603H559.109L534.546 377.252L537.722 374.542L561.032 401.446H615.18V405.603Z" fill="#4481BA"/>
<path d="M263.359 306.058L266.815 282.857V254.597C266.815 246.868 273.128 240.602 280.915 240.602H359.981C367.768 240.602 374.081 246.868 374.081 254.597V283.686C374.081 291.415 367.768 297.681 359.981 297.681H284.687L263.359 306.058Z" fill="#699EC9"/>
<path d="M282.989 254.323H366.617V251.579H282.989V254.323Z" fill="#FEFFF8"/>
<path d="M306.349 265.026H366.617V262.281H306.349V265.026Z" fill="#FEFFF8"/>
<path d="M295.383 275.728H366.617V272.984H295.383V275.728Z" fill="#FEFFF8"/>
<path d="M279.671 286.43H366.617V283.685H279.671V286.43Z" fill="#FEFFF8"/>
<path d="M242.623 255.367L239.748 236.068V212.562C239.748 206.133 234.497 200.92 228.02 200.92H162.251C155.774 200.92 150.523 206.132 150.523 212.562V236.758C150.523 243.187 155.774 248.399 162.251 248.399H224.882L242.623 255.367Z" fill="#699EC9"/>
<path d="M157.311 217.131H231.154V214.387H157.311V217.131Z" fill="#FEFFF8"/>
<path d="M170.886 227.834H231.154V225.09H170.886V227.834Z" fill="#FEFFF8"/>
<path d="M348.446 498.431H327.829V518.896H348.446V498.431Z" fill="#CCCCCC"/>
<path d="M627.808 498.431H356.178V506.106H627.808V498.431Z" fill="#CCCCCC"/>
<path d="M472.922 509.942H356.178V517.617H472.922V509.942Z" fill="#CCCCCC"/>
<path d="M700.128 234.45C709.482 234.45 717.065 226.923 717.065 217.637C717.065 208.352 709.482 200.824 700.128 200.824C690.773 200.824 683.19 208.352 683.19 217.637C683.19 226.923 690.773 234.45 700.128 234.45Z" fill="#699EC9"/>
<path d="M712.358 222.386L709.195 223.016L706.243 208.416L709.406 207.786L712.358 222.386Z" fill="#FEFFF8"/>
<path d="M706.19 223.614L703.027 224.244L700.741 212.941L703.904 212.311L706.19 223.614Z" fill="#FEFFF8"/>
<path d="M700.022 224.843L696.858 225.473L695.636 219.429L698.799 218.799L700.022 224.843Z" fill="#FEFFF8"/>
<path d="M693.853 226.073L690.69 226.703L689.889 222.738L693.052 222.108L693.853 226.073Z" fill="#FEFFF8"/>
<path d="M752.899 155.946C763.375 155.946 771.867 147.517 771.867 137.119C771.867 126.721 763.375 118.292 752.899 118.292C742.424 118.292 733.932 126.721 733.932 137.119C733.932 147.517 742.424 155.946 752.899 155.946Z" fill="#699EC9"/>
<path d="M763.03 131.348L745.335 129.154L753.331 137.019L763.03 131.348Z" fill="#FEFFF8"/>
<path d="M753.136 138.568L743.342 128.935L741.604 142.747L762.453 145.332L764.112 132.152L753.136 138.568Z" fill="#FEFFF8"/>
<path d="M649.284 138.551C667.872 138.551 682.941 123.594 682.941 105.142C682.941 86.6911 667.872 71.7334 649.284 71.7334C630.695 71.7334 615.626 86.6911 615.626 105.142C615.626 123.594 630.695 138.551 649.284 138.551Z" fill="#699EC9"/>
<path d="M630.556 88.5212C630.556 88.5212 633.828 83.417 640.061 85.8919C646.294 88.3665 644.58 96.1 642.71 101.514C640.84 106.927 645.671 113.269 652.527 112.495C659.383 111.722 666.395 107.546 669.2 113.733C672.004 119.919 665.304 127.344 653.15 124.405C640.996 121.466 622.921 106.463 630.556 88.5212Z" fill="#FEFFF8"/>
<path d="M147.171 164.594C154.857 164.594 161.088 158.409 161.088 150.78C161.088 143.151 154.857 136.966 147.171 136.966C139.486 136.966 133.255 143.151 133.255 150.78C133.255 158.409 139.486 164.594 147.171 164.594Z" fill="#ADC5F1"/>
<path d="M775.736 480.013C783.422 480.013 789.652 473.828 789.652 466.199C789.652 458.569 783.422 452.385 775.736 452.385C768.05 452.385 761.819 458.569 761.819 466.199C761.819 473.828 768.05 480.013 775.736 480.013Z" fill="#ADC5F1"/>
<path d="M600.233 592.06C607.919 592.06 614.15 585.875 614.15 578.246C614.15 570.617 607.919 564.432 600.233 564.432C592.548 564.432 586.317 570.617 586.317 578.246C586.317 585.875 592.548 592.06 600.233 592.06Z" fill="#ADC5F1"/>
<path d="M229.899 135.814C233.315 135.814 236.084 133.065 236.084 129.675C236.084 126.284 233.315 123.535 229.899 123.535C226.483 123.535 223.714 126.284 223.714 129.675C223.714 133.065 226.483 135.814 229.899 135.814Z" fill="#ADC5F1"/>
<path d="M174.232 282.78C177.648 282.78 180.417 280.031 180.417 276.64C180.417 273.249 177.648 270.501 174.232 270.501C170.816 270.501 168.047 273.249 168.047 276.64C168.047 280.031 170.816 282.78 174.232 282.78Z" fill="#ADC5F1"/>
<path d="M139.44 367.965C142.856 367.965 145.625 365.217 145.625 361.826C145.625 358.435 142.856 355.686 139.44 355.686C136.024 355.686 133.255 358.435 133.255 361.826C133.255 365.217 136.024 367.965 139.44 367.965Z" fill="#ADC5F1"/>
<path d="M253.479 68.2791C256.895 68.2791 259.664 65.5303 259.664 62.1396C259.664 58.7488 256.895 56 253.479 56C250.063 56 247.293 58.7488 247.293 62.1396C247.293 65.5303 250.063 68.2791 253.479 68.2791Z" fill="#ADC5F1"/>
<path d="M418.932 102.047C422.348 102.047 425.117 99.2979 425.117 95.9071C425.117 92.5163 422.348 89.7676 418.932 89.7676C415.516 89.7676 412.747 92.5163 412.747 95.9071C412.747 99.2979 415.516 102.047 418.932 102.047Z" fill="#ADC5F1"/>
<path d="M732.827 85.9305C736.243 85.9305 739.012 83.1817 739.012 79.7909C739.012 76.4001 736.243 73.6514 732.827 73.6514C729.411 73.6514 726.642 76.4001 726.642 79.7909C726.642 83.1817 729.411 85.9305 732.827 85.9305Z" fill="#ADC5F1"/>
<path d="M703.447 163.442C706.863 163.442 709.632 160.693 709.632 157.303C709.632 153.912 706.863 151.163 703.447 151.163C700.031 151.163 697.262 153.912 697.262 157.303C697.262 160.693 700.031 163.442 703.447 163.442Z" fill="#ADC5F1"/>
<path d="M764.525 238.652C767.941 238.652 770.711 235.903 770.711 232.513C770.711 229.122 767.941 226.373 764.525 226.373C761.109 226.373 758.34 229.122 758.34 232.513C758.34 235.903 761.109 238.652 764.525 238.652Z" fill="#ADC5F1"/>
<path d="M733.6 290.07C737.016 290.07 739.785 287.321 739.785 283.931C739.785 280.54 737.016 277.791 733.6 277.791C730.184 277.791 727.415 280.54 727.415 283.931C727.415 287.321 730.184 290.07 733.6 290.07Z" fill="#ADC5F1"/>
<path d="M694.943 360.675C698.359 360.675 701.128 357.926 701.128 354.536C701.128 351.145 698.359 348.396 694.943 348.396C691.527 348.396 688.758 351.145 688.758 354.536C688.758 357.926 691.527 360.675 694.943 360.675Z" fill="#ADC5F1"/>
<path d="M770.71 405.954C774.126 405.954 776.896 403.206 776.896 399.815C776.896 396.424 774.126 393.675 770.71 393.675C767.295 393.675 764.525 396.424 764.525 399.815C764.525 403.206 767.295 405.954 770.71 405.954Z" fill="#ADC5F1"/>
<path d="M794.678 589.373C798.094 589.373 800.863 586.624 800.863 583.233C800.863 579.843 798.094 577.094 794.678 577.094C791.262 577.094 788.493 579.843 788.493 583.233C788.493 586.624 791.262 589.373 794.678 589.373Z" fill="#ADC5F1"/>
<path d="M730.894 654.989C734.31 654.989 737.079 652.24 737.079 648.85C737.079 645.459 734.31 642.71 730.894 642.71C727.478 642.71 724.709 645.459 724.709 648.85C724.709 652.24 727.478 654.989 730.894 654.989Z" fill="#ADC5F1"/>
<path d="M647.781 676.095C651.197 676.095 653.966 673.346 653.966 669.955C653.966 666.564 651.197 663.816 647.781 663.816C644.365 663.816 641.596 666.564 641.596 669.955C641.596 673.346 644.365 676.095 647.781 676.095Z" fill="#ADC5F1"/>
<path d="M377.311 586.431C380.727 586.431 383.496 583.682 383.496 580.291C383.496 576.9 380.727 574.152 377.311 574.152C373.895 574.152 371.125 576.9 371.125 580.291C371.125 583.682 373.895 586.431 377.311 586.431Z" fill="#ADC5F1"/>
<path d="M312.367 654.989C315.783 654.989 318.552 652.24 318.552 648.85C318.552 645.459 315.783 642.71 312.367 642.71C308.951 642.71 306.182 645.459 306.182 648.85C306.182 652.24 308.951 654.989 312.367 654.989Z" fill="#ADC5F1"/>
<path d="M162.635 594.362C166.051 594.362 168.82 591.613 168.82 588.222C168.82 584.831 166.051 582.083 162.635 582.083C159.219 582.083 156.45 584.831 156.45 588.222C156.45 591.613 159.219 594.362 162.635 594.362Z" fill="#ADC5F1"/>
<path d="M137.121 675.71C140.537 675.71 143.306 672.962 143.306 669.571C143.306 666.18 140.537 663.431 137.121 663.431C133.705 663.431 130.936 666.18 130.936 669.571C130.936 672.962 133.705 675.71 137.121 675.71Z" fill="#ADC5F1"/>
<path d="M475.242 637.595C478.658 637.595 481.427 634.846 481.427 631.455C481.427 628.064 478.658 625.315 475.242 625.315C471.826 625.315 469.057 628.064 469.057 631.455C469.057 634.846 471.826 637.595 475.242 637.595Z" fill="#ADC5F1"/>
<path d="M564.669 76.7213C568.084 76.7213 570.854 73.9725 570.854 70.5817C570.854 67.1909 568.084 64.4421 564.669 64.4421C561.253 64.4421 558.483 67.1909 558.483 70.5817C558.483 73.9725 561.253 76.7213 564.669 76.7213Z" fill="#ADC5F1"/>
<path d="M784.475 711.271H115.621V719.456H784.475V711.271Z" fill="black"/>
</svg>
