<svg width="80" height="79" viewBox="0 0 80 79" fill="none" xmlns="http://www.w3.org/2000/svg">
<mask id="mask0_572_7529" style="mask-type:luminance" maskUnits="userSpaceOnUse" x="0" y="0" width="80" height="79">
<path d="M79.2426 0H0.735596V78.8526H79.2426V0Z" fill="white"/>
</mask>
<g mask="url(#mask0_572_7529)">
<path d="M0.919339 0.288565H79.1898V78.559H0.919339V0.288565Z" fill="black"/>
<path d="M0.919339 0.288565L50.0286 0.288557C53.9819 0.288557 57.9357 0.280257 61.8807 0.296511C60.7875 1.40598 59.6694 2.50749 58.5685 3.61731C59.0037 4.07729 59.464 4.50475 59.8997 4.95677C60.9027 4.26647 62.0367 3.71588 63.2696 3.62527C64.3791 3.5101 65.4972 3.79784 66.5163 4.24191C66.9026 4.40619 67.2641 4.66903 67.6997 4.71018C68.1268 4.68563 68.4475 4.30762 68.5953 3.92927C68.7189 3.66677 68.6039 3.35413 68.3982 3.16495C67.4448 2.2035 66.4834 1.2583 65.538 0.296511C70.0916 0.271957 74.644 0.296519 79.1898 0.288565C79.1898 4.72679 79.1984 9.17331 79.1905 13.6198C78.2535 12.6995 77.3408 11.7623 76.4116 10.842C76.1652 10.5868 75.7631 10.4554 75.426 10.6117C75.2039 10.7186 74.9896 10.8911 74.8911 11.1294C74.7682 11.6063 74.9818 12.0746 75.171 12.5017C75.7466 13.7184 76.0009 15.0911 75.8288 16.4308C75.7138 17.3432 75.3846 18.2389 74.8911 19.0198C74.7597 19.2087 74.6368 19.4058 74.5218 19.6037C74.9982 20.0142 75.401 20.5073 75.8859 20.9103C76.9708 19.7925 78.0885 18.6993 79.1905 17.5894C79.1905 25.0112 79.1984 32.4334 79.1905 39.8553C78.9763 39.9293 78.7378 40.0773 78.5157 39.9701C78.22 39.7813 77.9979 39.5018 77.7514 39.2635C75.0882 36.6168 72.4499 33.9455 69.7788 31.3074C68.7189 32.3677 67.6754 33.4361 66.5977 34.4719C67.1655 35.1127 67.7983 35.6799 68.3903 36.2962C70.5272 38.4335 72.6635 40.5705 74.8096 42.7071C74.9896 42.8963 75.2038 43.0609 75.3024 43.3075C75.3353 43.5787 75.146 43.8087 75.0724 44.0552C74.9653 44.3429 75.196 44.6881 75.4995 44.6961C75.7709 44.7459 76.0009 44.5647 76.1737 44.3841C77.1765 43.3729 78.1871 42.3703 79.1905 41.3673L79.1898 78.559H41.9902C42.9436 77.6062 43.8971 76.6606 44.8506 75.7072C41.6054 72.4703 38.3642 69.2288 35.1272 65.984C34.0672 67.0032 33.0479 68.0637 31.9959 69.0908C31.7739 69.3208 31.5273 69.5429 31.4207 69.855C31.3713 70.1586 31.6507 70.4464 31.9464 70.4635C32.2097 70.4306 32.4313 70.2571 32.6945 70.2C32.9245 70.1842 33.1057 70.3649 33.2696 70.5128C35.1933 72.4519 37.1248 74.3759 39.0563 76.3071C39.5409 76.8164 40.0672 77.277 40.5189 77.8033C40.7247 78.0333 40.5849 78.329 40.4698 78.559H18.2209L23.4725 73.3074C23.8011 72.9946 24.1383 72.6332 24.1874 72.1562C24.2615 71.6062 23.7029 71.0549 23.1519 71.1699C22.6916 71.2605 22.314 71.6219 21.8371 71.6219C21.5331 71.5976 21.3027 71.3755 21.0973 71.1784C16.9136 67.0032 12.7386 62.8197 8.56322 58.644C8.28375 58.3649 7.94692 58.0937 7.84796 57.6905C7.83173 57.2143 8.16856 56.8276 8.29203 56.3922C8.44803 55.8416 7.9303 55.2412 7.3711 55.2827C6.98512 55.3073 6.63996 55.529 6.37712 55.8004C4.56869 57.6334 2.72776 59.4415 0.919338 61.2745C0.911038 40.9482 0.919339 20.6146 0.919339 0.288565Z" fill="#F96302"/>
<path d="M57.3765 4.8008C57.4505 4.71883 57.5819 4.64447 57.6559 4.76794C63.386 10.4898 69.1118 16.2157 74.8339 21.9457C72.8238 23.9546 70.8157 25.9656 68.8096 27.9786C68.5461 28.2252 68.2254 28.4306 67.864 28.4552C67.3626 28.4967 66.8613 28.0443 66.9026 27.5345C66.9191 27.0334 67.3462 26.6471 67.3547 26.1373C67.3712 25.8167 67.1247 25.5788 66.9191 25.3564C62.6696 21.1157 58.4285 16.8666 54.1791 12.6169C53.9409 12.3869 53.678 12.0991 53.3162 12.124C52.7819 12.132 52.3794 12.6252 51.8371 12.5678C51.5244 12.5757 51.2695 12.3291 51.1135 12.0746C50.8998 11.6309 51.097 11.0966 51.4179 10.768C53.4068 8.77871 55.3958 6.78972 57.3765 4.8008ZM65.6286 6.46915C65.7929 6.16515 66.1049 5.88571 66.4749 5.93482C66.8856 5.96802 67.1819 6.30453 67.4533 6.57603C69.0947 8.22458 70.7388 9.87115 72.3849 11.5157C72.697 11.8201 73.0669 12.1158 73.1405 12.5678C73.1819 13.036 72.7542 13.4552 72.3027 13.5047C71.9242 13.513 71.5793 13.3075 71.2507 13.1266C70.5516 12.7158 69.763 12.3869 68.9324 12.4281C68.5053 12.4197 68.0946 12.5924 67.7076 12.7649C67.2562 12.28 66.7384 11.8446 66.3106 11.3431C66.442 10.9734 66.6148 10.62 66.6398 10.225C66.6976 9.32963 66.3356 8.47474 65.8832 7.72662C65.6532 7.35694 65.4723 6.89624 65.6286 6.46915ZM29.4066 10.8254C30.2947 9.8885 31.2316 9.00903 32.1191 8.08008C32.9657 8.90186 33.7874 9.73217 34.6178 10.5622C34.889 10.8254 34.6423 11.2691 34.3384 11.376C34.0835 11.4088 33.8614 11.2363 33.6314 11.154C32.744 10.7186 31.6425 10.6695 30.755 11.146C30.5247 11.2446 30.3355 11.4417 30.0889 11.4828C29.8424 11.2857 29.6369 11.0392 29.4066 10.8254ZM28.848 11.3511C30.0561 12.5183 31.2234 13.7267 32.4151 14.9019C34.2809 16.7594 36.1381 18.6336 38.0122 20.4911C36.9444 21.5712 35.8705 22.6451 34.7904 23.713C34.5683 23.9592 34.1246 24.0664 33.9109 23.7621C33.6481 23.4826 33.9354 23.1375 34.0178 22.8498C34.1163 22.636 33.9441 22.4472 33.804 22.2995C31.6521 20.1554 29.5042 18.0074 27.3602 15.8554C27.1631 15.6745 26.9985 15.4528 26.7602 15.3293C26.4317 15.2553 26.1768 15.5514 25.8562 15.568C25.6096 15.5431 25.3796 15.2969 25.4124 15.0416C25.4287 14.8444 25.5439 14.6719 25.6836 14.5322C26.7357 13.4718 27.8043 12.4281 28.848 11.3511ZM33.1383 12.6663C33.0318 12.3952 33.2206 12.0667 33.5083 12.0255C33.7221 11.9926 33.8946 12.1566 34.0427 12.2967C34.9301 13.1841 35.8175 14.0802 36.7136 14.9596C36.8696 15.1322 37.0916 15.2882 37.1082 15.5431C37.141 15.798 36.8945 16.0446 36.6317 16.0197C36.2862 16.0197 36.0233 15.7485 35.711 15.6334C35.2507 15.4199 34.6918 15.4034 34.2398 15.6499C34.0015 15.4117 33.7629 15.1651 33.5163 14.943C33.6235 14.5813 33.7221 14.1953 33.6314 13.817C33.5657 13.3899 33.2697 13.0609 33.1383 12.6663ZM48.878 13.3075C49.1 13.0855 49.3792 12.9212 49.6918 12.8801C50.242 12.7981 50.8175 13.3321 50.711 13.891C50.637 14.3841 50.2261 14.7784 50.2586 15.2969C50.341 15.6579 50.637 15.9045 50.8749 16.1597C55.0752 20.3514 59.2752 24.5347 63.4585 28.7347C63.6888 28.9404 63.9188 29.2115 64.2477 29.2115C64.7409 29.2115 65.1189 28.8418 65.5875 28.7592C66.1299 28.6693 66.6641 29.2032 66.5977 29.7459C66.5656 30.1156 66.3435 30.4362 66.0891 30.6907C63.9762 32.7949 61.8721 34.9156 59.76 37.0197C59.4889 37.2908 59.1437 37.5374 58.7411 37.5374C58.2967 37.562 57.8696 37.1843 57.8122 36.7486C57.7544 36.1731 58.2888 35.7456 58.2722 35.1701C58.2477 34.899 58.0588 34.6773 57.8779 34.4798C54.1874 30.798 50.5052 27.1074 46.8151 23.4253C49.8644 29.0881 52.9382 34.735 55.9875 40.3979C56.0366 40.4799 56.0778 40.5705 56.119 40.6691C55.8973 40.8742 55.6836 41.0962 55.4698 41.3182C49.3629 38.3104 43.2643 35.2687 37.1656 32.2525C36.2042 31.776 35.2507 31.2171 34.1658 31.0857C33.804 31.0359 33.5575 31.3323 33.2946 31.5211C33.0231 31.7348 32.6614 31.8662 32.3249 31.7594C31.9219 31.5789 31.6425 31.102 31.7659 30.6662C31.8479 30.3705 32.0533 30.1239 32.2671 29.9098C34.2398 27.9457 36.2042 25.9734 38.1769 24.017C41.2504 25.521 44.3326 26.9923 47.4151 28.4967C47.5136 28.5704 47.6202 28.6444 47.7108 28.7429C47.7603 28.6852 47.8014 28.6278 47.8505 28.5704L47.7354 28.5866C46.1164 25.5045 44.4153 22.4635 42.7956 19.3812C44.834 17.3595 46.8479 15.3293 48.878 13.3075ZM38.0863 14.6965C38.2343 14.4253 38.6534 14.3924 38.8506 14.6224C39.6806 15.4607 40.5276 16.2991 41.3656 17.1377C40.4292 18.0834 39.4869 19.023 38.5386 19.9567C38.3249 19.7102 38.0368 19.5131 37.8725 19.2253C38.1437 18.765 38.4314 18.2964 38.5055 17.754C38.6452 17.006 38.522 16.2171 38.2014 15.5269C38.1108 15.2636 37.9137 14.9596 38.0863 14.6965ZM24.2864 15.9294C24.4506 15.7568 24.6315 15.5759 24.8698 15.5185C25.1085 15.4694 25.4042 15.6171 25.437 15.8799C25.4948 16.1677 25.281 16.4063 25.2236 16.6854C25.1904 16.9074 25.3713 17.0638 25.5027 17.2118C27.6975 19.4058 29.8835 21.6005 32.0782 23.7867C32.2263 23.9267 32.3822 24.0993 32.596 24.1484C32.8588 24.1238 33.0805 23.9513 33.3358 23.8938C33.6481 23.8607 33.9354 24.1978 33.8369 24.4935C33.7961 24.7155 33.6235 24.8802 33.4755 25.0361C32.4068 26.1049 31.3382 27.1731 30.2698 28.2335C30.081 28.4227 29.8344 28.6198 29.5546 28.5541C29.3986 28.4881 29.2672 28.3649 29.2095 28.209C29.1275 27.8472 29.5138 27.5512 29.4232 27.1894C29.3412 27.05 29.2261 26.9428 29.1192 26.828C28.1166 25.8334 27.122 24.8225 26.1111 23.8281C25.7589 24.1883 25.4027 24.5444 25.0424 24.8965C24.7958 24.6582 24.5492 24.4195 24.3192 24.165C24.6806 23.8116 25.0344 23.4502 25.3962 23.0963C24.5081 22.2255 23.6286 21.3374 22.7495 20.4579C22.5603 20.2773 22.396 20.0802 22.174 19.9488C21.7714 19.817 21.3851 20.3842 20.9988 20.0719C20.6861 19.8502 20.785 19.4058 21.0399 19.1758C22.1165 18.0826 23.2094 17.0143 24.2864 15.9294Z" fill="black"/>
<path d="M20.0781 20.1955C20.3251 20.0387 20.6948 20.1377 20.8096 20.4171C20.9247 20.754 20.6208 21.0417 20.6125 21.3706C20.6042 21.5432 20.7439 21.6663 20.8508 21.7814C23.1275 24.0585 25.3962 26.3349 27.6729 28.6032C28.0834 29.047 28.6098 28.2826 29.0535 28.6115C29.3413 28.8419 29.2427 29.2935 28.9961 29.5073C27.9274 30.5843 26.8508 31.6443 25.7905 32.7209C25.6179 32.8855 25.4453 33.0827 25.207 33.1567C24.9439 33.2306 24.6233 33.066 24.5907 32.787C24.5413 32.4584 24.8373 32.2031 24.8207 31.8825C24.7792 31.7428 24.6893 31.628 24.5907 31.5211C22.4357 29.3747 20.2849 27.224 18.1383 25.0691C17.9332 24.8802 17.7607 24.6416 17.4891 24.5431C17.1934 24.5268 16.9469 24.7488 16.6591 24.7813C16.4125 24.7896 16.1988 24.5676 16.1905 24.3296C16.1659 24.0744 16.3468 23.8693 16.5194 23.6968C17.5877 22.6281 18.656 21.5594 19.7167 20.4912C19.8316 20.3842 19.9384 20.2774 20.0781 20.1955ZM14.1359 26.072C14.629 25.5951 15.1056 25.1019 15.5988 24.6171C16.462 25.4557 17.3083 26.3266 18.1715 27.1732C18.3195 27.3375 18.5001 27.4855 18.582 27.6992C18.6809 28.1021 18.221 28.5458 17.8181 28.365C17.4151 28.1841 17.0949 27.8635 16.7082 27.6498C16.0591 27.2472 15.3028 26.9923 14.5305 27.0829C14.3084 26.8529 14.0618 26.6388 13.8647 26.3926C13.9301 26.2609 14.0373 26.1706 14.1359 26.072ZM10.5522 29.6553C11.4728 28.7513 12.3769 27.839 13.2892 26.9266C15.0166 28.6622 16.748 30.3937 18.4835 32.1212C19.4369 33.066 20.3659 34.0282 21.3274 34.9568C21.5988 35.2608 21.9602 35.0062 22.2563 34.899C22.552 34.7676 22.8975 35.0308 22.8892 35.3427C22.8892 35.5565 22.7657 35.7374 22.6263 35.8857C21.5086 36.9952 20.4071 38.1047 19.2976 39.2144C19.1412 39.3704 18.9438 39.5264 18.7138 39.5101C18.4589 39.535 18.2123 39.2885 18.2369 39.0416C18.2535 38.7787 18.4589 38.565 18.4589 38.3018C18.4755 38.0798 18.2863 37.9401 18.1549 37.792C15.5331 35.1868 12.9358 32.557 10.3056 29.9593C10.3879 29.8525 10.4619 29.7539 10.5522 29.6553ZM72.237 28.8499C73.2555 29.8526 74.2668 30.8636 75.2696 31.8825C75.5902 32.1869 75.3602 32.7949 74.9325 32.861C74.5382 32.9184 74.234 32.6061 73.9297 32.4007C73.1162 31.8414 72.1542 31.3157 71.1357 31.4883C70.8643 31.2417 70.6015 30.9868 70.3794 30.6994C71.0122 30.0911 71.6207 29.4662 72.237 28.8499ZM9.71388 30.5182C10.0182 30.6334 10.207 30.9785 10.4536 31.1922C10.3222 32.1458 10.7739 33.0415 11.3082 33.7895C11.4645 34.0282 11.6534 34.2499 11.752 34.521C11.8591 34.8827 11.5057 35.2608 11.1439 35.2196C10.9385 35.2196 10.7988 35.047 10.6673 34.9239C9.77131 34.0195 8.86759 33.1321 7.9715 32.228C8.56322 31.6688 9.1142 31.0691 9.71388 30.5182ZM28.0014 35.1543C29.637 34.6278 31.4121 34.5705 33.0972 34.9156C35.9576 35.5239 38.4888 37.2006 40.511 39.2798C42.4917 41.2854 44.0698 43.8007 44.604 46.6031C44.8997 48.14 44.834 49.751 44.3907 51.255C43.9549 52.7429 43.1654 54.1155 42.1711 55.299C41.7436 54.847 41.2754 54.4278 40.8641 53.9675C40.8641 53.7455 41.0038 53.5563 41.0454 53.3429C41.267 52.6198 41.0454 51.806 40.4944 51.2796C36.4345 47.2114 32.3577 43.1429 28.2971 39.0744C27.9274 38.6964 27.4592 38.3924 26.9248 38.3513C26.489 38.2938 26.0616 38.4498 25.6508 38.5975C25.4861 38.6881 25.3796 38.483 25.2727 38.4004C24.9439 38.0472 24.5821 37.7266 24.2535 37.3649C24.2535 37.3403 24.2452 37.2909 24.2452 37.2663C25.3385 36.3294 26.6209 35.598 28.0014 35.1543ZM39.081 34.7019C39.4589 34.825 39.8041 35.0142 40.1576 35.1951C41.4811 35.8363 42.7956 36.502 44.1275 37.1511C44.2423 37.2089 44.3492 37.2992 44.4481 37.3895C45.5655 38.5238 46.6919 39.6416 47.8177 40.7676C48.4306 41.4171 49.1841 41.9175 50.0204 42.2306C50.6038 42.4526 51.2616 42.4526 51.845 42.2468C52.141 42.1483 52.4616 42.0334 52.774 42.132C52.9302 42.1964 53.0657 42.3026 53.1657 42.4389C53.2657 42.5751 53.3263 42.7363 53.3408 42.9046C53.3163 43.3566 53.0285 43.7347 52.7245 44.0469C51.7191 45.0662 50.7053 46.0773 49.6835 47.08C49.4124 47.3266 49.1 47.5812 48.7217 47.6223C48.1794 47.7042 47.6451 47.1295 47.8093 46.6031C47.9657 46.0688 48.1794 45.5265 48.0891 44.9676C47.9574 44.0304 47.423 43.2003 46.8313 42.4854C44.6041 40.2499 42.3685 38.0223 40.133 35.7785C39.7875 35.4168 39.4095 35.0882 39.081 34.7019ZM64.1488 36.9374C64.7658 36.3211 65.3901 35.7045 66.0067 35.0803C66.2777 35.3019 66.5163 35.5651 66.7712 35.8117C66.6641 36.6334 66.944 37.4468 67.3712 38.1375C67.5926 38.5321 67.9133 38.8689 68.1111 39.2798C68.2175 39.4773 68.1439 39.699 68.0697 39.8961C69.1066 40.5969 70.0114 41.4763 70.7408 42.4934C71.5707 43.669 72.1542 45.0662 72.1214 46.5291C72.1299 47.9183 71.53 49.2495 70.6501 50.3016C70.4122 50.055 70.1323 49.8333 69.9266 49.5539C69.968 49.2495 70.1159 48.9538 70.0423 48.6498C69.9602 48.2552 69.6559 47.9758 69.3845 47.7042C67.2148 45.5428 65.0532 43.3815 62.8917 41.2197C62.6779 41.006 62.423 40.8088 62.1187 40.7843C61.8313 40.7511 61.5436 40.8334 61.2807 40.9236C61.0258 40.6857 60.7713 40.4305 60.5247 40.1839C61.6175 39.247 63.0393 38.647 64.4943 38.721C65.0532 38.7047 65.5958 38.8361 66.1378 38.9592C65.4807 38.2772 64.7817 37.636 64.1488 36.9374ZM21.1385 41.762C21.5905 40.5045 22.3054 39.3538 23.152 38.3264C23.5712 38.7541 24.0152 39.1646 24.4261 39.6004C24.5081 39.8636 24.2947 40.1102 24.2535 40.3731C24.0398 41.08 24.3192 41.8526 24.8373 42.362C28.8315 46.3648 32.8343 50.3593 36.8371 54.3618C37.2234 54.7813 37.6917 55.1755 38.2834 55.2661C38.8094 55.3485 39.3275 55.1676 39.8124 54.9867C40.2561 55.4304 40.7002 55.8662 41.1439 56.3099C40.1738 57.1566 39.0477 57.8223 37.848 58.2909C36.0396 58.9892 34.0178 59.1044 32.1191 58.6855C29.234 58.0523 26.6945 56.3182 24.6644 54.2058C22.7906 52.2417 21.2779 49.8333 20.7439 47.1454C20.3825 45.3622 20.4976 43.4718 21.1385 41.762ZM58.4943 44.1375C58.5932 42.8884 59.1437 41.6966 59.9658 40.7594C60.2037 41.0059 60.459 41.2525 60.7052 41.4991C60.6149 41.7952 60.4749 42.1075 60.5576 42.4194C60.6067 42.6992 60.7955 42.9212 60.993 43.1184C63.1628 45.2799 65.316 47.4497 67.4862 49.6112C67.7405 49.8578 67.9875 50.1539 68.3489 50.2524C68.6781 50.343 69.0146 50.2275 69.3352 50.129C69.5823 50.3759 69.8366 50.6225 70.0751 50.8854C69.0396 51.7399 67.749 52.3403 66.3848 52.3403C65.0615 52.3977 63.7629 51.9291 62.6617 51.2388C61.8642 50.7294 61.1327 50.1127 60.5247 49.3975C60.8121 50.3593 60.7468 51.4363 60.2943 52.3403C59.8507 53.2277 59.1603 53.9513 58.478 54.6498C58.2314 54.4033 57.9765 54.1481 57.7216 53.9018C57.9357 53.5563 58.0754 53.1455 57.9437 52.7429C57.7877 52.3316 57.4505 52.0359 57.1548 51.7237C56.5432 51.1051 55.9295 50.4887 55.3135 49.8745C54.9521 49.5372 54.5654 49.1509 54.0477 49.1181C53.7437 49.0855 53.4726 49.2415 53.2177 49.3896C52.9631 49.143 52.7165 48.8881 52.4616 48.6419C53.4477 47.6472 54.5737 46.6197 56.0204 46.4388C57.2039 46.2413 58.3957 46.7511 59.234 47.5649C58.708 46.5128 58.3794 45.329 58.4943 44.1375ZM15.1713 47.006C15.4179 46.7677 15.7385 46.5868 16.0837 46.5623C16.6508 46.5291 17.1689 47.1208 17.0122 47.6718C16.8891 48.0909 16.5851 48.4606 16.5685 48.913C16.6014 49.3072 16.9303 49.5867 17.1934 49.8499L29.8507 62.5071C30.0482 62.6963 30.2698 62.8851 30.5493 62.9096C31.0259 62.9096 31.3959 62.5566 31.8479 62.4497C32.3902 62.3428 32.9329 62.836 32.9083 63.3783C32.8917 63.7483 32.6863 64.0852 32.4314 64.3481L26.0616 70.7184C25.7822 70.9892 25.437 71.2277 25.0345 71.2277C24.5413 71.2441 24.0809 70.7756 24.1218 70.2742C24.1716 69.7814 24.5821 69.3865 24.5907 68.8766C24.5741 68.573 24.3355 68.3423 24.1467 68.1294C22.2563 66.2304 20.3576 64.3481 18.4755 62.458C18.4015 62.4006 18.3029 62.236 18.1961 62.3508C17.5386 62.9837 16.9057 63.6498 16.2479 64.2823C15.8042 63.8386 15.3605 63.3949 14.9164 62.9429C15.554 62.2765 16.2061 61.6243 16.8725 60.9868C16.8725 60.9536 16.8812 60.8799 16.8812 60.8467C15.0973 59.0964 13.3466 57.3208 11.5714 55.5539C11.3003 55.299 11.045 54.9788 10.6673 54.8882C10.1497 54.8549 9.74673 55.2579 9.26185 55.3485C8.63727 55.4553 8.07006 54.7484 8.28382 54.1646C8.39066 53.7538 8.71922 53.4577 9.00696 53.1786C11.0616 51.1157 13.1246 49.069 15.1713 47.006ZM51.8696 49.2253C52.8559 50.1456 53.7849 51.132 54.7546 52.0771C56.5959 53.9264 58.4451 55.7756 60.2943 57.6248C60.4258 57.7321 60.5489 57.8797 60.7215 57.9126C61.0753 57.9457 61.3544 57.6002 61.7082 57.666C61.9219 57.74 62.1187 57.9458 62.0945 58.1837C62.0945 58.5043 61.823 58.7263 61.6255 58.9401C60.467 60.0827 59.3243 61.2413 58.1657 62.384C57.9108 62.6634 57.4339 62.5237 57.2779 62.2114C57.0479 61.8251 57.6725 61.4139 57.3439 61.0608C54.9588 58.6841 52.5779 56.3032 50.2012 53.918C50.0286 53.7621 49.881 53.565 49.6752 53.4577C49.3217 53.3592 49.0423 53.6552 48.7137 53.6964C48.4589 53.6718 48.2123 53.4498 48.2285 53.1866C48.204 52.8989 48.4177 52.6775 48.5983 52.4884C49.6918 51.4031 50.785 50.3102 51.8696 49.2253ZM44.5383 56.5485C45.516 55.5867 46.4696 54.5925 47.4642 53.6469C48.3437 54.5347 49.2314 55.4142 50.111 56.3016C50.4067 56.5894 50.0944 57.0251 49.7904 57.1566C49.5766 57.1811 49.3792 57.0497 49.19 56.9677C48.4343 56.5973 47.5628 56.4168 46.7327 56.6305C46.2067 56.7374 45.7464 57.0331 45.2861 57.3042C45.0395 57.0497 44.7932 56.7952 44.5383 56.5485ZM40.5435 60.551C41.6782 59.4004 42.8289 58.2743 43.9628 57.1317C45.8038 58.9484 47.6202 60.7976 49.4698 62.614C50.8836 64.0195 52.2808 65.4416 53.7026 66.8389C52.6014 67.973 51.4674 69.0743 50.3655 70.2C50.2095 70.3728 49.9875 70.4714 49.782 70.562C49.5766 70.4884 49.3217 70.4142 49.256 70.1842C49.1329 69.7978 49.5355 69.4936 49.4863 69.1157C49.3217 68.7951 49.034 68.5644 48.7874 68.3101L42.7956 62.3179C42.4426 61.9894 42.1465 61.5951 41.7273 61.3485C41.3082 61.2659 40.9302 61.8002 40.5276 61.5125C40.1825 61.2908 40.281 60.7976 40.5435 60.551ZM48.5163 58.513C48.3848 58.1757 48.6972 57.7811 49.0506 57.8386C49.2149 57.8797 49.338 57.9866 49.4532 58.1017C50.3161 58.9733 51.1876 59.8278 52.0425 60.699C52.3216 60.9868 52.6833 61.2334 52.7985 61.6442C52.6916 61.8251 52.5765 62.0717 52.3302 62.0962C51.927 62.1374 51.6313 61.8168 51.2695 61.6851C51.0229 61.5627 50.7509 61.4997 50.4755 61.5012C50.2001 61.5027 49.9288 61.5686 49.6835 61.6937C49.4206 61.4305 49.1657 61.1673 48.9026 60.9128C49.0835 60.5265 49.1657 60.0827 49.034 59.6715C48.9354 59.2523 48.656 58.9072 48.5163 58.513ZM53.8012 60.6579C53.9737 60.395 54.3929 60.3539 54.5983 60.6005C55.4861 61.4965 56.3905 62.384 57.2696 63.288C56.2587 64.2744 55.289 65.3099 54.2532 66.2718C54.0152 66.0168 53.76 65.7704 53.5134 65.5153C54.3929 64.4307 54.5163 62.8606 53.9246 61.6114C53.8174 61.3153 53.5874 60.9536 53.8012 60.6579Z" fill="black"/>
<path d="M0.919338 63.9292C1.24789 63.7978 1.56054 63.592 1.92229 63.6003C2.35771 63.6826 2.62919 64.0689 2.93285 64.3563C7.06745 68.4744 11.1851 72.6004 15.311 76.7178C15.541 76.9734 15.837 77.2277 15.8782 77.5891C15.8616 77.9426 15.6724 78.2554 15.525 78.5676C10.6507 78.559 5.78537 78.559 0.919339 78.559C0.919339 73.6853 0.911038 68.803 0.919338 63.9292Z" fill="#F96302"/>
<path d="M39.1794 63.7071C40.6423 63.584 42.0973 64.1097 43.3053 64.9072C44.2505 65.5401 45.13 66.2718 45.8037 67.1839C46.6095 68.2602 47.1024 69.5757 47.111 70.932C47.1352 72.4768 46.5272 74.0388 45.426 75.1315C45.1724 74.8864 44.923 74.6374 44.678 74.3838C44.8257 74.1045 44.9982 73.8088 44.9491 73.4796C44.8672 72.9868 44.53 72.5833 44.1928 72.2469L38.6451 66.6989C38.2671 66.329 37.8396 65.9262 37.2807 65.8854C36.9767 65.8526 36.7053 66.0083 36.4507 66.1562C36.212 65.8933 35.8835 65.696 35.7355 65.3675C36.6395 64.4386 37.8725 63.7891 39.1794 63.7071Z" fill="black"/>
</g>
</svg>
