<svg width="210" height="40" viewBox="0 0 210 40" fill="none" xmlns="http://www.w3.org/2000/svg">
<g clip-path="url(#clip0_572_7624)">
<mask id="mask0_572_7624" style="mask-type:luminance" maskUnits="userSpaceOnUse" x="1" y="0" width="209" height="40">
<path d="M209.722 0H1.32007V39.4263H209.722V0Z" fill="white"/>
</mask>
<g mask="url(#mask0_572_7624)">
<path d="M59.4566 9.40902C58.7272 9.40902 58.2062 9.8891 58.2062 10.5612V33.0597C56.4348 33.3797 54.4549 33.7318 52.5098 33.7318C48.2377 33.7318 46.8136 32.2596 46.8136 28.0031V10.5932C46.8136 9.92111 46.2925 9.44102 45.7368 9.44102H39.3111V27.9711C39.3111 36.6761 44.3127 39.4603 52.3015 39.4603C58.7272 39.4603 65.1182 37.8282 65.6739 37.6682V9.44102H59.4566V9.40902ZM157.614 39.1083C158.135 39.1083 158.865 38.6283 158.865 37.9562V15.2977C160.636 14.9777 162.616 14.6256 164.561 14.6256C168.833 14.6256 170.257 16.0978 170.257 20.3543V37.9242C170.257 38.5963 170.778 39.0763 171.333 39.0763H177.759V20.3543C177.759 11.6493 172.758 8.86501 164.769 8.86501C158.343 8.86501 151.952 10.4972 151.397 10.6572V39.0443H157.614V39.1083ZM131.946 8.89701C123.575 8.89701 118.4 12.9935 118.4 22.0184V26.4349C118.4 36.292 124.096 39.5564 130.139 39.5564C133.161 39.5564 136.357 37.5722 137.26 36.4521V38.2442C137.26 38.7243 137.781 39.2363 138.336 39.2363C138.336 39.2363 144.554 39.2363 144.762 39.2363V10.5292C144.936 10.5612 138.719 8.89701 131.946 8.89701ZM137.469 31.8755C136.045 33.0277 134.967 33.6677 131.946 33.6677C127.673 33.8278 125.902 31.3635 125.902 26.2749V22.1785C125.902 16.4498 128.23 14.7857 131.946 14.7857C134.967 14.7857 136.739 14.9457 137.469 15.1057V31.8755ZM196.62 8.89701C188.249 8.89701 183.074 12.9935 183.074 22.0184V26.4349C183.074 36.292 188.77 39.5564 195.022 39.5564C198.044 39.5564 201.239 37.5722 202.143 36.4521V38.2442C202.143 38.7243 202.663 39.2363 203.219 39.2363C203.219 39.2363 209.436 39.2363 209.645 39.2363V10.5292C209.61 10.5612 203.393 8.89701 196.62 8.89701ZM202.143 31.8755C200.719 33.0277 199.642 33.6677 196.62 33.6677C192.347 33.6677 190.576 31.3635 190.576 26.2749V22.1785C190.576 16.2578 192.904 14.7857 196.62 14.7857C199.642 14.7857 201.413 14.9457 202.143 15.1057V31.8755ZM1.20825 39.1083C2.28499 39.1083 7.98135 39.1083 7.98135 39.1083C8.5023 39.1083 9.05804 38.6283 9.05804 38.1162V21.6984H21.5275C23.6809 21.6984 25.105 23.1706 25.105 24.8028V38.0842C25.105 38.5643 25.626 39.0763 26.1818 39.0763C26.1818 39.0763 32.6075 39.0763 32.9548 39.0763C32.9548 39.0763 32.9548 0.352039 32.9548 0H26.147C25.626 0 25.0703 0.480055 25.0703 0.99211V15.7778H12.2535C10.4821 15.7778 9.23174 14.4656 9.23174 12.9935V1.0241C9.05804 0.704075 8.71071 0.0320055 7.98135 0.0320055H1.20825C1.20825 0.384044 1.20825 39.1083 1.20825 39.1083ZM101.484 8.89701C97.9066 8.89701 94.5376 10.2091 92.9399 11.2012C90.613 9.56909 87.4169 8.89701 83.4922 8.89701C77.6221 8.89701 72.6204 10.5292 71.9261 10.8812V39.2683H78.352C79.0812 39.2683 79.4283 38.7883 79.4283 38.1162V15.2977C81.026 14.9777 82.2766 14.8177 83.3536 14.8177C87.799 14.8177 88.876 16.4498 88.876 20.5463V38.1162C88.876 38.5963 89.2231 39.2683 89.953 39.2683H95.3018C96.0311 39.2683 96.3782 38.7883 96.3782 38.1162V16.1298C97.6288 15.2977 99.2265 14.8177 100.824 14.8177C104.194 14.8177 105.617 16.2898 105.617 20.0662V38.1162C105.617 38.5963 105.965 39.2683 106.694 39.2683C106.694 39.2683 112.565 39.2683 113.12 39.2683V19.0741C113.259 11.5533 108.084 8.89701 101.484 8.89701Z" fill="#4E8416"/>
</g>
</g>
<defs>
<clipPath id="clip0_572_7624">
<rect width="209.201" height="39.4263" fill="white" transform="translate(0.703613)"/>
</clipPath>
</defs>
</svg>
