<svg width="60" height="60" viewBox="0 0 60 60" fill="none" xmlns="http://www.w3.org/2000/svg">
<path d="M9.99998 34.9999C9.52689 35.0015 9.06306 34.8689 8.66236 34.6174C8.26167 34.3658 7.94057 34.0058 7.73636 33.5791C7.53215 33.1523 7.45321 32.6764 7.50873 32.2066C7.56425 31.7367 7.75193 31.2923 8.04998 30.9249L32.8 5.42492C32.9856 5.21062 33.2386 5.06581 33.5174 5.01425C33.7962 4.96269 34.0843 5.00745 34.3343 5.14118C34.5843 5.27491 34.7814 5.48966 34.8933 5.75019C35.0052 6.01072 35.0252 6.30154 34.95 6.57492L30.15 21.6249C30.0084 22.0037 29.9609 22.4112 30.0115 22.8124C30.062 23.2137 30.2091 23.5966 30.4402 23.9285C30.6713 24.2603 30.9794 24.5312 31.3382 24.7178C31.6969 24.9044 32.0956 25.0012 32.5 24.9999H50C50.4731 24.9983 50.9369 25.131 51.3376 25.3825C51.7383 25.634 52.0594 25.994 52.2636 26.4208C52.4678 26.8475 52.5467 27.3235 52.4912 27.7933C52.4357 28.2631 52.248 28.7075 51.95 29.0749L27.2 54.5749C27.0143 54.7892 26.7613 54.934 26.4825 54.9856C26.2037 55.0371 25.9157 54.9924 25.6657 54.8587C25.4156 54.7249 25.2185 54.5102 25.1066 54.2496C24.9948 53.9891 24.9748 53.6983 25.05 53.4249L29.85 38.3749C29.9915 37.9961 30.0391 37.5886 29.9885 37.1874C29.938 36.7862 29.7908 36.4032 29.5598 36.0714C29.3287 35.7395 29.0205 35.4686 28.6618 35.282C28.303 35.0954 27.9044 34.9986 27.5 34.9999H9.99998Z" stroke="#0277EB" stroke-width="4" stroke-linecap="round" stroke-linejoin="round"/>
</svg>
