<svg width="276" height="33" viewBox="0 0 276 33" fill="none" xmlns="http://www.w3.org/2000/svg">
<g clip-path="url(#clip0_572_7597)">
<mask id="mask0_572_7597" style="mask-type:luminance" maskUnits="userSpaceOnUse" x="0" y="0" width="276" height="33">
<path d="M275.941 0H0.342224V32.9894H275.941V0Z" fill="white"/>
</mask>
<g mask="url(#mask0_572_7597)">
<path d="M117.295 19.3117C114.291 18.7187 113.067 18.3851 113.067 17.5326C113.067 16.7541 113.735 15.9386 115.663 15.9386C117.221 15.9386 118.519 16.6059 119.187 17.755C119.335 18.0144 119.669 18.0886 119.929 17.9403L123.75 15.8275C123.898 15.7533 124.009 15.6051 124.046 15.4568C124.083 15.3086 124.046 15.1232 123.972 15.012C122.229 12.4174 119.521 11.1571 115.701 11.1571H115.515C112.881 11.1571 110.545 12.0096 108.987 13.5294C107.8 14.6784 107.132 16.1981 107.132 17.7179C107.132 22.2029 110.915 23.5003 114.625 24.1675L114.922 24.2416C117.184 24.6494 118.964 24.9829 118.964 25.9838C118.964 26.8734 118.111 27.763 116.22 27.763C114.328 27.763 112.955 26.9845 112.176 25.4648C112.102 25.3165 111.991 25.2054 111.806 25.1683C111.657 25.1312 111.509 25.1312 111.36 25.2054L107.132 27.5405C106.983 27.6147 106.91 27.7259 106.873 27.8741C106.836 28.0225 106.836 28.1707 106.91 28.319C108.616 31.3214 111.546 32.804 115.96 32.804H116.146C119.558 32.804 121.635 31.4696 122.748 30.3576C124.046 29.0974 124.788 27.3923 124.788 25.7984C124.825 21.4987 121.19 20.1643 117.295 19.3117Z" fill="#002F6C"/>
<path d="M136.472 19.3117C133.468 18.7187 132.244 18.3851 132.244 17.5326C132.244 16.7541 132.911 15.9387 134.84 15.9387C136.398 15.9387 137.696 16.6059 138.364 17.755C138.512 18.0144 138.846 18.0886 139.106 17.9403L142.926 15.8275C143.075 15.7534 143.186 15.6051 143.223 15.4568C143.26 15.3086 143.223 15.1232 143.149 15.012C141.406 12.4174 138.698 11.1571 134.877 11.1571H134.692C132.058 11.1571 129.721 12.0096 128.164 13.5294C126.976 14.6785 126.309 16.1981 126.309 17.7179C126.309 22.2029 130.092 23.5003 133.801 24.1675L134.099 24.2416C136.361 24.6494 138.141 24.9829 138.141 25.9838C138.141 26.8734 137.288 27.763 135.397 27.763C133.505 27.763 132.132 26.9845 131.353 25.4649C131.279 25.3166 131.168 25.2054 130.983 25.1683C130.834 25.1313 130.686 25.1313 130.537 25.2054L126.309 27.5405C126.16 27.6147 126.086 27.7259 126.049 27.8742C126.012 28.0224 126.012 28.1707 126.086 28.319C127.793 31.3214 130.723 32.8041 135.137 32.8041H135.323C138.735 32.8041 140.812 31.4696 141.925 30.3576C143.223 29.0974 143.965 27.3923 143.965 25.7984C144.039 21.4987 140.404 20.1643 136.472 19.3117Z" fill="#002F6C"/>
<path d="M213.626 23.1296V17.0507C213.626 16.8283 213.811 16.643 214.034 16.643H217.52C217.817 16.643 218.039 16.4206 218.039 16.1241V12.195C218.039 11.8985 217.817 11.6761 217.52 11.6761H214.034C213.811 11.6761 213.626 11.4907 213.626 11.2312V4.96698C213.626 4.55925 213.181 4.29979 212.846 4.48512L207.988 7.15389C207.802 7.26513 207.728 7.41338 207.728 7.63579V11.2312C207.728 11.4537 207.543 11.6761 207.283 11.6761H205.131C204.834 11.6761 204.612 11.8985 204.612 12.195V16.1241C204.612 16.4206 204.834 16.643 205.131 16.643H207.283C207.505 16.643 207.728 16.8283 207.728 17.0878V24.5011C207.728 28.875 211.289 32.3593 215.666 32.3964C216.408 32.3964 217.112 32.4704 217.78 32.3222C217.965 32.2851 218.114 32.0998 218.114 31.8774V27.0217C218.114 26.8363 217.928 26.6881 217.743 26.7622C217.446 26.8363 217.149 26.9105 216.853 26.9105C215.369 26.9105 214.145 25.9097 213.811 24.5382C213.737 24.427 213.626 23.871 213.626 23.1296Z" fill="#002F6C"/>
<path d="M226.496 22.1659V12.1209C226.496 11.8243 226.273 11.6019 225.977 11.6019H221.08C220.784 11.6019 220.562 11.8243 220.562 12.1209V22.7219C220.562 25.6873 221.452 28.2078 223.084 30.024C224.716 31.8033 227.015 32.767 229.723 32.767C231.949 32.767 233.877 32.2481 235.695 30.8025L235.806 30.7283V31.8033C235.806 32.0998 236.029 32.3222 236.326 32.3222H241.222C241.518 32.3222 241.741 32.0998 241.741 31.8033V12.1209C241.741 11.8243 241.518 11.6019 241.222 11.6019H236.326C236.029 11.6019 235.806 11.8243 235.806 12.1209V22.0547C235.806 25.3908 234.063 27.3553 231.133 27.3553C228.165 27.3553 226.496 25.4278 226.496 22.1659Z" fill="#002F6C"/>
<path d="M186.881 22.1659V12.1209C186.881 11.8243 186.658 11.6019 186.362 11.6019H181.465C181.169 11.6019 180.947 11.8243 180.947 12.1209V22.7219C180.947 25.6873 181.837 28.2078 183.469 30.024C185.101 31.8033 187.4 32.767 190.108 32.767C192.334 32.767 194.262 32.2481 196.08 30.8025L196.192 30.7283V31.9145C196.192 32.1369 196.377 32.3593 196.637 32.3593H201.755C201.978 32.3593 202.163 32.1739 202.163 31.9145V12.1209C202.163 11.8243 201.94 11.6019 201.644 11.6019H196.711C196.414 11.6019 196.192 11.8243 196.192 12.1209V22.0547C196.192 25.3908 194.448 27.3553 191.518 27.3553C188.55 27.3553 186.881 25.4278 186.881 22.1659Z" fill="#002F6C"/>
<path d="M275.385 0.185303H270.377C270.08 0.185303 269.858 0.407703 269.858 0.704235V31.9144C269.858 32.1368 270.043 32.3592 270.303 32.3592H275.422C275.644 32.3592 275.867 32.1738 275.867 31.9144V0.593036C275.83 0.370636 275.607 0.185303 275.385 0.185303Z" fill="#002F6C"/>
<path d="M93.2219 16.2724C96.3007 16.2724 98.4894 18.5705 98.4894 21.8694C98.4894 25.2055 96.2637 27.6519 93.2219 27.6519C90.1432 27.6519 87.8812 25.2055 87.8812 21.8694C87.8812 18.5334 90.0692 16.2724 93.2219 16.2724ZM81.9832 21.8694C81.9832 28.5044 86.4339 32.9153 93.0364 32.7671C95.0026 32.73 96.8942 31.9516 98.4524 30.7284V31.8033C98.4524 32.0998 98.6749 32.3222 98.9714 32.3222H103.868C104.164 32.3222 104.387 32.0998 104.387 31.8033V12.1209C104.387 11.8244 104.164 11.602 103.868 11.602H98.9714C98.6749 11.602 98.4524 11.8244 98.4524 12.1209V13.1958L98.3408 13.1217C96.6717 11.8244 94.7801 11.1942 92.666 11.1942C86.286 11.1942 81.9832 15.494 81.9832 21.8694Z" fill="#002F6C"/>
<path d="M255.392 16.2725C258.47 16.2725 260.658 18.5706 260.658 21.8696C260.658 25.2056 258.433 27.652 255.392 27.652C252.313 27.652 250.05 25.2056 250.05 21.8696C250.05 18.5336 252.238 16.2725 255.392 16.2725ZM244.152 21.8696C244.152 28.5045 248.604 32.9155 255.206 32.7672C257.172 32.7301 259.063 31.9517 260.621 30.7285V31.9146C260.621 32.1371 260.807 32.3595 261.066 32.3595H266.185C266.408 32.3595 266.593 32.1741 266.593 31.9146V12.0469C266.593 11.8245 266.408 11.6392 266.185 11.6392H261.066C260.844 11.6392 260.621 11.8245 260.621 12.0469V13.233L260.51 13.1589C258.841 11.8616 256.949 11.2314 254.835 11.2314C248.455 11.1944 244.152 15.4941 244.152 21.8696Z" fill="#002F6C"/>
<path d="M74.7131 0.444769L63.919 16.3835L53.125 0.444769C53.0138 0.259436 52.8283 0.185303 52.6058 0.185303H48.8965C48.5627 0.185303 48.2659 0.444769 48.2659 0.815435V31.7291C48.2659 32.0627 48.5255 32.3592 48.8965 32.3592H53.6443C53.9781 32.3592 54.2749 32.0997 54.2749 31.7291V12.825L63.4368 26.3544C63.6964 26.725 64.2157 26.725 64.4754 26.3544L73.6376 12.825V31.7291C73.6376 32.0627 73.8971 32.3592 74.2681 32.3592H79.016C79.3494 32.3592 79.6465 32.0997 79.6465 31.7291V0.815435C79.6465 0.481836 79.3864 0.185303 79.016 0.185303H75.3067C75.0096 0.185303 74.8241 0.296503 74.7131 0.444769Z" fill="#002F6C"/>
<path d="M172.824 0.444769L162.03 16.3835L151.236 0.444769C151.124 0.259436 150.939 0.185303 150.716 0.185303H147.007C146.674 0.185303 146.377 0.444769 146.377 0.815435V31.7291C146.377 32.0627 146.636 32.3592 147.007 32.3592H151.755C152.089 32.3592 152.386 32.0997 152.386 31.7291V12.825L161.548 26.3544C161.807 26.725 162.327 26.725 162.586 26.3544L171.748 12.825V31.7291C171.748 32.0627 172.007 32.3592 172.379 32.3592H177.052C177.387 32.3592 177.683 32.0997 177.683 31.7291V0.815435C177.683 0.481836 177.423 0.185303 177.052 0.185303H173.343C173.121 0.185303 172.935 0.296503 172.824 0.444769Z" fill="#002F6C"/>
<path d="M40.5874 27.9484C40.5874 25.2796 38.3989 23.0927 35.7282 23.0927C33.0575 23.0927 30.8691 25.2796 30.8691 27.9484C30.8691 30.6172 33.0575 32.8041 35.7282 32.8041C38.3989 32.8412 40.5874 30.6172 40.5874 27.9484Z" fill="#002F6C"/>
<path d="M25.3431 27.9484C25.3431 25.2796 23.1546 23.0927 20.484 23.0927C17.8133 23.0927 15.6248 25.2796 15.6248 27.9484C15.6248 30.6172 17.8133 32.8041 20.484 32.8041C23.1546 32.8412 25.3431 30.6172 25.3431 27.9484Z" fill="#002F6C"/>
<path d="M10.1346 27.9484C10.1346 25.2796 7.94618 23.0927 5.27552 23.0927C2.60485 23.0927 0.416382 25.2796 0.416382 27.9484C0.416382 30.6172 2.60485 32.8041 5.27552 32.8041C7.94618 32.8412 10.1346 30.6172 10.1346 27.9484Z" fill="#002F6C"/>
<path d="M32.9837 16.0128C32.9837 13.344 30.7952 11.1571 28.1246 11.1571C25.4538 11.1571 23.2654 13.344 23.2654 16.0128C23.2654 18.6816 25.4538 20.8686 28.1246 20.8686C30.7952 20.8686 32.9837 18.7187 32.9837 16.0128Z" fill="#002F6C"/>
<path d="M17.776 16.0128C17.776 13.344 15.5876 11.1571 12.9169 11.1571C10.2462 11.1571 8.05774 13.344 8.05774 16.0128C8.05774 18.6816 10.2462 20.8686 12.9169 20.8686C15.5876 20.8686 17.776 18.7187 17.776 16.0128Z" fill="#002F6C"/>
</g>
</g>
<defs>
<clipPath id="clip0_572_7597">
<rect width="275.984" height="32.9894" fill="white"/>
</clipPath>
</defs>
</svg>
