<svg width="182" height="41" viewBox="0 0 182 41" fill="none" xmlns="http://www.w3.org/2000/svg">
<g clip-path="url(#clip0_572_7504)">
<g clip-path="url(#clip1_572_7504)">
<mask id="mask0_572_7504" style="mask-type:luminance" maskUnits="userSpaceOnUse" x="1" y="0" width="224" height="50">
<path d="M224.546 0.5H1.38214V49.5H224.546V0.5Z" fill="white"/>
</mask>
<g mask="url(#mask0_572_7504)">
<mask id="mask1_572_7504" style="mask-type:luminance" maskUnits="userSpaceOnUse" x="-18" y="-10" width="202" height="54">
<path d="M-17.155 43.6248H183.683V-9.92871H-17.155V43.6248Z" fill="white"/>
</mask>
<g mask="url(#mask1_572_7504)">
<path d="M154.099 18.7168C154.099 18.3576 154.175 17.9943 154.333 17.6228C154.486 17.2527 154.714 16.9129 155.013 16.6019C155.31 16.2909 155.689 16.035 156.143 15.8313C156.596 15.6277 157.121 15.5258 157.72 15.5258C158.316 15.5258 158.83 15.6277 159.261 15.8313C159.692 16.035 160.049 16.2909 160.337 16.6019C160.623 16.9129 160.838 17.2527 160.981 17.6228C161.126 17.9943 161.196 18.3576 161.196 18.7168H154.099ZM163.6 23.8066C163.216 24.0941 162.606 24.434 161.77 24.8289C160.933 25.2224 159.847 25.4205 158.508 25.4205C157.145 25.4205 156.076 25.0793 155.3 24.3982C154.523 23.7171 154.122 22.9231 154.099 22.015H166.071V21.155C166.071 19.7446 165.893 18.447 165.534 17.2651C165.176 16.0817 164.644 15.0663 163.939 14.2173C163.235 13.3696 162.367 12.7064 161.34 12.2289C160.312 11.7501 159.118 11.5121 157.756 11.5121C156.394 11.5121 155.174 11.757 154.099 12.2469C153.024 12.7367 152.116 13.3876 151.374 14.1994C150.633 15.0126 150.066 15.962 149.672 17.0505C149.278 18.1375 149.08 19.2671 149.08 20.4367C149.08 21.7756 149.289 23.0002 149.708 24.112C150.126 25.2224 150.735 26.1732 151.537 26.9617C152.336 27.7501 153.311 28.3666 154.457 28.8083C155.605 29.2499 156.895 29.4715 158.33 29.4715C159.404 29.4715 160.359 29.3683 161.196 29.166C162.034 28.9623 162.756 28.7298 163.365 28.467C163.975 28.2042 164.471 27.9359 164.852 27.6606C165.236 27.3854 165.522 27.1887 165.713 27.069L163.6 23.8066ZM106.463 24.4161C106.129 24.6556 105.771 24.8647 105.388 25.0436C105.006 25.2224 104.551 25.3132 104.026 25.3132C103.333 25.3132 102.825 25.0917 102.503 24.6486C102.18 24.207 102.018 23.5795 102.018 22.7677V16.1354H106.357V12.0845H102.018V7.57952H96.8574V12.0845H94.1959V16.1354H96.8574V22.4801C96.8574 23.5327 96.9646 24.4876 97.1789 25.349C97.3956 26.209 97.7529 26.9438 98.2554 27.5534C98.7564 28.1629 99.4139 28.6404 100.226 28.9871C101.038 29.3325 102.043 29.5073 103.238 29.5073C105.149 29.5073 106.919 28.8619 108.543 27.5712L106.463 24.4161ZM151.153 6.09895C150.387 5.45361 149.54 4.99952 148.608 4.7367C147.676 4.47389 146.755 4.3418 145.846 4.3418C144.988 4.3418 144.144 4.47939 143.32 4.75459C142.496 5.02979 141.761 5.44806 141.114 6.00947C140.47 6.57088 139.95 7.28092 139.557 8.1423C139.162 9.00225 138.964 10.0301 138.964 11.2245V12.0845H136.241V16.1354H138.964V28.8977H144.09V16.1354H148.07V12.0845H144.09V11.1529C144.09 10.3163 144.306 9.671 144.736 9.21693C145.165 8.76423 145.739 8.53579 146.456 8.53579C146.91 8.53579 147.352 8.60732 147.783 8.75047C148.213 8.89491 148.608 9.09857 148.966 9.36L151.153 6.09895ZM128.467 28.8977H133.628V12.0845H131.046H128.467V28.8977ZM110.476 28.8977H126.203V24.4698H115.888V4.98713H110.476V28.8977ZM80.9881 18.7168C80.9881 18.3576 81.0649 17.9943 81.2207 17.6228C81.3758 17.2527 81.6031 16.9129 81.9018 16.6019C82.1998 16.2909 82.5769 16.035 83.0315 15.8313C83.4854 15.6277 84.0107 15.5258 84.6082 15.5258C85.2057 15.5258 85.7204 15.6277 86.1491 15.8313C86.5802 16.035 86.939 16.2909 87.2256 16.6019C87.5114 16.9129 87.7273 17.2527 87.871 17.6228C88.0139 17.9943 88.0854 18.3576 88.0854 18.7168H80.9881ZM90.4876 23.8066C90.1052 24.0941 89.4955 24.434 88.6593 24.8289C87.8223 25.2224 86.7352 25.4205 85.3965 25.4205C84.0342 25.4205 82.9654 25.0793 82.1892 24.3982C81.4115 23.7171 81.0117 22.9231 80.9881 22.015H92.9606V21.155C92.9606 19.7446 92.7819 18.447 92.4238 17.2651C92.065 16.0817 91.5321 15.0663 90.8274 14.2173C90.1235 13.3696 89.2561 12.7064 88.2283 12.2289C87.202 11.7501 86.0062 11.5121 84.6439 11.5121C83.2816 11.5121 82.0638 11.757 80.9881 12.2469C79.9132 12.7367 79.004 13.3876 78.2635 14.1994C77.5216 15.0126 76.9552 15.962 76.5614 17.0505C76.1669 18.1375 75.97 19.2671 75.97 20.4367C75.97 21.7756 76.1775 23.0002 76.5971 24.112C77.0137 25.2224 77.6234 26.1732 78.4247 26.9617C79.2252 27.7501 80.1997 28.3666 81.3454 28.8083C82.4933 29.2499 83.7841 29.4715 85.2179 29.4715C86.2936 29.4715 87.2484 29.3683 88.0854 29.166C88.9216 28.9623 89.6461 28.7298 90.255 28.467C90.8631 28.2042 91.3603 27.9359 91.7412 27.6606C92.1236 27.3854 92.4117 27.1887 92.6025 27.069L90.4876 23.8066ZM48.9398 28.8977H54.1012L54.7107 13.3752L59.9449 22.5888H62.741L67.6876 13.2678L68.3688 28.8977H73.7821L72.6699 4.98713H67.5074L61.4145 16.2069L55.1771 4.98713H50.0503L48.9398 28.8977ZM131.046 10.1622C129.453 10.1622 128.138 8.84679 128.138 7.25203C128.138 5.65727 129.453 4.3418 131.046 4.3418C132.681 4.3418 133.957 5.61736 133.957 7.25203C133.957 8.84679 132.641 10.1622 131.046 10.1622Z" fill="black"/>
<path d="M17.1182 10.2516C21.1787 15.6276 23.588 22.3232 23.588 29.5856C23.588 31.3372 23.4463 33.0558 23.1752 34.7332H34.9317C35.9541 34.7332 36.7824 33.9021 36.7824 32.8769V0.374742C36.7824 -0.836127 35.6417 -1.7319 34.4735 -1.42367C27.4532 0.429781 21.3768 4.61279 17.1182 10.2516Z" fill="#99D538"/>
<path d="M11.06 34.7328C10.7904 33.0567 10.6472 31.3381 10.6472 29.5852C10.6472 22.3241 13.058 15.6271 17.1172 10.2511C12.8584 4.61233 6.7821 0.429328 -0.238209 -1.42275C-1.40642 -1.73097 -2.54712 -0.836581 -2.54712 0.374289V32.8779C-2.54712 33.9016 -1.71739 34.7328 -0.69504 34.7328H11.06Z" fill="#239DE0"/>
<path d="M17.1182 10.2515C13.0576 15.6275 10.6483 22.3231 10.6483 29.5855C10.6483 31.3371 10.79 33.0557 11.0611 34.7331H23.1753C23.4464 33.0557 23.5881 31.3371 23.5881 29.5855C23.5881 22.3231 21.1788 15.6275 17.1182 10.2515Z" fill="#1563A9"/>
</g>
</g>
</g>
</g>
<defs>
<clipPath id="clip0_572_7504">
<rect width="180.235" height="40.2309" fill="white" transform="translate(0.811829)"/>
</clipPath>
<clipPath id="clip1_572_7504">
<rect width="224" height="50" fill="white" transform="translate(0.811829)"/>
</clipPath>
</defs>
</svg>
