<svg width="219" height="36" viewBox="0 0 219 36" fill="none" xmlns="http://www.w3.org/2000/svg">
<g clip-path="url(#clip0_572_7520)">
<g clip-path="url(#clip1_572_7520)">
<path d="M1.27222 0.0892151H15.2026L19.537 15.0125L20.5953 19.1448L21.6267 15.0125L25.985 0.0892151H39.9153V29.0821H30.9901V10.2814L29.7262 14.5844L25.0817 29.0796H15.9001L11.2557 14.5844L10.0186 10.2814V29.0821H1.27222V0.0892151ZM76.3377 17.1975C76.3377 24.9474 70.1996 29.5746 59.93 29.5746C49.6603 29.5746 43.5224 24.9721 43.5224 17.1975V11.9739C43.5224 4.22398 49.6603 -0.403198 59.93 -0.403198C70.1996 -0.403198 76.3377 4.19924 76.3377 11.9739V17.1975ZM59.9062 6.02043C55.676 6.02043 53.0706 8.01238 53.0706 11.2885V17.9274C53.0706 21.1615 55.676 23.1955 59.9062 23.1955C64.1362 23.1955 66.7416 21.1615 66.7416 17.9274V11.2885C66.7416 8.01238 64.1631 6.02043 59.9062 6.02043ZM112.503 17.1975C112.503 24.9474 106.365 29.5746 96.0959 29.5746C85.8262 29.5746 79.6883 24.9721 79.6883 17.1975V11.9739C79.6883 4.22398 85.8262 -0.403198 96.0959 -0.403198C106.365 -0.403198 112.503 4.19924 112.503 11.9739V17.1975ZM96.0989 6.02043C91.8688 6.02043 89.2634 8.01238 89.2634 11.2885V17.9274C89.2634 21.1615 91.8688 23.1955 96.0989 23.1955C100.329 23.1955 102.934 21.1615 102.934 17.9274V11.2885C102.934 8.01238 100.329 6.02043 96.0989 6.02043ZM147.045 16.3636C147.045 24.3931 140.853 29.0821 130.122 29.0821H116.062V0.0892151H130.122C140.853 0.0892151 147.045 4.77826 147.045 12.8078V16.3636ZM130.122 6.59944H125.531V22.5941H130.122C135.022 22.5941 137.449 20.5181 137.449 16.5121V12.6791C137.449 8.63338 134.998 6.59944 130.122 6.59944ZM156.873 16.3413L144.129 0.0892151H154.861L161.595 9.20997L168.276 0.0892151H178.542L165.852 16.3413V29.1019H156.873V16.3413ZM179.523 0.0892151H189.015V7.32693L182.927 14.1143H180.888L183.598 7.94797H179.523V0.0892151ZM219.272 20.0678C219.272 26.0856 213.933 29.5968 204.799 29.5968C195.665 29.5968 190.38 26.1499 190.38 20.4117V19.1275H199.615V20.241C199.615 22.275 201.162 23.1311 204.799 23.1311C208.153 23.1311 209.882 22.2972 209.882 20.7334C209.882 18.9567 208.437 18.5707 206.296 18.3356L200.002 17.5439C195.901 17.0515 190.562 15.3169 190.562 9.04422C190.562 2.7715 195.823 -0.398248 204.826 -0.398248C213.829 -0.398248 218.885 3.00657 218.885 8.72247V9.83597H209.649V8.89322C209.649 6.90132 208.204 6.06744 204.799 6.06744C201.601 6.06744 199.949 6.85926 199.949 8.38105C199.949 10.0736 201.342 10.4571 203.354 10.6946L209.596 11.4865C213.96 12.016 219.299 13.7728 219.272 20.0678Z" fill="#0A1264"/>
</g>
</g>
<defs>
<clipPath id="clip0_572_7520">
<rect width="218" height="36" fill="white" transform="translate(0.984131)"/>
</clipPath>
<clipPath id="clip1_572_7520">
<rect width="218" height="36" fill="white" transform="translate(0.984131)"/>
</clipPath>
</defs>
</svg>
