<svg width="80" height="79" viewBox="0 0 80 79" fill="none" xmlns="http://www.w3.org/2000/svg">
<g clip-path="url(#clip0_572_7617)">
<mask id="mask0_572_7617" style="mask-type:luminance" maskUnits="userSpaceOnUse" x="0" y="0" width="80" height="79">
<path d="M79.6602 0H0.661255V78.8526H79.6602V0Z" fill="white"/>
</mask>
<g mask="url(#mask0_572_7617)">
<path d="M0.661255 3.87746C0.661255 1.72694 2.42404 0 4.54591 0H75.7102C77.8649 0 79.5949 1.72694 79.5949 3.87746L79.6272 74.975C79.6272 77.1257 77.8649 78.8526 75.7431 78.8526H4.54591C2.3914 78.8526 0.661255 77.1257 0.661255 74.975V3.87746Z" fill="#0079C2"/>
<path d="M58.2127 28.5433C58.8655 29.0646 59.0287 30.368 59.0287 31.5084V45.552C59.0287 46.6272 58.9961 47.7677 58.3759 48.3868C57.2334 47.6374 55.3726 45.4217 54.8503 44.2487L51.3573 37.3083C53.2181 36.8196 55.7644 35.8421 55.6991 32.323C55.6664 28.804 53.4466 27.9568 51.1615 27.9568H48.7132L54.328 13.0009C54.328 13.0009 59.3552 27.6309 59.3879 27.9568H58.4738C57.9515 27.8916 57.9515 28.3152 58.2127 28.5433ZM46.2322 27.9568L41.3356 27.9242L41.8579 24.6658C41.9559 24.3074 41.6294 24.1771 41.4662 24.5355C41.303 24.8939 39.8013 25.8388 37.6142 25.8388H33.6969C33.0767 25.8388 32.4891 25.5782 32.4891 24.5029V18.4424C33.6316 18.4424 38.2344 18.4098 38.9526 18.9636L39.3443 15.7704C38.3323 16.1289 33.3378 16.0311 32.5544 16.0311V11.5346C32.5544 10.9481 32.9134 10.0684 34.7742 10.0684H38.0385C38.8547 10.0684 40.4868 10.4267 41.4336 12.8705C41.4662 12.8705 46.4934 25.3175 46.4934 25.3175C46.7545 26.1321 46.7545 27.4354 46.2322 27.9568ZM35.1332 38.5465C35.1332 46.2363 33.0114 47.4745 29.9754 47.4745C26.9722 47.4745 24.883 46.2363 24.883 38.5465C24.883 30.8567 27.0048 29.6185 30.0407 29.6185C33.044 29.6185 35.1332 30.8567 35.1332 38.5465ZM74.7957 47.7677C73.882 47.1812 71.9557 44.7048 71.2704 43.6621L66.3409 36.2005C66.3409 36.2005 72.2171 30.2051 72.5436 29.8466C72.9024 29.4882 73.8491 28.6084 74.2085 28.413C74.4692 28.3804 74.6976 27.9568 74.3059 27.9568H71.0742C70.5522 27.9568 70.0301 28.2826 69.6707 28.6084L62.6849 36.4286V30.8241C62.6849 30.1725 62.6523 29.0321 63.3378 28.4781C63.5663 28.2501 63.5663 27.8264 63.0766 27.8916H61.5097L69.2138 7.6897H65.0679C65.2964 8.5369 65.5903 9.15596 64.8394 11.111L60.9221 21.8311L55.8296 7.6897H52.1735C52.402 8.5369 52.6958 9.15596 51.945 11.111L48.2888 20.7558L43.4901 8.96047C43.3269 8.34141 42.8699 7.6571 41.9559 7.6571H27.9188C27.5598 7.6571 27.6251 8.01556 27.9515 8.01556C28.4738 8.01556 29.0941 8.83017 29.0941 10.0032V24.5029L20.0842 10.1009C19.7252 9.51441 19.3987 8.30882 19.2681 7.75488H14.1104C13.7513 7.75488 13.7186 8.08074 13.9798 8.21104C14.241 8.34141 14.7633 9.15596 14.7633 11.111V24.9917C14.7633 26.9467 13.9798 27.9242 13.2943 28.0546C13.0005 28.0871 13.0658 28.5107 13.4248 28.5107H17.1463C18.0603 28.5107 18.7132 29.4557 18.1909 30.368L14.2736 37.4386C13.229 35.9724 9.86666 30.8241 8.00591 28.8691C7.61421 28.4781 7.25509 28.2826 6.66747 28.2826H2.48905C2.09732 28.2826 2.32583 28.5433 2.52169 28.641C4.21919 29.0972 11.9232 38.4813 11.9232 41.3161V46.334C11.9232 47.0834 11.3682 48.3868 10.6501 48.5497C10.3889 48.6475 10.3563 48.9407 10.6501 48.9407H12.772C14.6 48.9407 15.2203 50.5373 15.2203 51.971V66.0147C15.2203 67.1548 14.8285 68.4585 14.143 68.9796C13.9145 69.2076 13.9145 69.6314 14.4042 69.5664H24.9809C25.3726 69.5664 25.797 69.5335 25.9275 68.9474L26.5478 66.1777C26.5805 65.7867 26.1887 65.8518 26.1235 66.0798C26.0255 66.3078 25.4379 67.3828 22.3041 67.3828C22.3041 67.3828 18.6479 67.7416 18.6479 65.4607V51.7429C18.7459 50.244 19.4314 48.7126 20.3128 48.6149C20.5413 48.6149 20.6066 48.2239 20.2801 48.2239C19.9537 48.2239 17.4074 48.3216 16.6566 48.3216C16.1343 48.3216 15.2203 48.0284 15.2203 46.8227V40.5015L21.847 28.7714C22.0102 28.5107 22.3367 27.9242 21.8144 27.9242H19.0723C18.2888 27.8265 17.5381 26.8489 17.5381 24.8939V12.1211L27.5598 28.2175C22.1409 29.2928 21.0309 33.9847 21.0309 38.5465C21.0309 43.1734 22.1735 48.0609 27.8862 49.0058C28.5065 49.5924 28.8329 50.798 28.8329 51.9058V65.9497C28.8329 67.0898 28.4411 68.3935 27.7556 68.9145C27.5271 69.1426 27.5271 69.5664 28.0168 69.5013C29.2899 69.3706 32.0647 69.4034 32.9787 69.5013C33.501 69.5986 33.501 69.1097 33.2399 68.9145C32.5869 68.3935 32.1626 67.0898 32.1626 65.9497V51.9058C32.1626 50.7654 32.5544 49.4621 33.2399 48.9407C37.908 47.5722 39.0505 42.8475 39.0505 38.5791C39.0505 34.0499 38.1038 29.3579 32.6523 28.2501H39.8013C42.2496 28.2501 42.1844 30.3028 42.2496 31.7691V45.6171C42.2496 46.6924 41.8906 47.8328 41.3356 48.452C40.1931 48.452 39.3443 48.4194 38.9853 48.3542C38.463 48.2565 38.463 48.7452 38.7241 48.9407C39.377 49.4621 39.8013 50.7654 39.8013 51.9058V65.9497C39.8013 67.0898 39.4096 68.3935 38.7241 68.9145C38.4956 69.1426 38.4956 69.5664 38.9853 69.5013C40.2583 69.3706 43.0331 69.4034 43.9472 69.5013C44.4694 69.5986 44.4694 69.1097 44.2083 68.9145C43.5554 68.3935 43.1311 67.0898 43.1311 65.9497V59.5956H47.6686C48.5826 59.5956 49.0723 59.7259 49.7905 59.9866L50.5739 56.7934C49.1702 57.1844 43.9145 57.1518 43.1311 57.1518V50.798H48.093C49.007 50.798 49.6599 51.1238 50.3128 51.5148L50.8677 49.0384C50.9656 48.68 50.8677 48.289 50.476 48.3868C50.0843 48.4194 48.4194 48.4846 46.4281 48.4846C45.8732 47.8654 45.5141 46.6924 45.5141 45.6497V31.4433C45.5141 30.8241 45.7426 29.8466 48.5173 29.8466C50.9656 29.8466 52.2388 30.9545 52.1735 32.6489C52.1408 34.3758 50.7371 36.2005 48.8111 36.2005C47.995 36.2005 47.9297 36.8522 48.1582 37.4386C48.3868 37.96 52.2714 47.2138 52.2714 47.2138C52.5326 47.8002 52.9569 48.4194 54.0668 48.8429C54.7197 49.1036 55.1441 50.6677 55.1441 51.8081V65.8518C55.1441 67.0247 54.7524 68.2956 54.0668 68.8166C53.8383 69.0447 53.8383 69.4685 54.328 69.4034C55.6011 69.2727 64.2518 69.3055 65.2311 69.4034C65.9169 69.5013 66.3738 69.1426 66.5693 68.5564C66.7978 68.0347 67.2224 65.6562 67.2224 65.6562C67.3205 65.2652 66.9288 65.0696 66.7003 65.4607C66.4719 65.9497 64.7415 66.7967 61.9341 66.7967C59.1594 66.7967 58.5717 66.0469 58.5391 65.2V59.3675H63.0766C63.9907 59.3675 64.4803 59.4978 65.1985 59.7585L65.9821 56.5653C64.5783 56.9563 59.3225 56.9237 58.5391 56.9237V50.7328H63.501C64.4151 50.7328 65.0679 51.0586 65.7208 51.4497L66.2757 49.0058C66.3738 48.6475 66.2757 48.2565 65.884 48.3542L63.4358 48.3868C62.8808 47.7677 62.5217 46.5947 62.5217 45.552V36.8847L69.279 47.1486C69.7688 47.7677 70.0624 48.3542 70.8135 48.3542H74.6002C75.09 48.3868 75.1552 47.9958 74.7957 47.7677Z" fill="white"/>
</g>
</g>
<defs>
<clipPath id="clip0_572_7617">
<rect width="79.6572" height="78.8526" fill="white" transform="translate(0.0463867)"/>
</clipPath>
</defs>
</svg>
