<svg width="81" height="81" viewBox="0 0 81 81" fill="none" xmlns="http://www.w3.org/2000/svg">
<circle cx="40.5" cy="40.5" r="40.5" fill="#0277EB"/>
<path d="M33.3836 51.3032C36.243 52.0678 39.2912 51.1991 41.3179 49.0418C43.3445 46.8846 44.0215 43.788 43.0799 40.9818L39.2585 44.8121C38.2055 45.8389 36.5259 45.8389 35.4728 44.8121L34.1961 43.5443C33.1604 42.4949 33.1604 40.808 34.1961 39.7586L38.0353 35.9284C37.3591 35.7047 36.6569 35.5696 35.9461 35.5265C33.3688 35.3727 30.8744 36.4667 29.2419 38.4671C27.6094 40.4675 27.0377 43.1304 27.7051 45.6246C27.7859 45.934 27.6977 46.2632 27.4729 46.4907L17.3213 56.6424C18.6315 58.6526 20.281 60.42 22.1962 61.8656L32.5175 51.5354C32.7457 51.3116 33.0742 51.2235 33.3836 51.3032Z" fill="white"/>
<path d="M42.6068 26.5893C40.0592 25.4865 37.3115 24.9212 34.5355 24.9285C27.3358 24.9246 20.6604 28.6934 16.9446 34.8602C13.2289 41.0269 13.0161 48.6898 16.3839 55.0532L25.857 45.5801C25.2196 42.5811 26.02 39.4565 28.0209 37.1334C30.0217 34.8103 32.993 33.5553 36.0534 33.7409C37.4342 33.8191 38.7826 34.1903 40.0087 34.8302C40.2619 34.9618 40.4374 35.2061 40.4815 35.488C40.5255 35.7699 40.4329 36.056 40.232 36.2587L35.4641 41.0175C35.116 41.3684 35.116 41.9344 35.4641 42.2853L36.732 43.5441C37.0829 43.8924 37.649 43.8924 37.9999 43.5441L42.7498 38.7853C42.9552 38.5908 43.2371 38.499 43.5177 38.5353C43.8 38.5805 44.0447 38.7557 44.1784 39.0085C45.934 42.3798 45.5867 46.4614 43.2865 49.4875C40.9864 52.5136 37.1466 53.9407 33.4285 53.1514L23.6874 62.8924C30.0173 66.8382 37.9895 67.0396 44.5104 63.4182C51.0313 59.7969 55.0746 52.923 55.0709 45.464C55.0764 42.6882 54.5112 39.9409 53.4102 37.3927C47.6147 36.9989 43.0007 32.3849 42.6068 26.5893Z" fill="white"/>
<path d="M54.1782 16C48.754 16 44.3569 20.3971 44.3569 25.8213C44.3569 31.2454 48.754 35.6425 54.1782 35.6425C59.6024 35.6425 63.9995 31.2455 63.9995 25.8213C63.9963 20.3985 59.601 16.0032 54.1782 16ZM59.2763 29.6516C59.6244 30.0025 59.6244 30.5685 59.2763 30.9194C58.9241 31.2646 58.3606 31.2646 58.0084 30.9194L54.1781 27.0801L50.3478 30.9194C49.9956 31.2646 49.4321 31.2646 49.0799 30.9194C48.7318 30.5685 48.7318 30.0025 49.0799 29.6516L52.9191 25.8213L49.0799 21.9909C48.8535 21.7645 48.765 21.4344 48.8479 21.125C48.9308 20.8157 49.1724 20.574 49.4818 20.4912C49.7911 20.4082 50.1212 20.4967 50.3477 20.7232L54.178 24.5624L58.0083 20.7232C58.3584 20.3731 58.9261 20.3731 59.2762 20.7232C59.6263 21.0733 59.6263 21.6409 59.2762 21.991L55.437 25.8214L59.2763 29.6516Z" fill="white"/>
</svg>
