<svg width="81" height="81" viewBox="0 0 81 81" fill="none" xmlns="http://www.w3.org/2000/svg">
<circle cx="40.5" cy="40.5" r="40.5" fill="#0277EB"/>
<path d="M50.9375 17H31.0625C23.2963 17 17 23.2963 17 31.0625V50.9375C17 58.7038 23.2963 65 31.0625 65H50.9375C58.7038 65 65 58.7038 65 50.9375V31.0625C65 23.2963 58.7038 17 50.9375 17ZM44.6281 56.2934C43.8266 56.6591 43.2078 56.9047 42.7719 57.0322C42.3359 57.1588 41.9769 57.2216 41.6966 57.2216C40.6841 57.2216 39.9809 56.8138 39.5872 55.9981C37.0278 50.8231 35.7481 45.6903 35.7481 40.5997C35.7481 35.5091 37.0841 30.5169 39.7559 25.6231C40.0653 25.0606 40.5434 24.7794 41.1903 24.7794C42.1747 24.7794 42.9903 24.9059 43.6372 25.1591C44.2841 25.4122 44.7687 25.6025 45.0922 25.7291C45.4156 25.8556 45.7597 26.0319 46.1262 26.2559C44.7762 29.2372 43.7703 31.8106 43.1103 33.9762C42.4494 36.1428 42.1184 38.4903 42.1184 41.0216C42.1456 45.8881 43.5247 50.6544 46.2528 55.3231C45.9716 55.6044 45.4306 55.9278 44.6281 56.2934Z" fill="white"/>
</svg>
