<svg width="120" height="90" viewBox="0 0 120 90" fill="none" xmlns="http://www.w3.org/2000/svg">
<g clip-path="url(#clip0_572_7567)">
<g clip-path="url(#clip1_572_7567)">
<g clip-path="url(#clip2_572_7567)">
<mask id="mask0_572_7567" style="mask-type:luminance" maskUnits="userSpaceOnUse" x="0" y="0" width="120" height="90">
<path d="M119.202 0H0.593536V90H119.202V0Z" fill="white"/>
</mask>
<g mask="url(#mask0_572_7567)">
<path d="M119.186 38.6448H76.0555V27.6052H119.186V38.6448Z" fill="#E669A2"/>
<path d="M113.584 38.6448H76.0555V11.0337H113.584V38.6448Z" fill="#F3BE26"/>
<path d="M98.0795 38.6449H76.0555V0H98.0795V38.6449Z" fill="#EE9C34"/>
<path d="M102.412 38.6449H76.0555V4.31201H102.412V38.6449Z" fill="#F3BC87"/>
<path d="M76.0496 4.3186V38.6414H98.0773V4.3186H76.0496Z" fill="#E3721C"/>
<path d="M53.9705 38.645H76.0555V44.1654H53.9705V38.645Z" fill="#AD1B02"/>
<path d="M76.0496 11.0277V38.6413H102.425V11.0277H76.0496Z" fill="#E88D14"/>
<path d="M76.0496 11.0277V38.6413H98.0773V11.0277H76.0496Z" fill="#D85604"/>
<path d="M89.8282 38.6448H76.0555V22.0723H89.8282V38.6448Z" fill="#C14303"/>
<path d="M76.0496 27.6132V38.6414H113.597V27.6132H76.0496Z" fill="#DB4E18"/>
<path d="M76.0496 27.6132V38.6414H102.425V27.6132H76.0496Z" fill="#D1390D"/>
<path d="M76.0496 27.6132V38.6414H98.0773V27.6132H76.0496Z" fill="#C22303"/>
<path d="M76.0496 27.6132V38.6414H89.842V27.6132H76.0496Z" fill="#AD1B02"/>
<path d="M80.8581 59.4371C77.1004 60.1051 75.0963 62.9443 75.0963 67.8711C75.0963 72.8815 77.7684 76.2217 81.6932 76.2217C83.6138 76.2217 85.2839 75.5536 88.791 73.8V77.8918C84.5323 79.8958 82.0271 80.3969 78.687 80.3969C74.9293 80.3969 72.2569 79.4784 70.1693 77.2238C67.9982 75.0525 66.8291 72.2134 66.8291 68.9565C66.8291 61.8587 72.1734 56.9319 79.9394 56.9319C85.0333 56.9319 88.6241 59.3536 88.6241 62.7773C88.6241 65.0319 86.9538 66.6186 84.5322 66.6186C83.2797 66.6186 82.2774 66.2011 80.8579 65.4495M62.0694 68.9566C65.4931 64.6979 66.7457 62.9443 66.7457 60.8566C66.7457 58.7689 65.0756 56.9316 62.7374 56.9316C61.4013 56.9316 60.1489 57.6833 59.5643 58.3514V67.1194L53.9693 74.6349V57.5999H48.625L39.7733 72.2135V57.5999H36.767L28.6669 59.4372V61.5248L33.0927 61.9422V80.063H38.6876L47.2051 66.034V80.063H53.4681M11.7155 77.2238H12.968C17.4772 77.2238 19.9824 74.468 19.9824 68.9565C19.9824 64.3639 17.9784 61.8587 14.2204 61.8587C13.7194 61.8587 12.9679 61.9422 11.7153 62.1927L11.7155 77.2238ZM11.7155 87.0774L15.3896 87.9124V90H0.943195V87.9124L4.2833 87.0774V61.8586H0.609161V59.771L9.37718 57.0988H11.7156V60.1051C15.8072 57.5999 17.2268 57.1824 19.3979 57.1824C24.2413 57.1824 27.9155 61.6917 27.9155 67.9548C27.9155 75.1362 22.9887 80.063 15.4731 80.063C14.638 80.063 13.2184 79.9795 11.7155 79.896" fill="black"/>
</g>
</g>
</g>
</g>
<defs>
<clipPath id="clip0_572_7567">
<rect width="119" height="90" fill="white" transform="translate(0.211456)"/>
</clipPath>
<clipPath id="clip1_572_7567">
<rect width="119" height="90" fill="white" transform="translate(0.211456)"/>
</clipPath>
<clipPath id="clip2_572_7567">
<rect width="119" height="90" fill="white" transform="translate(0.211456)"/>
</clipPath>
</defs>
</svg>
