<svg width="81" height="81" viewBox="0 0 81 81" fill="none" xmlns="http://www.w3.org/2000/svg">
<circle cx="40.5" cy="40.5" r="40.5" fill="#0277EB"/>
<path d="M23.85 67.9993H56.1499C56.6746 67.9993 57.0999 67.5739 57.0999 67.0493V62.2993H23.85C22.276 62.2993 21 63.5753 21 65.1493C21.0001 66.7233 22.276 67.9993 23.85 67.9993ZM46.6499 64.1993H51.3999C51.9245 64.1993 52.3499 64.6247 52.3499 65.1493C52.3499 65.674 51.9245 66.0994 51.3999 66.0994H46.6499C46.1252 66.0994 45.6999 65.674 45.6999 65.1493C45.7 64.6247 46.1253 64.1993 46.6499 64.1993ZM27.6501 64.1993H42.8499C43.3746 64.1993 43.8 64.6247 43.8 65.1493C43.8 65.674 43.3746 66.0994 42.8499 66.0994H27.6501C27.1254 66.0994 26.7001 65.674 26.7001 65.1493C26.7001 64.6247 27.1254 64.1993 27.6501 64.1993Z" fill="white"/>
<path d="M22.8999 14.9746C21.7653 15.3758 21.005 16.4463 21 17.6499V61.3497C21.5627 60.9302 22.2117 60.6414 22.9 60.5042L22.8999 14.9746Z" fill="white"/>
<path d="M36.2003 46.1497H34.4618C33.0742 46.1486 31.7926 45.4073 31.0998 44.2051C30.3281 42.9147 30.2995 41.3117 31.0247 39.9947L32.2027 37.8382C32.4698 37.3739 33.0628 37.214 33.5271 37.481C33.5429 37.4901 33.5583 37.4996 33.5736 37.5095L34.6471 38.2457L33.8501 35.4053C33.8501 35.3835 33.8397 35.3625 33.8349 35.3407L33.4549 33.9917L28.9966 34.3888L30.4216 35.3616C30.8253 35.6369 30.9543 36.1736 30.7199 36.6023L29.3604 39.0827C28.3106 40.9838 28.3518 43.3001 29.4687 45.1626C30.4994 46.9463 32.4018 48.0463 34.4619 48.0497H36.2004C36.7251 48.0497 37.1504 47.6243 37.1504 47.0997C37.1503 46.575 36.725 46.1497 36.2003 46.1497Z" fill="white"/>
<path d="M45.3347 26.3785L46.8091 29.0784C47.0531 29.5547 46.8648 30.1386 46.3885 30.3826C46.3706 30.3918 46.3525 30.4004 46.3341 30.4084L45.1428 30.8976L49.3503 32.2447L51.4565 28.3145L49.8786 28.9644C49.4307 29.1487 48.9159 28.9665 48.6835 28.5416L47.001 25.4627C45.503 22.644 42.0036 21.5731 39.1849 23.0711C38.1671 23.612 37.3342 24.4449 36.7933 25.4627L35.5982 27.6477C35.3535 28.0947 35.5053 28.6552 35.9421 28.9179C36.4067 29.1831 36.9985 29.022 37.2645 28.5578L38.4625 26.3728C39.4562 24.4756 41.7997 23.7432 43.697 24.7369C44.396 25.1031 44.9667 25.6738 45.3329 26.3728L45.3347 26.3785Z" fill="white"/>
<path d="M53.5583 37.4628C53.3151 37.0201 52.7678 36.8453 52.3129 37.0648C51.8372 37.3018 51.6436 37.8795 51.8806 38.3552C51.884 38.3621 51.8876 38.369 51.8911 38.3757L52.7747 39.9907C53.4993 41.3055 53.4722 42.9059 52.7034 44.1954C52.0116 45.4018 50.7282 46.1469 49.3376 46.1495H46.6501C46.1254 46.1495 45.7001 45.7242 45.7001 45.1995V43.6862L42.8652 47.0644L45.7001 50.5043V48.9996C45.7001 48.4749 46.1254 48.0496 46.6501 48.0496H49.3385C51.3984 48.048 53.3015 46.9498 54.3336 45.1673C55.4518 43.3029 55.4923 40.984 54.4399 39.0816L53.5583 37.4628Z" fill="white"/>
<path d="M58.0502 14.7998H24.8003V60.3995H58.0502C58.5748 60.3995 59.0002 59.9742 59.0002 59.4495V15.7498C59.0001 15.2251 58.5748 14.7998 58.0502 14.7998ZM36.2002 49.9496H34.4618C31.7298 49.9512 29.2037 48.4979 27.8318 46.1354C26.3681 43.6956 26.3142 40.661 27.6902 38.1707L28.6354 36.4446L27.427 35.62C26.6646 35.0716 26.4911 34.0089 27.0395 33.2465C27.3185 32.8587 27.7477 32.6061 28.2222 32.5506C28.2317 32.5506 33.2154 32.066 33.2154 32.066C34.1549 31.9686 35.0275 32.5638 35.2798 33.474L36.6392 38.3114C36.8708 39.2193 36.3225 40.1432 35.4146 40.3748C34.9518 40.4928 34.4607 40.4104 34.0619 40.1477L33.3675 39.6727L32.693 40.9077C32.2914 41.6373 32.3073 42.5253 32.7348 43.2399C33.0857 43.8639 33.746 44.25 34.4619 44.2497H36.2003C37.7743 44.2497 39.0503 45.5257 39.0503 47.0998C39.0503 48.6736 37.7742 49.9496 36.2002 49.9496ZM40.1294 27.2932L38.9324 29.4782C38.1382 30.8705 36.3658 31.3554 34.9735 30.5612C34.9707 30.5596 34.968 30.5581 34.9652 30.5565C33.6518 29.7716 33.1953 28.0878 33.9326 26.747L35.1277 24.562C37.1279 20.8225 41.7809 19.4124 45.5204 21.4126C46.8583 22.1282 47.9542 23.2241 48.6698 24.562L49.9447 26.8942L51.3032 26.3338C52.174 25.9949 53.1546 26.4261 53.4936 27.2969C53.6671 27.7427 53.6438 28.2412 53.4293 28.6688L51.0904 33.1167C50.6456 33.9441 49.6782 34.3419 48.78 34.0667L43.9948 32.5344C43.1098 32.2361 42.6341 31.2769 42.9323 30.3919C43.0847 29.9399 43.4209 29.5732 43.858 29.3823L44.6332 29.064L43.668 27.2971C43.1786 26.3198 41.9898 25.9244 41.0126 26.4138C40.6305 26.6052 40.3206 26.915 40.1293 27.2971L40.1294 27.2932ZM55.9668 46.1364C54.5951 48.4985 52.0692 49.9514 49.3377 49.9496H47.6002V51.1133C47.583 52.0481 46.8112 52.792 45.8764 52.7748C45.3975 52.766 44.9448 52.5547 44.6305 52.1934L41.4099 48.3554C40.8004 47.6316 40.8004 46.5741 41.4099 45.8503L44.6399 42.0056C45.2595 41.3054 46.3294 41.2401 47.0296 41.8597C47.3818 42.1714 47.5885 42.6156 47.6002 43.0858V44.2496H49.3386C50.5711 44.1541 51.4928 43.0778 51.3974 41.8454C51.3718 41.5142 51.2728 41.1929 51.1075 40.9047L50.224 39.2897C49.4821 37.8694 50.032 36.1167 51.4523 35.3749C51.464 35.3688 51.4757 35.3627 51.4875 35.3568C52.854 34.6969 54.4979 35.2236 55.2267 36.5548L56.1092 38.1697C57.4859 40.6606 57.4315 43.6962 55.9668 46.1364Z" fill="white"/>
</svg>
