<svg width="351" height="50" viewBox="0 0 351 50" fill="none" xmlns="http://www.w3.org/2000/svg">
<g clip-path="url(#clip0_572_7559)">
<g clip-path="url(#clip1_572_7559)">
<mask id="mask0_572_7559" style="mask-type:luminance" maskUnits="userSpaceOnUse" x="0" y="0" width="351" height="50">
<path d="M350.382 0.5H0.122803V49.5H350.382V0.5Z" fill="white"/>
</mask>
<g mask="url(#mask0_572_7559)">
<path d="M350.382 31.0523C350.382 28.4154 348.828 27.0525 346.425 26.116C344.533 25.381 342.872 24.7567 341.607 24.2758C340.348 23.7949 339.275 22.9601 339.275 22.0563C339.275 20.8222 340.861 20.1054 342.961 20.1054C345.44 20.1054 347.389 20.4393 349.271 20.6044H349.327C349.392 20.605 349.456 20.5925 349.515 20.5677C349.574 20.5429 349.628 20.5063 349.673 20.4602C349.718 20.4141 349.753 20.3594 349.776 20.2993C349.8 20.2393 349.81 20.1752 349.808 20.1108V18.0746C349.808 17.8024 349.585 17.6082 349.298 17.5555C348.333 17.3323 345.85 16.8333 343.135 16.8333C337.841 16.8333 335.319 19.031 335.319 22.0563C335.319 23.9764 336.197 25.871 338.676 26.8601C341.162 27.851 346.253 28.9925 346.253 31.0523C346.253 32.6457 345.484 33.5205 342.948 33.5205C340.317 33.5205 337.653 33.1611 336.513 33.0232H336.458C336.317 33.0213 336.181 33.0753 336.08 33.1737C335.978 33.272 335.92 33.4065 335.918 33.5477V35.5258C335.918 35.8289 336.172 36.0195 336.457 36.0739C337.825 36.377 340.378 36.7962 342.892 36.7962C348.591 36.7962 350.382 33.8254 350.382 31.0523ZM166.987 31.0523C166.987 28.4154 165.436 27.0525 163.031 26.116C161.138 25.381 159.478 24.7567 158.213 24.2758C156.953 23.7949 155.883 22.9601 155.883 22.0563C155.883 20.8222 157.467 20.1054 159.567 20.1054C162.048 20.1054 163.995 20.4393 165.877 20.6044H165.933C165.997 20.605 166.061 20.5925 166.121 20.5677C166.18 20.5429 166.234 20.5063 166.279 20.4602C166.324 20.4141 166.359 20.3594 166.382 20.2993C166.405 20.2393 166.416 20.1752 166.414 20.1108V18.0746C166.414 17.8024 166.191 17.6082 165.906 17.5555C164.937 17.3323 162.454 16.8333 159.739 16.8333C154.447 16.8333 151.923 19.031 151.923 22.0563C151.923 23.9764 152.801 25.871 155.28 26.8601C157.766 27.851 162.857 28.9925 162.857 31.0523C162.857 32.6457 162.089 33.5205 159.554 33.5205C156.922 33.5205 154.257 33.1611 153.117 33.0232H153.062C152.921 33.0213 152.785 33.0753 152.684 33.1737C152.582 33.272 152.524 33.4065 152.522 33.5477V35.5258C152.522 35.8289 152.776 36.0195 153.061 36.0739C154.429 36.377 156.982 36.7962 159.496 36.7962C165.194 36.7962 166.987 33.8254 166.987 31.0523ZM209.236 35.475V17.5773C209.236 17.2724 209.008 17.0547 208.696 17.0547H206.246C205.93 17.0547 205.703 17.2724 205.703 17.5773V31.134C205.703 31.2955 205.623 31.3826 205.565 31.3826C205.474 31.3826 205.393 31.2955 205.338 31.1612L197.308 17.9367C196.963 17.218 196.651 17.0547 196.055 17.0547H192.977C192.682 17.0503 192.396 17.1635 192.184 17.3693C191.972 17.5752 191.85 17.8569 191.845 18.1526V36.0267C191.845 36.3262 192.094 36.5766 192.413 36.5766H194.827C195.141 36.5766 195.371 36.3262 195.371 36.0267V23.0998C195.371 22.9365 195.431 22.8784 195.513 22.8784C195.598 22.8784 195.687 22.9383 195.767 23.0998L203.491 35.5875C203.937 36.5766 204.538 36.5766 205.22 36.5766H208.1C208.397 36.581 208.684 36.4675 208.897 36.261C209.11 36.0545 209.231 35.7719 209.236 35.475ZM148.208 36.1647V18.1508C148.202 17.8543 148.078 17.5723 147.865 17.3665C147.651 17.1608 147.365 17.048 147.068 17.0528H144.732C144.513 17.056 144.3 17.119 144.114 17.2352C143.928 17.3513 143.778 17.5161 143.68 17.7116L138.221 28.4481C138.076 28.6967 138.018 28.8328 137.907 28.8328C137.787 28.8328 137.729 28.6967 137.589 28.4481L132.127 17.7134C132.028 17.5182 131.878 17.3536 131.693 17.2375C131.508 17.1213 131.294 17.0581 131.076 17.0547H128.74C128.444 17.0498 128.157 17.1626 127.944 17.3684C127.73 17.5741 127.607 17.8561 127.601 18.1526V36.1628C127.601 36.4351 127.829 36.5766 128.089 36.5766H130.96C131.217 36.5766 131.417 36.2971 131.417 36.0267V24.1433C131.417 23.951 131.446 23.8711 131.502 23.8711C131.528 23.8711 131.586 23.951 131.648 24.0344L136.274 33.858C136.437 34.1593 136.809 34.3263 137.181 34.3263H138.66C139.03 34.3263 139.399 34.1593 139.566 33.858L144.161 24.0344C144.222 23.951 144.279 23.8711 144.3 23.8711C144.362 23.8711 144.391 23.951 144.391 24.1433V36.0267C144.391 36.2971 144.591 36.5766 144.845 36.5766H147.72C147.977 36.5766 148.208 36.4369 148.208 36.1628V36.1647ZM184.058 25.4083C184.058 21.7823 181.789 20.1598 178.998 20.1598C176.209 20.1598 173.936 21.7823 173.936 25.4083V28.2212C173.936 31.849 176.209 33.466 178.998 33.466C181.787 33.466 184.058 31.849 184.058 28.2212V25.4083ZM188.047 25.4083V28.2212C188.047 34.2664 183.696 36.7944 178.998 36.7944C174.303 36.7944 169.955 34.2664 169.955 28.2194V25.4083C169.955 19.3649 174.303 16.8369 178.998 16.8369C183.696 16.8369 188.047 19.3631 188.047 25.4083ZM120.125 25.4083C120.125 21.7823 117.857 20.1598 115.066 20.1598C112.276 20.1598 110.004 21.7823 110.004 25.4083V28.2212C110.004 31.849 112.276 33.466 115.067 33.466C117.857 33.466 120.125 31.849 120.125 28.2212V25.4083ZM124.116 25.4083V28.2212C124.116 34.2664 119.764 36.7944 115.066 36.7944C110.371 36.7944 106.024 34.2664 106.024 28.2194V25.4083C106.024 19.3649 110.371 16.8369 115.066 16.8369C119.764 16.8369 124.116 19.3631 124.116 25.4083ZM102.142 36.0249V17.5773C102.142 17.2724 101.883 17.0547 101.572 17.0547H98.7595C98.4401 17.0547 98.1842 17.2724 98.1842 17.5773V24.7132H89.1682V17.5773C89.1682 17.2724 88.9105 17.0547 88.602 17.0547H85.7854C85.4678 17.0547 85.2137 17.2724 85.2137 17.5773V36.0267C85.2137 36.3262 85.4678 36.5766 85.7854 36.5766H88.602C88.7496 36.5776 88.8917 36.5205 88.9977 36.4176C89.1036 36.3148 89.1649 36.1744 89.1682 36.0267V28.0651H98.1842V36.0267C98.1842 36.3262 98.4383 36.5766 98.7595 36.5766H101.572C101.881 36.5766 102.142 36.3244 102.142 36.0249ZM294.602 20.2397H288.925V36.0267C288.921 36.1758 288.858 36.3173 288.751 36.4203C288.643 36.5234 288.499 36.5795 288.35 36.5766H285.537C285.388 36.5786 285.246 36.5218 285.139 36.4188C285.033 36.3158 284.971 36.1748 284.969 36.0267V20.2397H279.285C278.972 20.2397 278.713 20.0509 278.713 19.7497V17.5773C278.713 17.2724 278.972 17.0547 279.285 17.0547H294.602C294.914 17.0547 295.171 17.2724 295.171 17.5773V19.7478C295.171 20.0509 294.914 20.2397 294.602 20.2397ZM81.3427 20.2397H75.666V36.0267C75.6622 36.1755 75.5998 36.3167 75.4924 36.4197C75.385 36.5227 75.2413 36.5791 75.0925 36.5766H72.2795C72.1314 36.5786 71.9885 36.5218 71.8821 36.4188C71.7757 36.3158 71.7143 36.1748 71.7115 36.0267V20.2397H66.0257C65.7153 20.2397 65.4558 20.0509 65.4558 19.7497V17.5773C65.4558 17.2724 65.7153 17.0547 66.0257 17.0547H81.3427C81.6567 17.0547 81.9144 17.2724 81.9144 17.5773V19.7478C81.9144 20.0509 81.6549 20.2397 81.3427 20.2397ZM276.196 29.0143V17.5773C276.196 17.2724 275.938 17.0547 275.622 17.0547H272.804C272.492 17.0547 272.238 17.2724 272.238 17.5773V29.0143C272.238 32.1485 270.739 33.633 267.664 33.633C264.594 33.633 263.093 32.1485 263.093 29.0143V17.5773C263.093 17.2724 262.839 17.0547 262.523 17.0547H259.71C259.398 17.0547 259.138 17.2724 259.138 17.5773V29.0143C259.138 34.8707 263.084 36.7944 267.664 36.7944C272.249 36.7944 276.196 34.8707 276.196 29.0143ZM301.719 28.0651H310.83C310.977 28.0671 311.12 28.0109 311.226 27.9087C311.333 27.8065 311.395 27.6665 311.4 27.5189V25.5335C311.395 25.3858 311.333 25.2458 311.226 25.1436C311.12 25.0414 310.977 24.9852 310.83 24.9872H301.719V22.4646C301.719 20.1671 301.81 20.1054 303.962 20.1054H311.171C311.319 20.1064 311.462 20.0491 311.569 19.946C311.675 19.8428 311.737 19.7019 311.741 19.5537V17.7951C311.741 17.4085 311.597 17.2688 311.171 17.2162C310.258 17.0819 308.405 16.8351 305.019 16.8351C300.295 16.8351 297.787 16.8024 297.787 22.4646V31.1594C297.787 36.8216 300.295 36.7926 305.019 36.7926C308.405 36.7926 310.258 36.5458 311.171 36.4078C311.597 36.3534 311.741 36.2155 311.741 35.8271V34.074C311.737 33.9261 311.675 33.7856 311.568 33.683C311.462 33.5804 311.319 33.524 311.171 33.5259H303.962C301.81 33.5259 301.719 33.4624 301.719 31.1594V28.0651ZM245.475 28.0651H254.585C254.733 28.0676 254.876 28.0116 254.983 27.9094C255.09 27.8071 255.152 27.6668 255.157 27.5189V25.5335C255.152 25.3855 255.09 25.2452 254.983 25.143C254.876 25.0407 254.733 24.9848 254.585 24.9872H245.475V22.4646C245.475 20.1671 245.565 20.1054 247.719 20.1054H254.926C255.075 20.1068 255.218 20.0498 255.325 19.9466C255.432 19.8434 255.494 19.7022 255.498 19.5537V17.7951C255.498 17.4085 255.353 17.2688 254.926 17.2162C254.015 17.0819 252.16 16.8351 248.774 16.8351C244.05 16.8351 241.544 16.8024 241.544 22.4646V31.1594C241.544 36.8216 244.05 36.7926 248.776 36.7926C252.16 36.7926 254.015 36.5458 254.926 36.4078C255.353 36.3534 255.498 36.2155 255.498 35.8271V34.074C255.494 33.9257 255.432 33.785 255.325 33.6823C255.218 33.5797 255.074 33.5235 254.926 33.5259H247.719C245.565 33.5259 245.475 33.4624 245.475 31.1594V28.0651ZM328.375 23.0454C328.375 20.9837 326.718 20.1054 323.871 20.1054C323.272 20.1054 320.68 20.1598 320.172 20.2143V26.1723C320.624 26.2013 323.383 26.2576 323.871 26.2576C326.8 26.2576 328.373 25.7131 328.373 23.2958L328.375 23.0454ZM332.985 36.2481C332.985 36.4369 332.872 36.5748 332.646 36.5748H329.168C328.856 36.5748 328.742 36.2971 328.6 36.0267L324.501 29.3627H323.871C323.127 29.3627 320.827 29.2829 320.172 29.2502V36.0267C320.174 36.0988 320.16 36.1704 320.133 36.2373C320.107 36.3042 320.067 36.3651 320.016 36.4163C319.965 36.4676 319.905 36.5081 319.838 36.5357C319.771 36.5632 319.7 36.5771 319.628 36.5766H316.782C316.634 36.5781 316.492 36.5212 316.385 36.4183C316.279 36.3153 316.218 36.1747 316.214 36.0267V18.0129C316.214 17.463 316.552 17.2688 317.125 17.189C318.608 16.9712 321.789 16.8333 323.871 16.8333C328.254 16.8333 332.301 18.3468 332.301 23.0435V23.294C332.301 26.2013 330.794 27.7947 328.461 28.6695L332.927 36.0249C332.987 36.1066 332.987 36.1846 332.987 36.2463L332.985 36.2481ZM233.887 23.0454C233.887 20.9837 232.23 20.1054 229.384 20.1054C228.784 20.1054 226.194 20.1598 225.686 20.2143V26.1723C226.138 26.2013 228.896 26.2576 229.384 26.2576C232.314 26.2576 233.885 25.7131 233.885 23.2958L233.887 23.0454ZM238.498 36.2481C238.498 36.4369 238.384 36.5748 238.159 36.5748H234.682C234.372 36.5748 234.255 36.2971 234.114 36.0267L230.014 29.3627H229.384C228.64 29.3627 226.341 29.2829 225.686 29.2502V36.0267C225.687 36.0989 225.674 36.1706 225.647 36.2376C225.621 36.3046 225.581 36.3656 225.53 36.4169C225.479 36.4682 225.419 36.5087 225.352 36.5362C225.285 36.5636 225.214 36.5774 225.141 36.5766H222.296C222.148 36.5776 222.006 36.5205 221.9 36.4176C221.794 36.3148 221.733 36.1744 221.73 36.0267V18.0129C221.73 17.463 222.065 17.2688 222.639 17.189C224.121 16.9712 227.303 16.8333 229.384 16.8333C233.767 16.8333 237.814 18.3468 237.814 23.0435V23.294C237.814 26.2013 236.308 27.7947 233.974 28.6695L238.439 36.0249C238.498 36.1066 238.498 36.1864 238.498 36.2481Z" fill="black"/>
<path d="M50.5456 30.1305C49.1682 30.1305 48.0503 31.2284 48.0503 32.5859C48.0503 33.9398 49.1682 35.0396 50.5456 35.0396C51.9231 35.0396 53.041 33.9398 53.041 32.5859C53.041 31.2284 51.9249 30.1305 50.5456 30.1305ZM47.3806 36.5023C46.2118 36.5023 45.2645 37.4351 45.2645 38.5839C45.2645 39.7345 46.2118 40.6673 47.3806 40.6673C48.5475 40.6673 49.4948 39.7345 49.4948 38.5839C49.4948 37.4351 48.5475 36.5023 47.3806 36.5023ZM42.6802 41.4949C42.4417 41.4927 42.2052 41.5376 41.984 41.6269C41.7629 41.7162 41.5616 41.8483 41.3915 42.0155C41.2214 42.1827 41.086 42.3817 40.9929 42.6013C40.8998 42.8209 40.851 43.0567 40.8491 43.2951C40.8507 43.5336 40.8994 43.7694 40.9922 43.9891C41.0851 44.2088 41.2203 44.408 41.3902 44.5754C41.5601 44.7427 41.7613 44.875 41.9824 44.9645C42.2034 45.0541 42.4399 45.0992 42.6784 45.0973C42.917 45.0994 43.1537 45.0545 43.375 44.965C43.5962 44.8756 43.7977 44.7434 43.9677 44.576C44.1378 44.4086 44.2732 44.2093 44.3662 43.9895C44.4592 43.7697 44.5079 43.5338 44.5095 43.2951C44.5076 43.0567 44.4588 42.8209 44.3657 42.6013C44.2726 42.3817 44.1372 42.1827 43.9671 42.0155C43.797 41.8483 43.5957 41.7162 43.3746 41.6269C43.1534 41.5376 42.9169 41.4927 42.6784 41.4949H42.6802ZM37.4027 44.8541C37.2089 44.8522 37.0166 44.8885 36.8368 44.961C36.6571 45.0335 36.4934 45.1408 36.3552 45.2767C36.2169 45.4126 36.1069 45.5744 36.0313 45.7529C35.9557 45.9313 35.916 46.123 35.9146 46.3168C35.9146 47.1244 36.5806 47.7796 37.4027 47.7796C38.2248 47.7796 38.8872 47.1244 38.8872 46.3168C38.8858 46.1233 38.8463 45.9319 38.7709 45.7537C38.6955 45.5755 38.5858 45.4138 38.4479 45.278C38.3101 45.1422 38.1468 45.0348 37.9675 44.9621C37.7882 44.8893 37.5963 44.8526 37.4027 44.8541ZM32.2124 46.6326C31.8775 46.6302 31.5553 46.7606 31.3165 46.9954C31.0777 47.2301 30.9417 47.55 30.9384 47.8848C30.9384 48.5799 31.5082 49.1425 32.2124 49.1425C32.9165 49.1425 33.4882 48.5799 33.4882 47.8866C33.487 47.7204 33.453 47.556 33.3883 47.4028C33.3235 47.2497 33.2291 47.1108 33.1106 46.9942C32.9921 46.8776 32.8518 46.7854 32.6977 46.7231C32.5435 46.6607 32.3786 46.6312 32.2124 46.6326ZM27.3523 47.3386C27.2093 47.3374 27.0675 47.3643 26.9349 47.418C26.8023 47.4716 26.6816 47.5508 26.5797 47.6511C26.4777 47.7513 26.3965 47.8707 26.3407 48.0024C26.2849 48.134 26.2555 48.2754 26.2543 48.4184C26.2553 48.5615 26.2844 48.7031 26.3402 48.8349C26.3959 48.9668 26.477 49.0864 26.579 49.1869C26.681 49.2873 26.8018 49.3667 26.9345 49.4204C27.0672 49.4742 27.2091 49.5012 27.3523 49.5C27.4953 49.501 27.6371 49.4737 27.7695 49.4199C27.902 49.3661 28.0226 49.2867 28.1244 49.1862C28.2262 49.0858 28.3072 48.9663 28.3628 48.8345C28.4184 48.7028 28.4475 48.5614 28.4484 48.4184C28.446 48.1299 28.3293 47.8542 28.1237 47.6517C27.9182 47.4492 27.6408 47.3366 27.3523 47.3386ZM22.4831 46.6326C22.3169 46.6312 22.152 46.6625 21.9978 46.7249C21.8437 46.7872 21.7034 46.8794 21.5849 46.996C21.4664 47.1126 21.372 47.2515 21.3072 47.4046C21.2425 47.5578 21.2085 47.7222 21.2073 47.8884C21.2073 48.5817 21.779 49.1443 22.4831 49.1443C23.1873 49.1443 23.759 48.5817 23.759 47.8884C23.7578 47.7222 23.7238 47.5578 23.659 47.4046C23.5942 47.2515 23.4999 47.1126 23.3814 46.996C23.2629 46.8794 23.1226 46.7872 22.9685 46.7249C22.8143 46.6625 22.6494 46.6312 22.4831 46.6326ZM17.2928 44.8541C16.4761 44.8541 15.8119 45.5056 15.8119 46.3096C15.8119 47.1135 16.4761 47.7687 17.2928 47.7687C18.1112 47.7687 18.7737 47.1153 18.7737 46.3096C18.7737 45.5038 18.1112 44.8523 17.2928 44.8523V44.8541ZM12.0117 41.5003C11.531 41.4969 11.0686 41.6844 10.7259 42.0216C10.3833 42.3587 10.1885 42.8181 10.1841 43.2988C10.188 43.7798 10.3826 44.2396 10.7253 44.5772C11.068 44.9147 11.5306 45.1025 12.0117 45.0991C12.25 45.101 12.4864 45.0559 12.7073 44.9665C12.9282 44.8771 13.1293 44.745 13.2992 44.5778C13.4691 44.4106 13.6043 44.2116 13.6973 43.9922C13.7903 43.7727 13.8391 43.5371 13.841 43.2988C13.8367 42.8178 13.6416 42.3582 13.2986 42.0209C12.9555 41.6837 12.4927 41.4964 12.0117 41.5003ZM7.31673 36.5041C6.14799 36.5041 5.19884 37.4387 5.19884 38.5893C5.19884 39.7399 6.14799 40.6727 7.31673 40.6727C8.48547 40.6727 9.43462 39.7399 9.43462 38.5893C9.43462 37.4387 8.48547 36.5041 7.31673 36.5041ZM4.14988 30.125C2.77425 30.125 1.65814 31.223 1.65814 32.5787C1.65814 33.9343 2.77425 35.0323 4.14988 35.0323C5.52914 35.0323 6.64343 33.9343 6.64343 32.5787C6.64343 31.223 5.52732 30.125 4.14988 30.125ZM3.00654 22.1653C1.41314 22.1653 0.122803 23.4356 0.122803 25.0036C0.122803 26.5716 1.41314 27.842 3.00836 27.842C4.59995 27.842 5.89028 26.5716 5.89028 25.0036C5.89028 23.4356 4.59995 22.1653 3.00654 22.1653ZM4.14988 14.975C2.77425 14.975 1.65814 16.0729 1.65814 17.4268C1.65814 18.7806 2.77425 19.8786 4.14988 19.8786C5.52551 19.8786 6.6398 18.7806 6.6398 17.4286C6.6398 16.0729 5.52551 14.975 4.14988 14.975ZM7.3131 9.33089C6.14436 9.33089 5.19521 10.2655 5.19521 11.4179C5.19521 12.5703 6.14436 13.5013 7.3131 13.5013C8.48365 13.5013 9.43099 12.5685 9.43099 11.4161C9.43099 10.2637 8.48365 9.33089 7.3131 9.33089ZM12.0153 4.90456C11.5346 4.90117 11.0722 5.08864 10.7296 5.42582C10.3869 5.763 10.1921 6.22235 10.1878 6.70304C10.1916 7.18404 10.3862 7.64385 10.7289 7.98142C11.0716 8.319 11.5343 8.50672 12.0153 8.50333C12.2536 8.50525 12.49 8.4602 12.7109 8.37076C12.9318 8.28132 13.133 8.14924 13.3028 7.98207C13.4727 7.8149 13.608 7.6159 13.7009 7.39644C13.7939 7.17698 13.8427 6.94136 13.8446 6.70304C13.8403 6.22203 13.6452 5.76241 13.3022 5.42518C12.9592 5.08794 12.4963 4.90069 12.0153 4.90456ZM17.2946 2.23315C16.905 2.23025 16.5302 2.3821 16.2526 2.65535C15.9749 2.9286 15.817 3.30089 15.8137 3.69044C15.817 4.08 15.9749 4.45229 16.2526 4.72554C16.5302 4.99879 16.905 5.15064 17.2946 5.14774C17.6838 5.15016 18.0581 4.99809 18.3354 4.7249C18.6127 4.4517 18.7703 4.07968 18.7737 3.69044C18.7722 3.49764 18.7328 3.307 18.6577 3.12942C18.5826 2.95183 18.4733 2.79078 18.3359 2.65546C18.1986 2.52013 18.0359 2.41319 17.8573 2.34073C17.6786 2.26827 17.4874 2.23171 17.2946 2.23315ZM22.4795 0.859333C21.7754 0.859333 21.2037 1.42193 21.2037 2.11519C21.2037 2.80844 21.7754 3.37104 22.4795 3.37104C23.1873 3.37104 23.7571 2.80844 23.7571 2.11519C23.7571 1.42193 23.1855 0.859333 22.4795 0.859333ZM27.3414 0.5C26.7352 0.5 26.2452 0.982741 26.2452 1.578C26.2452 2.17326 26.7352 2.65781 27.3414 2.65781C27.9457 2.65781 28.4375 2.17326 28.4375 1.578C28.4375 0.982741 27.9475 0.5 27.3414 0.5ZM32.2178 0.862963C32.0517 0.861527 31.8869 0.892825 31.7329 0.95507C31.5789 1.01732 31.4386 1.10929 31.3202 1.22574C31.2017 1.34219 31.1073 1.48083 31.0424 1.63376C30.9775 1.78668 30.9434 1.95089 30.942 2.117C30.942 2.81026 31.5137 3.37104 32.2178 3.37104C32.9201 3.37104 33.49 2.80844 33.49 2.11881C33.4876 1.78365 33.3523 1.46314 33.1137 1.22767C32.8752 0.992202 32.553 0.861031 32.2178 0.862963ZM37.4027 2.23496C36.5861 2.23496 35.9218 2.8883 35.9218 3.69044C35.9218 4.49441 36.5842 5.14593 37.4027 5.14593C38.2194 5.14593 38.8818 4.49441 38.8818 3.69044C38.8784 3.30137 38.7208 2.92954 38.4435 2.65663C38.1661 2.38372 37.7918 2.23206 37.4027 2.23496ZM42.6748 4.91C42.4367 4.90809 42.2005 4.95309 41.9798 5.04243C41.7592 5.13178 41.5582 5.26373 41.3885 5.43073C41.2188 5.59774 41.0837 5.79654 40.9908 6.01577C40.8979 6.23501 40.8491 6.47039 40.8473 6.70848C40.8473 7.70119 41.6639 8.50515 42.6748 8.50515C43.155 8.50853 43.6169 8.32125 43.9592 7.98441C44.3015 7.64757 44.4962 7.18869 44.5005 6.70848C44.5005 5.71578 43.6838 4.91 42.6748 4.91ZM47.3751 9.3327C46.8174 9.32884 46.281 9.54644 45.8836 9.93773C45.4861 10.329 45.2602 10.862 45.2554 11.4197C45.2554 12.5721 46.2064 13.5068 47.377 13.5068C47.9347 13.5106 48.4711 13.293 48.8685 12.9017C49.266 12.5105 49.4919 11.9774 49.4967 11.4197C49.4919 10.862 49.266 10.329 48.8685 9.93773C48.4711 9.54644 47.9328 9.32884 47.3751 9.3327ZM50.5438 14.9677C49.17 14.9677 48.0539 16.0657 48.0539 17.4177C48.0539 18.7734 49.17 19.8713 50.5438 19.8713C51.9213 19.8713 53.0355 18.7734 53.0355 17.4195C53.0355 16.0657 51.9213 14.9677 50.5438 14.9677ZM39.1141 28.7512C38.8198 28.7493 38.5368 28.8642 38.3272 29.0707C38.1176 29.2773 37.9986 29.5586 37.9962 29.8528C37.9962 30.4626 38.4971 30.9544 39.1141 30.9544C39.733 30.9544 40.2338 30.4626 40.2338 29.8528C40.2327 29.707 40.2028 29.5628 40.1458 29.4285C40.0889 29.2942 40.0061 29.1724 39.9021 29.0701C39.7982 28.9678 39.675 28.887 39.5398 28.8323C39.4046 28.7776 39.26 28.75 39.1141 28.7512ZM36.3193 32.8346C36.1734 32.8334 36.0288 32.8609 35.8936 32.9156C35.7583 32.9703 35.6352 33.0511 35.5313 33.1534C35.4273 33.2557 35.3445 33.3775 35.2876 33.5118C35.2306 33.6461 35.2007 33.7903 35.1995 33.9361C35.1995 34.5441 35.7004 35.0377 36.3193 35.0377C36.9381 35.0377 37.439 34.5441 37.439 33.9361C37.4378 33.7903 37.4079 33.6461 37.351 33.5118C37.2941 33.3775 37.2113 33.2557 37.1073 33.1534C37.0033 33.0511 36.8802 32.9703 36.745 32.9156C36.6098 32.8609 36.4651 32.8334 36.3193 32.8346ZM32.1761 35.457C31.5046 35.457 30.9601 35.9923 30.9601 36.6529C30.9601 37.3135 31.5046 37.8489 32.1761 37.8489C32.8475 37.8489 33.392 37.3135 33.392 36.6511C33.392 35.9923 32.8475 35.457 32.1761 35.457ZM27.2761 36.1702C27.0626 36.1683 26.8509 36.2084 26.653 36.2884C26.455 36.3684 26.2748 36.4866 26.1226 36.6363C25.9704 36.7859 25.8492 36.9642 25.7659 37.1607C25.6827 37.3573 25.6389 37.5683 25.6373 37.7817C25.6373 38.671 26.3705 39.3915 27.2743 39.3915C28.178 39.3915 28.9112 38.6692 28.9112 37.7817C28.9098 37.5684 28.8663 37.3574 28.7832 37.1608C28.7001 36.9643 28.5791 36.7861 28.427 36.6364C28.275 36.4867 28.0949 36.3685 27.8971 36.2885C27.6993 36.2085 27.4894 36.1683 27.2761 36.1702ZM22.3888 35.2083C21.3616 35.2083 20.5304 36.025 20.5304 37.0359C20.5304 38.0449 21.3616 38.8634 22.3888 38.8634C23.4141 38.8634 24.2453 38.0467 24.2453 37.0359C24.2453 36.025 23.4141 35.2083 22.3888 35.2083ZM17.9515 32.1286C16.8137 32.1286 15.8917 33.036 15.8917 34.1576C15.8917 35.2773 16.8137 36.1847 17.9515 36.1847C19.0894 36.1847 20.0114 35.2773 20.0114 34.1576C20.0114 33.0378 19.0894 32.1286 17.9515 32.1286ZM15.0297 28.009C14.8042 28.0068 14.5804 28.0492 14.3713 28.1336C14.1622 28.218 13.9717 28.3429 13.8109 28.501C13.6501 28.6591 13.5221 28.8474 13.4341 29.0551C13.3461 29.2627 13.3 29.4857 13.2984 29.7113C13.2984 30.6513 14.0733 31.4117 15.0279 31.4117C15.9825 31.4117 16.7574 30.6495 16.7574 29.7113C16.7536 29.2562 16.5692 28.8214 16.2449 28.5022C15.9206 28.183 15.4847 28.0056 15.0297 28.009ZM14.3437 23.4792C14.1691 23.4777 13.9959 23.5108 13.8341 23.5763C13.6722 23.6419 13.5249 23.7387 13.4005 23.8612C13.2761 23.9837 13.1771 24.1296 13.1091 24.2904C13.0411 24.4513 13.0055 24.6239 13.0044 24.7986C13.0044 25.5245 13.6032 26.1161 14.3437 26.1161C14.6957 26.1185 15.0343 25.9811 15.2851 25.7341C15.5359 25.487 15.6783 25.1506 15.6812 24.7986C15.68 24.6241 15.6445 24.4516 15.5766 24.2909C15.5088 24.1301 15.4099 23.9844 15.2857 23.8619C15.1615 23.7393 15.0144 23.6425 14.8528 23.5768C14.6911 23.5112 14.5181 23.478 14.3437 23.4792ZM15.5215 19.0529C15.3749 19.0517 15.2296 19.0793 15.0937 19.1343C14.9578 19.1893 14.8341 19.2705 14.7296 19.3733C14.6251 19.4761 14.5419 19.5985 14.4847 19.7335C14.4276 19.8684 14.3975 20.0133 14.3963 20.1599C14.3963 20.7697 14.9008 21.2651 15.5215 21.2651C15.668 21.2663 15.8133 21.2386 15.949 21.1836C16.0848 21.1286 16.2084 21.0473 16.3127 20.9445C16.4171 20.8417 16.5001 20.7193 16.5571 20.5844C16.6141 20.4494 16.6439 20.3046 16.6449 20.1581C16.6437 20.0116 16.6136 19.8668 16.5564 19.7319C16.4992 19.5971 16.416 19.4748 16.3115 19.3721C16.207 19.2695 16.0832 19.1885 15.9474 19.1337C15.8115 19.0789 15.668 19.0514 15.5215 19.0529ZM18.3163 15.0113C18.0221 15.0093 17.7391 15.1242 17.5295 15.3308C17.3199 15.5373 17.2008 15.8186 17.1984 16.1129C17.1984 16.7208 17.6993 17.2126 18.3181 17.2126C18.9352 17.2126 19.4361 16.7208 19.4361 16.1129C19.4337 15.8186 19.3146 15.5373 19.105 15.3308C18.8954 15.1242 18.6124 15.0093 18.3181 15.0113H18.3163ZM22.4541 12.1801C21.7844 12.1801 21.24 12.7173 21.24 13.3779C21.24 14.0385 21.7844 14.5739 22.4559 14.5739C23.1274 14.5739 23.6718 14.0385 23.6718 13.3761C23.6718 12.7137 23.1256 12.1801 22.4541 12.1801ZM27.3541 10.6357C27.1425 10.6341 26.9326 10.6741 26.7364 10.7535C26.5402 10.833 26.3617 10.9503 26.2108 11.0988C26.06 11.2472 25.9399 11.4239 25.8574 11.6188C25.7748 11.8137 25.7315 12.023 25.7298 12.2346C25.7298 13.1184 26.4558 13.8353 27.3541 13.8353C27.566 13.8372 27.7763 13.7973 27.9728 13.7178C28.1693 13.6384 28.3481 13.5209 28.4992 13.3722C28.6502 13.2236 28.7705 13.0465 28.853 12.8513C28.9355 12.6561 28.9788 12.4465 28.9802 12.2346C28.9802 11.3508 28.2524 10.6357 27.3541 10.6357ZM32.2541 11.1657C31.2324 11.1657 30.403 11.9823 30.403 12.9877C30.403 13.9931 31.2324 14.8098 32.2541 14.8098C33.2777 14.8098 34.1052 13.9931 34.1052 12.9877C34.1052 11.9823 33.2777 11.1657 32.2541 11.1657ZM36.6695 13.8371C35.5298 13.8371 34.6061 14.7481 34.6061 15.8697C34.6061 16.9912 35.5298 17.9023 36.6695 17.9023C37.8092 17.9023 38.7348 16.9912 38.7348 15.8697C38.7348 14.7481 37.8092 13.8371 36.6695 13.8371ZM39.5968 18.61C39.3717 18.6081 39.1484 18.6506 38.9397 18.735C38.731 18.8195 38.541 18.9442 38.3805 19.1022C38.2201 19.2601 38.0923 19.4481 38.0046 19.6554C37.9168 19.8628 37.8708 20.0854 37.8691 20.3105C37.8691 21.2488 38.6423 22.0092 39.5968 22.0092C40.5496 22.0092 41.3227 21.247 41.3227 20.3105C41.3211 20.0855 41.2751 19.8631 41.1875 19.6559C41.0998 19.4487 40.9722 19.2607 40.812 19.1028C40.6517 18.9449 40.4619 18.8201 40.2534 18.7356C40.0449 18.651 39.8218 18.6084 39.5968 18.61ZM35.0997 26.0762C34.5281 26.0762 34.0653 26.5317 34.0653 27.0925C34.0653 27.6533 34.5281 28.1088 35.0997 28.1088C35.6696 28.1088 36.1324 27.6551 36.1324 27.0925C36.1324 26.5299 35.6696 26.0762 35.0979 26.0762H35.0997ZM33.0944 29.2194C32.8942 29.2178 32.6956 29.2555 32.51 29.3306C32.3244 29.4057 32.1554 29.5166 32.0127 29.6569C31.8699 29.7973 31.7562 29.9644 31.6781 30.1488C31.6 30.3331 31.5589 30.531 31.5572 30.7312C31.5572 31.566 32.2468 32.2429 33.0944 32.2429C33.9419 32.2429 34.6297 31.566 34.6297 30.7312C34.6263 30.3272 34.4627 29.941 34.1749 29.6576C33.887 29.3741 33.4984 29.2165 33.0944 29.2194ZM29.1435 31.2756C28.7206 31.2727 28.3137 31.4377 28.0123 31.7344C27.7109 32.0311 27.5394 32.4352 27.5356 32.8581C27.5356 33.7329 28.2561 34.4425 29.1435 34.4425C30.031 34.4425 30.7533 33.7347 30.7533 32.8581C30.7494 32.4349 30.5777 32.0305 30.2759 31.7338C29.974 31.437 29.5668 31.2722 29.1435 31.2756ZM24.5212 31.1595C24.3353 31.158 24.1509 31.1932 23.9786 31.2631C23.8063 31.3329 23.6495 31.4359 23.517 31.5664C23.3846 31.6968 23.2791 31.8521 23.2066 32.0233C23.1342 32.1945 23.0962 32.3783 23.0947 32.5641C23.0981 32.9393 23.2502 33.2977 23.5177 33.5607C23.7851 33.8238 24.1461 33.9699 24.5212 33.967C24.8963 33.9699 25.2572 33.8238 25.5247 33.5607C25.7921 33.2977 25.9443 32.9393 25.9476 32.5641C25.9462 32.3783 25.9082 32.1945 25.8357 32.0233C25.7633 31.8521 25.6578 31.6968 25.5253 31.5664C25.3929 31.4359 25.236 31.3329 25.0637 31.2631C24.8914 31.1932 24.7071 31.158 24.5212 31.1595ZM21.0857 28.8674C20.9494 28.8662 20.8142 28.8918 20.6878 28.9429C20.5614 28.994 20.4463 29.0694 20.349 29.165C20.2518 29.2605 20.1743 29.3743 20.1211 29.4998C20.0678 29.6253 20.0398 29.76 20.0386 29.8964C20.0386 30.4662 20.5068 30.9272 21.0857 30.9272C21.2222 30.9284 21.3576 30.9027 21.4841 30.8515C21.6106 30.8003 21.7258 30.7247 21.8231 30.6289C21.9203 30.5332 21.9978 30.4192 22.0509 30.2935C22.1041 30.1678 22.1319 30.0328 22.1329 29.8964C22.1317 29.76 22.1037 29.6253 22.0504 29.4998C21.9971 29.3743 21.9197 29.2605 21.8224 29.165C21.7252 29.0694 21.6101 28.994 21.4837 28.9429C21.3573 28.8918 21.2221 28.8662 21.0857 28.8674ZM19.721 25.8965C19.6221 25.8958 19.524 25.9146 19.4324 25.9518C19.3407 25.9889 19.2573 26.0438 19.1868 26.1133C19.1164 26.1827 19.0603 26.2653 19.0218 26.3564C18.9833 26.4475 18.9631 26.5453 18.9624 26.6442C18.9624 27.0562 19.3036 27.3919 19.721 27.3919C19.8202 27.3931 19.9187 27.3747 20.0107 27.3377C20.1028 27.3008 20.1867 27.246 20.2575 27.1765C20.3283 27.107 20.3847 27.0242 20.4235 26.9329C20.4622 26.8415 20.4825 26.7434 20.4832 26.6442C20.4825 26.545 20.4622 26.4469 20.4235 26.3556C20.3847 26.2642 20.3283 26.1814 20.2575 26.112C20.1867 26.0425 20.1028 25.9877 20.0107 25.9507C19.9187 25.9137 19.8202 25.8953 19.721 25.8965ZM19.643 22.0255C19.5082 22.0241 19.3746 22.0493 19.2496 22.0996C19.1246 22.1499 19.0108 22.2245 18.9147 22.3189C18.8186 22.4133 18.7421 22.5258 18.6895 22.6498C18.637 22.7739 18.6095 22.9071 18.6085 23.0418C18.6085 23.6026 19.0713 24.0581 19.643 24.0581C20.2128 24.0581 20.6738 23.6026 20.6738 23.0418C20.6738 22.4792 20.2128 22.0255 19.643 22.0255ZM21.6538 17.8823C21.251 17.8794 20.8636 18.0364 20.5765 18.3187C20.2893 18.6011 20.1259 18.9859 20.1221 19.3886C20.1221 20.2234 20.8081 20.8985 21.6538 20.8985C22.0568 20.9014 22.4445 20.7442 22.7317 20.4614C23.0189 20.1787 23.1821 19.7934 23.1855 19.3904C23.1821 18.9874 23.0189 18.6022 22.7317 18.3194C22.4445 18.0366 22.0568 17.8794 21.6538 17.8823ZM25.581 15.6791C24.6918 15.6791 23.9695 16.3887 23.9695 17.2653C23.9695 18.1418 24.69 18.8496 25.581 18.8496C26.4703 18.8496 27.1908 18.1418 27.1908 17.2653C27.1908 16.3887 26.4703 15.6791 25.581 15.6791ZM30.2161 16.1854C30.0299 16.1835 29.8451 16.2184 29.6724 16.288C29.4997 16.3576 29.3424 16.4606 29.2096 16.591C29.0767 16.7215 28.9709 16.8769 28.8982 17.0484C28.8256 17.2198 28.7874 17.4039 28.786 17.5901C28.786 18.3669 29.4266 18.9966 30.2161 18.9966C30.4022 18.998 30.5868 18.9628 30.7593 18.8929C30.9318 18.823 31.0889 18.7198 31.2215 18.5892C31.3541 18.4586 31.4597 18.3031 31.5323 18.1317C31.6048 17.9603 31.6429 17.7762 31.6443 17.5901C31.6429 17.4041 31.6048 17.2201 31.5322 17.0488C31.4597 16.8775 31.354 16.7222 31.2214 16.5917C31.0887 16.4612 30.9317 16.3582 30.7592 16.2885C30.5867 16.2188 30.4021 16.1838 30.2161 16.1854ZM33.6315 19.1763C33.3565 19.1743 33.092 19.2816 32.896 19.4745C32.7 19.6674 32.5886 19.9303 32.5862 20.2053C32.5862 20.7751 33.0544 21.2361 33.6315 21.2361C34.2087 21.2361 34.6787 20.7751 34.6787 20.2053C34.6775 20.0689 34.6495 19.9342 34.5962 19.8087C34.5429 19.6832 34.4655 19.5694 34.3682 19.4739C34.271 19.3783 34.1559 19.3029 34.0295 19.2518C33.9031 19.2007 33.7679 19.1751 33.6315 19.1763ZM35.0707 22.7369C34.9714 22.736 34.8729 22.7546 34.7808 22.7918C34.6887 22.829 34.6049 22.8839 34.5341 22.9535C34.4633 23.0232 34.4069 23.1061 34.3682 23.1975C34.3295 23.289 34.3092 23.3871 34.3085 23.4864C34.3085 23.8984 34.6497 24.2341 35.0707 24.2341C35.4881 24.2341 35.8311 23.8984 35.8311 23.4864C35.8304 23.3871 35.8101 23.289 35.7714 23.1975C35.7327 23.1061 35.6763 23.0232 35.6055 22.9535C35.5347 22.8839 35.4508 22.829 35.3588 22.7918C35.2667 22.7546 35.17 22.736 35.0707 22.7369ZM40.2701 23.9129C39.5279 23.9129 38.9272 24.5064 38.9272 25.2377C38.9272 25.9673 39.5279 26.5589 40.2701 26.5589C41.0142 26.5589 41.6131 25.9673 41.6131 25.2359C41.6102 24.8825 41.4672 24.5446 41.2154 24.2965C40.9636 24.0485 40.6236 23.9105 40.2701 23.9129ZM45.8162 25.5154C45.6317 25.514 45.4488 25.5489 45.2778 25.6182C45.1069 25.6874 44.9512 25.7897 44.8198 25.9191C44.6883 26.0485 44.5836 26.2026 44.5117 26.3725C44.4398 26.5423 44.4021 26.7247 44.4007 26.9092C44.4007 27.6787 45.0322 28.303 45.8162 28.303C46.5966 28.303 47.2318 27.6787 47.2318 26.9092C47.2303 26.7247 47.1926 26.5423 47.1207 26.3725C47.0488 26.2026 46.9441 26.0485 46.8127 25.9191C46.6812 25.7897 46.5256 25.6874 46.3546 25.6182C46.1836 25.5489 46.0007 25.514 45.8162 25.5154ZM44.4115 30.4372C44.2369 30.4357 44.0636 30.4687 43.9016 30.5343C43.7397 30.5998 43.5922 30.6966 43.4677 30.8191C43.3432 30.9416 43.244 31.0875 43.1758 31.2483C43.1076 31.4092 43.0718 31.5819 43.0704 31.7566C43.0704 32.4861 43.6693 33.0759 44.4115 33.0759C45.1538 33.0759 45.7527 32.4861 45.7527 31.7566C45.7513 31.5817 45.7154 31.4089 45.6471 31.2479C45.5788 31.0869 45.4795 30.941 45.3547 30.8185C45.23 30.6959 45.0823 30.5992 44.9202 30.5337C44.758 30.4683 44.5864 30.4355 44.4115 30.4372ZM41.9978 34.5677C41.8503 34.5665 41.704 34.5944 41.5672 34.6497C41.4305 34.7051 41.306 34.7868 41.2008 34.8903C41.0957 34.9938 41.0119 35.117 40.9544 35.2528C40.8968 35.3886 40.8666 35.5345 40.8654 35.682C40.8654 36.2972 41.3717 36.7963 41.996 36.7963C42.1436 36.7975 42.2899 36.7696 42.4266 36.7143C42.5634 36.6589 42.6879 36.5772 42.793 36.4737C42.8982 36.3702 42.9819 36.247 43.0395 36.1112C43.0971 35.9754 43.1273 35.8295 43.1285 35.682C43.1273 35.5345 43.0971 35.3886 43.0395 35.2528C42.9819 35.117 42.8982 34.9938 42.793 34.8903C42.6879 34.7868 42.5634 34.7051 42.4266 34.6497C42.2899 34.5944 42.1454 34.5665 41.9978 34.5677ZM39.0996 37.6366C38.8427 37.6351 38.5957 37.7355 38.4127 37.9158C38.2297 38.0961 38.1256 38.3415 38.1232 38.5984C38.1232 39.1301 38.5588 39.5621 39.0996 39.5621C39.2271 39.5633 39.3536 39.5393 39.4718 39.4916C39.5901 39.444 39.6978 39.3734 39.7888 39.2841C39.8798 39.1948 39.9523 39.0884 40.0022 38.9711C40.0521 38.8538 40.0784 38.7277 40.0796 38.6002C40.0784 38.4727 40.0521 38.3467 40.0022 38.2293C39.9523 38.112 39.8798 38.0056 39.7888 37.9163C39.6978 37.827 39.5901 37.7565 39.4718 37.7088C39.3536 37.6611 39.2271 37.6372 39.0996 37.6384V37.6366ZM36.0398 39.876C35.9305 39.8751 35.8221 39.8957 35.7207 39.9367C35.6194 39.9777 35.5272 40.0383 35.4493 40.115C35.3714 40.1917 35.3094 40.283 35.2669 40.3837C35.2243 40.4844 35.2021 40.5925 35.2014 40.7018C35.2014 41.1555 35.577 41.5257 36.0398 41.5257C36.149 41.5267 36.2572 41.5061 36.3584 41.4652C36.4597 41.4243 36.5518 41.3639 36.6297 41.2874C36.7075 41.2109 36.7696 41.1198 36.8122 41.0193C36.8549 40.9188 36.8773 40.8109 36.8783 40.7018C36.8775 40.5925 36.8553 40.4844 36.8127 40.3837C36.7702 40.283 36.7082 40.1917 36.6303 40.115C36.5524 40.0383 36.4602 39.9777 36.3589 39.9367C36.2575 39.8957 36.1491 39.8751 36.0398 39.876ZM32.5771 41.141C32.4499 41.14 32.3237 41.1641 32.2057 41.2119C32.0878 41.2598 31.9804 41.3303 31.8897 41.4197C31.7991 41.509 31.7269 41.6153 31.6773 41.7325C31.6277 41.8497 31.6017 41.9755 31.6008 42.1028C31.6008 42.6327 32.0363 43.0629 32.5771 43.0629C32.7043 43.0638 32.8304 43.0397 32.9483 42.9918C33.0661 42.944 33.1734 42.8734 33.2639 42.784C33.3544 42.6947 33.4264 42.5884 33.4758 42.4712C33.5252 42.354 33.551 42.2282 33.5517 42.101C33.5517 41.5711 33.1161 41.141 32.5771 41.141ZM28.5065 41.7943C28.3597 41.7933 28.2141 41.8213 28.0781 41.8766C27.9421 41.9319 27.8184 42.0135 27.7139 42.1166C27.6094 42.2197 27.5263 42.3424 27.4692 42.4777C27.4121 42.613 27.3823 42.7582 27.3813 42.905C27.3813 43.5166 27.8858 44.0138 28.5065 44.0138C28.6535 44.0153 28.7993 43.9877 28.9356 43.9327C29.0719 43.8778 29.196 43.7964 29.3008 43.6935C29.4057 43.5905 29.4892 43.4678 29.5466 43.3325C29.604 43.1972 29.6341 43.0519 29.6353 42.905C29.6344 42.7578 29.6044 42.6124 29.5471 42.4769C29.4898 42.3413 29.4064 42.2185 29.3015 42.1153C29.1966 42.0121 29.0724 41.9306 28.936 41.8756C28.7996 41.8205 28.6536 41.7929 28.5065 41.7943ZM23.8515 41.3406C23.6604 41.3392 23.4708 41.3754 23.2937 41.4472C23.1165 41.519 22.9553 41.625 22.8191 41.7592C22.683 41.8933 22.5745 42.053 22.5001 42.229C22.4256 42.4051 22.3866 42.594 22.3851 42.7852C22.3851 43.5819 23.0421 44.228 23.8515 44.228C24.6609 44.228 25.3179 43.5819 25.3179 42.7852C25.3165 42.5941 25.2774 42.4052 25.2029 42.2293C25.1284 42.0533 25.02 41.8938 24.8838 41.7598C24.7476 41.6258 24.5863 41.52 24.4092 41.4484C24.2321 41.3767 24.0426 41.3389 23.8515 41.3406ZM18.957 39.6111C18.5015 39.6077 18.0632 39.7853 17.7386 40.1048C17.414 40.4243 17.2295 40.8597 17.2256 41.3152C17.2256 42.2571 18.0005 43.0211 18.957 43.0211C19.9134 43.0211 20.6883 42.2571 20.6883 41.3152C20.6866 41.0895 20.6405 40.8663 20.5526 40.6585C20.4647 40.4506 20.3367 40.262 20.1759 40.1036C20.0152 39.9452 19.8248 39.82 19.6156 39.7352C19.4065 39.6504 19.1826 39.6076 18.957 39.6093V39.6111ZM14.6195 36.4097C13.498 36.4097 12.587 37.3063 12.587 38.4115C12.587 39.5185 13.498 40.4132 14.6195 40.4132C15.7447 40.4132 16.654 39.5167 16.654 38.4115C16.654 37.3044 15.7429 36.4097 14.6195 36.4097ZM11.0226 31.5787C9.80665 31.5787 8.82121 32.5496 8.82121 33.7456C8.82121 34.9434 9.80665 35.9143 11.0226 35.9143C12.2385 35.9143 13.2258 34.9434 13.2258 33.7456C13.2258 32.5478 12.2403 31.5787 11.0226 31.5787ZM8.9791 26.5517C8.75317 26.5498 8.52907 26.5924 8.3196 26.6771C8.11013 26.7618 7.9194 26.8869 7.75829 27.0453C7.59718 27.2037 7.46886 27.3923 7.38064 27.6003C7.29242 27.8083 7.24604 28.0317 7.24414 28.2576C7.24414 29.2013 8.02088 29.9635 8.9791 29.9635C9.43525 29.9669 9.87411 29.7892 10.1994 29.4694C10.5246 29.1495 10.7097 28.7137 10.7141 28.2576C10.7141 27.3139 9.93732 26.5517 8.9791 26.5517ZM8.8811 21.6934C8.50694 21.6905 8.14693 21.8362 7.88015 22.0986C7.61337 22.361 7.46164 22.7185 7.45828 23.0926C7.45828 23.8676 8.09347 24.4937 8.8811 24.4937C9.06652 24.4951 9.2504 24.46 9.42226 24.3904C9.59411 24.3207 9.75056 24.2179 9.88268 24.0878C10.0148 23.9577 10.12 23.8029 10.1923 23.6321C10.2646 23.4614 10.3025 23.278 10.3039 23.0926C10.3006 22.7185 10.1488 22.361 9.88205 22.0986C9.61527 21.8362 9.25526 21.6905 8.8811 21.6934ZM10.2785 16.9241C10.1037 16.9226 9.93025 16.9557 9.76819 17.0213C9.60612 17.087 9.45859 17.1839 9.33403 17.3066C9.20947 17.4293 9.11032 17.5754 9.04226 17.7365C8.97419 17.8975 8.93855 18.0704 8.93736 18.2453C8.93736 18.973 9.53625 19.5646 10.2803 19.5646C11.0208 19.5646 11.6215 18.973 11.6215 18.2453C11.62 18.0703 11.5842 17.8974 11.5159 17.7363C11.4477 17.5752 11.3483 17.4292 11.2236 17.3065C11.0989 17.1838 10.9513 17.0869 10.7891 17.0213C10.6269 16.9557 10.4534 16.9226 10.2785 16.9241ZM12.6995 13.2128C12.5523 13.2116 12.4063 13.2394 12.2699 13.2947C12.1334 13.35 12.0092 13.4316 11.9044 13.535C11.7995 13.6383 11.7161 13.7613 11.6588 13.8969C11.6016 14.0325 11.5716 14.1781 11.5707 14.3253C11.5707 14.9387 12.077 15.4359 12.6995 15.4359C12.8465 15.4371 12.9924 15.4093 13.1287 15.3542C13.265 15.299 13.3891 15.2175 13.4939 15.1144C13.5987 15.0113 13.6822 14.8885 13.7396 14.7531C13.797 14.6177 13.8271 14.4723 13.8283 14.3253C13.8273 14.1781 13.7974 14.0325 13.7401 13.8969C13.6828 13.7613 13.5994 13.6383 13.4946 13.535C13.3897 13.4316 13.2655 13.35 13.1291 13.2947C12.9927 13.2394 12.8467 13.2116 12.6995 13.2128ZM15.5923 10.447C15.4653 10.446 15.3393 10.4701 15.2216 10.5178C15.1038 10.5656 14.9967 10.636 14.9062 10.7252C14.8157 10.8143 14.7436 10.9204 14.6941 11.0374C14.6446 11.1544 14.6187 11.28 14.6177 11.407C14.6177 11.937 15.0533 12.3671 15.5923 12.3671C15.7193 12.368 15.8453 12.344 15.963 12.2962C16.0807 12.2485 16.1879 12.178 16.2784 12.0889C16.3689 11.9998 16.4409 11.8937 16.4904 11.7767C16.5399 11.6597 16.5659 11.5341 16.5668 11.407C16.5659 11.28 16.5399 11.1544 16.4904 11.0374C16.4409 10.9204 16.3689 10.8143 16.2784 10.7252C16.1879 10.636 16.0807 10.5656 15.963 10.5178C15.8453 10.4701 15.7193 10.446 15.5923 10.447ZM18.6521 8.47067C18.431 8.46922 18.2183 8.55553 18.0608 8.71068C17.9033 8.86583 17.8137 9.07713 17.8118 9.29822C17.8142 9.519 17.904 9.72984 18.0614 9.88459C18.2189 10.0393 18.4313 10.1254 18.6521 10.124C18.8728 10.1254 19.0852 10.0393 19.2427 9.88459C19.4002 9.72984 19.4899 9.519 19.4923 9.29822C19.4904 9.07713 19.4009 8.86583 19.2433 8.71068C19.0858 8.55553 18.8732 8.46922 18.6521 8.47067ZM22.1184 6.94804C21.9916 6.94708 21.8658 6.97111 21.7483 7.01874C21.6308 7.06638 21.5239 7.1367 21.4335 7.22568C21.3432 7.31466 21.2713 7.42056 21.2219 7.53733C21.1725 7.65411 21.1466 7.77947 21.1456 7.90626C21.1456 8.43437 21.5812 8.86448 22.1202 8.86448C22.3761 8.86593 22.6222 8.76591 22.8045 8.58631C22.9868 8.40671 23.0905 8.16217 23.0929 7.90626C23.092 7.77947 23.066 7.65411 23.0167 7.53733C22.9673 7.42056 22.8953 7.31466 22.805 7.22568C22.7147 7.1367 22.6077 7.06638 22.4902 7.01874C22.3727 6.97111 22.247 6.94708 22.1202 6.94804H22.1184ZM26.1763 5.98619C25.879 5.98425 25.593 6.10026 25.3811 6.30879C25.1692 6.51732 25.0485 6.80136 25.0457 7.09867C25.0457 7.71389 25.5538 8.21115 26.1763 8.21115C26.4739 8.21357 26.7603 8.09777 26.9727 7.88919C27.185 7.68061 27.3059 7.39629 27.3087 7.09867C27.3075 6.95114 27.2773 6.8053 27.2198 6.66946C27.1622 6.53362 27.0785 6.41044 26.9733 6.30697C26.8681 6.2035 26.7436 6.12175 26.6069 6.0664C26.4701 6.01105 26.3238 5.98499 26.1763 5.98619ZM30.8404 5.78293C30.0291 5.78293 29.3722 6.429 29.3722 7.2257C29.3722 8.02241 30.0291 8.67211 30.8404 8.67211C31.6516 8.67211 32.3085 8.02422 32.3085 7.2257C32.3085 6.42719 31.6516 5.78293 30.8404 5.78293ZM35.5988 6.88996C35.1428 6.88706 34.7042 7.06493 34.379 7.38465C34.0539 7.70437 33.8686 8.1399 33.8638 8.59589C33.8638 9.53959 34.6406 10.3054 35.5988 10.3054C35.825 10.3071 36.0493 10.2642 36.2589 10.1792C36.4685 10.0942 36.6593 9.96875 36.8204 9.81C36.9815 9.65125 37.1097 9.46233 37.1978 9.25401C37.2859 9.04569 37.3321 8.82206 37.3338 8.59589C37.3295 8.13974 37.1444 7.70394 36.8191 7.38412C36.4938 7.0643 36.055 6.88658 35.5988 6.88996ZM40.0923 9.57407C38.9671 9.57407 38.0561 10.4724 38.0561 11.5776C38.0561 12.6829 38.9689 13.583 40.0923 13.583C41.2175 13.583 42.1285 12.6847 42.1285 11.5776C42.1285 10.4706 41.2175 9.57407 40.0923 9.57407ZM43.6638 14.0893C42.4479 14.0893 41.4607 15.0603 41.4607 16.2562C41.4607 17.454 42.4461 18.4249 43.6638 18.4249C44.8816 18.4249 45.867 17.454 45.867 16.2562C45.867 15.0584 44.8816 14.0893 43.6638 14.0893ZM45.7091 20.0401C44.7527 20.0401 43.9778 20.8023 43.9778 21.746C43.9778 22.6897 44.7527 23.4501 45.7091 23.4501C46.6674 23.4501 47.4423 22.6879 47.4423 21.7442C47.4423 20.8005 46.6674 20.0383 45.7091 20.0383V20.0401ZM54.5672 25.0036C54.5672 26.5716 53.2769 27.842 51.6817 27.842C50.0901 27.842 48.7998 26.5716 48.7998 25.0036C48.7998 23.4356 50.0901 22.1653 51.6835 22.1653C53.2769 22.1653 54.5672 23.4356 54.5672 25.0036Z" fill="#FA6400"/>
</g>
</g>
</g>
<defs>
<clipPath id="clip0_572_7559">
<rect width="351" height="50" fill="white"/>
</clipPath>
<clipPath id="clip1_572_7559">
<rect width="351" height="50" fill="white"/>
</clipPath>
</defs>
</svg>
