<svg width="81" height="81" viewBox="0 0 81 81" fill="none" xmlns="http://www.w3.org/2000/svg">
<circle cx="40.5" cy="40.5" r="40.5" fill="#0277EB"/>
<path d="M18.6296 53.4074V28.1481H57.7407V37.9259H59.3704V24.0741C59.3704 22.9936 58.9411 21.9573 58.1771 21.1933C57.4131 20.4292 56.3768 20 55.2963 20H21.0741C19.9936 20 18.9573 20.4292 18.1933 21.1933C17.4292 21.9573 17 22.9936 17 24.0741V53.4074C17 54.4879 17.4292 55.5242 18.1933 56.2882C18.9573 57.0522 19.9936 57.4815 21.0741 57.4815H44.7037V55.8519H21.0741C20.4258 55.8519 19.804 55.5943 19.3456 55.1359C18.8872 54.6775 18.6296 54.0557 18.6296 53.4074ZM51.2222 23.2593H56.1111V24.8889H51.2222V23.2593ZM44.7037 23.2593H49.5926V24.8889H44.7037V23.2593ZM56.1111 31.4074H46.3333V29.7778H56.1111V31.4074ZM46.3333 33.037H56.1111V34.6667H46.3333V33.037ZM46.3333 36.2963H56.1111V37.9259H46.3333V36.2963ZM34.1111 29.7778C34.3272 29.7778 34.5345 29.8636 34.6873 30.0164C34.8401 30.1692 34.9259 30.3765 34.9259 30.5926V33.8519C34.9259 34.068 34.8401 34.2752 34.6873 34.428C34.5345 34.5808 34.3272 34.6667 34.1111 34.6667H21.0741C20.858 34.6667 20.6507 34.5808 20.4979 34.428C20.3451 34.2752 20.2593 34.068 20.2593 33.8519V30.5926C20.2593 30.3765 20.3451 30.1692 20.4979 30.0164C20.6507 29.8636 20.858 29.7778 21.0741 29.7778H34.1111ZM44.7037 30.5926V33.8519C44.7037 34.068 44.6179 34.2752 44.465 34.428C44.3122 34.5808 44.105 34.6667 43.8889 34.6667H37.3704C37.1543 34.6667 36.947 34.5808 36.7942 34.428C36.6414 34.2752 36.5556 34.068 36.5556 33.8519V30.5926C36.5556 30.3765 36.6414 30.1692 36.7942 30.0164C36.947 29.8636 37.1543 29.7778 37.3704 29.7778H43.8889C44.105 29.7778 44.3122 29.8636 44.465 30.0164C44.6179 30.1692 44.7037 30.3765 44.7037 30.5926ZM44.7037 37.1111V40.3704C44.7037 40.5865 44.6179 40.7937 44.465 40.9465C44.3122 41.0993 44.105 41.1852 43.8889 41.1852H21.0741C20.858 41.1852 20.6507 41.0993 20.4979 40.9465C20.3451 40.7937 20.2593 40.5865 20.2593 40.3704V37.1111C20.2593 36.895 20.3451 36.6878 20.4979 36.5349C20.6507 36.3821 20.858 36.2963 21.0741 36.2963H43.8889C44.105 36.2963 44.3122 36.3821 44.465 36.5349C44.6179 36.6878 44.7037 36.895 44.7037 37.1111ZM44.7037 43.6296V53.4074C44.7037 53.6235 44.6179 53.8308 44.465 53.9836C44.3122 54.1364 44.105 54.2222 43.8889 54.2222H37.3704C37.1543 54.2222 36.947 54.1364 36.7942 53.9836C36.6414 53.8308 36.5556 53.6235 36.5556 53.4074V43.6296C36.5556 43.4135 36.6414 43.2063 36.7942 43.0535C36.947 42.9007 37.1543 42.8148 37.3704 42.8148H43.8889C44.105 42.8148 44.3122 42.9007 44.465 43.0535C44.6179 43.2063 44.7037 43.4135 44.7037 43.6296ZM34.9259 44.4444H20.2593V42.8148H34.9259V44.4444ZM34.9259 47.7037H20.2593V46.0741H34.9259V47.7037ZM34.9259 50.963H20.2593V49.3333H34.9259V50.963ZM20.2593 52.5926H34.9259V54.2222H20.2593V52.5926ZM56.6407 39.7511L62.3444 44.64C62.471 44.7483 62.5614 44.8927 62.6034 45.0539C62.6454 45.2151 62.6369 45.3853 62.5792 45.5415C62.5215 45.6978 62.4173 45.8326 62.2806 45.9278C62.144 46.023 61.9814 46.0741 61.8148 46.0741H56.1111C55.895 46.0741 55.6878 45.9882 55.5349 45.8354C55.3821 45.6826 55.2963 45.4754 55.2963 45.2593V40.3704C55.2959 40.2145 55.3402 40.0618 55.424 39.9304C55.5078 39.799 55.6275 39.6943 55.7689 39.6289C55.9107 39.5636 56.0682 39.5404 56.2227 39.5621C56.3773 39.5838 56.5224 39.6494 56.6407 39.7511ZM56.1111 46.8889C55.6789 46.8889 55.2644 46.7172 54.9588 46.4116C54.6532 46.106 54.4815 45.6915 54.4815 45.2593V39.5556H48.7778C48.1295 39.5556 47.5077 39.8131 47.0493 40.2715C46.5909 40.7299 46.3333 41.3517 46.3333 42V61.5556C46.3333 62.2039 46.5909 62.8256 47.0493 63.284C47.5077 63.7425 48.1295 64 48.7778 64H60.1852C60.8335 64 61.4552 63.7425 61.9137 63.284C62.3721 62.8256 62.6296 62.2039 62.6296 61.5556V46.8889H56.1111ZM58.5556 59.1111H50.4074V57.4815H58.5556V59.1111ZM58.5556 55.8519H50.4074V54.2222H58.5556V55.8519ZM58.5556 52.5926H50.4074V50.963H58.5556V52.5926Z" fill="white"/>
</svg>
