<svg width="81" height="81" viewBox="0 0 81 81" fill="none" xmlns="http://www.w3.org/2000/svg">
<circle cx="40.5" cy="40.5" r="40.5" fill="#0277EB"/>
<path d="M44.2907 50.1873C44.6411 49.5182 44.9446 48.7825 45.2009 47.9975C43.7902 47.3407 42.2543 46.9625 40.6572 46.8909V53.5429C42.0053 53.2881 43.2787 52.1193 44.2907 50.1873Z" fill="white"/>
<path d="M46.1625 42.0532H40.6572V45.7686C42.3619 45.8386 44.0037 46.2278 45.5175 46.9082C45.9014 45.4093 46.1228 43.7645 46.1625 42.0532Z" fill="white"/>
<path d="M45.5174 36.0767C44.0036 36.7571 42.3618 37.1463 40.6572 37.2164V40.932H46.1625C46.1228 39.2207 45.9013 37.5758 45.5174 36.0767Z" fill="white"/>
<path d="M44.2906 32.7979C43.2786 30.8658 42.0052 29.6972 40.6572 29.4424V36.0942C42.2541 36.0224 43.7901 35.6444 45.2008 34.9875C44.9444 34.2025 44.641 33.467 44.2906 32.7979Z" fill="white"/>
<path d="M30.9595 49.4219C31.7808 48.6349 32.685 47.9663 33.653 47.4242C33.2069 45.7699 32.9512 43.9471 32.9091 42.0532H28.0063C28.1353 44.8643 29.227 47.4284 30.9595 49.4219Z" fill="white"/>
<path d="M39.5358 29.4424C38.1877 29.6971 36.9144 30.8658 35.9025 32.7979C35.5519 33.467 35.2487 34.2025 34.9922 34.9874C36.4031 35.6443 37.9389 36.0224 39.5359 36.0942V29.4424H39.5358Z" fill="white"/>
<path d="M33.9864 48.5259C33.18 48.9996 32.4244 49.5712 31.7329 50.2339C33.0885 51.5315 34.7445 52.5173 36.5848 53.0762C35.3765 51.8476 34.5367 50.1523 33.9864 48.5259Z" fill="white"/>
<path d="M15.6572 38.793V59.9881C15.6572 62.0287 17.3174 63.6889 19.358 63.6889H20.143V35.0923H19.358C17.3174 35.0923 15.6572 36.7525 15.6572 38.793ZM18.4608 51.3531C18.4608 51.6628 18.2098 51.9138 17.9001 51.9138C17.5905 51.9138 17.3394 51.6628 17.3394 51.3531V47.4281C17.3394 47.1183 17.5905 46.8673 17.9001 46.8673C18.2098 46.8673 18.4608 47.1183 18.4608 47.4281V51.3531Z" fill="white"/>
<path d="M17.9001 25.5601C16.6635 25.5601 15.6572 26.5662 15.6572 27.8029C15.6572 29.0396 16.6635 30.0458 17.9001 30.0458C19.1368 30.0458 20.143 29.0396 20.143 27.8029C20.143 26.5662 19.1368 25.5601 17.9001 25.5601Z" fill="white"/>
<path d="M45.2834 50.7075C44.7853 51.6587 44.2207 52.4521 43.6074 53.0758C45.4477 52.5168 47.1041 51.5309 48.4599 50.2329C47.7682 49.5698 47.0127 48.998 46.206 48.5244C45.9426 49.3028 45.6353 50.0357 45.2834 50.7075Z" fill="white"/>
<path d="M46.2059 34.4601C47.0123 33.9864 47.7679 33.4145 48.4595 32.7514C47.1038 31.4537 45.4477 30.4679 43.6074 29.9089C44.8159 31.1378 45.6557 32.8336 46.2059 34.4601Z" fill="white"/>
<path d="M52.1862 42.0532H47.2835C47.2415 43.9467 46.9859 45.7691 46.54 47.4231C47.5081 47.9652 48.4123 48.6341 49.2337 49.4214C50.9658 47.4279 52.0575 44.8641 52.1862 42.0532Z" fill="white"/>
<path d="M49.2336 33.5632C48.4123 34.3505 47.5081 35.0193 46.54 35.5615C46.986 37.2156 47.2416 39.0381 47.2837 40.9317H52.1865C52.059 38.1479 50.9841 35.5776 49.2336 33.5632Z" fill="white"/>
<path d="M61.2992 35.0923H60.5142V63.6889H61.2992C63.3397 63.6889 64.9999 62.0287 64.9999 59.9881V38.793C64.9999 36.7525 63.3397 35.0923 61.2992 35.0923ZM63.3177 51.3531C63.3177 51.6628 63.0668 51.9138 62.757 51.9138C62.4474 51.9138 62.1963 51.6628 62.1963 51.3531V47.4281C62.1963 47.1183 62.4474 46.8673 62.757 46.8673C63.0668 46.8673 63.3177 47.1183 63.3177 47.4281V51.3531Z" fill="white"/>
<path d="M39.5357 53.5429V46.8909C37.9394 46.9629 36.4034 47.3414 34.9922 47.9984C35.2485 48.7831 35.5518 49.5185 35.9022 50.1874C36.9143 52.1194 38.1875 53.2882 39.5357 53.5429Z" fill="white"/>
<path d="M49.719 50.5545C49.6976 50.5858 49.6727 50.6154 49.6441 50.6427C49.6328 50.6535 49.6197 50.6614 49.6079 50.6711C48.4232 51.8983 47.0038 52.8975 45.4229 53.596H49.3C49.6098 53.596 49.8607 53.8469 49.8607 54.1567V58.0817C49.8607 58.3914 49.6098 58.6424 49.3 58.6424C48.9904 58.6424 48.7393 58.3914 48.7393 58.0817V54.7174H31.9178V58.0817C31.9178 58.3914 31.6668 58.6424 31.3571 58.6424C31.0474 58.6424 30.7964 58.3914 30.7964 58.0817V54.1567C30.7964 53.8469 31.0474 53.596 31.3571 53.596H34.7698C27.5976 50.4272 24.7891 41.8221 28.5268 35.0923H21.2642V63.6889H59.3929V35.0923H51.6659C54.4077 40.029 53.7336 46.2941 49.719 50.5545Z" fill="white"/>
<path d="M63.3179 26.6814C64.2454 26.6814 65 25.9268 65 24.9993C65 24.0718 64.2454 23.3171 63.3179 23.3171C62.3904 23.3171 61.6357 24.0718 61.6357 24.9993C61.6357 25.9268 62.3904 26.6814 63.3179 26.6814Z" fill="white"/>
<path d="M28.0063 40.9318H32.9091C32.9512 39.0382 33.2068 37.2156 33.6528 35.5615C32.6849 35.0194 31.7808 34.3505 30.9593 33.5632C29.2999 35.4728 28.1401 38.0142 28.0063 40.9318Z" fill="white"/>
<path d="M39.5356 42.0532H34.0303C34.07 43.7648 34.2913 45.4098 34.6754 46.9089C36.1896 46.2281 37.8317 45.8388 39.5356 45.7686V42.0532Z" fill="white"/>
<path d="M39.5356 37.2162C37.8309 37.1462 36.1891 36.757 34.6754 36.0764C34.2913 37.5755 34.07 39.2205 34.0303 40.9319H39.5356V37.2162Z" fill="white"/>
<path d="M36.585 29.9092C34.7449 30.4681 33.0886 31.4538 31.7329 32.7516C32.4245 33.4146 33.18 33.9864 33.9864 34.4601C34.5366 32.8341 35.3763 31.1383 36.585 29.9092Z" fill="white"/>
<path d="M62.4768 17.7102C62.9413 17.7102 63.3179 17.3337 63.3179 16.8692C63.3179 16.4046 62.9413 16.0281 62.4768 16.0281C62.0123 16.0281 61.6357 16.4046 61.6357 16.8692C61.6357 17.3337 62.0123 17.7102 62.4768 17.7102Z" fill="white"/>
<path d="M54.6267 26.6814C55.0912 26.6814 55.4678 26.3049 55.4678 25.8403C55.4678 25.3758 55.0912 24.9993 54.6267 24.9993C54.1622 24.9993 53.7856 25.3758 53.7856 25.8403C53.7856 26.3049 54.1622 26.6814 54.6267 26.6814Z" fill="white"/>
<path d="M63.0379 31.7283C63.5024 31.7283 63.8789 31.3517 63.8789 30.8872C63.8789 30.4227 63.5024 30.0461 63.0379 30.0461C62.5733 30.0461 62.1968 30.4227 62.1968 30.8872C62.1968 31.3517 62.5733 31.7283 63.0379 31.7283Z" fill="white"/>
<path d="M29.9553 17.1494C30.4198 17.1494 30.7964 16.7729 30.7964 16.3084C30.7964 15.8438 30.4198 15.4673 29.9553 15.4673C29.4908 15.4673 29.1143 15.8438 29.1143 16.3084C29.1143 16.7729 29.4908 17.1494 29.9553 17.1494Z" fill="white"/>
<path d="M25.4695 30.6067C25.934 30.6067 26.3106 30.2302 26.3106 29.7656C26.3106 29.3011 25.934 28.9246 25.4695 28.9246C25.005 28.9246 24.6284 29.3011 24.6284 29.7656C24.6284 30.2302 25.005 30.6067 25.4695 30.6067Z" fill="white"/>
<path d="M15.3767 20.5137C15.8412 20.5137 16.2178 20.1371 16.2178 19.6726C16.2178 19.2081 15.8412 18.8315 15.3767 18.8315C14.9122 18.8315 14.5356 19.2081 14.5356 19.6726C14.5356 20.1371 14.9122 20.5137 15.3767 20.5137Z" fill="white"/>
<path d="M59.3933 19.3926H45.3753C45.0657 19.3926 44.8146 19.6437 44.8146 19.9533V24.5227L43.5703 22.9673C43.3768 22.7256 43.0241 22.6863 42.7822 22.8797C42.5405 23.0731 42.5012 23.426 42.6946 23.6678L44.9375 26.4714C45.1618 26.7518 45.589 26.7519 45.8132 26.4714L48.0561 23.6678C48.2497 23.426 48.2104 23.0731 47.9686 22.8797C47.727 22.6862 47.3739 22.7255 47.1805 22.9673L45.936 24.5227V20.514H59.3933C59.703 20.514 59.954 20.2629 59.954 19.9533C59.954 19.6437 59.703 19.3926 59.3933 19.3926Z" fill="white"/>
<path d="M34.1605 24.5227L32.9162 22.9673C32.7227 22.7256 32.37 22.6863 32.1281 22.8797C31.8864 23.0731 31.8471 23.426 32.0406 23.6678L34.2834 26.4714C34.5076 26.7518 34.9349 26.7519 35.1591 26.4714L37.402 23.6678C37.5956 23.426 37.5563 23.0731 37.3145 22.8797C37.0729 22.6862 36.7197 22.7255 36.5264 22.9673L35.2819 24.5227V19.9533C35.2819 19.6437 35.031 19.3926 34.7212 19.3926H20.7033C20.3937 19.3926 20.1426 19.6437 20.1426 19.9533C20.1426 20.2629 20.3937 20.514 20.7033 20.514H34.1605V24.5227Z" fill="white"/>
</svg>
