<svg width="24" height="24" viewBox="0 0 24 24" fill="none" xmlns="http://www.w3.org/2000/svg">
<path d="M12.6816 3.31162L15.0432 7.62201C15.0981 7.72336 15.1747 7.81123 15.2677 7.8793C15.3606 7.94737 15.4676 7.99391 15.5808 8.01559L20.3808 8.9276C20.5177 8.95353 20.6451 9.01577 20.7496 9.10777C20.8542 9.19979 20.9322 9.31821 20.9754 9.45067C21.0185 9.58312 21.0253 9.7247 20.995 9.86073C20.9647 9.99667 20.8985 10.122 20.8032 10.2236L17.4336 13.8044C17.3552 13.8885 17.2965 13.989 17.2616 14.0986C17.2268 14.2081 17.2167 14.3241 17.232 14.438L17.8464 19.3148C17.8654 19.4524 17.8467 19.5926 17.7923 19.7204C17.738 19.8483 17.6499 19.959 17.5376 20.0408C17.4253 20.1225 17.2929 20.1723 17.1546 20.1848C17.0162 20.1972 16.8771 20.172 16.752 20.1116L12.3072 18.0188C12.2029 17.9665 12.0878 17.9392 11.9712 17.9392C11.8545 17.9392 11.7394 17.9665 11.6352 18.0188L7.19036 20.1116C7.06464 20.171 6.92532 20.1956 6.78688 20.1828C6.64844 20.1701 6.51597 20.1203 6.40324 20.039C6.29051 19.9576 6.20162 19.8475 6.14589 19.7201C6.09016 19.5928 6.06962 19.4529 6.08636 19.3148L6.71036 14.438C6.72568 14.3241 6.71556 14.2081 6.68071 14.0986C6.64585 13.989 6.58712 13.8885 6.50876 13.8044L3.13915 10.2236C3.04385 10.122 2.97761 9.99667 2.94732 9.86073C2.91703 9.7247 2.92381 9.58312 2.96698 9.45067C3.01015 9.31821 3.08812 9.19979 3.19271 9.10777C3.2973 9.01577 3.42468 8.95353 3.56156 8.9276L8.36156 8.01559C8.47474 7.99391 8.58168 7.94737 8.67466 7.8793C8.76763 7.81123 8.84431 7.72336 8.89915 7.62201L11.3088 3.31162C11.375 3.18713 11.474 3.083 11.5948 3.01039C11.7158 2.93779 11.8541 2.89941 11.9952 2.89941C12.1362 2.89941 12.2746 2.93779 12.3955 3.01039C12.5164 3.083 12.6153 3.18713 12.6816 3.31162Z" stroke="#27A7E2" stroke-width="2.6" stroke-linecap="round" stroke-linejoin="round"/>
</svg>
