<svg width="24" height="24" viewBox="0 0 24 24" fill="none" xmlns="http://www.w3.org/2000/svg">
<path d="M12.6816 3.31211L15.0432 7.6225C15.0981 7.72385 15.1747 7.81171 15.2678 7.87979C15.3607 7.94786 15.4676 7.9944 15.5808 8.01608L20.3808 8.92809C20.5177 8.95402 20.6451 9.01626 20.7496 9.10826C20.8543 9.20028 20.9322 9.3187 20.9754 9.45115C21.0185 9.58361 21.0254 9.72519 20.995 9.86122C20.9648 9.99715 20.8985 10.1225 20.8032 10.2241L17.4336 13.8049C17.3553 13.889 17.2965 13.9895 17.2617 14.099C17.2268 14.2086 17.2167 14.3245 17.232 14.4385L17.8464 19.3153C17.8654 19.4529 17.8467 19.5931 17.7924 19.7209C17.738 19.8488 17.65 19.9595 17.5377 20.0413C17.4254 20.1229 17.293 20.1728 17.1546 20.1853C17.0163 20.1977 16.8772 20.1725 16.752 20.1121L12.3072 18.0193C12.203 17.967 12.0878 17.9397 11.9712 17.9397C11.8546 17.9397 11.7395 17.967 11.6352 18.0193L7.19041 20.1121C7.06469 20.1715 6.92537 20.1961 6.78693 20.1833C6.64849 20.1706 6.51602 20.1208 6.40328 20.0395C6.29055 19.9581 6.20166 19.848 6.14594 19.7206C6.09021 19.5933 6.06966 19.4533 6.08641 19.3153L6.71041 14.4385C6.72573 14.3245 6.71561 14.2086 6.68075 14.099C6.64589 13.9895 6.58716 13.889 6.50881 13.8049L3.1392 10.2241C3.0439 10.1225 2.97766 9.99715 2.94737 9.86122C2.91707 9.72519 2.92386 9.58361 2.96702 9.45115C3.01019 9.3187 3.08816 9.20028 3.19276 9.10826C3.29735 9.01626 3.42473 8.95402 3.56161 8.92809L8.36161 8.01608C8.47478 7.9944 8.58173 7.94786 8.6747 7.87979C8.76768 7.81171 8.84435 7.72385 8.8992 7.6225L11.3088 3.31211C11.375 3.18761 11.474 3.08349 11.5949 3.01088C11.7158 2.93827 11.8542 2.8999 11.9952 2.8999C12.1362 2.8999 12.2747 2.93827 12.3955 3.01088C12.5165 3.08349 12.6154 3.18761 12.6816 3.31211Z" stroke="#27A7E2" stroke-width="2.6" stroke-linecap="round" stroke-linejoin="round"/>
</svg>
