<svg width="24" height="24" viewBox="0 0 24 24" fill="none" xmlns="http://www.w3.org/2000/svg">
<path d="M19.3172 16.4035C18.7306 15.8164 18.0451 15.3372 17.2922 14.9879C18.354 14.1277 19.0313 12.8152 19.0313 11.3433C19.0313 8.74645 16.8657 6.61598 14.2688 6.65582C11.7118 6.69567 9.65162 8.77926 9.65162 11.3433C9.65162 12.8152 10.3313 14.1277 11.3907 14.9879C10.6377 15.3369 9.95214 15.8161 9.36568 16.4035C8.086 17.6855 7.35943 19.3777 7.31256 21.1824C7.31193 21.2074 7.31632 21.2323 7.32546 21.2556C7.33461 21.2789 7.34832 21.3001 7.36579 21.318C7.38327 21.3359 7.40415 21.3502 7.42721 21.3599C7.45027 21.3696 7.47504 21.3746 7.50006 21.3746H8.81256C8.91334 21.3746 8.99772 21.2949 9.00006 21.1941C9.04459 19.8347 9.59537 18.5621 10.5633 17.5964C11.0587 17.0985 11.6478 16.7037 12.2968 16.435C12.9457 16.1662 13.6414 16.0289 14.3438 16.0308C15.7712 16.0308 17.1141 16.5863 18.1243 17.5964C19.0899 18.5621 19.6407 19.8347 19.6876 21.1941C19.6899 21.2949 19.7743 21.3746 19.8751 21.3746H21.1876C21.2126 21.3746 21.2374 21.3696 21.2604 21.3599C21.2835 21.3502 21.3044 21.3359 21.3218 21.318C21.3393 21.3001 21.353 21.2789 21.3622 21.2556C21.3713 21.2323 21.3757 21.2074 21.3751 21.1824C21.3282 19.3777 20.6016 17.6855 19.3172 16.4035ZM14.3438 14.3433C13.5422 14.3433 12.7876 14.0316 12.2227 13.4644C11.9392 13.1832 11.7153 12.8477 11.5643 12.4781C11.4133 12.1084 11.3383 11.7121 11.3438 11.3129C11.3508 10.5441 11.6579 9.80114 12.1946 9.25035C12.7571 8.67379 13.5094 8.3527 14.3133 8.34332C15.1079 8.33629 15.879 8.64567 16.4462 9.20114C17.0274 9.77067 17.3462 10.5324 17.3462 11.3433C17.3462 12.1449 17.0344 12.8972 16.4672 13.4644C16.189 13.744 15.858 13.9657 15.4935 14.1165C15.1291 14.2674 14.7383 14.3445 14.3438 14.3433ZM8.47272 11.9621C8.45162 11.7582 8.4399 11.5519 8.4399 11.3433C8.4399 10.9707 8.47506 10.6074 8.54068 10.2535C8.55709 10.1691 8.51256 10.0824 8.43521 10.0472C8.11647 9.90426 7.8235 9.70739 7.57037 9.45895C7.27211 9.16975 7.0374 8.82155 6.88123 8.43656C6.72506 8.05158 6.65085 7.63828 6.66334 7.22301C6.68443 6.47067 6.98678 5.75582 7.51412 5.21676C8.09303 4.62379 8.87115 4.30035 9.6985 4.30973C10.4462 4.31676 11.168 4.60504 11.7141 5.11598C11.8993 5.28942 12.0587 5.4816 12.1922 5.68785C12.2391 5.76051 12.3305 5.79098 12.4102 5.76285C12.8227 5.61989 13.2587 5.5191 13.7063 5.47223C13.8376 5.45817 13.9126 5.31754 13.854 5.20035C13.0922 3.69332 11.536 2.6527 9.736 2.62457C7.13678 2.58473 4.97115 4.7152 4.97115 7.30973C4.97115 8.7816 5.6485 10.0941 6.71022 10.9543C5.9649 11.2988 5.27818 11.7746 4.68287 12.3699C3.3985 13.6519 2.67193 15.3441 2.62506 17.1511C2.62443 17.1761 2.62882 17.201 2.63796 17.2243C2.64711 17.2476 2.66082 17.2688 2.67829 17.2868C2.69576 17.3047 2.71665 17.3189 2.73971 17.3286C2.76277 17.3383 2.78754 17.3433 2.81256 17.3433H4.1274C4.22818 17.3433 4.31256 17.2636 4.3149 17.1629C4.35943 15.8035 4.91022 14.5308 5.87818 13.5652C6.56725 12.8761 7.411 12.398 8.33209 12.166C8.4235 12.1425 8.48443 12.0558 8.47272 11.9621Z" fill="#27A7E2"/>
</svg>
