<svg width="177" height="41" viewBox="0 0 177 41" fill="none" xmlns="http://www.w3.org/2000/svg">
<g clip-path="url(#clip0_572_7494)">
<g clip-path="url(#clip1_572_7494)">
<g clip-path="url(#clip2_572_7494)">
<mask id="mask0_572_7494" style="mask-type:luminance" maskUnits="userSpaceOnUse" x="-1" y="0" width="220" height="50">
<path d="M218.57 0.5H-0.00952148V49.5H218.57V0.5Z" fill="white"/>
</mask>
<g mask="url(#mask0_572_7494)">
<path d="M147.555 38.7226H156.146V23.0273C156.146 19.4458 158.239 16.9122 161.324 16.9122C164.299 16.9122 165.84 19.0048 165.84 21.9795V38.7226H174.431V20.3282C174.431 14.1028 170.686 9.69723 164.627 9.69723C160.773 9.69723 158.074 11.3486 156.036 14.3786H155.87V10.5243H147.555V38.7226ZM130.702 9.75238C121.725 9.75238 115.721 16.1954 115.721 24.6786C115.721 33.1068 121.723 39.6049 130.702 39.6049C139.682 39.6049 145.684 33.1068 145.684 24.6786C145.684 16.1982 139.682 9.75238 130.702 9.75238ZM130.647 33.2693C126.572 33.2693 124.424 29.8562 124.424 24.6786C124.424 19.4458 126.572 16.088 130.647 16.088C134.722 16.088 136.979 19.4488 136.979 24.6786C136.983 29.8562 134.725 33.2693 130.647 33.2693ZM91.2689 38.7226H115.393V31.9488H101.735V31.7834L114.786 17.1327V10.5243H91.2689V17.2982H104.486V17.4636L91.2689 32.2244V38.7226ZM80.2525 38.7226H88.8979V10.5243H80.2525V38.7226ZM60.2066 38.7226H68.7972V25.7815C68.7972 19.887 72.3234 17.2982 77.7187 18.0151H77.8841V10.5795C77.4431 10.4141 76.9467 10.3589 76.1225 10.3589C72.7617 10.3589 70.5038 11.9 68.5766 15.2057H68.4113V10.5243H60.2066V38.7226ZM44.3981 33.3274C40.599 33.3274 38.2859 30.8488 37.8447 27.0498H58.1663C58.2214 20.9898 56.6252 16.1432 53.2644 13.116C50.8962 10.9132 47.7559 9.70011 43.7915 9.70011C35.3111 9.70011 29.4166 16.1432 29.4166 24.5712C29.4166 33.0516 35.0354 39.5526 44.3429 39.5526C47.8691 39.5526 50.6756 38.6152 52.9887 37.019C55.4672 35.3125 57.2289 32.8339 57.7252 30.3555H49.4653C48.6411 32.2244 46.9317 33.3274 44.3981 33.3274ZM43.9598 15.8674C46.9898 15.8674 49.0823 18.1254 49.4131 21.431H37.9028C38.5616 18.0702 40.3784 15.8674 43.9598 15.8674ZM80.2525 0.5H88.8979V8.1561H80.2525V0.5Z" fill="#F50A23"/>
<path d="M-0.00952148 10.5243L10.6823 38.3742C10.7637 38.5861 10.9668 38.7255 11.1932 38.7255H19.868C19.6416 38.7255 19.4385 38.5861 19.3572 38.3742L8.66532 10.5243H-0.00952148Z" fill="url(#paint0_radial_572_7494)"/>
<path d="M31.0704 10.5244L20.3785 38.3744C20.2973 38.5862 20.0941 38.7256 19.8677 38.7256H11.1929C11.4193 38.7256 11.6224 38.5862 11.7037 38.3744L22.3956 10.5244H31.0704Z" fill="#F50A23"/>
</g>
</g>
</g>
</g>
<defs>
<radialGradient id="paint0_radial_572_7494" cx="0" cy="0" r="1" gradientUnits="userSpaceOnUse" gradientTransform="translate(15.3752 29.0031) rotate(-90) scale(13.3793 12.1379)">
<stop stop-color="#F5FF1E"/>
<stop offset="1" stop-color="#F50A23"/>
</radialGradient>
<clipPath id="clip0_572_7494">
<rect width="176.211" height="40.2309" fill="white"/>
</clipPath>
<clipPath id="clip1_572_7494">
<rect width="219" height="50" fill="white"/>
</clipPath>
<clipPath id="clip2_572_7494">
<rect width="219" height="50" fill="white"/>
</clipPath>
</defs>
</svg>
